<svg width="502" height="211" viewBox="0 0 502 211" fill="none" xmlns="http://www.w3.org/2000/svg">
<path d="M24.4928 87.8729C24.806 88.1741 26.4811 88.3792 27.8552 88.2847C28.2446 88.2579 29.3179 87.6352 30.2409 86.9005C31.1635 86.1659 31.9834 85.5648 32.0632 85.5648C32.1427 85.5648 32.141 86.0216 32.0592 86.5796C31.8825 87.7818 32.7317 88.9041 33.8174 88.9041C36.5259 88.9041 40.2964 86.5462 41.0007 84.4124C41.5266 82.8189 40.9352 80.841 39.5047 79.4108C38.578 78.4841 37.877 78.1655 35.7615 77.7094C29.6759 76.397 23.9458 73.9884 19.9282 71.0538C18.4709 69.9892 18.3771 69.8249 18.2328 68.0821C18.0528 65.9123 17.5643 65.195 16.2669 65.195C15.3462 65.195 15.0444 65.401 14.1962 66.6072C13.8248 67.1355 13.6355 67.0663 11.9798 65.7971C8.6381 63.2358 6.61377 62.1896 4.99984 62.1896C2.24319 62.1896 0.254587 64.1868 0.272953 66.9374C0.290986 69.6373 2.42952 72.1247 7.86269 75.7659C10.2253 77.3491 10.6177 77.7461 10.6177 78.5532C10.6177 79.1944 10.9453 79.7704 11.6452 80.3591C12.8875 81.4047 14.0516 81.4631 14.9876 80.5271C15.598 79.9167 15.8037 79.8803 16.6549 80.2329C17.5522 80.6046 17.61 80.7325 17.4187 81.9293C17.1759 83.447 17.5997 84.1102 19.2526 84.8011C19.8694 85.0592 20.3202 85.3077 20.2545 85.3537C21.0559 86.1068 23.414 87.347 24.4928 87.8729Z" fill="#15002E"/>
<path fill-rule="evenodd" clip-rule="evenodd" d="M16.0863 28.691C16.7611 26.9238 17.802 25.8886 19.5188 25.2765C19.6199 25.2405 19.7136 25.2068 19.8009 25.1754C20.417 24.9539 20.7139 24.8473 21.0132 24.8398C21.2914 24.8328 21.5718 24.9116 22.1128 25.0636L22.1136 25.0638C22.1957 25.0868 22.2837 25.1116 22.3786 25.1379C23.8757 25.5537 25.4833 26.8473 26.1819 28.1984C26.464 28.7441 27.1343 31.5748 27.6716 34.489C28.7625 40.4056 29.1095 41.574 31.1666 46.2554C32.9892 50.4032 35.119 53.8664 38.2187 57.7223C41.2137 61.4483 41.6692 62.2928 41.6719 64.1264C41.6772 67.8574 38.2103 70.1926 32.6576 70.1983C30.3761 70.2003 27.9825 69.7007 27.9825 69.2225C27.9825 69.0672 28.7338 68.367 29.6521 67.6667C30.5705 66.9665 31.3218 66.2829 31.3218 66.148C31.3218 65.602 30.6787 65.5676 29.6899 66.0612C27.8188 66.9945 25.3594 65.8575 24.428 63.6285C23.862 62.2744 24.254 61.2983 25.4876 60.9885C25.5377 60.9759 25.5853 60.9642 25.6302 60.9531C25.9679 60.87 26.161 60.8225 26.2276 60.7039C26.3166 60.5455 26.18 60.2604 25.861 59.5945C25.8293 59.5282 25.7957 59.4583 25.7604 59.3842C25.2195 58.2499 25.175 58.2298 23.6002 58.4165C21.5729 58.6566 20.6418 58.0939 19.6387 56.0216C18.9444 54.5877 18.9324 54.4434 19.4413 53.6667C19.7395 53.2119 20.2969 52.8395 20.6796 52.8395C21.2526 52.8395 21.3394 52.6939 21.1701 52.0194C20.6221 49.8355 20.3566 49.5002 19.1758 49.5002C18.2932 49.5002 17.8054 49.2404 17.029 48.3562C16.4766 47.727 15.925 46.7593 15.8034 46.2053C15.5937 45.2503 16.0422 43.8294 16.5568 43.8184C16.688 43.8154 16.9876 43.6915 17.222 43.5425C17.5586 43.3288 17.4684 42.6085 16.7935 40.1248C15.6391 35.8778 15.3192 30.7002 16.0863 28.691ZM124.626 64.5939C125.26 63.3751 126.427 62.3295 127.832 61.7198C129.42 61.0315 130.955 61.0649 132.435 61.8203C133.965 62.6013 134.668 63.3597 135.331 64.9459C136.777 68.4087 134.677 72.0987 130.74 73.0123C128.707 73.4838 125.725 71.9344 124.645 69.847C124.025 68.6465 124.014 65.7697 124.626 64.5939ZM72.5745 84.9333C70.4964 82.0017 71.6228 77.6563 74.8393 76.1957C78.7544 74.4185 82.7623 76.5346 83.6219 80.8333C84.043 82.9391 82.4167 85.7067 80.0481 86.9152C77.3755 88.2786 74.3835 87.4852 72.5745 84.9333ZM109.521 89.2501C115.788 87.5978 122.113 84.6438 125.729 81.6795C126.931 80.6941 128.039 79.888 128.191 79.888C128.982 79.888 130.168 80.7535 130.511 81.5813C131.134 83.0843 130.384 84.7029 127.958 87.0932C123.037 91.9425 113.938 95.8833 104.423 97.2861C100.756 97.8271 92.6415 97.8227 89.2601 97.2784C85.2314 96.6299 84.084 95.8288 84.084 93.665C84.084 91.5495 84.2553 91.5004 91.9579 91.4062C99.2248 91.3174 103.817 90.7534 109.521 89.2501Z" fill="#15002E"/>
<path d="M159.468 118.525L121.105 136.703V180.597L160.08 160.746L159.468 118.525Z" fill="#15002E"/>
<path fill-rule="evenodd" clip-rule="evenodd" d="M121.105 136.703V180.597L160.08 160.746L159.468 118.525L121.105 136.703Z" fill="#15002E"/>
<path fill-rule="evenodd" clip-rule="evenodd" d="M111.809 2.48003C112.198 1.84222 113.08 1.10423 113.895 0.734238C115.72 -0.0945796 116.601 -0.0822253 118.417 0.796682C120.084 1.60379 121.604 3.51188 122.7 6.17298C123.267 7.55111 123.616 7.95951 124.397 8.16187C126.245 8.64073 126.767 11.4017 125.29 12.8793C124.452 13.7168 124.434 13.8133 124.821 15.4239C125.174 16.8975 125.296 17.0588 125.836 16.7696C126.721 16.2964 127.078 16.3572 127.83 17.1089C128.279 17.5577 128.498 18.2219 128.498 19.1345C128.498 20.8446 128.074 21.6403 126.818 22.2898C125.942 22.743 125.826 22.9774 125.826 24.3008V25.7991L127.095 25.5961C128.656 25.3466 129.312 25.9828 129.263 27.7018C129.22 29.2162 128.239 30.5279 126.887 30.8782C125.906 31.1327 125.826 31.2589 125.826 32.5669C125.826 33.7119 125.969 34.0445 126.578 34.3144C127.34 34.6523 127.44 35.0861 127.04 36.3373C126.86 36.904 127.197 37.3368 128.866 38.6748C129.992 39.5781 130.994 40.3171 131.093 40.3171C131.44 40.3171 132.529 36.6041 133.349 32.6247C133.892 29.9889 134.276 26.6483 134.464 22.9293C134.818 15.8964 135.238 14.8812 138.32 13.5933C140.089 12.8543 141.798 13.2032 143.486 14.6485C146.08 16.8685 146.476 20.8897 145.004 30.0487C144.815 31.2235 144.868 31.4679 145.311 31.4679C145.606 31.4679 146.098 31.8503 146.404 32.3178C146.868 33.0254 146.898 33.3773 146.587 34.4169C146.11 36.0077 145.054 37.1448 144.054 37.1448C143.059 37.1448 142.542 37.7749 142.296 39.2856C142.118 40.3856 142.169 40.4841 142.914 40.4841C144.517 40.4841 144.994 41.9507 144.01 43.8544C143.398 45.0379 142.098 45.6129 140.65 45.3411C139.719 45.1668 139.558 45.2576 139.18 46.1703C138.775 47.1483 138.811 47.2468 139.971 48.3094C141.266 49.4949 141.385 49.8418 140.848 50.845C140.582 51.3428 140.732 51.8384 141.547 53.1641L142.585 54.8505L143.881 53.8243C145.474 52.5627 148.588 49.1656 149.941 47.2155C150.999 45.6897 151.084 45.2019 150.692 42.9084C150.528 41.9457 150.584 41.3309 150.869 40.9883C151.411 40.3355 153.018 40.3401 153.673 40.996C154.133 41.4555 154.284 41.3282 155.16 39.7437C158.087 34.4493 159.16 33.4158 161.733 33.4158C165.806 33.4158 167.468 37.7054 165.228 42.4402C164.676 43.6077 163.393 45.7689 162.378 47.2425C160.623 49.7904 160.56 49.9527 161.097 50.5468C161.994 51.5379 161.226 53.6092 159.551 54.7179C158.4 55.4799 158.113 55.5397 157.178 55.2138C155.739 54.7119 155.71 54.7196 155.252 55.7247C154.902 56.4944 154.945 56.7074 155.595 57.3994C156.568 58.4342 156.166 59.7175 154.58 60.6438L153.45 61.304L151.988 60.5283C151.184 60.1019 150.428 59.8504 150.309 59.9696C150.189 60.0888 150.258 60.7273 150.461 61.3885C150.683 62.1111 150.716 62.8892 150.545 63.3397C150.237 64.1481 148.492 65.0444 147.767 64.7662C147.426 64.6353 147.477 65.1903 147.987 67.1491C148.352 68.554 148.697 69.7622 148.752 69.8343C148.929 70.0664 152.985 68.4729 154.879 67.4266C158.454 65.4518 158.559 65.3392 158.48 63.5397C158.439 62.589 158.593 61.7081 158.856 61.3912C159.424 60.7069 161.343 60.6939 161.905 61.3705C162.141 61.6546 162.422 61.7675 162.53 61.6209C163.581 60.199 167.019 57.5086 168.187 57.194C170.947 56.4507 173.579 58.5528 173.579 61.4994C173.579 63.8679 172.127 65.8435 167.235 70.1318C163.855 73.0935 163.221 73.396 161.863 72.6937C160.485 71.9811 160.168 72.308 160.417 74.1861C160.623 75.7348 160.595 75.8023 159.468 76.4989C157.951 77.4359 157.041 77.4052 156.017 76.3817C154.709 75.0733 153.678 75.3128 154.241 76.7941C154.669 77.9218 154.378 78.7028 153.354 79.1693C152.199 79.6956 151.199 79.6519 150.529 79.0454C150.009 78.5746 149.953 78.7162 149.779 80.9655C149.675 82.3013 149.48 83.6741 149.346 84.016C149.346 87.3185 148.44 90.3189 147.987 91.4062L152.812 93.8443L163.612 99.3051C172.654 103.877 174.534 104.951 175.164 105.901L175.917 107.035V138.748V171.765L114.001 204.909C100.267 210.776 85.5811 212.397 70.052 209.759C54.5466 207.126 39.1033 198.916 28.4139 187.623C17.8915 176.507 11.0922 162.01 8.89523 146.006C8.63944 144.144 8.45977 139.594 8.45977 134.987C8.45977 130.379 8.63944 125.829 8.89523 123.967C9.86165 116.926 12.1394 108.578 14.6503 102.872L14.7558 102.632C15.7598 100.351 16.0113 99.7798 15.859 99.6359C15.808 99.5878 15.7119 99.5875 15.5837 99.5871C15.5706 99.587 15.5571 99.587 15.5433 99.5869C14.7832 99.5812 7.79924 96.0422 6.68189 95.0962C5.20321 93.8446 4.6068 92.5847 4.6068 90.7133C4.6068 88.7485 5.54316 87.1663 7.15909 86.3993C8.78102 85.6296 10.3338 85.9147 13.6762 87.5951L16.3564 88.9425C17.2015 89.3674 18.6394 90.0153 19.2526 90.2862C19.918 90.4859 20.7799 90.8391 21.7886 91.2526C24.1539 92.2219 27.3267 93.5223 30.667 93.9505C33.1772 94.2724 34.3954 94.2617 36.9747 93.8947C42.5662 93.0989 43.4047 93.4005 47.6848 97.7486C52.5423 102.683 57.0234 105.505 63.3121 107.589C73.194 110.863 88.4215 111.813 100.447 109.907C112.156 108.051 121.253 105.189 127.644 101.351C139.719 94.0991 145.247 83.3214 143.39 70.6558C142.39 63.8392 140.044 58.5461 135.236 52.2628C132.817 49.1018 128.423 44.8142 125.492 42.7545C120.519 39.2595 113.615 36.6025 105.515 35.0664C102.238 34.4453 100.469 34.3284 94.4361 34.3337C86.2509 34.3411 82.1435 34.845 75.6184 36.6419C64.3172 39.7541 55.9264 44.3563 48.6091 51.4554L45.6929 54.2844L44.3758 53.8901C42.8938 53.4459 41.34 51.8244 41.34 50.7217C41.34 50.3197 41.0368 49.4672 40.6657 48.827C38.8334 45.6643 38.7339 44.6552 40.2183 44.2825C40.7659 44.1453 40.9743 43.9039 40.8651 43.5342C40.7763 43.234 40.611 42.5985 40.4978 42.122C40.3285 41.4094 40.0189 41.2014 38.7603 40.9532C37.0075 40.6073 36.0865 39.6242 35.7869 37.7796C35.5418 36.2685 36.2668 35.4751 37.8931 35.4751C38.8328 35.4751 39.0325 35.3672 38.8712 34.9468C38.7596 34.6563 38.6685 33.9918 38.6685 33.4702C38.6685 32.6811 38.4708 32.4564 37.494 32.1338C36.0982 31.6733 35.3291 30.3893 35.3291 28.52C35.3291 27.031 35.7322 26.5668 37.1657 26.4049C38.0614 26.304 38.1786 26.1571 38.2724 25.0204C38.3602 23.9548 38.1843 23.5354 37.1871 22.4314C36.2658 21.4116 35.997 20.8295 35.997 19.8538C35.997 18.294 36.7837 17.1089 37.8189 17.1089C38.5179 17.1089 38.6591 16.8508 39.1413 14.6879C39.6646 12.342 40.8404 9.49592 41.745 8.3856C43.3029 6.47318 46.5801 5.85373 48.6061 7.08928C50.5683 8.28542 51.0756 9.52932 50.9213 12.7678C50.8468 14.3289 50.5269 17.184 50.21 19.1125C49.4286 23.8697 49.6293 30.9887 50.6765 35.6798L51.4306 39.0572L54.984 36.8753C63.2036 31.8286 72.3468 28.4779 81.9134 27.0069C87.567 26.1377 88.2673 26.0833 93.6867 26.09C101.306 26.0993 108.999 27.3185 113.834 29.2834L115.91 30.1269L115.691 26.3728C115.396 21.3094 114.524 17.1753 112.45 11.0013C110.573 5.41662 110.512 4.60583 111.809 2.48003ZM114.48 127.52L94.2764 118.958C86.4777 119.839 81.2638 120.296 74.4094 118.525C73.017 118.166 71.4172 117.752 69.4742 117.294L69.0568 139.875C69.0568 139.875 68.0695 141.711 78.2473 141.21V124.861L107.581 136.703L107.666 180.597L78.2462 166.289L78.2473 166.289L78.177 166.256L78.1761 166.3C74.8699 166.79 72.2138 166.783 69.0568 165.788V172.714L77.9394 177.442L107.666 191.906L114.001 195.308L121.105 191.906L169.238 167.213V109.907L143.625 96.6009L136.52 103.81L150.869 109.907L114.48 127.52ZM21.0536 110.276C22.3352 106.602 23.9588 102.963 24.7656 101.956C25.0759 101.568 25.1613 101.629 25.2415 102.29C25.4752 104.226 26.6724 105.267 28.666 105.267C29.5633 105.267 30.9879 104.294 30.9879 103.681C30.9879 103.543 31.946 103.43 33.1168 103.43C35.082 103.43 35.2857 103.5 35.7659 104.336C36.8208 106.174 39.3871 105.922 40.4908 103.873L41.1443 102.659L43.9971 105.563C48.0461 109.685 52.0046 112.176 58.3708 114.606L61.5432 115.818L61.5913 124.305L61.5945 124.861V124.861C61.6245 130.055 61.6362 132.087 61.2667 132.159C61.0291 132.205 60.6341 131.441 59.9851 130.187L59.8769 129.978C57.9003 126.161 54.7489 124.952 52.6368 127.2C52.011 127.866 51.859 128.398 51.859 129.925C51.859 131.558 52.0654 132.182 53.3507 134.428C56.3221 139.622 61.6481 144.333 67.124 146.613C67.7806 146.886 68.4183 147.126 69.0568 147.335C72.3112 148.4 75.5878 148.662 81.5097 148.456L82.4143 148.425L87.5904 148.246L89.3105 149.119C92.2869 150.629 93.1047 152.413 91.801 154.551C90.9575 155.934 88.7942 157.148 85.2121 158.249C82.4908 159.085 81.7952 159.16 76.7374 159.157C70.1615 159.153 67.7798 158.627 62.5013 156.013C56.6744 153.126 52.5466 149.859 48.2879 144.76C44.9695 140.787 43.186 140.065 41.5367 142.025C40.607 143.13 40.4784 144.127 41.0167 146.065C41.4428 147.6 43.5737 150.816 45.7169 153.161C46.2813 153.779 48.6271 155.471 51.3467 157.433C55.9172 160.731 61.5432 164.586 61.5432 164.586V176.941C61.5432 176.941 66.5595 179.613 69.0568 180.597L106.966 198.981L104.765 199.527C90.715 203.805 75.5319 203.422 60.694 198.418C43.8689 192.742 29.8141 179.833 22.8164 163.627C18.2722 153.102 16.6937 144.609 17.065 132.681C17.3462 123.649 18.345 118.039 21.0536 110.276Z" fill="#15002E"/>
<path d="M471.283 147.727C453.918 147.727 441.632 134.851 441.632 116.777C441.632 98.7032 453.918 85.8271 471.283 85.8271C488.647 85.8271 501.051 98.7032 501.051 116.777C501.051 134.851 488.647 147.727 471.283 147.727ZM471.283 135.559C481.087 135.559 488.175 127.763 488.175 116.777C488.175 105.555 481.087 97.64 471.283 97.64C461.478 97.64 454.508 105.555 454.508 116.777C454.508 127.763 461.478 135.559 471.283 135.559Z" fill="#15002E"/>
<path d="M423.59 87.2448H435.994V146.309H423.59V87.2448ZM429.851 80.5115C425.008 80.5115 421.582 76.8495 421.582 71.8881C421.582 66.9267 425.008 63.3828 429.851 63.3828C434.694 63.3828 438.12 66.9267 438.12 71.8881C438.12 76.8495 434.694 80.5115 429.851 80.5115Z" fill="#15002E"/>
<path d="M408.261 147.254C403.299 147.254 399.637 143.474 399.637 138.395C399.637 133.197 403.299 129.535 408.261 129.535C413.34 129.535 416.884 133.197 416.884 138.395C416.884 143.474 413.34 147.254 408.261 147.254Z" fill="#15002E"/>
<path d="M381.362 146.309V65.9814H393.766V146.309H381.362Z" fill="#15002E"/>
<path d="M346.098 147.727C328.733 147.727 316.447 134.851 316.447 116.777C316.447 98.7032 328.733 85.8271 346.098 85.8271C363.463 85.8271 375.866 98.7032 375.866 116.777C375.866 134.851 363.463 147.727 346.098 147.727ZM346.098 135.559C355.902 135.559 362.99 127.763 362.99 116.777C362.99 105.555 355.902 97.64 346.098 97.64C336.293 97.64 329.323 105.555 329.323 116.777C329.323 127.763 336.293 135.559 346.098 135.559Z" fill="#15002E"/>
<path d="M260.759 146.309L282.967 116.186L261.586 87.2449H277.415L290.291 106.264L302.459 87.2449H318.17L297.615 116.186L319.824 146.309H303.994L290.173 125.873L277.061 146.309H260.759Z" fill="#15002E"/>
<path d="M229.449 147.727C217.873 147.727 210.076 140.757 210.076 130.48C210.076 122.565 216.219 115.95 225.551 114.178L244.216 110.516C245.987 110.28 247.169 108.98 247.169 107.445C247.169 101.42 242.798 97.0494 236.655 97.0494C230.276 97.0494 225.315 101.538 224.842 108.272L212.084 105.2C213.975 93.8599 223.897 85.8271 236.065 85.8271C249.768 85.8271 259.572 95.0412 259.572 107.799V134.496L259.809 146.309H250.004L247.878 138.276C244.216 144.065 237.482 147.727 229.449 147.727ZM223.425 128.826C223.425 133.079 226.851 135.914 232.521 135.914C240.79 135.914 247.169 129.889 247.169 121.03V118.313C245.987 118.549 244.688 118.903 243.389 119.139L230.513 121.502C226.142 122.329 223.425 125.164 223.425 128.826Z" fill="#15002E"/>
</svg>
