<svg width="217" height="217" viewBox="0 0 217 217" fill="none" xmlns="http://www.w3.org/2000/svg">
<rect x="0.909607" y="0.581299" width="215.921" height="215.921" rx="107.96" fill="#FFCD9C"/>
<path d="M60.7822 88.8666C61.0197 89.0949 62.2894 89.2503 63.331 89.1787C63.6262 89.1584 64.4397 88.6863 65.1394 88.1295C65.8388 87.5726 66.4602 87.1169 66.5207 87.1169C66.581 87.1169 66.5797 87.4632 66.5177 87.8862C66.3838 88.7975 67.0275 89.6482 67.8504 89.6482C69.9035 89.6482 72.7616 87.8609 73.2955 86.2434C73.6942 85.0354 73.2459 83.5361 72.1615 82.452C71.459 81.7495 70.9277 81.5081 69.3241 81.1623C64.7111 80.1675 60.3676 78.3416 57.3222 76.1171C56.2175 75.3102 56.1464 75.1856 56.037 73.8645C55.9006 72.2197 55.5303 71.676 54.5469 71.676C53.849 71.676 53.6201 71.8321 52.9772 72.7464C52.6957 73.1469 52.5522 73.0945 51.2972 72.1323C48.7641 70.1908 47.2296 69.3978 46.0062 69.3978C43.9166 69.3978 42.4092 70.9117 42.4232 72.9968C42.4368 75.0433 44.0579 76.9289 48.1763 79.6891C49.9672 80.8892 50.2646 81.1901 50.2646 81.8019C50.2646 82.288 50.513 82.7246 51.0435 83.1709C51.9852 83.9634 52.8676 84.0077 53.5771 83.2982C54.0398 82.8355 54.1958 82.8079 54.841 83.0752C55.5212 83.3569 55.565 83.4539 55.4199 84.3611C55.2359 85.5116 55.5571 86.0143 56.8101 86.538C57.2776 86.7337 57.6194 86.922 57.5695 86.957C58.177 87.5278 59.9644 88.4679 60.7822 88.8666Z" fill="#15002E"/>
<path fill-rule="evenodd" clip-rule="evenodd" d="M54.4099 44.0047C54.9215 42.6651 55.7105 41.8804 57.0118 41.4164C57.0885 41.3891 57.1595 41.3636 57.2257 41.3398C57.6927 41.1719 57.9177 41.0911 58.1446 41.0854C58.3555 41.0801 58.5681 41.1398 58.9782 41.255L58.9788 41.2552C59.041 41.2727 59.1077 41.2914 59.1797 41.3114C60.3144 41.6265 61.533 42.6072 62.0626 43.6313C62.2765 44.045 62.7845 46.1907 63.1918 48.3998C64.0188 52.8848 64.2818 53.7705 65.8411 57.3191C67.2226 60.4633 68.8371 63.0885 71.1867 66.0114C73.457 68.8358 73.8023 69.476 73.8043 70.8659C73.8083 73.6942 71.1803 75.4643 66.9713 75.4686C65.2419 75.4701 63.4274 75.0914 63.4274 74.729C63.4274 74.6113 63.997 74.0804 64.6931 73.5496C65.3892 73.0188 65.9588 72.5007 65.9588 72.3984C65.9588 71.9845 65.4712 71.9584 64.7217 72.3326C63.3034 73.0401 61.4391 72.1782 60.7331 70.4885C60.3041 69.4621 60.6012 68.7222 61.5363 68.4873C61.5743 68.4777 61.6103 68.4689 61.6444 68.4605C61.9004 68.3975 62.0467 68.3615 62.0972 68.2716C62.1647 68.1515 62.0612 67.9354 61.8193 67.4306C61.7953 67.3804 61.7699 67.3273 61.7431 67.2712C61.333 66.4113 61.2994 66.3961 60.1056 66.5376C58.5689 66.7196 57.8631 66.2931 57.1027 64.7222C56.5765 63.6352 56.5674 63.5259 56.9531 62.9371C57.1792 62.5923 57.6016 62.3101 57.8917 62.3101C58.3261 62.3101 58.3919 62.1997 58.2636 61.6884C57.8482 60.0329 57.6469 59.7788 56.7519 59.7788C56.0829 59.7788 55.713 59.5819 55.1245 58.9116C54.7058 58.4347 54.2877 57.7011 54.1955 57.2812C54.0365 56.5572 54.3765 55.4801 54.7666 55.4718C54.8661 55.4695 55.0931 55.3756 55.2708 55.2627C55.526 55.1007 55.4576 54.5547 54.946 52.6719C54.071 49.4526 53.8285 45.5278 54.4099 44.0047ZM136.685 71.2203C137.165 70.2964 138.05 69.5038 139.115 69.0416C140.319 68.5199 141.482 68.5452 142.604 69.1178C143.764 69.7099 144.297 70.2847 144.799 71.4871C145.896 74.1121 144.304 76.9092 141.319 77.6017C139.779 77.9592 137.518 76.7846 136.7 75.2023C136.229 74.2923 136.221 72.1116 136.685 71.2203ZM97.229 86.6383C95.6538 84.416 96.5076 81.122 98.9458 80.0148C101.913 78.6677 104.952 80.2718 105.603 83.5303C105.922 85.1266 104.69 87.2245 102.894 88.1406C100.868 89.1741 98.6002 88.5727 97.229 86.6383ZM125.235 89.9105C129.986 88.658 134.78 86.4188 137.521 84.1718C138.432 83.4248 139.272 82.8137 139.387 82.8137C139.987 82.8137 140.886 83.4698 141.146 84.0973C141.618 85.2367 141.05 86.4636 139.211 88.2755C135.48 91.9515 128.583 94.9387 121.371 96.0021C118.591 96.4122 112.44 96.4089 109.877 95.9963C106.823 95.5047 105.953 94.8974 105.953 93.2571C105.953 91.6535 106.083 91.6163 111.922 91.545C117.43 91.4776 120.912 91.0501 125.235 89.9105Z" fill="#15002E"/>
<path d="M163.095 112.102L134.016 125.881V159.154L163.559 144.107L163.095 112.102Z" fill="#15002E"/>
<path fill-rule="evenodd" clip-rule="evenodd" d="M134.016 125.881V159.154L163.559 144.107L163.095 112.102L134.016 125.881Z" fill="#15002E"/>
<path fill-rule="evenodd" clip-rule="evenodd" d="M126.969 24.136C127.264 23.6525 127.933 23.0931 128.551 22.8126C129.934 22.1843 130.602 22.1937 131.978 22.8599C133.242 23.4717 134.394 24.9181 135.225 26.9353C135.655 27.98 135.919 28.2896 136.512 28.443C137.912 28.806 138.308 30.8989 137.188 32.019C136.553 32.6538 136.54 32.727 136.833 33.9478C137.101 35.0649 137.193 35.1871 137.602 34.9679C138.273 34.6092 138.544 34.6553 139.114 35.2251C139.454 35.5653 139.62 36.0688 139.62 36.7606C139.62 38.0569 139.299 38.6601 138.347 39.1524C137.682 39.4959 137.595 39.6736 137.595 40.6768V41.8126L138.556 41.6587C139.74 41.4696 140.237 41.9518 140.2 43.2549C140.167 44.4029 139.423 45.3972 138.398 45.6627C137.655 45.8556 137.595 45.9513 137.595 46.9428C137.595 47.8108 137.703 48.0629 138.164 48.2674C138.742 48.5236 138.818 48.8524 138.515 49.8009C138.378 50.2305 138.634 50.5585 139.899 51.5728C140.753 52.2575 141.512 52.8177 141.587 52.8177C141.85 52.8177 142.676 50.0031 143.297 46.9866C143.709 44.9886 144 42.4563 144.142 39.6372C144.411 34.306 144.729 33.5365 147.065 32.5602C148.406 32 149.701 32.2645 150.981 33.36C152.947 35.0429 153.247 38.0911 152.132 45.0339C151.988 45.9244 152.029 46.1097 152.365 46.1097C152.588 46.1097 152.961 46.3996 153.193 46.754C153.545 47.2903 153.568 47.5571 153.332 48.3451C152.97 49.5511 152.17 50.413 151.411 50.413C150.657 50.413 150.265 50.8906 150.079 52.0358C149.944 52.8696 149.982 52.9443 150.547 52.9443C151.763 52.9443 152.124 54.056 151.378 55.4991C150.914 56.3962 149.929 56.8321 148.831 56.6261C148.126 56.4939 148.003 56.5628 147.717 57.2546C147.41 57.996 147.437 58.0707 148.317 58.8761C149.298 59.7748 149.389 60.0378 148.982 60.7982C148.78 61.1756 148.893 61.5512 149.512 62.5562L150.298 63.8345L151.28 63.0566C152.488 62.1003 154.849 59.5252 155.874 58.0469C156.676 56.8903 156.74 56.5205 156.444 54.782C156.319 54.0522 156.362 53.5862 156.578 53.3265C156.988 52.8316 158.206 52.8352 158.703 53.3323C159.052 53.6806 159.166 53.5842 159.83 52.3831C162.049 48.3697 162.862 47.5863 164.812 47.5863C167.9 47.5863 169.16 50.838 167.462 54.4271C167.043 55.3121 166.071 56.9503 165.301 58.0674C163.971 59.9988 163.923 60.1218 164.331 60.5721C165.011 61.3234 164.428 62.8936 163.158 63.734C162.286 64.3116 162.069 64.3569 161.36 64.1099C160.269 63.7294 160.247 63.7352 159.9 64.4972C159.634 65.0806 159.668 65.2421 160.16 65.7666C160.897 66.5511 160.593 67.5238 159.39 68.226L158.534 68.7265L157.426 68.1384C156.816 67.8152 156.243 67.6246 156.153 67.715C156.062 67.8053 156.114 68.2893 156.268 68.7905C156.436 69.3383 156.462 69.9281 156.332 70.2696C156.099 70.8824 154.776 71.5618 154.226 71.3509C153.968 71.2517 154.006 71.6724 154.393 73.1573C154.67 74.2222 154.931 75.138 154.973 75.1927C155.107 75.3686 158.182 74.1607 159.617 73.3676C162.327 71.8706 162.406 71.7853 162.347 70.4212C162.316 69.7005 162.432 69.0328 162.632 68.7925C163.062 68.2739 164.517 68.264 164.943 68.7768C165.122 68.9923 165.335 69.0778 165.417 68.9667C166.214 67.8889 168.819 65.8494 169.705 65.6109C171.797 65.0475 173.792 66.6409 173.792 68.8746C173.792 70.67 172.692 72.1675 168.983 75.4182C166.422 77.6633 165.941 77.8926 164.911 77.3603C163.867 76.8201 163.626 77.0679 163.815 78.4915C163.971 79.6655 163.95 79.7167 163.095 80.2447C161.946 80.955 161.256 80.9317 160.48 80.1558C159.488 79.1641 158.707 79.3456 159.133 80.4684C159.458 81.3233 159.237 81.9153 158.461 82.269C157.586 82.6679 156.828 82.6347 156.32 82.1751C155.925 81.8181 155.883 81.9255 155.751 83.6306C155.673 84.6431 155.525 85.6837 155.423 85.9429C155.423 88.4463 154.736 90.7207 154.393 91.545L158.05 93.3931L166.237 97.5325C173.091 100.998 174.516 101.812 174.994 102.532L175.564 103.392V127.432V152.46L128.631 177.584C118.22 182.031 107.088 183.26 95.3169 181.26C83.5635 179.264 71.8572 173.041 63.7545 164.481C55.7783 156.054 50.6243 145.065 48.959 132.934C48.7651 131.522 48.6289 128.073 48.6289 124.58C48.6289 121.088 48.7651 117.639 48.959 116.227C49.6916 110.89 51.4182 104.561 53.3215 100.236L53.4014 100.054C54.1624 98.3256 54.3531 97.8924 54.2376 97.7833C54.199 97.7469 54.1262 97.7466 54.029 97.7463C54.019 97.7463 54.0088 97.7462 53.9983 97.7462C53.4222 97.7418 48.1282 95.0592 47.2812 94.342C46.1604 93.3933 45.7083 92.4383 45.7083 91.0197C45.7083 89.5303 46.4181 88.3309 47.643 87.7495C48.8724 87.166 50.0495 87.3822 52.5831 88.656L54.6147 89.6774C55.2553 89.9994 56.3452 90.4906 56.8101 90.6959C57.3144 90.8473 57.9677 91.115 58.7324 91.4284C60.5253 92.1633 62.9304 93.149 65.4624 93.4736C67.3652 93.7176 68.2886 93.7095 70.2438 93.4313C74.4822 92.8281 75.1178 93.0566 78.3622 96.3527C82.0442 100.093 85.441 102.232 90.2079 103.812C97.6986 106.294 109.241 107.014 118.357 105.569C127.232 104.162 134.128 101.992 138.973 99.0832C148.126 93.5862 152.316 85.4164 150.908 75.8154C150.151 70.6482 148.372 66.6359 144.727 61.873C142.894 59.4768 139.563 56.2266 137.342 54.6653C133.572 52.016 128.338 50.0019 122.198 48.8375C119.715 48.3667 118.374 48.2781 113.8 48.2821C107.596 48.2877 104.482 48.6696 99.5363 50.0317C90.9698 52.3909 84.6094 55.8796 79.0628 61.2609L76.8522 63.4054L75.8539 63.1065C74.7305 62.7698 73.5527 61.5406 73.5527 60.7048C73.5527 60.4 73.3228 59.7537 73.0416 59.2685C71.6527 56.8711 71.5772 56.1061 72.7024 55.8236C73.1175 55.7196 73.2755 55.5366 73.1927 55.2564C73.1254 55.0288 73.0001 54.5471 72.9143 54.1859C72.7859 53.6457 72.5513 53.488 71.5972 53.2999C70.2686 53.0377 69.5704 52.2925 69.3434 50.8942C69.1576 49.7487 69.7071 49.1473 70.9399 49.1473C71.6522 49.1473 71.8035 49.0655 71.6813 48.7469C71.5967 48.5266 71.5276 48.0229 71.5276 47.6275C71.5276 47.0294 71.3778 46.859 70.6374 46.6145C69.5793 46.2654 68.9963 45.2921 68.9963 43.8751C68.9963 42.7464 69.3019 42.3945 70.3885 42.2718C71.0674 42.1953 71.1563 42.0839 71.2274 41.2223C71.294 40.4145 71.1606 40.0966 70.4047 39.2598C69.7064 38.4867 69.5026 38.0455 69.5026 37.3059C69.5026 36.1235 70.099 35.2251 70.8837 35.2251C71.4135 35.2251 71.5205 35.0294 71.8861 33.3899C72.2827 31.6117 73.174 29.4542 73.8597 28.6126C75.0406 27.1629 77.5248 26.6933 79.0606 27.6299C80.5479 28.5366 80.9325 29.4796 80.8155 31.9344C80.7591 33.1178 80.5166 35.2821 80.2763 36.7439C79.684 40.35 79.8361 45.7465 80.63 49.3025L81.2015 51.8626L83.8951 50.2087C90.1257 46.3831 97.0564 43.8432 104.308 42.7282C108.594 42.0693 109.124 42.028 113.232 42.0331C119.008 42.0402 124.839 42.9643 128.505 44.4538L130.078 45.0932L129.912 42.2475C129.689 38.4092 129.028 35.2755 127.455 30.5954C126.033 26.362 125.986 25.7474 126.969 24.136ZM128.994 118.92L113.679 112.43C107.768 113.098 103.816 113.444 98.6199 112.102C97.5644 111.829 96.3518 111.516 94.8789 111.169L94.5625 128.286C94.5625 128.286 93.8141 129.678 101.529 129.298V116.905L123.764 125.881L123.829 159.154L101.528 148.309L101.529 148.309L101.476 148.283L101.475 148.317C98.9689 148.688 96.9556 148.683 94.5625 147.929V153.179L101.296 156.763L123.829 167.727L128.631 170.306L134.016 167.727L170.502 149.009V105.569L151.086 95.4827L145.7 100.948L156.578 105.569L128.994 118.92ZM58.1752 105.849C59.1468 103.064 60.3775 100.306 60.989 99.5419C61.2242 99.2482 61.289 99.2938 61.3497 99.795C61.5269 101.263 62.4344 102.052 63.9456 102.052C64.6258 102.052 65.7056 101.314 65.7056 100.849C65.7056 100.745 66.4319 100.659 67.3193 100.659C68.809 100.659 68.9634 100.712 69.3274 101.346C70.1271 102.74 72.0724 102.549 72.909 100.995L73.4043 100.075L75.5668 102.276C78.6361 105.401 81.6367 107.289 86.4624 109.131L88.8671 110.05L88.9035 116.484L88.906 116.905V116.905C88.9287 120.842 88.9376 122.382 88.6575 122.437C88.4774 122.472 88.1779 121.893 87.686 120.942L87.604 120.783C86.1057 117.89 83.7169 116.973 82.1158 118.678C81.6415 119.183 81.5263 119.586 81.5263 120.743C81.5263 121.982 81.6827 122.454 82.657 124.157C84.9094 128.094 88.9466 131.665 93.0974 133.393C93.5952 133.6 94.0785 133.782 94.5625 133.941C97.0294 134.748 99.5131 134.947 104.002 134.791L104.688 134.767L108.611 134.631L109.915 135.293C112.171 136.437 112.791 137.79 111.803 139.411C111.164 140.459 109.524 141.38 106.808 142.214C104.746 142.848 104.218 142.904 100.385 142.902C95.3999 142.899 93.5946 142.5 89.5933 140.519C85.1764 138.331 82.0475 135.854 78.8193 131.989C76.304 128.977 74.952 128.43 73.7018 129.916C72.9971 130.753 72.8996 131.509 73.3077 132.978C73.6306 134.141 75.2459 136.58 76.8705 138.357C77.2983 138.826 79.0765 140.108 81.1379 141.596C84.6024 144.095 88.8671 147.018 88.8671 147.018V156.383C88.8671 156.383 92.6695 158.408 94.5625 159.154L123.298 173.09L121.63 173.504C110.98 176.747 99.4707 176.457 88.2234 172.663C75.4696 168.361 64.8159 158.576 59.5115 146.291C56.0669 138.313 54.8704 131.874 55.1518 122.833C55.365 115.986 56.1221 111.734 58.1752 105.849Z" fill="#15002E"/>
</svg>
