<svg width="217" height="217" viewBox="0 0 217 217" fill="none" xmlns="http://www.w3.org/2000/svg">
<rect x="0.909607" y="0.594482" width="215.921" height="215.921" rx="107.96" fill="#15002E"/>
<path d="M60.7822 88.8798C61.0197 89.1081 62.2894 89.2635 63.331 89.1919C63.6262 89.1716 64.4397 88.6995 65.1394 88.1426C65.8388 87.5858 66.4602 87.1301 66.5207 87.1301C66.581 87.1301 66.5797 87.4764 66.5177 87.8994C66.3838 88.8107 67.0275 89.6614 67.8504 89.6614C69.9035 89.6614 72.7616 87.8741 73.2955 86.2566C73.6942 85.0486 73.2459 83.5493 72.1615 82.4652C71.459 81.7627 70.9277 81.5212 69.3241 81.1755C64.7111 80.1807 60.3676 78.3548 57.3222 76.1303C56.2175 75.3233 56.1464 75.1988 56.037 73.8777C55.9006 72.2329 55.5303 71.6891 54.5469 71.6891C53.849 71.6891 53.6201 71.8453 52.9772 72.7596C52.6957 73.1601 52.5522 73.1077 51.2972 72.1455C48.7641 70.204 47.2296 69.411 46.0062 69.411C43.9166 69.411 42.4092 70.9249 42.4232 73.01C42.4368 75.0565 44.0579 76.9421 48.1763 79.7022C49.9672 80.9023 50.2646 81.2033 50.2646 81.8151C50.2646 82.3011 50.513 82.7378 51.0435 83.1841C51.9852 83.9766 52.8676 84.0209 53.5771 83.3114C54.0398 82.8487 54.1958 82.8211 54.841 83.0884C55.5212 83.3701 55.565 83.4671 55.4199 84.3743C55.2359 85.5248 55.5571 86.0275 56.8101 86.5512C57.2776 86.7469 57.6194 86.9352 57.5695 86.9701C58.177 87.541 59.9644 88.4811 60.7822 88.8798Z" fill="#FDFFF9"/>
<path fill-rule="evenodd" clip-rule="evenodd" d="M54.4099 44.0179C54.9215 42.6783 55.7105 41.8936 57.0118 41.4296C57.0885 41.4023 57.1595 41.3768 57.2257 41.353C57.6927 41.1851 57.9177 41.1042 58.1446 41.0986C58.3555 41.0933 58.5681 41.153 58.9782 41.2682L58.9788 41.2684C59.041 41.2858 59.1077 41.3046 59.1797 41.3246C60.3144 41.6397 61.533 42.6204 62.0626 43.6445C62.2765 44.0581 62.7845 46.2039 63.1918 48.413C64.0188 52.898 64.2818 53.7837 65.8411 57.3323C67.2226 60.4764 68.8371 63.1017 71.1867 66.0246C73.457 68.849 73.8023 69.4892 73.8043 70.8791C73.8083 73.7073 71.1803 75.4775 66.9713 75.4818C65.2419 75.4833 63.4274 75.1046 63.4274 74.7421C63.4274 74.6244 63.997 74.0936 64.6931 73.5628C65.3892 73.032 65.9588 72.5138 65.9588 72.4116C65.9588 71.9977 65.4712 71.9716 64.7217 72.3458C63.3034 73.0533 61.4391 72.1913 60.7331 70.5017C60.3041 69.4753 60.6012 68.7354 61.5363 68.5005C61.5743 68.4909 61.6103 68.482 61.6444 68.4737C61.9004 68.4107 62.0467 68.3746 62.0972 68.2848C62.1647 68.1647 62.0612 67.9486 61.8193 67.4438C61.7953 67.3936 61.7699 67.3405 61.7431 67.2844C61.333 66.4245 61.2994 66.4093 60.1056 66.5508C58.5689 66.7328 57.8631 66.3063 57.1027 64.7354C56.5765 63.6484 56.5674 63.5391 56.9531 62.9503C57.1792 62.6055 57.6016 62.3233 57.8917 62.3233C58.3261 62.3233 58.3919 62.2129 58.2636 61.7016C57.8482 60.0461 57.6469 59.792 56.7519 59.792C56.0829 59.792 55.713 59.5951 55.1245 58.9248C54.7058 58.4479 54.2877 57.7143 54.1955 57.2943C54.0365 56.5704 54.3765 55.4933 54.7666 55.485C54.8661 55.4827 55.0931 55.3888 55.2708 55.2759C55.526 55.1139 55.4576 54.5679 54.946 52.6851C54.071 49.4658 53.8285 45.541 54.4099 44.0179ZM136.685 71.2335C137.165 70.3096 138.05 69.517 139.115 69.0548C140.319 68.5331 141.482 68.5584 142.604 69.131C143.764 69.7231 144.297 70.2979 144.799 71.5003C145.896 74.1253 144.304 76.9224 141.319 77.6149C139.779 77.9724 137.518 76.7978 136.7 75.2155C136.229 74.3055 136.221 72.1248 136.685 71.2335ZM97.229 86.6515C95.6538 84.4292 96.5076 81.1352 98.9458 80.028C101.913 78.6809 104.952 80.285 105.603 83.5435C105.922 85.1397 104.69 87.2377 102.894 88.1538C100.868 89.1873 98.6002 88.5859 97.229 86.6515ZM125.235 89.9237C129.986 88.6712 134.78 86.432 137.521 84.1849C138.432 83.4379 139.272 82.8269 139.387 82.8269C139.987 82.8269 140.886 83.483 141.146 84.1105C141.618 85.2499 141.05 86.4768 139.211 88.2887C135.48 91.9647 128.583 94.9519 121.371 96.0153C118.591 96.4253 112.44 96.422 109.877 96.0094C106.823 95.5179 105.953 94.9106 105.953 93.2703C105.953 91.6667 106.083 91.6295 111.922 91.5581C117.43 91.4908 120.912 91.0633 125.235 89.9237Z" fill="#FDFFF9"/>
<path d="M163.095 112.115L134.016 125.894V159.167L163.559 144.12L163.095 112.115Z" fill="#FDFFF9"/>
<path fill-rule="evenodd" clip-rule="evenodd" d="M134.016 125.894V159.167L163.559 144.12L163.095 112.115L134.016 125.894Z" fill="#FDFFF9"/>
<path fill-rule="evenodd" clip-rule="evenodd" d="M126.969 24.1491C127.264 23.6657 127.933 23.1062 128.551 22.8258C129.934 22.1975 130.602 22.2069 131.978 22.8731C133.242 23.4849 134.394 24.9313 135.225 26.9485C135.655 27.9932 135.919 28.3028 136.512 28.4562C137.912 28.8192 138.308 30.912 137.188 32.0321C136.553 32.667 136.54 32.7401 136.833 33.961C137.101 35.0781 137.193 35.2003 137.602 34.9811C138.273 34.6224 138.544 34.6685 139.114 35.2383C139.454 35.5785 139.62 36.082 139.62 36.7738C139.62 38.0701 139.299 38.6733 138.347 39.1656C137.682 39.5091 137.595 39.6868 137.595 40.69V41.8258L138.556 41.6719C139.74 41.4828 140.237 41.965 140.2 43.2681C140.167 44.4161 139.423 45.4104 138.398 45.6759C137.655 45.8688 137.595 45.9645 137.595 46.956C137.595 47.824 137.703 48.0761 138.164 48.2806C138.742 48.5368 138.818 48.8656 138.515 49.8141C138.378 50.2436 138.634 50.5717 139.899 51.586C140.753 52.2707 141.512 52.8309 141.587 52.8309C141.85 52.8309 142.676 50.0163 143.297 46.9998C143.709 45.0018 144 42.4695 144.142 39.6504C144.411 34.3192 144.729 33.5497 147.065 32.5733C148.406 32.0132 149.701 32.2777 150.981 33.3732C152.947 35.056 153.247 38.1042 152.132 45.0471C151.988 45.9376 152.029 46.1229 152.365 46.1229C152.588 46.1229 152.961 46.4128 153.193 46.7671C153.545 47.3035 153.568 47.5703 153.332 48.3583C152.97 49.5642 152.17 50.4261 151.411 50.4261C150.657 50.4261 150.265 50.9038 150.079 52.049C149.944 52.8828 149.982 52.9575 150.547 52.9575C151.763 52.9575 152.124 54.0692 151.378 55.5123C150.914 56.4094 149.929 56.8453 148.831 56.6392C148.126 56.5071 148.004 56.576 147.717 57.2678C147.41 58.0092 147.438 58.0839 148.317 58.8893C149.298 59.7879 149.389 60.0509 148.982 60.8113C148.78 61.1888 148.893 61.5644 149.512 62.5693L150.298 63.8476L151.28 63.0698C152.488 62.1134 154.849 59.5383 155.874 58.0601C156.676 56.9035 156.74 56.5337 156.444 54.7952C156.319 54.0654 156.362 53.5994 156.578 53.3397C156.988 52.8448 158.206 52.8484 158.703 53.3455C159.052 53.6938 159.166 53.5974 159.83 52.3963C162.049 48.3829 162.862 47.5994 164.812 47.5994C167.9 47.5994 169.16 50.8512 167.462 54.4403C167.043 55.3252 166.071 56.9635 165.301 58.0806C163.971 60.012 163.923 60.135 164.331 60.5853C165.011 61.3366 164.428 62.9068 163.158 63.7472C162.286 64.3248 162.069 64.3701 161.36 64.1231C160.269 63.7426 160.247 63.7484 159.9 64.5103C159.634 65.0938 159.668 65.2553 160.16 65.7798C160.897 66.5642 160.593 67.537 159.39 68.2392L158.534 68.7397L157.426 68.1516C156.816 67.8284 156.243 67.6378 156.153 67.7281C156.062 67.8185 156.114 68.3025 156.268 68.8037C156.436 69.3515 156.462 69.9413 156.332 70.2827C156.099 70.8956 154.776 71.575 154.226 71.3641C153.968 71.2649 154.006 71.6856 154.393 73.1705C154.67 74.2354 154.931 75.1512 154.973 75.2059C155.107 75.3818 158.182 74.1739 159.617 73.3808C162.327 71.8838 162.406 71.7985 162.347 70.4344C162.316 69.7137 162.432 69.0459 162.632 68.8057C163.062 68.2871 164.517 68.2772 164.943 68.79C165.122 69.0054 165.335 69.091 165.417 68.9799C166.214 67.902 168.819 65.8626 169.705 65.6241C171.797 65.0607 173.792 66.6541 173.792 68.8877C173.792 70.6832 172.692 72.1807 168.983 75.4314C166.422 77.6764 165.941 77.9058 164.911 77.3734C163.867 76.8333 163.626 77.0811 163.815 78.5047C163.971 79.6787 163.95 79.7298 163.095 80.2579C161.946 80.9682 161.256 80.9449 160.48 80.169C159.488 79.1772 158.707 79.3587 159.133 80.4816C159.458 81.3365 159.237 81.9285 158.461 82.2822C157.586 82.6811 156.828 82.6479 156.32 82.1882C155.925 81.8313 155.883 81.9387 155.751 83.6437C155.673 84.6563 155.525 85.6969 155.423 85.9561C155.423 88.4595 154.736 90.7339 154.393 91.5581L158.05 93.4062L166.237 97.5457C173.091 101.011 174.516 101.825 174.994 102.545L175.564 103.405V127.445V152.473L128.631 177.597C118.22 182.044 107.088 183.273 95.3169 181.274C83.5635 179.277 71.8572 173.054 63.7545 164.494C55.7783 156.068 50.6243 145.078 48.959 132.947C48.7651 131.535 48.6289 128.086 48.6289 124.593C48.6289 121.101 48.7651 117.652 48.959 116.24C49.6916 110.903 51.4182 104.575 53.3215 100.249L53.4014 100.068C54.1624 98.3388 54.3531 97.9056 54.2376 97.7965C54.199 97.76 54.1262 97.7598 54.029 97.7595C54.019 97.7594 54.0088 97.7594 53.9983 97.7593C53.4222 97.755 48.1282 95.0723 47.2812 94.3552C46.1604 93.4065 45.7083 92.4514 45.7083 91.0329C45.7083 89.5435 46.4181 88.3441 47.643 87.7627C48.8724 87.1792 50.0495 87.3954 52.5831 88.6692L54.6147 89.6905C55.2553 90.0126 56.3452 90.5038 56.8101 90.7091C57.3144 90.8605 57.9677 91.1282 58.7324 91.4416C60.5253 92.1765 62.9304 93.1622 65.4624 93.4867C67.3652 93.7308 68.2886 93.7227 70.2438 93.4445C74.4822 92.8413 75.1178 93.0698 78.3622 96.3659C82.0442 100.107 85.441 102.246 90.2079 103.825C97.6986 106.307 109.241 107.027 118.357 105.582C127.232 104.175 134.128 102.006 138.973 99.0964C148.126 93.5994 152.316 85.4296 150.908 75.8286C150.151 70.6614 148.372 66.6491 144.727 61.8861C142.894 59.49 139.563 56.2398 137.342 54.6785C133.572 52.0292 128.338 50.0151 122.198 48.8507C119.715 48.3798 118.374 48.2912 113.8 48.2953C107.596 48.3009 104.482 48.6828 99.5363 50.0449C90.9698 52.4041 84.6094 55.8928 79.0628 61.2741L76.8522 63.4186L75.8539 63.1196C74.7305 62.783 73.5527 61.5538 73.5527 60.7179C73.5527 60.4132 73.3228 59.7669 73.0416 59.2817C71.6527 56.8843 71.5772 56.1193 72.7024 55.8368C73.1175 55.7328 73.2755 55.5498 73.1927 55.2696C73.1254 55.042 73.0001 54.5603 72.9143 54.1991C72.7859 53.6589 72.5513 53.5012 71.5972 53.3131C70.2686 53.0509 69.5704 52.3056 69.3434 50.9074C69.1576 49.7619 69.7071 49.1605 70.9399 49.1605C71.6522 49.1605 71.8035 49.0787 71.6813 48.76C71.5967 48.5398 71.5276 48.0361 71.5276 47.6407C71.5276 47.0425 71.3778 46.8722 70.6374 46.6277C69.5793 46.2786 68.9963 45.3053 68.9963 43.8883C68.9963 42.7596 69.3019 42.4077 70.3885 42.285C71.0674 42.2085 71.1563 42.0971 71.2274 41.2355C71.294 40.4277 71.1606 40.1098 70.4047 39.2729C69.7064 38.4999 69.5026 38.0587 69.5026 37.319C69.5026 36.1367 70.099 35.2383 70.8837 35.2383C71.4135 35.2383 71.5205 35.0426 71.8861 33.4031C72.2827 31.6249 73.174 29.4674 73.8597 28.6258C75.0406 27.1761 77.5248 26.7065 79.0606 27.6431C80.548 28.5498 80.9325 29.4927 80.8155 31.9476C80.7591 33.131 80.5166 35.2953 80.2763 36.7571C79.684 40.3632 79.8361 45.7597 80.63 49.3157L81.2015 51.8758L83.8951 50.2219C90.1257 46.3963 97.0564 43.8564 104.308 42.7413C108.594 42.0824 109.124 42.0412 113.232 42.0462C119.008 42.0533 124.839 42.9775 128.505 44.4669L130.078 45.1064L129.912 42.2607C129.689 38.4224 129.028 35.2887 127.455 30.6085C126.033 26.3752 125.986 25.7606 126.969 24.1491ZM128.994 118.933L113.679 112.443C107.768 113.111 103.816 113.457 98.6199 112.115C97.5644 111.843 96.3517 111.529 94.8789 111.182L94.5625 128.299C94.5625 128.299 93.8141 129.691 101.529 129.311V116.918L123.764 125.894L123.829 159.167L101.528 148.322L101.529 148.322L101.476 148.296L101.475 148.33C98.9689 148.701 96.9556 148.696 94.5625 147.942V153.192L101.296 156.776L123.829 167.74L128.631 170.319L134.016 167.74L170.502 149.022V105.582L151.086 95.4958L145.7 100.961L156.578 105.582L128.994 118.933ZM58.1752 105.862C59.1468 103.077 60.3775 100.319 60.989 99.555C61.2242 99.2614 61.289 99.307 61.3497 99.8082C61.5269 101.276 62.4344 102.065 63.9456 102.065C64.6258 102.065 65.7056 101.327 65.7056 100.862C65.7056 100.758 66.4319 100.673 67.3193 100.673C68.809 100.673 68.9634 100.726 69.3274 101.36C70.1271 102.753 72.0724 102.562 72.909 101.008L73.4043 100.088L75.5668 102.29C78.6361 105.414 81.6367 107.302 86.4623 109.145L88.8671 110.063L88.9035 116.497L88.906 116.918V116.918C88.9287 120.855 88.9376 122.396 88.6575 122.45C88.4774 122.485 88.1779 121.906 87.686 120.955L87.604 120.797C86.1057 117.903 83.7169 116.987 82.1158 118.691C81.6415 119.196 81.5263 119.599 81.5263 120.756C81.5263 121.995 81.6827 122.467 82.657 124.17C84.9094 128.107 88.9466 131.678 93.0974 133.406C93.5952 133.614 94.0785 133.795 94.5625 133.954C97.0294 134.761 99.5131 134.96 104.002 134.804L104.688 134.78L108.611 134.644L109.915 135.306C112.171 136.451 112.791 137.803 111.803 139.424C111.164 140.473 109.524 141.393 106.808 142.227C104.746 142.861 104.218 142.917 100.385 142.915C95.3999 142.912 93.5946 142.514 89.5933 140.532C85.1764 138.344 82.0475 135.867 78.8193 132.002C76.304 128.991 74.952 128.443 73.7018 129.929C72.9971 130.766 72.8996 131.522 73.3077 132.991C73.6306 134.154 75.2459 136.593 76.8705 138.371C77.2983 138.839 79.0765 140.122 81.1379 141.609C84.6024 144.108 88.8671 147.031 88.8671 147.031V156.397C88.8671 156.397 92.6695 158.422 94.5625 159.167L123.298 173.103L121.63 173.518C110.98 176.76 99.4707 176.47 88.2234 172.676C75.4696 168.374 64.8159 158.589 59.5115 146.304C56.0669 138.326 54.8704 131.887 55.1518 122.846C55.365 115.999 56.1221 111.747 58.1752 105.862Z" fill="#FDFFF9"/>
</svg>
