<svg width="423" height="123" viewBox="0 0 423 123" fill="none" xmlns="http://www.w3.org/2000/svg">
<path d="M379.544 122.704C354.376 122.704 336.57 104.034 336.57 77.8271C336.57 51.6202 354.376 32.95 379.544 32.95C404.711 32.95 422.688 51.6202 422.688 77.8271C422.688 104.034 404.711 122.704 379.544 122.704ZM379.544 105.062C393.754 105.062 404.026 93.7567 404.026 77.8271C404.026 61.5548 393.754 50.0786 379.544 50.0786C365.333 50.0786 355.232 61.5548 355.232 77.8271C355.232 93.7567 365.333 105.062 379.544 105.062Z" fill="#15002E"/>
<path d="M310.424 35.0052H328.401V120.648H310.424V35.0052ZM319.498 25.2418C312.479 25.2418 307.514 19.9319 307.514 12.7379C307.514 5.54387 312.479 0.405273 319.498 0.405273C326.518 0.405273 331.483 5.54387 331.483 12.7379C331.483 19.9319 326.518 25.2418 319.498 25.2418Z" fill="#15002E"/>
<path d="M288.209 122.019C281.018 122.019 275.711 116.538 275.711 109.172C275.711 101.636 281.018 96.3257 288.209 96.3257C295.571 96.3257 300.707 101.636 300.707 109.172C300.707 116.538 295.571 122.019 288.209 122.019Z" fill="#15002E"/>
<path d="M249.219 120.648V4.17358H267.196V120.648H249.219Z" fill="#15002E"/>
<path d="M198.113 122.704C172.945 122.704 155.139 104.034 155.139 77.8271C155.139 51.6202 172.945 32.95 198.113 32.95C223.28 32.95 241.257 51.6202 241.257 77.8271C241.257 104.034 223.28 122.704 198.113 122.704ZM198.113 105.062C212.323 105.062 222.595 93.7567 222.595 77.8271C222.595 61.5548 212.323 50.0786 198.113 50.0786C183.902 50.0786 173.801 61.5548 173.801 77.8271C173.801 93.7567 183.902 105.062 198.113 105.062Z" fill="#15002E"/>
<path d="M74.422 120.648L106.609 76.9703L75.6204 35.0051H98.5624L117.224 62.5823L134.859 35.0051H157.629L127.839 76.9703L160.026 120.648H137.084L117.053 91.0159L98.0487 120.648H74.422Z" fill="#15002E"/>
<path d="M29.0459 122.704C12.2675 122.704 0.967773 112.598 0.967773 97.6963C0.967773 86.2201 9.8706 76.628 23.3961 74.0587L50.447 68.7489C53.0151 68.4063 54.7272 66.5221 54.7272 64.2954C54.7272 55.5598 48.3925 49.2222 39.4896 49.2222C30.2444 49.2222 23.0536 55.7311 22.3688 65.4944L3.87831 61.041C6.61765 44.5974 20.9991 32.95 38.6336 32.95C58.4938 32.95 72.704 46.3103 72.704 64.8093V103.52L73.0465 120.649H58.8362L55.7544 109.001C50.447 117.394 40.6881 122.704 29.0459 122.704ZM20.3143 95.2983C20.3143 101.465 25.2794 105.575 33.4973 105.575C45.4819 105.575 54.7272 96.8399 54.7272 83.9934V80.0538C53.0151 80.3963 51.1318 80.9102 49.2485 81.2528L30.5868 84.6785C24.2521 85.8775 20.3143 89.9884 20.3143 95.2983Z" fill="#15002E"/>
</svg>
