<svg width="502" height="211" viewBox="0 0 502 211" fill="none" xmlns="http://www.w3.org/2000/svg">
<path d="M24.4928 87.8861C24.806 88.1873 26.4811 88.3923 27.8552 88.2978C28.2446 88.2711 29.3179 87.6483 30.2409 86.9137C31.1635 86.179 31.9834 85.578 32.0632 85.578C32.1427 85.578 32.141 86.0348 32.0592 86.5928C31.8825 87.7949 32.7317 88.9173 33.8174 88.9173C36.5259 88.9173 40.2964 86.5594 41.0007 84.4256C41.5266 82.8321 40.9352 80.8542 39.5047 79.424C38.578 78.4973 37.877 78.1787 35.7615 77.7226C29.6759 76.4102 23.9458 74.0016 19.9282 71.067C18.4709 70.0024 18.3771 69.8381 18.2328 68.0953C18.0528 65.9254 17.5643 65.2082 16.2669 65.2082C15.3462 65.2082 15.0444 65.4142 14.1962 66.6204C13.8248 67.1486 13.6355 67.0795 11.9798 65.8102C8.6381 63.249 6.61377 62.2028 4.99984 62.2028C2.24319 62.2028 0.254587 64.2 0.272953 66.9506C0.290986 69.6504 2.42952 72.1379 7.86269 75.7791C10.2253 77.3623 10.6177 77.7593 10.6177 78.5664C10.6177 79.2076 10.9453 79.7836 11.6452 80.3723C12.8875 81.4179 14.0516 81.4763 14.9876 80.5403C15.598 79.9299 15.8037 79.8934 16.6549 80.2461C17.5522 80.6177 17.61 80.7457 17.4187 81.9425C17.1759 83.4602 17.5997 84.1234 19.2526 84.8143C19.8694 85.0724 20.3202 85.3208 20.2545 85.3669C21.0559 86.12 23.414 87.3602 24.4928 87.8861Z" fill="#28338B"/>
<path fill-rule="evenodd" clip-rule="evenodd" d="M16.0863 28.7041C16.7611 26.937 17.802 25.9018 19.5188 25.2897C19.6199 25.2537 19.7136 25.22 19.8009 25.1886C20.417 24.9671 20.7139 24.8604 21.0132 24.853C21.2914 24.846 21.5718 24.9248 22.1128 25.0767L22.1136 25.077C22.1957 25.1 22.2837 25.1247 22.3786 25.1511C23.8757 25.5669 25.4833 26.8605 26.1819 28.2116C26.464 28.7572 27.1343 31.588 27.6716 34.5022C28.7625 40.4188 29.1095 41.5872 31.1666 46.2686C32.9892 50.4163 35.119 53.8795 38.2187 57.7355C41.2137 61.4615 41.6692 62.306 41.6719 64.1396C41.6772 67.8706 38.2103 70.2058 32.6576 70.2115C30.3761 70.2135 27.9825 69.7139 27.9825 69.2357C27.9825 69.0804 28.7338 68.3802 29.6521 67.6799C30.5705 66.9797 31.3218 66.2961 31.3218 66.1612C31.3218 65.6152 30.6787 65.5808 29.6899 66.0744C27.8188 67.0077 25.3594 65.8707 24.428 63.6417C23.862 62.2876 24.254 61.3115 25.4876 61.0016C25.5377 60.9891 25.5853 60.9774 25.6302 60.9663C25.9679 60.8832 26.161 60.8357 26.2276 60.7171C26.3166 60.5587 26.18 60.2736 25.861 59.6077C25.8293 59.5414 25.7957 59.4714 25.7604 59.3974C25.2195 58.2631 25.175 58.243 23.6002 58.4297C21.5729 58.6698 20.6418 58.1071 19.6387 56.0347C18.9444 54.6008 18.9324 54.4566 19.4413 53.6799C19.7395 53.225 20.2969 52.8527 20.6796 52.8527C21.2526 52.8527 21.3394 52.7071 21.1701 52.0326C20.6221 49.8487 20.3566 49.5134 19.1758 49.5134C18.2932 49.5134 17.8054 49.2536 17.029 48.3694C16.4766 47.7402 15.925 46.7725 15.8034 46.2185C15.5937 45.2635 16.0422 43.8426 16.5568 43.8316C16.688 43.8285 16.9876 43.7047 17.222 43.5557C17.5586 43.342 17.4684 42.6217 16.7935 40.1379C15.6391 35.891 15.3192 30.7134 16.0863 28.7041ZM124.626 64.6071C125.26 63.3882 126.427 62.3427 127.832 61.7329C129.42 61.0447 130.955 61.0781 132.435 61.8335C133.965 62.6145 134.668 63.3729 135.331 64.959C136.777 68.4219 134.677 72.1119 130.74 73.0255C128.707 73.497 125.725 71.9476 124.645 69.8602C124.025 68.6597 124.014 65.7829 124.626 64.6071ZM72.5745 84.9465C70.4964 82.0149 71.6228 77.6695 74.8393 76.2089C78.7544 74.4317 82.7623 76.5478 83.6219 80.8465C84.043 82.9523 82.4167 85.7199 80.0481 86.9284C77.3755 88.2918 74.3835 87.4984 72.5745 84.9465ZM109.521 89.2632C115.788 87.6109 122.113 84.657 125.729 81.6927C126.931 80.7072 128.039 79.9011 128.191 79.9011C128.982 79.9011 130.168 80.7667 130.511 81.5945C131.134 83.0975 130.384 84.7161 127.958 87.1064C123.037 91.9557 113.938 95.8964 104.423 97.2993C100.756 97.8403 92.6415 97.8359 89.2601 97.2916C85.2314 96.6431 84.084 95.842 84.084 93.6781C84.084 91.5627 84.2553 91.5136 91.9579 91.4194C99.2248 91.3306 103.817 90.7666 109.521 89.2632Z" fill="#28338B"/>
<path d="M159.468 118.539L121.105 136.716V180.61L160.08 160.759L159.468 118.539Z" fill="#28338B"/>
<path fill-rule="evenodd" clip-rule="evenodd" d="M121.105 136.716V180.61L160.08 160.759L159.468 118.539L121.105 136.716Z" fill="#28338B"/>
<path fill-rule="evenodd" clip-rule="evenodd" d="M111.809 2.49321C112.198 1.8554 113.08 1.11742 113.895 0.747421C115.72 -0.081396 116.601 -0.0690417 118.417 0.809865C120.084 1.61698 121.604 3.52506 122.7 6.18616C123.267 7.56429 123.616 7.97269 124.397 8.17505C126.245 8.65391 126.767 11.4149 125.29 12.8925C124.452 13.73 124.434 13.8265 124.821 15.4371C125.174 16.9107 125.296 17.072 125.836 16.7828C126.721 16.3096 127.078 16.3704 127.83 17.1221C128.279 17.5709 128.498 18.2351 128.498 19.1477C128.498 20.8578 128.074 21.6535 126.818 22.303C125.942 22.7562 125.826 22.9906 125.826 24.3139V25.8123L127.095 25.6093C128.656 25.3598 129.312 25.996 129.263 27.715C129.22 29.2294 128.239 30.5411 126.887 30.8914C125.906 31.1458 125.826 31.2721 125.826 32.5801C125.826 33.7251 125.969 34.0577 126.578 34.3275C127.34 34.6655 127.44 35.0993 127.04 36.3505C126.86 36.9172 127.197 37.35 128.866 38.688C129.992 39.5913 130.994 40.3303 131.093 40.3303C131.44 40.3303 132.529 36.6173 133.349 32.6378C133.892 30.0021 134.276 26.6615 134.464 22.9425C134.818 15.9096 135.238 14.8944 138.32 13.6064C140.089 12.8675 141.798 13.2164 143.486 14.6617C146.08 16.8816 146.476 20.9028 145.004 30.0619C144.815 31.2367 144.868 31.4811 145.311 31.4811C145.606 31.4811 146.098 31.8635 146.404 32.331C146.868 33.0386 146.898 33.3905 146.587 34.4301C146.11 36.0209 145.054 37.1579 144.054 37.1579C143.059 37.1579 142.542 37.7881 142.296 39.2988C142.118 40.3988 142.169 40.4973 142.914 40.4973C144.517 40.4973 144.994 41.9639 144.01 43.8676C143.398 45.0511 142.098 45.6261 140.65 45.3543C139.719 45.18 139.558 45.2708 139.18 46.1834C138.775 47.1615 138.811 47.26 139.971 48.3226C141.266 49.508 141.385 49.855 140.848 50.8581C140.582 51.356 140.732 51.8516 141.547 53.1773L142.585 54.8636L143.881 53.8375C145.474 52.5759 148.588 49.1788 149.941 47.2286C150.999 45.7029 151.084 45.215 150.692 42.9216C150.528 41.9589 150.584 41.3441 150.869 41.0015C151.411 40.3487 153.018 40.3533 153.673 41.0092C154.133 41.4687 154.284 41.3414 155.16 39.7569C158.087 34.4624 159.16 33.4289 161.733 33.4289C165.806 33.4289 167.468 37.7186 165.228 42.4534C164.676 43.6208 163.393 45.7821 162.378 47.2557C160.623 49.8036 160.56 49.9659 161.097 50.5599C161.994 51.551 161.226 53.6224 159.551 54.7311C158.4 55.4931 158.113 55.5529 157.178 55.227C155.739 54.7251 155.71 54.7327 155.252 55.7379C154.902 56.5076 154.945 56.7206 155.595 57.4125C156.568 58.4474 156.166 59.7307 154.58 60.657L153.45 61.3172L151.988 60.5415C151.184 60.115 150.428 59.8636 150.309 59.9828C150.189 60.102 150.258 60.7405 150.461 61.4017C150.683 62.1243 150.716 62.9024 150.545 63.3528C150.237 64.1613 148.492 65.0576 147.767 64.7794C147.426 64.6485 147.477 65.2035 147.987 67.1623C148.352 68.5672 148.697 69.7753 148.752 69.8475C148.929 70.0796 152.985 68.486 154.879 67.4398C158.454 65.465 158.559 65.3524 158.48 63.5529C158.439 62.6022 158.593 61.7213 158.856 61.4044C159.424 60.7201 161.343 60.7071 161.905 61.3836C162.141 61.6678 162.422 61.7807 162.53 61.6341C163.581 60.2122 167.019 57.5217 168.187 57.2072C170.947 56.4638 173.579 58.5659 173.579 61.5126C173.579 63.8811 172.127 65.8567 167.235 70.145C163.855 73.1066 163.221 73.4092 161.863 72.7069C160.485 71.9943 160.168 72.3212 160.417 74.1993C160.623 75.748 160.595 75.8155 159.468 76.5121C157.951 77.4491 157.041 77.4184 156.017 76.3949C154.709 75.0865 153.678 75.3259 154.241 76.8073C154.669 77.9349 154.378 78.716 153.354 79.1825C152.199 79.7088 151.199 79.665 150.529 79.0586C150.009 78.5878 149.953 78.7294 149.779 80.9787C149.675 82.3145 149.48 83.6872 149.346 84.0292C149.346 87.3316 148.44 90.332 147.987 91.4194L152.812 93.8575L163.612 99.3182C172.654 103.89 174.534 104.964 175.164 105.914L175.917 107.048V138.762V171.779L114.001 204.923C100.267 210.789 85.5811 212.41 70.052 209.772C54.5466 207.139 39.1033 198.929 28.4139 187.636C17.8915 176.52 11.0922 162.023 8.89523 146.02C8.63944 144.157 8.45977 139.607 8.45977 135C8.45977 130.393 8.63944 125.842 8.89523 123.98C9.86165 116.939 12.1394 108.591 14.6503 102.885L14.7558 102.645C15.7598 100.364 16.0113 99.793 15.859 99.6491C15.808 99.601 15.7119 99.6007 15.5837 99.6003C15.5706 99.6002 15.5571 99.6002 15.5433 99.6001C14.7832 99.5944 7.79924 96.0554 6.68189 95.1094C5.20321 93.8578 4.6068 92.5979 4.6068 90.7265C4.6068 88.7617 5.54316 87.1795 7.15909 86.4125C8.78102 85.6428 10.3338 85.9279 13.6762 87.6083L16.3564 88.9557C17.2015 89.3805 18.6394 90.0285 19.2526 90.2994C19.918 90.499 20.7799 90.8523 21.7886 91.2657C24.1539 92.2351 27.3267 93.5355 30.667 93.9637C33.1772 94.2856 34.3954 94.2749 36.9747 93.9079C42.5662 93.1121 43.4047 93.4137 47.6848 97.7618C52.5423 102.697 57.0234 105.518 63.3121 107.602C73.194 110.876 88.4215 111.826 100.447 109.92C112.156 108.064 121.253 105.202 127.644 101.364C139.719 94.1123 145.247 83.3346 143.39 70.6689C142.39 63.8524 140.044 58.5593 135.236 52.276C132.817 49.115 128.423 44.8273 125.492 42.7677C120.519 39.2727 113.615 36.6156 105.515 35.0796C102.238 34.4584 100.469 34.3416 94.4361 34.3469C86.2509 34.3543 82.1435 34.8582 75.6184 36.655C64.3172 39.7673 55.9264 44.3695 48.6091 51.4686L45.6929 54.2976L44.3758 53.9033C42.8938 53.4591 41.34 51.8376 41.34 50.7349C41.34 50.3329 41.0368 49.4803 40.6657 48.8402C38.8334 45.6775 38.7339 44.6684 40.2183 44.2957C40.7659 44.1585 40.9743 43.917 40.8651 43.5474C40.7763 43.2472 40.611 42.6117 40.4978 42.1352C40.3285 41.4226 40.0189 41.2145 38.7603 40.9664C37.0075 40.6205 36.0865 39.6374 35.7869 37.7927C35.5418 36.2817 36.2668 35.4883 37.8931 35.4883C38.8328 35.4883 39.0325 35.3804 38.8712 34.96C38.7596 34.6695 38.6685 34.005 38.6685 33.4834C38.6685 32.6943 38.4708 32.4695 37.494 32.147C36.0982 31.6865 35.3291 30.4025 35.3291 28.5332C35.3291 27.0442 35.7322 26.58 37.1657 26.4181C38.0614 26.3172 38.1786 26.1703 38.2724 25.0336C38.3602 23.968 38.1843 23.5486 37.1871 22.4446C36.2658 21.4248 35.997 20.8427 35.997 19.867C35.997 18.3072 36.7837 17.1221 37.8189 17.1221C38.5179 17.1221 38.6591 16.8639 39.1413 14.7011C39.6646 12.3552 40.8404 9.50911 41.745 8.39879C43.3029 6.48636 46.5801 5.86692 48.6061 7.10246C50.5683 8.2986 51.0756 9.5425 50.9213 12.781C50.8468 14.3421 50.5269 17.1972 50.21 19.1257C49.4286 23.8828 49.6293 31.0019 50.6765 35.693L51.4306 39.0704L54.984 36.8885C63.2036 31.8418 72.3468 28.4911 81.9134 27.0201C87.567 26.1509 88.2673 26.0965 93.6867 26.1031C101.306 26.1125 108.999 27.3317 113.834 29.2965L115.91 30.14L115.691 26.386C115.396 21.3226 114.524 17.1885 112.45 11.0145C110.573 5.42981 110.512 4.61902 111.809 2.49321ZM114.48 127.533L94.2764 118.971C86.4777 119.852 81.2638 120.309 74.4094 118.539C73.017 118.179 71.4172 117.766 69.4742 117.307L69.0568 139.888C69.0568 139.888 68.0695 141.724 78.2473 141.223V124.874L107.581 136.716L107.666 180.61L78.2462 166.302L78.2473 166.302L78.177 166.269L78.1761 166.313C74.8699 166.803 72.2138 166.796 69.0568 165.801V172.727L77.9394 177.455L107.666 191.919L114.001 195.321L121.105 191.919L169.238 167.226V109.92L143.625 96.6141L136.52 103.824L150.869 109.92L114.48 127.533ZM21.0536 110.289C22.3352 106.616 23.9588 102.976 24.7656 101.969C25.0759 101.582 25.1613 101.642 25.2415 102.303C25.4752 104.239 26.6724 105.28 28.666 105.28C29.5633 105.28 30.9879 104.307 30.9879 103.694C30.9879 103.556 31.946 103.443 33.1168 103.443C35.082 103.443 35.2857 103.513 35.7659 104.35C36.8208 106.188 39.3871 105.935 40.4908 103.886L41.1443 102.672L43.9971 105.576C48.0461 109.698 52.0046 112.189 58.3708 114.62L61.5432 115.831L61.5913 124.319L61.5945 124.874V124.874C61.6245 130.068 61.6362 132.1 61.2667 132.172C61.0291 132.218 60.6341 131.455 59.9851 130.2L59.8769 129.991C57.9003 126.174 54.7489 124.965 52.6368 127.213C52.011 127.879 51.859 128.411 51.859 129.938C51.859 131.572 52.0654 132.195 53.3507 134.441C56.3221 139.635 61.6481 144.346 67.124 146.626C67.7806 146.899 68.4183 147.139 69.0568 147.348C72.3112 148.413 75.5878 148.675 81.5097 148.47L82.4143 148.438L87.5904 148.259L89.3105 149.132C92.2869 150.642 93.1047 152.426 91.801 154.564C90.9575 155.948 88.7942 157.161 85.2121 158.262C82.4908 159.098 81.7952 159.173 76.7374 159.17C70.1615 159.166 67.7798 158.64 62.5013 156.026C56.6744 153.14 52.5466 149.872 48.2879 144.773C44.9695 140.801 43.186 140.078 41.5367 142.038C40.607 143.143 40.4784 144.141 41.0167 146.078C41.4428 147.613 43.5737 150.829 45.7169 153.175C46.2813 153.792 48.6271 155.485 51.3467 157.447C55.9172 160.744 61.5432 164.599 61.5432 164.599V176.955C61.5432 176.955 66.5595 179.626 69.0568 180.61L106.966 198.994L104.765 199.541C90.715 203.818 75.5319 203.436 60.694 198.431C43.8689 192.756 29.8141 179.846 22.8164 163.64C18.2722 153.116 16.6937 144.622 17.065 132.694C17.3462 123.662 18.345 118.052 21.0536 110.289Z" fill="#28338B"/>
<path d="M471.283 147.74C453.918 147.74 441.632 134.864 441.632 116.79C441.632 98.7165 453.918 85.8405 471.283 85.8405C488.647 85.8405 501.051 98.7165 501.051 116.79C501.051 134.864 488.647 147.74 471.283 147.74ZM471.283 135.573C481.087 135.573 488.175 127.776 488.175 116.79C488.175 105.568 481.087 97.6533 471.283 97.6533C461.478 97.6533 454.508 105.568 454.508 116.79C454.508 127.776 461.478 135.573 471.283 135.573Z" fill="#28338B"/>
<path d="M423.59 87.2579H435.994V146.322H423.59V87.2579ZM429.851 80.5245C425.008 80.5245 421.582 76.8626 421.582 71.9011C421.582 66.9397 425.008 63.3959 429.851 63.3959C434.694 63.3959 438.12 66.9397 438.12 71.9011C438.12 76.8626 434.694 80.5245 429.851 80.5245Z" fill="#28338B"/>
<path d="M408.261 147.267C403.299 147.267 399.637 143.487 399.637 138.408C399.637 133.21 403.299 129.548 408.261 129.548C413.34 129.548 416.884 133.21 416.884 138.408C416.884 143.487 413.34 147.267 408.261 147.267Z" fill="#28338B"/>
<path d="M381.362 146.322V65.9948H393.766V146.322H381.362Z" fill="#28338B"/>
<path d="M346.098 147.74C328.733 147.74 316.447 134.864 316.447 116.79C316.447 98.7165 328.733 85.8405 346.098 85.8405C363.463 85.8405 375.866 98.7165 375.866 116.79C375.866 134.864 363.463 147.74 346.098 147.74ZM346.098 135.573C355.902 135.573 362.99 127.776 362.99 116.79C362.99 105.568 355.902 97.6533 346.098 97.6533C336.293 97.6533 329.323 105.568 329.323 116.79C329.323 127.776 336.293 135.573 346.098 135.573Z" fill="#28338B"/>
<path d="M260.759 146.322L282.967 116.199L261.586 87.2579H277.415L290.291 106.277L302.459 87.2579H318.17L297.615 116.199L319.824 146.322H303.994L290.173 125.886L277.061 146.322H260.759Z" fill="#28338B"/>
<path d="M229.449 147.74C217.873 147.74 210.076 140.77 210.076 130.493C210.076 122.579 216.219 115.963 225.551 114.191L244.216 110.529C245.987 110.293 247.169 108.994 247.169 107.458C247.169 101.433 242.798 97.0627 236.655 97.0627C230.276 97.0627 225.315 101.552 224.842 108.285L212.084 105.214C213.975 93.8732 223.897 85.8405 236.065 85.8405C249.768 85.8405 259.572 95.0545 259.572 107.812V134.51L259.809 146.322H250.004L247.878 138.29C244.216 144.078 237.482 147.74 229.449 147.74ZM223.425 128.839C223.425 133.092 226.851 135.927 232.521 135.927C240.79 135.927 247.169 129.903 247.169 121.043V118.326C245.987 118.562 244.688 118.917 243.389 119.153L230.513 121.515C226.142 122.342 223.425 125.177 223.425 128.839Z" fill="#28338B"/>
</svg>
