<svg width="423" height="123" viewBox="0 0 423 123" fill="none" xmlns="http://www.w3.org/2000/svg">
<path d="M379.544 122.691C354.376 122.691 336.57 104.021 336.57 77.8139C336.57 51.607 354.376 32.9368 379.544 32.9368C404.711 32.9368 422.688 51.607 422.688 77.8139C422.688 104.021 404.711 122.691 379.544 122.691ZM379.544 105.048C393.754 105.048 404.026 93.7435 404.026 77.8139C404.026 61.5416 393.754 50.0654 379.544 50.0654C365.333 50.0654 355.232 61.5416 355.232 77.8139C355.232 93.7435 365.333 105.048 379.544 105.048Z" fill="#FFCD9C"/>
<path d="M310.424 34.992H328.401V120.635H310.424V34.992ZM319.498 25.2286C312.479 25.2286 307.514 19.9188 307.514 12.7247C307.514 5.53068 312.479 0.39209 319.498 0.39209C326.518 0.39209 331.483 5.53068 331.483 12.7247C331.483 19.9188 326.518 25.2286 319.498 25.2286Z" fill="#FFCD9C"/>
<path d="M288.209 122.005C281.018 122.005 275.711 116.524 275.711 109.159C275.711 101.622 281.018 96.3125 288.209 96.3125C295.571 96.3125 300.707 101.622 300.707 109.159C300.707 116.524 295.571 122.005 288.209 122.005Z" fill="#FFCD9C"/>
<path d="M249.219 120.635V4.1604H267.196V120.635H249.219Z" fill="#FFCD9C"/>
<path d="M198.113 122.691C172.945 122.691 155.139 104.021 155.139 77.8139C155.139 51.607 172.945 32.9368 198.113 32.9368C223.28 32.9368 241.257 51.607 241.257 77.8139C241.257 104.021 223.28 122.691 198.113 122.691ZM198.113 105.048C212.323 105.048 222.595 93.7435 222.595 77.8139C222.595 61.5416 212.323 50.0654 198.113 50.0654C183.902 50.0654 173.801 61.5416 173.801 77.8139C173.801 93.7435 183.902 105.048 198.113 105.048Z" fill="#FFCD9C"/>
<path d="M74.422 120.635L106.609 76.9572L75.6204 34.9919H98.5624L117.224 62.5691L134.859 34.9919H157.629L127.839 76.9572L160.026 120.635H137.084L117.053 91.0027L98.0487 120.635H74.422Z" fill="#FFCD9C"/>
<path d="M29.0459 122.691C12.2675 122.691 0.967773 112.585 0.967773 97.6831C0.967773 86.2069 9.8706 76.6149 23.3961 74.0456L50.447 68.7357C53.0151 68.3931 54.7272 66.5089 54.7272 64.2822C54.7272 55.5466 48.3925 49.209 39.4896 49.209C30.2444 49.209 23.0536 55.7179 22.3688 65.4812L3.87831 61.0278C6.61765 44.5843 20.9991 32.9368 38.6336 32.9368C58.4938 32.9368 72.704 46.2971 72.704 64.7961V103.507L73.0465 120.636H58.8362L55.7544 108.988C50.447 117.381 40.6881 122.691 29.0459 122.691ZM20.3143 95.2851C20.3143 101.451 25.2794 105.562 33.4973 105.562C45.4819 105.562 54.7272 96.8267 54.7272 83.9802V80.0406C53.0151 80.3832 51.1318 80.897 49.2485 81.2396L30.5868 84.6653C24.2521 85.8643 20.3143 89.9752 20.3143 95.2851Z" fill="#FFCD9C"/>
</svg>
