<svg width="254" height="307" viewBox="0 0 254 307" fill="none" xmlns="http://www.w3.org/2000/svg">
<path d="M65.9263 84.9425C66.2271 85.2318 67.8358 85.4287 69.1556 85.338C69.5295 85.3123 70.5603 84.7142 71.4467 84.0087C72.3329 83.3031 73.1202 82.7258 73.1969 82.7258C73.2732 82.7258 73.2716 83.1646 73.193 83.7005C73.0234 84.855 73.8389 85.9329 74.8816 85.9329C77.4829 85.9329 81.104 83.6684 81.7804 81.6191C82.2855 80.0887 81.7176 78.1891 80.3436 76.8155C79.4536 75.9256 78.7805 75.6196 76.7488 75.1815C70.9041 73.9212 65.401 71.6079 61.5425 68.7895C60.1429 67.7671 60.0528 67.6093 59.9142 65.9356C59.7414 63.8516 59.2722 63.1627 58.0262 63.1627C57.142 63.1627 56.8521 63.3606 56.0374 64.519C55.6808 65.0264 55.499 64.96 53.9089 63.741C50.6995 61.2812 48.7553 60.2764 47.2053 60.2764C44.5579 60.2764 42.648 62.1945 42.6656 64.8362C42.683 67.4291 44.7368 69.818 49.9548 73.315C52.2238 74.8355 52.6007 75.2168 52.6007 75.992C52.6007 76.6077 52.9153 77.1609 53.5875 77.7263C54.7806 78.7305 55.8986 78.7866 56.7975 77.8876C57.3838 77.3014 57.5814 77.2664 58.3989 77.6051C59.2606 77.962 59.3161 78.0849 59.1323 79.2343C58.8992 80.6919 59.3061 81.3288 60.8937 81.9924C61.486 82.2403 61.919 82.4789 61.8558 82.5231C62.6255 83.2464 64.8902 84.4374 65.9263 84.9425Z" fill="#28338B"/>
<path fill-rule="evenodd" clip-rule="evenodd" d="M57.8527 28.1044C58.5008 26.4072 59.5005 25.4131 61.1493 24.8252C61.2463 24.7906 61.3364 24.7582 61.4202 24.7281C62.0119 24.5154 62.297 24.413 62.5845 24.4058C62.8517 24.3991 63.121 24.4747 63.6406 24.6207L63.6413 24.6209C63.7201 24.643 63.8047 24.6668 63.8959 24.6921C65.3336 25.0914 66.8775 26.3338 67.5485 27.6314C67.8195 28.1554 68.4631 30.874 68.9792 33.6728C70.0269 39.3551 70.3602 40.4773 72.3357 44.9732C74.0862 48.9567 76.1317 52.2828 79.1086 55.986C81.985 59.5644 82.4225 60.3755 82.425 62.1365C82.4302 65.7197 79.1005 67.9624 73.7677 67.9679C71.5766 67.9698 69.2777 67.49 69.2777 67.0308C69.2777 66.8817 69.9994 66.2091 70.8813 65.5366C71.7633 64.8641 72.4849 64.2076 72.4849 64.078C72.4849 63.5537 71.8672 63.5206 70.9176 63.9947C69.1206 64.891 66.7585 63.799 65.8641 61.6583C65.3205 60.3578 65.697 59.4204 66.8817 59.1228C66.9298 59.1107 66.9755 59.0995 67.0187 59.0889C67.343 59.0091 67.5284 58.9634 67.5924 58.8495C67.6779 58.6974 67.5467 58.4236 67.2403 57.784C67.2098 57.7204 67.1776 57.6532 67.1437 57.5821C66.6242 56.4927 66.5815 56.4734 65.069 56.6527C63.122 56.8833 62.2278 56.3429 61.2644 54.3526C60.5977 52.9755 60.5861 52.837 61.0749 52.091C61.3613 51.6542 61.8965 51.2966 62.2641 51.2966C62.8144 51.2966 62.8978 51.1568 62.7352 50.509C62.2089 48.4115 61.9539 48.0896 60.8199 48.0896C59.9723 48.0896 59.5037 47.84 58.7581 46.9908C58.2276 46.3866 57.6978 45.4572 57.581 44.9251C57.3796 44.0079 57.8103 42.6433 58.3046 42.6327C58.4306 42.6298 58.7183 42.5109 58.9434 42.3678C59.2667 42.1626 59.1801 41.4708 58.5319 39.0854C57.4232 35.0067 57.116 30.0341 57.8527 28.1044ZM162.094 62.5855C162.703 61.4149 163.823 60.4108 165.173 59.8251C166.698 59.1642 168.172 59.1963 169.593 59.9217C171.063 60.6718 171.738 61.4001 172.375 62.9235C173.764 66.2492 171.747 69.793 167.965 70.6705C166.014 71.1233 163.149 69.6352 162.113 67.6305C161.516 66.4776 161.506 63.7147 162.094 62.5855ZM112.104 82.1194C110.108 79.3039 111.19 75.1305 114.279 73.7278C118.039 72.021 121.888 74.0533 122.714 78.1817C123.118 80.2041 121.556 82.8621 119.281 84.0228C116.715 85.3322 113.841 84.5702 112.104 82.1194ZM147.587 86.2651C153.606 84.6783 159.68 81.8413 163.153 78.9944C164.308 78.048 165.372 77.2738 165.517 77.2738C166.277 77.2738 167.417 78.1051 167.746 78.9001C168.344 80.3436 167.624 81.8981 165.294 84.1937C160.568 88.851 151.829 92.6357 142.691 93.9829C139.169 94.5025 131.376 94.4983 128.129 93.9756C124.259 93.3527 123.157 92.5834 123.157 90.5052C123.157 88.4735 123.322 88.4264 130.72 88.3359C137.699 88.2506 142.109 87.709 147.587 86.2651Z" fill="#28338B"/>
<path d="M195.555 114.381L158.713 131.838V173.994L196.143 154.929L195.555 114.381Z" fill="#28338B"/>
<path fill-rule="evenodd" clip-rule="evenodd" d="M158.713 131.838V173.994L196.143 154.929L195.555 114.381L158.713 131.838Z" fill="#28338B"/>
<path fill-rule="evenodd" clip-rule="evenodd" d="M149.784 2.93155C150.158 2.319 151.005 1.61024 151.788 1.2549C153.541 0.458907 154.387 0.470772 156.13 1.31487C157.732 2.09002 159.192 3.92253 160.244 6.47824C160.789 7.8018 161.124 8.19402 161.874 8.38837C163.649 8.84826 164.15 11.4999 162.731 12.919C161.927 13.7233 161.91 13.816 162.281 15.3628C162.621 16.778 162.737 16.9329 163.256 16.6552C164.105 16.2008 164.449 16.2591 165.171 16.981C165.602 17.4121 165.812 18.05 165.812 18.9265C165.812 20.5688 165.406 21.333 164.199 21.9568C163.358 22.392 163.247 22.6171 163.247 23.8881V25.3271L164.465 25.1321C165.964 24.8925 166.594 25.5035 166.547 27.1545C166.506 28.6089 165.563 29.8686 164.265 30.2051C163.323 30.4494 163.247 30.5706 163.247 31.8269C163.247 32.9266 163.384 33.246 163.968 33.5051C164.7 33.8297 164.796 34.2463 164.413 35.448C164.239 35.9922 164.563 36.4078 166.166 37.6929C167.247 38.5604 168.21 39.2701 168.305 39.2701C168.638 39.2701 169.684 35.7042 170.471 31.8823C170.993 29.351 171.362 26.1427 171.542 22.571C171.882 15.8166 172.285 14.8416 175.246 13.6047C176.944 12.8949 178.585 13.2301 180.207 14.6181C182.698 16.7501 183.078 20.6121 181.664 29.4084C181.483 30.5367 181.534 30.7714 181.96 30.7714C182.243 30.7714 182.715 31.1386 183.01 31.5876C183.455 32.2672 183.484 32.6052 183.185 33.6036C182.727 35.1314 181.713 36.2234 180.752 36.2234C179.797 36.2234 179.3 36.8286 179.064 38.2795C178.893 39.3359 178.942 39.4305 179.657 39.4305C181.197 39.4305 181.655 40.839 180.71 42.6674C180.122 43.8039 178.874 44.3562 177.483 44.0952C176.59 43.9277 176.434 44.015 176.071 44.8915C175.682 45.8308 175.717 45.9254 176.831 46.9459C178.074 48.0844 178.19 48.4176 177.674 49.381C177.418 49.8592 177.562 50.3351 178.345 51.6083L179.342 53.2279L180.586 52.2424C182.116 51.0307 185.107 47.7682 186.406 45.8953C187.422 44.43 187.504 43.9614 187.128 41.7588C186.97 40.8342 187.024 40.2438 187.297 39.9148C187.818 39.2878 189.361 39.2923 189.991 39.9221C190.432 40.3634 190.577 40.2412 191.419 38.7195C194.229 33.6347 195.26 32.6421 197.731 32.6421C201.643 32.6421 203.239 36.7619 201.088 41.3092C200.557 42.4304 199.325 44.506 198.35 45.9213C196.665 48.3682 196.605 48.5241 197.121 49.0946C197.982 50.0465 197.244 52.0358 195.635 53.1006C194.53 53.8324 194.255 53.8898 193.357 53.5768C191.974 53.0948 191.947 53.1022 191.507 54.0675C191.17 54.8067 191.212 55.0114 191.837 55.6759C192.77 56.6697 192.385 57.9022 190.861 58.7918L189.776 59.4259L188.372 58.6809C187.6 58.2713 186.874 58.0298 186.759 58.1443C186.645 58.2588 186.711 58.872 186.906 59.507C187.118 60.201 187.151 60.9483 186.986 61.3809C186.691 62.1573 185.015 63.0181 184.318 62.751C183.991 62.6252 184.04 63.1582 184.529 65.0395C184.881 66.3887 185.211 67.549 185.264 67.6183C185.434 67.8412 189.33 66.3108 191.149 65.306C194.582 63.4094 194.683 63.3013 194.607 61.573C194.568 60.66 194.716 59.8139 194.968 59.5096C195.513 58.8525 197.357 58.8399 197.896 59.4897C198.123 59.7626 198.393 59.871 198.497 59.7302C199.506 58.3647 202.808 55.7807 203.93 55.4786C206.58 54.7647 209.108 56.7836 209.108 59.6135C209.108 61.8883 207.714 63.7856 203.015 67.9041C199.77 70.7484 199.161 71.039 197.856 70.3645C196.533 69.6801 196.228 69.9941 196.467 71.7978C196.665 73.2852 196.638 73.35 195.555 74.019C194.099 74.9189 193.225 74.8894 192.242 73.9064C190.985 72.6499 189.995 72.8798 190.536 74.3025C190.947 75.3855 190.668 76.1356 189.684 76.5837C188.575 77.0891 187.615 77.0471 186.971 76.4647C186.471 76.0125 186.418 76.1485 186.25 78.3087C186.151 79.5916 185.964 80.91 185.835 81.2384C185.835 84.41 184.964 87.2916 184.529 88.3359L189.163 90.6774L199.536 95.9219C208.22 100.313 210.025 101.344 210.631 102.256L211.353 103.346V133.803V165.513L151.889 197.344C138.7 202.978 124.595 204.535 109.681 202.002C94.7898 199.473 79.9581 191.588 69.6921 180.742C59.5864 170.067 53.0564 156.143 50.9465 140.774C50.7008 138.985 50.5282 134.615 50.5282 130.19C50.5282 125.766 50.7008 121.396 50.9465 119.607C51.8746 112.845 54.0622 104.827 56.4736 99.3474L56.575 99.1171C57.5391 96.9267 57.7807 96.3779 57.6344 96.2397C57.5855 96.1935 57.4932 96.1932 57.3701 96.1928C57.3574 96.1927 57.3445 96.1927 57.3312 96.1926C56.6013 96.1871 49.8939 92.7883 48.8208 91.8797C47.4006 90.6777 46.8279 89.4677 46.8279 87.6705C46.8279 85.7834 47.7271 84.2639 49.2791 83.5273C50.8368 82.788 52.3281 83.0619 55.5381 84.6757L58.1121 85.9698C58.9238 86.3778 60.3047 87.0001 60.8937 87.2602C61.5326 87.452 62.3604 87.7913 63.3292 88.1883C65.6008 89.1193 68.6479 90.3682 71.856 90.7794C74.2668 91.0886 75.4367 91.0783 77.9139 90.7258C83.2839 89.9616 84.0892 90.2512 88.1998 94.4271C92.8649 99.1665 97.1685 101.876 103.208 103.877C112.699 107.022 127.323 107.935 138.872 106.104C150.117 104.321 158.854 101.572 164.992 97.8866C176.589 90.9221 181.899 80.5713 180.115 68.4072C179.155 61.8607 176.901 56.7772 172.283 50.7428C169.96 47.707 165.741 43.5891 162.926 41.611C158.15 38.2545 151.519 35.7026 143.74 34.2273C140.593 33.6308 138.894 33.5186 133.1 33.5237C125.239 33.5308 121.294 34.0147 115.027 35.7404C104.174 38.7294 96.115 43.1494 89.0875 49.9673L86.2867 52.6843L85.0219 52.3056C83.5985 51.879 82.1063 50.3217 82.1063 49.2627C82.1063 48.8766 81.815 48.0578 81.4587 47.443C79.699 44.4056 79.6034 43.4364 81.029 43.0785C81.555 42.9467 81.7551 42.7148 81.6502 42.3598C81.5649 42.0715 81.4061 41.4612 81.2974 41.0035C81.1348 40.3192 80.8375 40.1194 79.6287 39.8811C77.9453 39.5488 77.0608 38.6047 76.7731 36.8331C76.5377 35.3819 77.234 34.6199 78.7959 34.6199C79.6983 34.6199 79.8901 34.5163 79.7352 34.1125C79.6281 33.8335 79.5406 33.1953 79.5406 32.6944C79.5406 31.9365 79.3507 31.7207 78.4126 31.4109C77.072 30.9686 76.3334 29.7355 76.3334 27.9402C76.3334 26.5102 76.7205 26.0644 78.0973 25.9089C78.9575 25.812 79.0701 25.6709 79.1602 24.5792C79.2445 23.5558 79.0755 23.153 78.1179 22.0928C77.233 21.1133 76.9749 20.5544 76.9749 19.6173C76.9749 18.1192 77.7304 16.981 78.7247 16.981C79.3959 16.981 79.5316 16.7331 79.9947 14.6559C80.4972 12.403 81.6265 9.66959 82.4953 8.60324C83.9914 6.76655 87.1389 6.17164 89.0846 7.35826C90.9692 8.50703 91.4563 9.70166 91.3081 12.8119C91.2366 14.3112 90.9294 17.0532 90.625 18.9053C89.8746 23.4741 90.0673 30.3112 91.0731 34.8165L91.7972 38.0601L95.2099 35.9646C103.104 31.1178 111.885 27.8998 121.073 26.4871C126.503 25.6523 127.175 25.6 132.38 25.6064C139.697 25.6154 147.086 26.7863 151.729 28.6734L153.723 29.4835L153.513 25.8781C153.23 21.0152 152.392 17.0449 150.4 11.1153C148.597 5.75184 148.539 4.97317 149.784 2.93155ZM152.349 123.019L132.946 114.796C125.456 115.643 120.449 116.082 113.866 114.381C112.529 114.036 110.992 113.639 109.126 113.198L108.725 134.885C108.725 134.885 107.777 136.648 117.552 136.167V120.466L145.724 131.838L145.806 173.994L117.551 160.253L117.552 160.253L117.484 160.221L117.484 160.263C114.308 160.734 111.757 160.727 108.725 159.772V166.424L117.256 170.965L145.806 184.856L151.889 188.122L158.713 184.856L204.939 161.14V106.104L180.34 93.3249L173.516 100.249L187.297 106.104L152.349 123.019ZM62.6233 106.458C63.8542 102.93 65.4135 99.4353 66.1883 98.4677C66.4863 98.0957 66.5684 98.1534 66.6453 98.7884C66.8698 100.648 68.0196 101.647 69.9342 101.647C70.796 101.647 72.1642 100.713 72.1642 100.124C72.1642 99.9917 73.0843 99.8836 74.2087 99.8836C76.0961 99.8836 76.2917 99.9506 76.7529 100.754C77.7661 102.519 80.2307 102.277 81.2907 100.309L81.9183 99.1428L84.6582 101.932C88.5468 105.891 92.3485 108.283 98.4626 110.617L101.509 111.781L101.556 119.932L101.559 120.466V120.466C101.587 125.454 101.599 127.406 101.244 127.475C101.016 127.519 100.636 126.786 100.013 125.581L99.909 125.38C98.0107 121.714 94.9842 120.553 92.9557 122.712C92.3546 123.352 92.2087 123.863 92.2087 125.329C92.2087 126.898 92.4069 127.497 93.6413 129.654C96.495 134.642 101.61 139.167 106.869 141.356C107.5 141.619 108.112 141.849 108.725 142.05C111.851 143.072 114.998 143.324 120.685 143.127L121.554 143.097L126.525 142.924L128.177 143.763C131.035 145.213 131.821 146.927 130.569 148.98C129.759 150.309 127.681 151.474 124.241 152.531C121.627 153.334 120.959 153.406 116.102 153.403C109.786 153.4 107.499 152.894 102.429 150.384C96.8334 147.612 92.8691 144.473 88.779 139.577C85.5921 135.761 83.8792 135.067 82.2952 136.95C81.4023 138.011 81.2788 138.969 81.7958 140.83C82.205 142.304 84.2515 145.393 86.3098 147.645C86.8519 148.239 89.1048 149.864 91.7167 151.748C96.1061 154.915 101.509 158.617 101.509 158.617V170.484C101.509 170.484 106.327 173.049 108.725 173.994L145.133 191.65L143.02 192.175C129.526 196.283 114.944 195.916 100.694 191.109C84.535 185.659 71.0369 173.261 64.3163 157.696C59.9521 147.589 58.4361 139.432 58.7927 127.976C59.0627 119.302 60.022 113.914 62.6233 106.458Z" fill="#28338B"/>
<path d="M227.639 306.466C212.538 306.466 201.855 295.269 201.855 279.552C201.855 263.835 212.538 252.638 227.639 252.638C242.739 252.638 253.525 263.835 253.525 279.552C253.525 295.269 242.739 306.466 227.639 306.466ZM227.639 295.886C236.165 295.886 242.328 289.106 242.328 279.552C242.328 269.793 236.165 262.911 227.639 262.911C219.112 262.911 213.052 269.793 213.052 279.552C213.052 289.106 219.112 295.886 227.639 295.886Z" fill="#28338B"/>
<path d="M186.166 253.871H196.952V305.234H186.166V253.871ZM191.61 248.016C187.398 248.016 184.419 244.831 184.419 240.517C184.419 236.202 187.398 233.121 191.61 233.121C195.822 233.121 198.801 236.202 198.801 240.517C198.801 244.831 195.822 248.016 191.61 248.016Z" fill="#28338B"/>
<path d="M172.835 306.055C168.521 306.055 165.337 302.768 165.337 298.351C165.337 293.831 168.521 290.647 172.835 290.647C177.253 290.647 180.334 293.831 180.334 298.351C180.334 302.768 177.253 306.055 172.835 306.055Z" fill="#28338B"/>
<path d="M149.444 305.234V235.381H160.23V305.234H149.444Z" fill="#28338B"/>
<path d="M118.778 306.466C103.678 306.466 92.9944 295.269 92.9944 279.552C92.9944 263.835 103.678 252.638 118.778 252.638C133.879 252.638 144.665 263.835 144.665 279.552C144.665 295.269 133.879 306.466 118.778 306.466ZM118.778 295.886C127.305 295.886 133.468 289.106 133.468 279.552C133.468 269.793 127.305 262.911 118.778 262.911C110.252 262.911 104.191 269.793 104.191 279.552C104.191 289.106 110.252 295.886 118.778 295.886Z" fill="#28338B"/>
<path d="M44.5676 305.234L63.8799 279.039L45.2867 253.871H59.0518L70.2489 270.41L80.8295 253.871H94.492L76.6178 279.039L95.9301 305.234H82.165L70.1461 287.462L58.7437 305.234H44.5676Z" fill="#28338B"/>
<path d="M17.3405 306.466C7.2735 306.466 0.493652 300.406 0.493652 291.468C0.493652 284.586 5.83535 278.833 13.9506 277.292L30.1812 274.108C31.722 273.902 32.7493 272.773 32.7493 271.437C32.7493 266.198 28.9485 262.397 23.6068 262.397C18.0596 262.397 13.7452 266.301 13.3343 272.156L2.23998 269.485C3.88358 259.624 12.5125 252.638 23.0931 252.638C35.0092 252.638 43.5354 260.651 43.5354 271.745V294.961L43.7409 305.234H35.2147L33.3656 298.248C30.1812 303.282 24.3258 306.466 17.3405 306.466ZM12.1016 290.03C12.1016 293.728 15.0806 296.194 20.0114 296.194C27.2021 296.194 32.7493 290.955 32.7493 283.25V280.888C31.722 281.093 30.5921 281.401 29.4621 281.607L18.2651 283.661C14.4642 284.38 12.1016 286.846 12.1016 290.03Z" fill="#28338B"/>
</svg>
