<svg width="502" height="211" viewBox="0 0 502 211" fill="none" xmlns="http://www.w3.org/2000/svg">
<path d="M24.4928 87.8465C24.806 88.1478 26.4811 88.3528 27.8552 88.2583C28.2446 88.2316 29.3179 87.6088 30.2409 86.8741C31.1635 86.1395 31.9834 85.5384 32.0632 85.5384C32.1427 85.5384 32.141 85.9952 32.0592 86.5532C31.8825 87.7554 32.7317 88.8777 33.8174 88.8777C36.5259 88.8777 40.2964 86.5198 41.0007 84.386C41.5266 82.7925 40.9352 80.8146 39.5047 79.3844C38.578 78.4577 37.877 78.1392 35.7615 77.683C29.6759 76.3707 23.9458 73.962 19.9282 71.0274C18.4709 69.9629 18.3771 69.7986 18.2328 68.0558C18.0528 65.8859 17.5643 65.1686 16.2669 65.1686C15.3462 65.1686 15.0444 65.3746 14.1962 66.5808C13.8248 67.1091 13.6355 67.04 11.9798 65.7707C8.6381 63.2094 6.61377 62.1632 4.99984 62.1632C2.24319 62.1632 0.254587 64.1605 0.272953 66.9111C0.290986 69.6109 2.42952 72.0984 7.86269 75.7395C10.2253 77.3227 10.6177 77.7197 10.6177 78.5269C10.6177 79.168 10.9453 79.744 11.6452 80.3328C12.8875 81.3783 14.0516 81.4367 14.9876 80.5007C15.598 79.8903 15.8037 79.8539 16.6549 80.2065C17.5522 80.5782 17.61 80.7061 17.4187 81.9029C17.1759 83.4206 17.5997 84.0838 19.2526 84.7747C19.8694 85.0328 20.3202 85.2813 20.2545 85.3274C21.0559 86.0805 23.414 87.3206 24.4928 87.8465Z" fill="#FDFFF9"/>
<path fill-rule="evenodd" clip-rule="evenodd" d="M16.0863 28.6646C16.7611 26.8974 17.802 25.8622 19.5188 25.2501C19.6199 25.2141 19.7136 25.1804 19.8009 25.149C20.417 24.9276 20.7139 24.8209 21.0132 24.8134C21.2914 24.8064 21.5718 24.8852 22.1128 25.0372L22.1136 25.0374C22.1957 25.0605 22.2837 25.0852 22.3786 25.1116C23.8757 25.5273 25.4833 26.821 26.1819 28.172C26.464 28.7177 27.1343 31.5484 27.6716 34.4626C28.7625 40.3792 29.1095 41.5476 31.1666 46.229C32.9892 50.3768 35.119 53.84 38.2187 57.6959C41.2137 61.4219 41.6692 62.2664 41.6719 64.1C41.6772 67.831 38.2103 70.1662 32.6576 70.1719C30.3761 70.1739 27.9825 69.6743 27.9825 69.1962C27.9825 69.0409 28.7338 68.3406 29.6521 67.6404C30.5705 66.9401 31.3218 66.2566 31.3218 66.1217C31.3218 65.5757 30.6787 65.5413 29.6899 66.0348C27.8188 66.9682 25.3594 65.8311 24.428 63.6021C23.862 62.248 24.254 61.272 25.4876 60.9621C25.5377 60.9495 25.5853 60.9378 25.6302 60.9267C25.9679 60.8436 26.161 60.7961 26.2276 60.6775C26.3166 60.5192 26.18 60.234 25.861 59.5681C25.8293 59.5019 25.7957 59.4319 25.7604 59.3579C25.2195 58.2235 25.175 58.2035 23.6002 58.3901C21.5729 58.6302 20.6418 58.0676 19.6387 55.9952C18.9444 54.5613 18.9324 54.417 19.4413 53.6403C19.7395 53.1855 20.2969 52.8132 20.6796 52.8132C21.2526 52.8132 21.3394 52.6676 21.1701 51.993C20.6221 49.8091 20.3566 49.4738 19.1758 49.4738C18.2932 49.4738 17.8054 49.214 17.029 48.3298C16.4766 47.7007 15.925 46.7329 15.8034 46.1789C15.5937 45.2239 16.0422 43.803 16.5568 43.792C16.688 43.789 16.9876 43.6651 17.222 43.5162C17.5586 43.3025 17.4684 42.5822 16.7935 40.0984C15.6391 35.8515 15.3192 30.6739 16.0863 28.6646ZM124.626 64.5675C125.26 63.3487 126.427 62.3031 127.832 61.6934C129.42 61.0052 130.955 61.0386 132.435 61.7939C133.965 62.575 134.668 63.3333 135.331 64.9195C136.777 68.3824 134.677 72.0723 130.74 72.9859C128.707 73.4575 125.725 71.908 124.645 69.8206C124.025 68.6201 124.014 65.7433 124.626 64.5675ZM72.5745 84.907C70.4964 81.9754 71.6228 77.6299 74.8393 76.1693C78.7544 74.3921 82.7623 76.5082 83.6219 80.8069C84.043 82.9127 82.4167 85.6803 80.0481 86.8888C77.3755 88.2523 74.3835 87.4589 72.5745 84.907ZM109.521 89.2237C115.788 87.5714 122.113 84.6174 125.729 81.6531C126.931 80.6677 128.039 79.8616 128.191 79.8616C128.982 79.8616 130.168 80.7271 130.511 81.555C131.134 83.058 130.384 84.6765 127.958 87.0668C123.037 91.9162 113.938 95.8569 104.423 97.2597C100.756 97.8007 92.6415 97.7964 89.2601 97.2521C85.2314 96.6036 84.084 95.8025 84.084 93.6386C84.084 91.5231 84.2553 91.4741 91.9579 91.3799C99.2248 91.2911 103.817 90.727 109.521 89.2237Z" fill="#FDFFF9"/>
<path d="M159.468 118.499L121.105 136.676V180.57L160.08 160.719L159.468 118.499Z" fill="#FDFFF9"/>
<path fill-rule="evenodd" clip-rule="evenodd" d="M121.105 136.676V180.57L160.08 160.719L159.468 118.499L121.105 136.676Z" fill="#FDFFF9"/>
<path fill-rule="evenodd" clip-rule="evenodd" d="M111.809 2.45366C112.198 1.81585 113.08 1.07787 113.895 0.70787C115.72 -0.120947 116.601 -0.108593 118.417 0.770314C120.084 1.57743 121.604 3.48551 122.7 6.14661C123.267 7.52474 123.616 7.93314 124.397 8.1355C126.245 8.61436 126.767 11.3753 125.29 12.8529C124.452 13.6904 124.434 13.787 124.821 15.3975C125.174 16.8711 125.296 17.0324 125.836 16.7432C126.721 16.2701 127.078 16.3308 127.83 17.0825C128.279 17.5313 128.498 18.1955 128.498 19.1082C128.498 20.8182 128.074 21.614 126.818 22.2635C125.942 22.7166 125.826 22.951 125.826 24.2744V25.7727L127.095 25.5697C128.656 25.3203 129.312 25.9564 129.263 27.6755C129.22 29.1899 128.239 30.5015 126.887 30.8518C125.906 31.1063 125.826 31.2325 125.826 32.5405C125.826 33.6856 125.969 34.0182 126.578 34.288C127.34 34.6259 127.44 35.0597 127.04 36.3109C126.86 36.8776 127.197 37.3104 128.866 38.6485C129.992 39.5518 130.994 40.2907 131.093 40.2907C131.44 40.2907 132.529 36.5778 133.349 32.5983C133.892 29.9626 134.276 26.6219 134.464 22.9029C134.818 15.87 135.238 14.8549 138.32 13.5669C140.089 12.8279 141.798 13.1769 143.486 14.6221C146.08 16.8421 146.476 20.8633 145.004 30.0224C144.815 31.1971 144.868 31.4416 145.311 31.4416C145.606 31.4416 146.098 31.8239 146.404 32.2914C146.868 32.999 146.898 33.351 146.587 34.3905C146.11 35.9814 145.054 37.1184 144.054 37.1184C143.059 37.1184 142.542 37.7485 142.296 39.2592C142.118 40.3592 142.169 40.4577 142.914 40.4577C144.517 40.4577 144.994 41.9243 144.01 43.8281C143.398 45.0115 142.098 45.5866 140.65 45.3147C139.719 45.1404 139.558 45.2313 139.18 46.1439C138.775 47.122 138.811 47.2205 139.971 48.283C141.266 49.4685 141.385 49.8155 140.848 50.8186C140.582 51.3165 140.732 51.812 141.547 53.1377L142.585 54.8241L143.881 53.7979C145.474 52.5363 148.588 49.1392 149.941 47.1891C150.999 45.6634 151.084 45.1755 150.692 42.882C150.528 41.9193 150.584 41.3046 150.869 40.9619C151.411 40.3091 153.018 40.3138 153.673 40.9696C154.133 41.4291 154.284 41.3019 155.16 39.7174C158.087 34.4229 159.16 33.3894 161.733 33.3894C165.806 33.3894 167.468 37.6791 165.228 42.4139C164.676 43.5813 163.393 45.7425 162.378 47.2161C160.623 49.764 160.56 49.9263 161.097 50.5204C161.994 51.5115 161.226 53.5829 159.551 54.6915C158.4 55.4536 158.113 55.5133 157.178 55.1874C155.739 54.6855 155.71 54.6932 155.252 55.6983C154.902 56.468 154.945 56.6811 155.595 57.373C156.568 58.4078 156.166 59.6911 154.58 60.6175L153.45 61.2776L151.988 60.5019C151.184 60.0755 150.428 59.824 150.309 59.9433C150.189 60.0625 150.258 60.701 150.461 61.3621C150.683 62.0848 150.716 62.8628 150.545 63.3133C150.237 64.1217 148.492 65.018 147.767 64.7398C147.426 64.6089 147.477 65.1639 147.987 67.1228C148.352 68.5276 148.697 69.7358 148.752 69.8079C148.929 70.04 152.985 68.4465 154.879 67.4003C158.454 65.4254 158.559 65.3129 158.48 63.5133C158.439 62.5626 158.593 61.6817 158.856 61.3648C159.424 60.6806 161.343 60.6676 161.905 61.3441C162.141 61.6283 162.422 61.7411 162.53 61.5945C163.581 60.1727 167.019 57.4822 168.187 57.1676C170.947 56.4243 173.579 58.5264 173.579 61.473C173.579 63.8416 172.127 65.8171 167.235 70.1054C163.855 73.0671 163.221 73.3696 161.863 72.6674C160.485 71.9548 160.168 72.2817 160.417 74.1597C160.623 75.7085 160.595 75.7759 159.468 76.4725C157.951 77.4095 157.041 77.3788 156.017 76.3553C154.709 75.047 153.678 75.2864 154.241 76.7677C154.669 77.8954 154.378 78.6765 153.354 79.143C152.199 79.6692 151.199 79.6255 150.529 79.0191C150.009 78.5482 149.953 78.6898 149.779 80.9392C149.675 82.2749 149.48 83.6477 149.346 83.9896C149.346 87.2921 148.44 90.2925 147.987 91.3799L152.812 93.8179L163.612 99.2787C172.654 103.851 174.534 104.924 175.164 105.874L175.917 107.009V138.722V171.739L114.001 204.883C100.267 210.75 85.5811 212.37 70.052 209.733C54.5466 207.099 39.1033 198.889 28.4139 187.597C17.8915 176.481 11.0922 161.984 8.89523 145.98C8.63944 144.118 8.45977 139.567 8.45977 134.96C8.45977 130.353 8.63944 125.803 8.89523 123.941C9.86165 116.9 12.1394 108.551 14.6503 102.845L14.7558 102.606C15.7598 100.325 16.0113 99.7535 15.859 99.6096C15.808 99.5615 15.7119 99.5611 15.5837 99.5607C15.5706 99.5607 15.5571 99.5606 15.5433 99.5605C14.7832 99.5548 7.79924 96.0158 6.68189 95.0698C5.20321 93.8182 4.6068 92.5583 4.6068 90.687C4.6068 88.7221 5.54316 87.14 7.15909 86.3729C8.78102 85.6032 10.3338 85.8884 13.6762 87.5687L16.3564 88.9161C17.2015 89.341 18.6394 89.9889 19.2526 90.2598C19.918 90.4595 20.7799 90.8127 21.7886 91.2262C24.1539 92.1956 27.3267 93.4959 30.667 93.9241C33.1772 94.246 34.3954 94.2353 36.9747 93.8683C42.5662 93.0726 43.4047 93.3741 47.6848 97.7222C52.5423 102.657 57.0234 105.479 63.3121 107.562C73.194 110.836 88.4215 111.787 100.447 109.881C112.156 108.024 121.253 105.162 127.644 101.324C139.719 94.0727 145.247 83.2951 143.39 70.6294C142.39 63.8129 140.044 58.5197 135.236 52.2365C132.817 49.0755 128.423 44.7878 125.492 42.7281C120.519 39.2332 113.615 36.5761 105.515 35.04C102.238 34.4189 100.469 34.302 94.4361 34.3074C86.2509 34.3147 82.1435 34.8186 75.6184 36.6155C64.3172 39.7277 55.9264 44.33 48.6091 51.429L45.6929 54.2581L44.3758 53.8637C42.8938 53.4196 41.34 51.798 41.34 50.6954C41.34 50.2933 41.0368 49.4408 40.6657 48.8006C38.8334 45.638 38.7339 44.6288 40.2183 44.2562C40.7659 44.1189 40.9743 43.8775 40.8651 43.5078C40.7763 43.2076 40.611 42.5722 40.4978 42.0956C40.3285 41.383 40.0189 41.175 38.7603 40.9269C37.0075 40.5809 36.0865 39.5978 35.7869 37.7532C35.5418 36.2422 36.2668 35.4487 37.8931 35.4487C38.8328 35.4487 39.0325 35.3409 38.8712 34.9205C38.7596 34.6299 38.6685 33.9654 38.6685 33.4438C38.6685 32.6547 38.4708 32.43 37.494 32.1074C36.0982 31.6469 35.3291 30.363 35.3291 28.4936C35.3291 27.0046 35.7322 26.5405 37.1657 26.3785C38.0614 26.2777 38.1786 26.1307 38.2724 24.994C38.3602 23.9284 38.1843 23.509 37.1871 22.405C36.2658 21.3852 35.997 20.8032 35.997 19.8274C35.997 18.2676 36.7837 17.0825 37.8189 17.0825C38.5179 17.0825 38.6591 16.8244 39.1413 14.6615C39.6646 12.3157 40.8404 9.46956 41.745 8.35923C43.3029 6.44681 46.5801 5.82737 48.6061 7.06291C50.5683 8.25905 51.0756 9.50295 50.9213 12.7414C50.8468 14.3025 50.5269 17.1577 50.21 19.0861C49.4286 23.8433 49.6293 30.9624 50.6765 35.6534L51.4306 39.0308L54.984 36.8489C63.2036 31.8022 72.3468 28.4515 81.9134 26.9806C87.567 26.1113 88.2673 26.0569 93.6867 26.0636C101.306 26.0729 108.999 27.2921 113.834 29.257L115.91 30.1005L115.691 26.3464C115.396 21.283 114.524 17.149 112.45 10.9749C110.573 5.39025 110.512 4.57947 111.809 2.45366ZM114.48 127.493L94.2764 118.932C86.4777 119.813 81.2638 120.27 74.4094 118.499C73.017 118.139 71.4172 117.726 69.4742 117.268L69.0568 139.849C69.0568 139.849 68.0695 141.685 78.2473 141.184V124.835L107.581 136.676L107.666 180.57L78.2462 166.263L78.2473 166.263L78.177 166.229L78.1761 166.273C74.8699 166.764 72.2138 166.756 69.0568 165.762V172.688L77.9394 177.416L107.666 191.88L114.001 195.281L121.105 191.88L169.238 167.186V109.881L143.625 96.5745L136.52 103.784L150.869 109.881L114.48 127.493ZM21.0536 110.249C22.3352 106.576 23.9588 102.937 24.7656 101.929C25.0759 101.542 25.1613 101.602 25.2415 102.263C25.4752 104.2 26.6724 105.24 28.666 105.24C29.5633 105.24 30.9879 104.267 30.9879 103.654C30.9879 103.516 31.946 103.404 33.1168 103.404C35.082 103.404 35.2857 103.474 35.7659 104.31C36.8208 106.148 39.3871 105.896 40.4908 103.846L41.1443 102.632L43.9971 105.537C48.0461 109.659 52.0046 112.149 58.3708 114.58L61.5432 115.791L61.5913 124.279L61.5945 124.834V124.835C61.6245 130.029 61.6362 132.061 61.2667 132.133C61.0291 132.179 60.6341 131.415 59.9851 130.16L59.8769 129.951C57.9003 126.134 54.7489 124.925 52.6368 127.174C52.011 127.84 51.859 128.372 51.859 129.898C51.859 131.532 52.0654 132.156 53.3507 134.402C56.3221 139.595 61.6481 144.307 67.124 146.586C67.7806 146.86 68.4183 147.1 69.0568 147.309C72.3112 148.373 75.5878 148.635 81.5097 148.43L82.4143 148.399L87.5904 148.219L89.3105 149.092C92.2869 150.602 93.1047 152.387 91.801 154.525C90.9575 155.908 88.7942 157.122 85.2121 158.223C82.4908 159.059 81.7952 159.133 76.7374 159.13C70.1615 159.127 67.7798 158.601 62.5013 155.986C56.6744 153.1 52.5466 149.832 48.2879 144.734C44.9695 140.761 43.186 140.038 41.5367 141.999C40.607 143.104 40.4784 144.101 41.0167 146.039C41.4428 147.573 43.5737 150.79 45.7169 153.135C46.2813 153.753 48.6271 155.445 51.3467 157.407C55.9172 160.704 61.5432 164.56 61.5432 164.56V176.915C61.5432 176.915 66.5595 179.586 69.0568 180.57L106.966 198.954L104.765 199.501C90.715 203.778 75.5319 203.396 60.694 198.391C43.8689 192.716 29.8141 179.807 22.8164 163.601C18.2722 153.076 16.6937 144.582 17.065 132.655C17.3462 123.623 18.345 118.013 21.0536 110.249Z" fill="#FDFFF9"/>
<path d="M471.283 147.7C453.918 147.7 441.632 134.824 441.632 116.751C441.632 98.6768 453.918 85.8008 471.283 85.8008C488.647 85.8008 501.051 98.6768 501.051 116.751C501.051 134.824 488.647 147.7 471.283 147.7ZM471.283 135.533C481.087 135.533 488.175 127.737 488.175 116.751C488.175 105.528 481.087 97.6137 471.283 97.6137C461.478 97.6137 454.508 105.528 454.508 116.751C454.508 127.737 461.478 135.533 471.283 135.533Z" fill="#FDFFF9"/>
<path d="M423.59 87.2185H435.994V146.283H423.59V87.2185ZM429.851 80.4851C425.008 80.4851 421.582 76.8231 421.582 71.8617C421.582 66.9003 425.008 63.3564 429.851 63.3564C434.694 63.3564 438.12 66.9003 438.12 71.8617C438.12 76.8231 434.694 80.4851 429.851 80.4851Z" fill="#FDFFF9"/>
<path d="M408.261 147.228C403.299 147.228 399.637 143.448 399.637 138.368C399.637 133.171 403.299 129.509 408.261 129.509C413.34 129.509 416.884 133.171 416.884 138.368C416.884 143.448 413.34 147.228 408.261 147.228Z" fill="#FDFFF9"/>
<path d="M381.362 146.283V65.9551H393.766V146.283H381.362Z" fill="#FDFFF9"/>
<path d="M346.098 147.7C328.733 147.7 316.447 134.824 316.447 116.751C316.447 98.6768 328.733 85.8008 346.098 85.8008C363.463 85.8008 375.866 98.6768 375.866 116.751C375.866 134.824 363.463 147.7 346.098 147.7ZM346.098 135.533C355.902 135.533 362.99 127.737 362.99 116.751C362.99 105.528 355.902 97.6137 346.098 97.6137C336.293 97.6137 329.323 105.528 329.323 116.751C329.323 127.737 336.293 135.533 346.098 135.533Z" fill="#FDFFF9"/>
<path d="M260.759 146.283L282.967 116.16L261.586 87.2185H277.415L290.291 106.237L302.459 87.2185H318.17L297.615 116.16L319.824 146.283H303.994L290.173 125.847L277.061 146.283H260.759Z" fill="#FDFFF9"/>
<path d="M229.449 147.7C217.873 147.7 210.076 140.731 210.076 130.453C210.076 122.539 216.219 115.924 225.551 114.152L244.216 110.49C245.987 110.253 247.169 108.954 247.169 107.418C247.169 101.394 242.798 97.023 236.655 97.023C230.276 97.023 225.315 101.512 224.842 108.245L212.084 105.174C213.975 93.8335 223.897 85.8008 236.065 85.8008C249.768 85.8008 259.572 95.0148 259.572 107.773V134.47L259.809 146.283H250.004L247.878 138.25C244.216 144.038 237.482 147.7 229.449 147.7ZM223.425 128.8C223.425 133.052 226.851 135.887 232.521 135.887C240.79 135.887 247.169 129.863 247.169 121.003V118.286C245.987 118.522 244.688 118.877 243.389 119.113L230.513 121.476C226.142 122.303 223.425 125.138 223.425 128.8Z" fill="#FDFFF9"/>
</svg>
