<svg width="254" height="307" viewBox="0 0 254 307" fill="none" xmlns="http://www.w3.org/2000/svg">
<path d="M65.9263 84.9292C66.2271 85.2185 67.8358 85.4154 69.1556 85.3247C69.5295 85.299 70.5603 84.7009 71.4467 83.9953C72.3329 83.2898 73.1202 82.7125 73.1969 82.7125C73.2732 82.7125 73.2716 83.1512 73.193 83.6871C73.0234 84.8417 73.8389 85.9196 74.8816 85.9196C77.4829 85.9196 81.104 83.6551 81.7804 81.6058C82.2855 80.0753 81.7176 78.1758 80.3436 76.8022C79.4536 75.9123 78.7805 75.6063 76.7488 75.1682C70.9041 73.9079 65.401 71.5946 61.5425 68.7762C60.1429 67.7538 60.0528 67.596 59.9142 65.9223C59.7414 63.8383 59.2722 63.1494 58.0262 63.1494C57.142 63.1494 56.8521 63.3473 56.0374 64.5057C55.6808 65.0131 55.499 64.9467 53.9089 63.7277C50.6995 61.2679 48.7553 60.2631 47.2053 60.2631C44.5579 60.2631 42.648 62.1812 42.6656 64.8229C42.683 67.4158 44.7368 69.8047 49.9548 73.3017C52.2238 74.8222 52.6007 75.2035 52.6007 75.9786C52.6007 76.5944 52.9153 77.1476 53.5875 77.713C54.7806 78.7172 55.8986 78.7733 56.7975 77.8743C57.3838 77.2881 57.5814 77.2531 58.3989 77.5918C59.2606 77.9487 59.3161 78.0716 59.1323 79.221C58.8992 80.6786 59.3061 81.3155 60.8937 81.9791C61.486 82.227 61.919 82.4656 61.8558 82.5098C62.6255 83.2331 64.8902 84.4241 65.9263 84.9292Z" fill="#15002E"/>
<path fill-rule="evenodd" clip-rule="evenodd" d="M57.8527 28.0911C58.5008 26.3939 59.5005 25.3998 61.1493 24.8119C61.2463 24.7773 61.3364 24.7449 61.4202 24.7148C62.0119 24.5021 62.297 24.3996 62.5845 24.3925C62.8517 24.3858 63.121 24.4614 63.6406 24.6074L63.6413 24.6076C63.7201 24.6297 63.8047 24.6535 63.8959 24.6788C65.3336 25.0781 66.8775 26.3205 67.5485 27.6181C67.8195 28.1421 68.4631 30.8607 68.9792 33.6595C70.0269 39.3418 70.3602 40.464 72.3357 44.9599C74.0862 48.9434 76.1317 52.2695 79.1086 55.9727C81.985 59.5511 82.4225 60.3622 82.425 62.1232C82.4302 65.7064 79.1005 67.9491 73.7677 67.9546C71.5766 67.9565 69.2777 67.4767 69.2777 67.0175C69.2777 66.8683 69.9994 66.1958 70.8813 65.5233C71.7633 64.8508 72.4849 64.1943 72.4849 64.0647C72.4849 63.5404 71.8672 63.5073 70.9176 63.9813C69.1206 64.8777 66.7585 63.7857 65.8641 61.645C65.3205 60.3445 65.697 59.4071 66.8817 59.1095C66.9298 59.0974 66.9755 59.0862 67.0187 59.0756C67.343 58.9957 67.5284 58.9501 67.5924 58.8362C67.6779 58.6841 67.5467 58.4103 67.2403 57.7707C67.2098 57.7071 67.1776 57.6399 67.1437 57.5688C66.6242 56.4794 66.5815 56.4601 65.069 56.6394C63.122 56.87 62.2278 56.3296 61.2644 54.3393C60.5977 52.9622 60.5861 52.8237 61.0749 52.0777C61.3613 51.6409 61.8965 51.2833 62.2641 51.2833C62.8144 51.2833 62.8978 51.1435 62.7352 50.4957C62.2089 48.3982 61.9539 48.0762 60.8199 48.0762C59.9723 48.0762 59.5037 47.8267 58.7581 46.9775C58.2276 46.3733 57.6978 45.4439 57.581 44.9118C57.3796 43.9946 57.8103 42.63 58.3046 42.6194C58.4306 42.6165 58.7183 42.4976 58.9434 42.3545C59.2667 42.1493 59.1801 41.4575 58.5319 39.0721C57.4232 34.9934 57.116 30.0208 57.8527 28.0911ZM162.094 62.5722C162.703 61.4016 163.823 60.3975 165.173 59.8118C166.698 59.1509 168.172 59.1829 169.593 59.9084C171.063 60.6585 171.738 61.3868 172.375 62.9102C173.764 66.2359 171.747 69.7797 167.965 70.6572C166.014 71.11 163.149 69.6219 162.113 67.6172C161.516 66.4643 161.506 63.7014 162.094 62.5722ZM112.104 82.1061C110.108 79.2906 111.19 75.1172 114.279 73.7145C118.039 72.0077 121.888 74.04 122.714 78.1684C123.118 80.1908 121.556 82.8488 119.281 84.0095C116.715 85.3189 113.841 84.5569 112.104 82.1061ZM147.587 86.2518C153.606 84.665 159.68 81.828 163.153 78.9811C164.308 78.0347 165.372 77.2605 165.517 77.2605C166.277 77.2605 167.417 78.0918 167.746 78.8868C168.344 80.3303 167.624 81.8848 165.294 84.1804C160.568 88.8377 151.829 92.6223 142.691 93.9696C139.169 94.4892 131.376 94.485 128.129 93.9623C124.259 93.3394 123.157 92.5701 123.157 90.4919C123.157 88.4602 123.322 88.4131 130.72 88.3226C137.699 88.2373 142.109 87.6957 147.587 86.2518Z" fill="#15002E"/>
<path d="M195.555 114.368L158.713 131.825V173.981L196.143 154.916L195.555 114.368Z" fill="#15002E"/>
<path fill-rule="evenodd" clip-rule="evenodd" d="M158.713 131.825V173.981L196.143 154.916L195.555 114.368L158.713 131.825Z" fill="#15002E"/>
<path fill-rule="evenodd" clip-rule="evenodd" d="M149.784 2.91824C150.158 2.3057 151.005 1.59694 151.788 1.24159C153.541 0.445601 154.387 0.457466 156.13 1.30156C157.732 2.07671 159.192 3.90923 160.244 6.46494C160.789 7.78849 161.124 8.18071 161.874 8.37506C163.649 8.83495 164.15 11.4866 162.731 12.9057C161.927 13.71 161.91 13.8027 162.281 15.3495C162.621 16.7647 162.737 16.9196 163.256 16.6419C164.105 16.1875 164.449 16.2458 165.171 16.9677C165.602 17.3988 165.812 18.0367 165.812 18.9131C165.812 20.5555 165.406 21.3197 164.199 21.9435C163.358 22.3787 163.247 22.6038 163.247 23.8748V25.3138L164.465 25.1188C165.964 24.8792 166.594 25.4902 166.547 27.1412C166.506 28.5956 165.563 29.8553 164.265 30.1917C163.323 30.4361 163.247 30.5573 163.247 31.8135C163.247 32.9132 163.384 33.2327 163.968 33.4918C164.7 33.8164 164.796 34.233 164.413 35.4347C164.239 35.9789 164.563 36.3945 166.166 37.6796C167.247 38.5471 168.21 39.2568 168.305 39.2568C168.638 39.2568 169.684 35.6909 170.471 31.869C170.993 29.3377 171.362 26.1294 171.542 22.5576C171.882 15.8033 172.285 14.8283 175.246 13.5913C176.944 12.8816 178.585 13.2168 180.207 14.6048C182.698 16.7368 183.078 20.5988 181.664 29.3951C181.483 30.5234 181.534 30.7581 181.96 30.7581C182.243 30.7581 182.715 31.1253 183.01 31.5743C183.455 32.2539 183.484 32.5919 183.185 33.5903C182.727 35.1181 181.713 36.2101 180.752 36.2101C179.797 36.2101 179.3 36.8153 179.064 38.2662C178.893 39.3226 178.942 39.4172 179.657 39.4172C181.197 39.4172 181.655 40.8257 180.71 42.6541C180.122 43.7906 178.874 44.3429 177.483 44.0819C176.59 43.9144 176.434 44.0017 176.071 44.8782C175.682 45.8175 175.717 45.9121 176.831 46.9326C178.074 48.0711 178.19 48.4043 177.674 49.3677C177.418 49.8459 177.562 50.3218 178.345 51.595L179.342 53.2146L180.586 52.2291C182.116 51.0174 185.107 47.7549 186.406 45.882C187.422 44.4167 187.504 43.9481 187.128 41.7455C186.97 40.8209 187.024 40.2305 187.297 39.9014C187.818 39.2745 189.361 39.2789 189.991 39.9088C190.432 40.3501 190.577 40.2279 191.419 38.7062C194.229 33.6214 195.26 32.6288 197.731 32.6288C201.643 32.6288 203.239 36.7486 201.088 41.2959C200.557 42.4171 199.325 44.4927 198.35 45.908C196.665 48.3549 196.605 48.5108 197.121 49.0813C197.982 50.0332 197.244 52.0225 195.635 53.0873C194.53 53.8191 194.255 53.8765 193.357 53.5635C191.974 53.0815 191.947 53.0889 191.507 54.0542C191.17 54.7934 191.212 54.998 191.837 55.6625C192.77 56.6564 192.385 57.8889 190.861 58.7785L189.776 59.4126L188.372 58.6676C187.6 58.258 186.874 58.0165 186.759 58.131C186.645 58.2455 186.711 58.8587 186.906 59.4937C187.118 60.1877 187.151 60.935 186.986 61.3676C186.691 62.144 185.015 63.0048 184.318 62.7377C183.991 62.6119 184.04 63.1449 184.529 65.0262C184.881 66.3754 185.211 67.5357 185.264 67.605C185.434 67.8279 189.33 66.2975 191.149 65.2927C194.582 63.3961 194.683 63.288 194.607 61.5597C194.568 60.6466 194.716 59.8006 194.968 59.4963C195.513 58.8391 197.357 58.8266 197.896 59.4764C198.123 59.7493 198.393 59.8577 198.497 59.7169C199.506 58.3513 202.808 55.7674 203.93 55.4653C206.58 54.7514 209.108 56.7703 209.108 59.6002C209.108 61.875 207.714 63.7722 203.015 67.8908C199.77 70.7351 199.161 71.0257 197.856 70.3512C196.533 69.6668 196.228 69.9808 196.467 71.7844C196.665 73.2719 196.638 73.3367 195.555 74.0057C194.099 74.9056 193.225 74.8761 192.242 73.8931C190.985 72.6366 189.995 72.8665 190.536 74.2892C190.947 75.3722 190.668 76.1223 189.684 76.5704C188.575 77.0758 187.615 77.0338 186.971 76.4514C186.471 75.9992 186.418 76.1351 186.25 78.2954C186.151 79.5782 185.964 80.8967 185.835 81.2251C185.835 84.3967 184.964 87.2783 184.529 88.3226L189.163 90.6641L199.536 95.9086C208.22 100.299 210.025 101.33 210.631 102.243L211.353 103.333V133.79V165.499L151.889 197.331C138.7 202.965 124.595 204.521 109.681 201.988C94.7898 199.459 79.9581 191.574 69.6921 180.729C59.5864 170.053 53.0564 156.13 50.9465 140.76C50.7008 138.972 50.5282 134.602 50.5282 130.177C50.5282 125.752 50.7008 121.382 50.9465 119.594C51.8746 112.832 54.0622 104.814 56.4736 99.3341L56.575 99.1038C57.5391 96.9134 57.7807 96.3646 57.6344 96.2264C57.5855 96.1802 57.4932 96.1799 57.3701 96.1795C57.3574 96.1794 57.3445 96.1794 57.3312 96.1793C56.6013 96.1738 49.8939 92.775 48.8208 91.8664C47.4006 90.6644 46.8279 89.4544 46.8279 87.6572C46.8279 85.7701 47.7271 84.2506 49.2791 83.514C50.8368 82.7747 52.3281 83.0486 55.5381 84.6624L58.1121 85.9565C58.9238 86.3645 60.3047 86.9868 60.8937 87.2469C61.5326 87.4387 62.3604 87.778 63.3292 88.175C65.6008 89.106 68.6479 90.3549 71.856 90.7661C74.2668 91.0753 75.4367 91.065 77.9139 90.7125C83.2839 89.9483 84.0892 90.2379 88.1998 94.4138C92.8649 99.1532 97.1685 101.863 103.208 103.864C112.699 107.009 127.323 107.921 138.872 106.091C150.117 104.308 158.854 101.559 164.992 97.8733C176.589 90.9088 181.899 80.558 180.115 68.3939C179.155 61.8474 176.901 56.7639 172.283 50.7295C169.96 47.6936 165.741 43.5758 162.926 41.5977C158.15 38.2412 151.519 35.6893 143.74 34.214C140.593 33.6175 138.894 33.5053 133.1 33.5104C125.239 33.5175 121.294 34.0014 115.027 35.7271C104.174 38.7161 96.115 43.1361 89.0875 49.954L86.2867 52.671L85.0219 52.2922C83.5985 51.8657 82.1063 50.3084 82.1063 49.2494C82.1063 48.8633 81.815 48.0445 81.4587 47.4297C79.699 44.3923 79.6034 43.4231 81.029 43.0652C81.555 42.9334 81.7551 42.7015 81.6502 42.3465C81.5649 42.0582 81.4061 41.4479 81.2974 40.9902C81.1348 40.3059 80.8375 40.1061 79.6287 39.8678C77.9453 39.5355 77.0608 38.5914 76.7731 36.8198C76.5377 35.3686 77.234 34.6066 78.7959 34.6066C79.6983 34.6066 79.8901 34.503 79.7352 34.0992C79.6281 33.8202 79.5406 33.182 79.5406 32.6811C79.5406 31.9232 79.3507 31.7074 78.4126 31.3976C77.072 30.9553 76.3334 29.7222 76.3334 27.9269C76.3334 26.4969 76.7205 26.0511 78.0973 25.8956C78.9575 25.7987 79.0701 25.6576 79.1602 24.5659C79.2445 23.5425 79.0755 23.1397 78.1179 22.0795C77.233 21.1 76.9749 20.5411 76.9749 19.6039C76.9749 18.1059 77.7304 16.9677 78.7247 16.9677C79.3959 16.9677 79.5316 16.7198 79.9947 14.6426C80.4972 12.3897 81.6265 9.65628 82.4953 8.58993C83.9914 6.75325 87.1389 6.15834 89.0846 7.34495C90.9692 8.49372 91.4563 9.68835 91.3081 12.7986C91.2366 14.2979 90.9294 17.0399 90.625 18.892C89.8746 23.4608 90.0673 30.2979 91.0731 34.8032L91.7972 38.0468L95.2099 35.9513C103.104 31.1045 111.885 27.8865 121.073 26.4738C126.503 25.639 127.175 25.5867 132.38 25.5931C139.697 25.6021 147.086 26.773 151.729 28.6601L153.723 29.4702L153.513 25.8648C153.23 21.0019 152.392 17.0316 150.4 11.102C148.597 5.73854 148.539 4.95986 149.784 2.91824ZM152.349 123.006L132.946 114.783C125.456 115.629 120.449 116.068 113.866 114.368C112.529 114.022 110.992 113.625 109.126 113.185L108.725 134.872C108.725 134.872 107.777 136.635 117.552 136.154V120.453L145.724 131.825L145.806 173.981L117.551 160.24L117.552 160.24L117.484 160.208L117.484 160.25C114.308 160.721 111.757 160.714 108.725 159.759V166.41L117.256 170.951L145.806 184.842L151.889 188.109L158.713 184.842L204.939 161.127V106.091L180.34 93.3115L173.516 100.236L187.297 106.091L152.349 123.006ZM62.6233 106.445C63.8542 102.917 65.4135 99.422 66.1883 98.4544C66.4863 98.0824 66.5684 98.1401 66.6453 98.7751C66.8698 100.635 68.0196 101.634 69.9342 101.634C70.796 101.634 72.1642 100.7 72.1642 100.111C72.1642 99.9784 73.0843 99.8703 74.2087 99.8703C76.0961 99.8703 76.2917 99.9373 76.7529 100.741C77.7661 102.506 80.2307 102.264 81.2907 100.295L81.9183 99.1295L84.6582 101.919C88.5468 105.878 92.3485 108.27 98.4626 110.604L101.509 111.767L101.556 119.919L101.559 120.452V120.453C101.587 125.441 101.599 127.392 101.244 127.461C101.016 127.506 100.636 126.772 100.013 125.567L99.909 125.366C98.0107 121.701 94.9842 120.539 92.9557 122.699C92.3546 123.339 92.2087 123.85 92.2087 125.315C92.2087 126.885 92.4069 127.483 93.6413 129.641C96.495 134.628 101.61 139.153 106.869 141.343C107.5 141.605 108.112 141.836 108.725 142.036C111.851 143.059 114.998 143.311 120.685 143.113L121.554 143.083L126.525 142.911L128.177 143.749C131.035 145.2 131.821 146.913 130.569 148.967C129.759 150.295 127.681 151.461 124.241 152.518C121.627 153.321 120.959 153.393 116.102 153.39C109.786 153.386 107.499 152.881 102.429 150.37C96.8334 147.598 92.8691 144.46 88.779 139.563C85.5921 135.748 83.8792 135.054 82.2952 136.937C81.4023 137.998 81.2788 138.956 81.7958 140.817C82.205 142.29 84.2515 145.38 86.3098 147.632C86.8519 148.225 89.1048 149.851 91.7167 151.735C96.1061 154.901 101.509 158.604 101.509 158.604V170.47C101.509 170.47 106.327 173.036 108.725 173.981L145.133 191.637L143.02 192.162C129.526 196.27 114.944 195.903 100.694 191.096C84.535 185.645 71.0369 173.248 64.3163 157.683C59.9521 147.575 58.4361 139.418 58.7927 127.963C59.0627 119.289 60.022 113.901 62.6233 106.445Z" fill="#15002E"/>
<path d="M227.639 306.453C212.538 306.453 201.855 295.256 201.855 279.539C201.855 263.822 212.538 252.625 227.639 252.625C242.739 252.625 253.525 263.822 253.525 279.539C253.525 295.256 242.739 306.453 227.639 306.453ZM227.639 295.872C236.165 295.872 242.328 289.093 242.328 279.539C242.328 269.78 236.165 262.898 227.639 262.898C219.112 262.898 213.052 269.78 213.052 279.539C213.052 289.093 219.112 295.872 227.639 295.872Z" fill="#15002E"/>
<path d="M186.166 253.858H196.952V305.22H186.166V253.858ZM191.61 248.003C187.398 248.003 184.419 244.818 184.419 240.504C184.419 236.189 187.398 233.107 191.61 233.107C195.822 233.107 198.801 236.189 198.801 240.504C198.801 244.818 195.822 248.003 191.61 248.003Z" fill="#15002E"/>
<path d="M172.835 306.042C168.521 306.042 165.337 302.755 165.337 298.338C165.337 293.818 168.521 290.633 172.835 290.633C177.253 290.633 180.334 293.818 180.334 298.338C180.334 302.755 177.253 306.042 172.835 306.042Z" fill="#15002E"/>
<path d="M149.444 305.22V235.367H160.23V305.22H149.444Z" fill="#15002E"/>
<path d="M118.778 306.453C103.678 306.453 92.9944 295.256 92.9944 279.539C92.9944 263.822 103.678 252.625 118.778 252.625C133.879 252.625 144.665 263.822 144.665 279.539C144.665 295.256 133.879 306.453 118.778 306.453ZM118.778 295.872C127.305 295.872 133.468 289.093 133.468 279.539C133.468 269.78 127.305 262.898 118.778 262.898C110.252 262.898 104.191 269.78 104.191 279.539C104.191 289.093 110.252 295.872 118.778 295.872Z" fill="#15002E"/>
<path d="M44.5676 305.22L63.8799 279.026L45.2867 253.858H59.0518L70.2489 270.397L80.8295 253.858H94.492L76.6178 279.026L95.9301 305.22H82.165L70.1461 287.449L58.7437 305.22H44.5676Z" fill="#15002E"/>
<path d="M17.3405 306.453C7.2735 306.453 0.493652 300.392 0.493652 291.455C0.493652 284.573 5.83535 278.82 13.9506 277.279L30.1812 274.095C31.722 273.889 32.7493 272.759 32.7493 271.424C32.7493 266.185 28.9485 262.384 23.6068 262.384C18.0596 262.384 13.7452 266.288 13.3343 272.143L2.23998 269.472C3.88358 259.611 12.5125 252.625 23.0931 252.625C35.0092 252.625 43.5354 260.638 43.5354 271.732V294.948L43.7409 305.22H35.2147L33.3656 298.235C30.1812 303.269 24.3258 306.453 17.3405 306.453ZM12.1016 290.017C12.1016 293.715 15.0806 296.181 20.0114 296.181C27.2021 296.181 32.7493 290.942 32.7493 283.237V280.875C31.722 281.08 30.5921 281.388 29.4621 281.594L18.2651 283.648C14.4642 284.367 12.1016 286.833 12.1016 290.017Z" fill="#15002E"/>
</svg>
