<svg width="217" height="217" viewBox="0 0 217 217" fill="none" xmlns="http://www.w3.org/2000/svg">
<rect x="0.909607" y="0.568115" width="215.921" height="215.921" rx="107.96" fill="#FDFFF9"/>
<path d="M60.7822 88.8534C61.0197 89.0817 62.2894 89.2371 63.331 89.1655C63.6262 89.1452 64.4397 88.6732 65.1394 88.1163C65.8388 87.5594 66.4602 87.1038 66.5207 87.1038C66.581 87.1038 66.5797 87.45 66.5177 87.873C66.3838 88.7843 67.0275 89.6351 67.8504 89.6351C69.9035 89.6351 72.7616 87.8477 73.2955 86.2302C73.6942 85.0223 73.2459 83.523 72.1615 82.4388C71.459 81.7364 70.9277 81.4949 69.3241 81.1491C64.7111 80.1543 60.3676 78.3285 57.3222 76.104C56.2175 75.297 56.1464 75.1724 56.037 73.8513C55.9006 72.2065 55.5303 71.6628 54.5469 71.6628C53.849 71.6628 53.6201 71.819 52.9772 72.7333C52.6957 73.1337 52.5522 73.0813 51.2972 72.1192C48.7641 70.1777 47.2296 69.3846 46.0062 69.3846C43.9166 69.3846 42.4092 70.8986 42.4232 72.9836C42.4368 75.0302 44.0579 76.9157 48.1763 79.6759C49.9672 80.876 50.2646 81.1769 50.2646 81.7888C50.2646 82.2748 50.513 82.7114 51.0435 83.1577C51.9852 83.9502 52.8676 83.9945 53.5771 83.285C54.0398 82.8223 54.1958 82.7947 54.841 83.062C55.5212 83.3437 55.565 83.4407 55.4199 84.3479C55.2359 85.4984 55.5571 86.0011 56.8101 86.5248C57.2776 86.7205 57.6194 86.9088 57.5695 86.9438C58.177 87.5146 59.9644 88.4547 60.7822 88.8534Z" fill="#15002E"/>
<path fill-rule="evenodd" clip-rule="evenodd" d="M54.4099 43.9915C54.9215 42.652 55.7105 41.8673 57.0118 41.4033C57.0885 41.3759 57.1595 41.3504 57.2257 41.3266C57.6927 41.1587 57.9177 41.0779 58.1446 41.0722C58.3555 41.0669 58.5681 41.1266 58.9782 41.2418L58.9788 41.242C59.041 41.2595 59.1077 41.2782 59.1797 41.2982C60.3144 41.6134 61.533 42.594 62.0626 43.6182C62.2765 44.0318 62.7845 46.1776 63.1918 48.3866C64.0188 52.8716 64.2818 53.7573 65.8411 57.3059C67.2226 60.4501 68.8371 63.0753 71.1867 65.9982C73.457 68.8226 73.8023 69.4628 73.8043 70.8527C73.8083 73.681 71.1803 75.4511 66.9713 75.4554C65.2419 75.4569 63.4274 75.0783 63.4274 74.7158C63.4274 74.5981 63.997 74.0673 64.6931 73.5364C65.3892 73.0056 65.9588 72.4875 65.9588 72.3852C65.9588 71.9713 65.4712 71.9453 64.7217 72.3194C63.3034 73.0269 61.4391 72.165 60.7331 70.4753C60.3041 69.4489 60.6012 68.709 61.5363 68.4741C61.5743 68.4645 61.6103 68.4557 61.6444 68.4473C61.9004 68.3843 62.0467 68.3483 62.0972 68.2584C62.1647 68.1383 62.0612 67.9222 61.8193 67.4174C61.7953 67.3672 61.7699 67.3141 61.7431 67.258C61.333 66.3982 61.2994 66.383 60.1056 66.5245C58.5689 66.7065 57.8631 66.2799 57.1027 64.709C56.5765 63.6221 56.5674 63.5127 56.9531 62.9239C57.1792 62.5792 57.6016 62.2969 57.8917 62.2969C58.3261 62.2969 58.3919 62.1866 58.2636 61.6752C57.8482 60.0198 57.6469 59.7656 56.7519 59.7656C56.0829 59.7656 55.713 59.5687 55.1245 58.8984C54.7058 58.4215 54.2877 57.6879 54.1955 57.268C54.0365 56.544 54.3765 55.4669 54.7666 55.4586C54.8661 55.4563 55.0931 55.3624 55.2708 55.2495C55.526 55.0875 55.4576 54.5415 54.946 52.6587C54.071 49.4394 53.8285 45.5146 54.4099 43.9915ZM136.685 71.2071C137.165 70.2832 138.05 69.4907 139.115 69.0284C140.319 68.5067 141.482 68.5321 142.604 69.1046C143.764 69.6967 144.297 70.2716 144.799 71.4739C145.896 74.0989 144.304 76.896 141.319 77.5886C139.779 77.946 137.518 76.7715 136.7 75.1891C136.229 74.2791 136.221 72.0984 136.685 71.2071ZM97.229 86.6251C95.6538 84.4028 96.5076 81.1088 98.9458 80.0017C101.913 78.6545 104.952 80.2586 105.603 83.5171C105.922 85.1134 104.69 87.2113 102.894 88.1274C100.868 89.1609 98.6002 88.5595 97.229 86.6251ZM125.235 89.8973C129.986 88.6448 134.78 86.4056 137.521 84.1586C138.432 83.4116 139.272 82.8005 139.387 82.8005C139.987 82.8005 140.886 83.4566 141.146 84.0842C141.618 85.2235 141.05 86.4504 139.211 88.2623C135.48 91.9383 128.583 94.9255 121.371 95.9889C118.591 96.399 112.44 96.3957 109.877 95.9831C106.823 95.4915 105.953 94.8842 105.953 93.2439C105.953 91.6404 106.083 91.6032 111.922 91.5318C117.43 91.4644 120.912 91.0369 125.235 89.8973Z" fill="#15002E"/>
<path d="M163.095 112.089L134.016 125.868V159.141L163.559 144.093L163.095 112.089Z" fill="#15002E"/>
<path fill-rule="evenodd" clip-rule="evenodd" d="M134.016 125.868V159.141L163.559 144.093L163.095 112.089L134.016 125.868Z" fill="#15002E"/>
<path fill-rule="evenodd" clip-rule="evenodd" d="M126.969 24.1228C127.264 23.6393 127.933 23.0799 128.551 22.7994C129.934 22.1711 130.602 22.1805 131.978 22.8467C133.242 23.4586 134.394 24.905 135.225 26.9222C135.655 27.9668 135.919 28.2764 136.512 28.4298C137.912 28.7928 138.308 30.8857 137.188 32.0058C136.553 32.6406 136.54 32.7138 136.833 33.9346C137.101 35.0517 137.193 35.174 137.602 34.9547C138.273 34.5961 138.544 34.6421 139.114 35.2119C139.454 35.5521 139.62 36.0556 139.62 36.7474C139.62 38.0437 139.299 38.6469 138.347 39.1393C137.682 39.4828 137.595 39.6604 137.595 40.6636V41.7994L138.556 41.6455C139.74 41.4564 140.237 41.9386 140.2 43.2417C140.167 44.3897 139.423 45.384 138.398 45.6495C137.655 45.8424 137.595 45.9381 137.595 46.9296C137.595 47.7976 137.703 48.0497 138.164 48.2542C138.742 48.5104 138.818 48.8392 138.515 49.7877C138.378 50.2173 138.634 50.5453 139.899 51.5596C140.753 52.2443 141.512 52.8045 141.587 52.8045C141.85 52.8045 142.676 49.99 143.297 46.9734C143.709 44.9754 144 42.4431 144.142 39.624C144.411 34.2928 144.729 33.5233 147.065 32.547C148.406 31.9868 149.701 32.2513 150.981 33.3469C152.947 35.0297 153.247 38.0779 152.132 45.0208C151.988 45.9113 152.029 46.0966 152.365 46.0966C152.588 46.0966 152.961 46.3864 153.193 46.7408C153.545 47.2772 153.568 47.544 153.332 48.332C152.97 49.5379 152.17 50.3998 151.411 50.3998C150.657 50.3998 150.265 50.8774 150.079 52.0226C149.944 52.8564 149.982 52.9311 150.547 52.9311C151.763 52.9311 152.124 54.0428 151.378 55.4859C150.914 56.383 149.929 56.8189 148.831 56.6129C148.126 56.4807 148.004 56.5496 147.717 57.2414C147.41 57.9828 147.438 58.0575 148.317 58.863C149.298 59.7616 149.389 60.0246 148.982 60.785C148.78 61.1624 148.893 61.538 149.512 62.543L150.298 63.8213L151.28 63.0434C152.488 62.0871 154.849 59.512 155.874 58.0337C156.676 56.8771 156.74 56.5073 156.444 54.7688C156.319 54.039 156.362 53.573 156.578 53.3133C156.988 52.8184 158.206 52.822 158.703 53.3191C159.052 53.6674 159.166 53.571 159.83 52.3699C162.049 48.3565 162.862 47.5731 164.812 47.5731C167.9 47.5731 169.16 50.8248 167.462 54.4139C167.043 55.2989 166.071 56.9371 165.301 58.0542C163.971 59.9856 163.923 60.1086 164.331 60.5589C165.011 61.3102 164.428 62.8804 163.158 63.7208C162.286 64.2984 162.069 64.3437 161.36 64.0967C160.269 63.7162 160.247 63.7221 159.9 64.484C159.634 65.0674 159.668 65.2289 160.16 65.7534C160.897 66.5379 160.593 67.5107 159.39 68.2128L158.534 68.7133L157.426 68.1253C156.816 67.802 156.243 67.6114 156.153 67.7018C156.062 67.7921 156.114 68.2761 156.268 68.7773C156.436 69.3251 156.462 69.9149 156.332 70.2564C156.099 70.8692 154.776 71.5486 154.226 71.3377C153.968 71.2385 154.006 71.6592 154.393 73.1441C154.67 74.209 154.931 75.1248 154.973 75.1795C155.107 75.3554 158.182 74.1475 159.617 73.3544C162.327 71.8574 162.406 71.7721 162.347 70.408C162.316 69.6873 162.432 69.0196 162.632 68.7794C163.062 68.2607 164.517 68.2508 164.943 68.7637C165.122 68.9791 165.335 69.0646 165.417 68.9535C166.214 67.8757 168.819 65.8362 169.705 65.5978C171.797 65.0343 173.792 66.6277 173.792 68.8614C173.792 70.6568 172.692 72.1543 168.983 75.4051C166.422 77.6501 165.941 77.8794 164.911 77.3471C163.867 76.8069 163.626 77.0547 163.815 78.4783C163.971 79.6523 163.95 79.7035 163.095 80.2315C161.946 80.9418 161.256 80.9185 160.48 80.1427C159.488 79.1509 158.707 79.3324 159.133 80.4553C159.458 81.3101 159.237 81.9022 158.461 82.2558C157.586 82.6547 156.828 82.6216 156.32 82.1619C155.925 81.805 155.883 81.9123 155.751 83.6174C155.673 84.6299 155.525 85.6705 155.423 85.9297C155.423 88.4331 154.736 90.7075 154.393 91.5318L158.05 93.3799L166.237 97.5193C173.091 100.985 174.516 101.799 174.994 102.519L175.564 103.379V127.419V152.447L128.631 177.571C118.22 182.018 107.088 183.246 95.3169 181.247C83.5635 179.251 71.8572 173.027 63.7545 164.467C55.7783 156.041 50.6243 145.052 48.959 132.92C48.7651 131.509 48.6289 128.06 48.6289 124.567C48.6289 121.075 48.7651 117.626 48.959 116.214C49.6916 110.877 51.4182 104.548 53.3215 100.223L53.4014 100.041C54.1624 98.3124 54.3531 97.8792 54.2376 97.7701C54.199 97.7337 54.1262 97.7334 54.029 97.7331C54.019 97.7331 54.0088 97.733 53.9983 97.733C53.4222 97.7287 48.1282 95.046 47.2812 94.3289C46.1604 93.3801 45.7083 92.4251 45.7083 91.0065C45.7083 89.5171 46.4181 88.3178 47.643 87.7363C48.8724 87.1529 50.0495 87.369 52.5831 88.6428L54.6147 89.6642C55.2553 89.9862 56.3452 90.4774 56.8101 90.6827C57.3144 90.8341 57.9677 91.1019 58.7324 91.4153C60.5253 92.1501 62.9304 93.1358 65.4624 93.4604C67.3652 93.7044 68.2886 93.6963 70.2438 93.4181C74.4822 92.8149 75.1178 93.0435 78.3622 96.3395C82.0442 100.08 85.441 102.219 90.2079 103.798C97.6986 106.28 109.241 107.001 118.357 105.556C127.232 104.149 134.128 101.979 138.973 99.07C148.126 93.573 152.316 85.4032 150.908 75.8022C150.151 70.6351 148.372 66.6227 144.727 61.8598C142.894 59.4636 139.563 56.2134 137.342 54.6521C133.572 52.0029 128.338 49.9887 122.198 48.8243C119.715 48.3535 118.374 48.2649 113.8 48.2689C107.596 48.2745 104.482 48.6565 99.5363 50.0186C90.9698 52.3777 84.6094 55.8664 79.0628 61.2477L76.8522 63.3922L75.8539 63.0933C74.7305 62.7566 73.5527 61.5274 73.5527 60.6916C73.5527 60.3868 73.3228 59.7406 73.0416 59.2553C71.6527 56.8579 71.5772 56.0929 72.7024 55.8105C73.1175 55.7064 73.2755 55.5234 73.1927 55.2432C73.1254 55.0156 73.0001 54.5339 72.9143 54.1727C72.7859 53.6325 72.5513 53.4748 71.5972 53.2867C70.2686 53.0245 69.5704 52.2793 69.3434 50.881C69.1576 49.7356 69.7071 49.1341 70.9399 49.1341C71.6522 49.1341 71.8035 49.0524 71.6813 48.7337C71.5967 48.5135 71.5276 48.0097 71.5276 47.6143C71.5276 47.0162 71.3778 46.8458 70.6374 46.6013C69.5793 46.2522 68.9963 45.2789 68.9963 43.8619C68.9963 42.7332 69.3019 42.3814 70.3885 42.2586C71.0674 42.1821 71.1563 42.0708 71.2274 41.2091C71.294 40.4014 71.1606 40.0834 70.4047 39.2466C69.7064 38.4735 69.5026 38.0323 69.5026 37.2927C69.5026 36.1103 70.099 35.2119 70.8837 35.2119C71.4135 35.2119 71.5205 35.0163 71.8861 33.3767C72.2827 31.5985 73.174 29.4411 73.8597 28.5994C75.0406 27.1497 77.5248 26.6802 79.0606 27.6167C80.548 28.5235 80.9325 29.4664 80.8155 31.9212C80.7591 33.1046 80.5166 35.2689 80.2763 36.7307C79.684 40.3368 79.8361 45.7333 80.63 49.2893L81.2015 51.8495L83.8951 50.1955C90.1257 46.3699 97.0564 43.83 104.308 42.715C108.594 42.0561 109.124 42.0148 113.232 42.0199C119.008 42.027 124.839 42.9512 128.505 44.4406L130.078 45.08L129.912 42.2343C129.689 38.3961 129.028 35.2623 127.455 30.5822C126.033 26.3488 125.986 25.7342 126.969 24.1228ZM128.994 118.907L113.679 112.417C107.768 113.085 103.816 113.431 98.6199 112.089C97.5644 111.816 96.3517 111.503 94.8789 111.155L94.5625 128.273C94.5625 128.273 93.8141 129.664 101.529 129.285V116.892L123.764 125.868L123.829 159.141L101.528 148.296L101.529 148.295L101.476 148.27L101.475 148.303C98.9689 148.675 96.9556 148.67 94.5625 147.916V153.166L101.296 156.75L123.829 167.714L128.631 170.292L134.016 167.714L170.502 148.996V105.556L151.086 95.4695L145.7 100.935L156.578 105.556L128.994 118.907ZM58.1752 105.835C59.1468 103.051 60.3775 100.292 60.989 99.5287C61.2242 99.235 61.289 99.2806 61.3497 99.7818C61.5269 101.25 62.4344 102.038 63.9456 102.038C64.6258 102.038 65.7056 101.301 65.7056 100.836C65.7056 100.732 66.4319 100.646 67.3193 100.646C68.809 100.646 68.9634 100.699 69.3274 101.333C70.1271 102.726 72.0724 102.535 72.909 100.982L73.4043 100.062L75.5668 102.263C78.6361 105.388 81.6367 107.276 86.4623 109.118L88.8671 110.036L88.9035 116.47L88.906 116.891V116.892C88.9287 120.829 88.9376 122.369 88.6575 122.424C88.4774 122.459 88.1779 121.88 87.686 120.929L87.604 120.77C86.1057 117.877 83.7169 116.96 82.1158 118.665C81.6415 119.17 81.5263 119.573 81.5263 120.73C81.5263 121.968 81.6827 122.441 82.657 124.144C84.9094 128.081 88.9466 131.652 93.0974 133.38C93.5952 133.587 94.0785 133.769 94.5625 133.928C97.0294 134.735 99.5131 134.933 104.002 134.778L104.688 134.754L108.611 134.618L109.915 135.28C112.171 136.424 112.791 137.777 111.803 139.398C111.164 140.446 109.524 141.366 106.808 142.201C104.746 142.835 104.218 142.891 100.385 142.889C95.3999 142.886 93.5946 142.487 89.5933 140.506C85.1764 138.318 82.0475 135.841 78.8193 131.976C76.304 128.964 74.952 128.416 73.7018 129.902C72.9971 130.74 72.8996 131.496 73.3077 132.965C73.6306 134.128 75.2459 136.567 76.8705 138.344C77.2983 138.812 79.0765 140.095 81.1379 141.582C84.6024 144.082 88.8671 147.004 88.8671 147.004V156.37C88.8671 156.37 92.6695 158.395 94.5625 159.141L123.298 173.077L121.63 173.491C110.98 176.734 99.4707 176.444 88.2234 172.65C75.4696 168.348 64.8159 158.562 59.5115 146.277C56.0669 138.299 54.8704 131.861 55.1518 122.82C55.365 115.973 56.1221 111.72 58.1752 105.835Z" fill="#15002E"/>
</svg>
