<svg width="254" height="307" viewBox="0 0 254 307" fill="none" xmlns="http://www.w3.org/2000/svg">
<path d="M65.7744 84.9029C66.0753 85.1921 67.684 85.3891 69.0037 85.2983C69.3776 85.2726 70.4084 84.6745 71.2949 83.969C72.181 83.2634 72.9684 82.6861 73.045 82.6861C73.1213 82.6861 73.1197 83.1249 73.0412 83.6608C72.8715 84.8153 73.6871 85.8932 74.7297 85.8932C77.331 85.8932 80.9522 83.6287 81.6286 81.5794C82.1337 80.049 81.5657 78.1494 80.1918 76.7759C79.3018 75.8859 78.6286 75.5799 76.5969 75.1419C70.7522 73.8815 65.2491 71.5682 61.3906 68.7499C59.991 67.7275 59.9009 67.5697 59.7624 65.8959C59.5895 63.8119 59.1203 63.1231 57.8743 63.1231C56.9901 63.1231 56.7002 63.3209 55.8856 64.4793C55.529 64.9867 55.3471 64.9203 53.757 63.7013C50.5476 61.2415 48.6035 60.2367 47.0535 60.2367C44.406 60.2367 42.4962 62.1549 42.5138 64.7965C42.5311 67.3894 44.585 69.7784 49.803 73.2753C52.072 74.7958 52.4488 75.1771 52.4488 75.9523C52.4488 76.568 52.7634 77.1213 53.4357 77.6867C54.6287 78.6908 55.7467 78.7469 56.6457 77.848C57.2319 77.2617 57.4295 77.2268 58.247 77.5654C59.1088 77.9224 59.1642 78.0452 58.9805 79.1946C58.7473 80.6522 59.1543 81.2892 60.7418 81.9527C61.3342 82.2006 61.7671 82.4392 61.704 82.4835C62.4737 83.2067 64.7383 84.3978 65.7744 84.9029Z" fill="#E68476"/>
<path fill-rule="evenodd" clip-rule="evenodd" d="M57.7008 28.0647C58.349 26.3676 59.3486 25.3734 60.9974 24.7855C61.0945 24.7509 61.1845 24.7186 61.2684 24.6884C61.8601 24.4757 62.1452 24.3733 62.4326 24.3661C62.6998 24.3594 62.9691 24.4351 63.4887 24.581L63.4895 24.5812C63.5683 24.6034 63.6528 24.6271 63.744 24.6524C65.1818 25.0517 66.7257 26.2941 67.3966 27.5917C67.6676 28.1157 68.3113 30.8344 68.8273 33.6332C69.8751 39.3154 70.2083 40.4376 72.1839 44.9336C73.9343 48.9171 75.9799 52.2431 78.9567 55.9463C81.8332 59.5247 82.2706 60.3358 82.2732 62.0968C82.2783 65.6801 78.9487 67.9228 73.6159 67.9282C71.4248 67.9301 69.1259 67.4504 69.1259 66.9911C69.1259 66.842 69.8475 66.1695 70.7295 65.4969C71.6114 64.8244 72.333 64.1679 72.333 64.0384C72.333 63.514 71.7153 63.481 70.7657 63.955C68.9687 64.8513 66.6067 63.7593 65.7122 61.6186C65.1686 60.3182 65.5451 59.3808 66.7298 59.0831C66.778 59.0711 66.8236 59.0598 66.8668 59.0492C67.1911 58.9694 67.3765 58.9237 67.4405 58.8099C67.526 58.6578 67.3948 58.3839 67.0884 57.7444C67.058 57.6808 67.0258 57.6135 66.9919 57.5425C66.4723 56.453 66.4297 56.4338 64.9172 56.613C62.9701 56.8436 62.076 56.3032 61.1126 54.3129C60.4458 52.9358 60.4343 52.7973 60.923 52.0513C61.2094 51.6145 61.7447 51.2569 62.1122 51.2569C62.6626 51.2569 62.746 51.1171 62.5834 50.4693C62.0571 48.3719 61.8021 48.0499 60.6681 48.0499C59.8204 48.0499 59.3519 47.8004 58.6062 46.9511C58.0757 46.3469 57.5459 45.4175 57.4292 44.8855C57.2278 43.9682 57.6585 42.6036 58.1527 42.5931C58.2787 42.5902 58.5664 42.4712 58.7916 42.3282C59.1148 42.1229 59.0282 41.4311 58.3801 39.0457C57.2714 34.967 56.9641 29.9944 57.7008 28.0647ZM161.942 62.5458C162.551 61.3752 163.671 60.3711 165.021 59.7855C166.546 59.1245 168.02 59.1566 169.442 59.882C170.911 60.6321 171.586 61.3605 172.223 62.8838C173.612 66.2095 171.595 69.7533 167.813 70.6308C165.862 71.0836 162.998 69.5956 161.961 67.5908C161.364 66.4379 161.354 63.675 161.942 62.5458ZM111.952 82.0797C109.956 79.2642 111.038 75.0909 114.127 73.6881C117.887 71.9813 121.736 74.0136 122.562 78.1421C122.966 80.1644 121.404 82.8225 119.129 83.9831C116.563 85.2925 113.689 84.5305 111.952 82.0797ZM147.435 86.2255C153.454 84.6386 159.528 81.8016 163.001 78.9547C164.156 78.0083 165.22 77.2341 165.365 77.2341C166.125 77.2341 167.265 78.0654 167.594 78.8605C168.192 80.3039 167.472 81.8584 165.142 84.154C160.416 88.8113 151.677 92.596 142.539 93.9433C139.018 94.4628 131.224 94.4586 127.977 93.9359C124.108 93.3131 123.006 92.5437 123.006 90.4655C123.006 88.4338 123.17 88.3867 130.568 88.2963C137.547 88.211 141.957 87.6693 147.435 86.2255Z" fill="#E68476"/>
<path d="M195.404 114.341L158.561 131.799V173.954L195.992 154.89L195.404 114.341Z" fill="#E68476"/>
<path fill-rule="evenodd" clip-rule="evenodd" d="M158.561 131.799V173.954L195.992 154.89L195.404 114.341L158.561 131.799Z" fill="#E68476"/>
<path fill-rule="evenodd" clip-rule="evenodd" d="M149.632 2.89188C150.006 2.27933 150.853 1.57057 151.636 1.21523C153.389 0.419234 154.235 0.431099 155.978 1.2752C157.58 2.05034 159.04 3.88286 160.092 6.43857C160.637 7.76212 160.972 8.15435 161.722 8.34869C163.497 8.80859 163.998 11.4602 162.579 12.8793C161.775 13.6836 161.758 13.7763 162.129 15.3231C162.469 16.7384 162.585 16.8933 163.104 16.6155C163.954 16.1611 164.297 16.2195 165.019 16.9414C165.45 17.3724 165.66 18.0103 165.66 18.8868C165.66 20.5291 165.254 21.2934 164.047 21.9171C163.206 22.3523 163.095 22.5775 163.095 23.8484V25.2874L164.313 25.0924C165.812 24.8529 166.442 25.4638 166.395 27.1148C166.354 28.5692 165.412 29.829 164.113 30.1654C163.171 30.4098 163.095 30.531 163.095 31.7872C163.095 32.8869 163.232 33.2063 163.816 33.4654C164.549 33.79 164.644 34.2066 164.261 35.4083C164.087 35.9525 164.412 36.3682 166.014 37.6532C167.096 38.5207 168.058 39.2305 168.153 39.2305C168.486 39.2305 169.532 35.6645 170.319 31.8427C170.841 29.3113 171.21 26.103 171.39 22.5313C171.731 15.7769 172.133 14.8019 175.094 13.565C176.792 12.8553 178.433 13.1904 180.055 14.5784C182.546 16.7105 182.926 20.5724 181.513 29.3687C181.331 30.497 181.382 30.7317 181.808 30.7317C182.091 30.7317 182.563 31.099 182.858 31.5479C183.303 32.2275 183.332 32.5655 183.033 33.5639C182.575 35.0917 181.561 36.1838 180.6 36.1838C179.645 36.1838 179.148 36.7889 178.913 38.2398C178.741 39.2962 178.79 39.3908 179.505 39.3908C181.045 39.3908 181.504 40.7993 180.558 42.6277C179.97 43.7643 178.722 44.3165 177.331 44.0555C176.438 43.8881 176.282 43.9753 175.919 44.8518C175.53 45.7911 175.565 45.8857 176.679 46.9062C177.923 48.0447 178.038 48.378 177.522 49.3414C177.266 49.8195 177.41 50.2955 178.193 51.5687L179.19 53.1882L180.434 52.2027C181.964 50.9911 184.955 47.7285 186.254 45.8556C187.27 44.3903 187.352 43.9217 186.976 41.7191C186.818 40.7945 186.872 40.2041 187.146 39.8751C187.666 39.2481 189.209 39.2526 189.839 39.8825C190.281 40.3237 190.426 40.2016 191.267 38.6798C194.077 33.595 195.108 32.6024 197.579 32.6024C201.491 32.6024 203.087 36.7222 200.936 41.2695C200.405 42.3907 199.174 44.4663 198.199 45.8816C196.513 48.3286 196.453 48.4844 196.969 49.055C197.83 50.0068 197.092 51.9962 195.483 53.0609C194.378 53.7928 194.103 53.8502 193.205 53.5372C191.823 53.0551 191.795 53.0625 191.355 54.0278C191.019 54.7671 191.061 54.9717 191.685 55.6362C192.619 56.6301 192.233 57.8625 190.709 58.7522L189.624 59.3862L188.22 58.6412C187.448 58.2317 186.722 57.9902 186.607 58.1047C186.493 58.2191 186.559 58.8323 186.754 59.4673C186.967 60.1614 186.999 60.9086 186.834 61.3412C186.539 62.1177 184.863 62.9784 184.167 62.7113C183.839 62.5856 183.888 63.1186 184.378 64.9998C184.729 66.3491 185.059 67.5094 185.112 67.5786C185.283 67.8015 189.178 66.2711 190.997 65.2663C194.43 63.3697 194.531 63.2616 194.455 61.5333C194.416 60.6203 194.564 59.7743 194.816 59.4699C195.362 58.8128 197.205 58.8003 197.744 59.45C197.971 59.7229 198.241 59.8313 198.345 59.6905C199.355 58.325 202.656 55.7411 203.778 55.4389C206.428 54.7251 208.957 56.7439 208.957 59.5738C208.957 61.8486 207.562 63.7459 202.863 67.8644C199.618 70.7087 199.009 70.9993 197.704 70.3248C196.381 69.6405 196.076 69.9544 196.315 71.7581C196.513 73.2455 196.486 73.3103 195.404 73.9793C193.948 74.8792 193.073 74.8497 192.09 73.8667C190.833 72.6102 189.843 72.8401 190.384 74.2628C190.796 75.3458 190.516 76.096 189.532 76.544C188.423 77.0494 187.463 77.0074 186.819 76.425C186.319 75.9728 186.266 76.1088 186.098 78.2691C185.999 79.5519 185.812 80.8703 185.683 81.1987C185.683 84.3704 184.813 87.2519 184.378 88.2963L189.012 90.6377L199.384 95.8823C208.068 100.273 209.874 101.304 210.479 102.217L211.202 103.306V133.763V165.473L151.738 197.304C138.548 202.938 124.443 204.495 109.529 201.962C94.638 199.433 79.8063 191.548 69.5403 180.703C59.4346 170.027 52.9046 156.104 50.7946 140.734C50.5489 138.945 50.3764 134.575 50.3764 130.151C50.3764 125.726 50.5489 121.356 50.7946 119.567C51.7227 112.805 53.9103 104.788 56.3218 99.3077L56.4231 99.0775C57.3873 96.8871 57.6289 96.3382 57.4825 96.2C57.4336 96.1538 57.3413 96.1535 57.2182 96.1531C57.2056 96.1531 57.1926 96.153 57.1793 96.1529C56.4494 96.1475 49.742 92.7486 48.6689 91.8401C47.2488 90.6381 46.676 89.428 46.676 87.6308C46.676 85.7438 47.5753 84.2243 49.1272 83.4876C50.6849 82.7484 52.1762 83.0222 55.3862 84.636L57.9603 85.9301C58.7719 86.3381 60.1528 86.9604 60.7418 87.2206C61.3808 87.4123 62.2085 87.7516 63.1774 88.1487C65.4489 89.0797 68.4961 90.3285 71.7041 90.7397C74.1149 91.0489 75.2849 91.0386 77.762 90.6862C83.1321 89.9219 83.9374 90.2115 88.0479 94.3874C92.713 99.1268 97.0167 101.837 103.056 103.838C112.547 106.982 127.171 107.895 138.721 106.064C149.965 104.282 158.703 101.533 164.84 97.8469C176.437 90.8824 181.747 80.5316 179.963 68.3676C179.003 61.821 176.749 56.7375 172.131 50.7031C169.808 47.6673 165.589 43.5494 162.774 41.5713C157.998 38.2148 151.367 35.6629 143.588 34.1877C140.441 33.5912 138.742 33.4789 132.948 33.484C125.087 33.4911 121.142 33.975 114.875 35.7008C104.022 38.6897 95.9631 43.1097 88.9357 49.9276L86.1349 52.6446L84.87 52.2659C83.4467 51.8393 81.9544 50.282 81.9544 49.223C81.9544 48.8369 81.6632 48.0181 81.3069 47.4033C79.5471 44.3659 79.4516 43.3968 80.8771 43.0388C81.4031 42.907 81.6032 42.6752 81.4983 42.3201C81.413 42.0318 81.2543 41.4215 81.1456 40.9639C80.983 40.2795 80.6857 40.0797 79.4769 39.8414C77.7935 39.5092 76.909 38.565 76.6213 36.7934C76.3859 35.3422 77.0821 34.5802 78.644 34.5802C79.5465 34.5802 79.7383 34.4766 79.5834 34.0729C79.4763 33.7938 79.3887 33.1556 79.3887 32.6547C79.3887 31.8969 79.1988 31.681 78.2608 31.3712C76.9202 30.929 76.1816 29.6959 76.1816 27.9005C76.1816 26.4705 76.5687 26.0247 77.9455 25.8692C78.8056 25.7723 78.9182 25.6312 79.0083 24.5395C79.0927 23.5162 78.9237 23.1134 77.966 22.0531C77.0812 21.0737 76.823 20.5147 76.823 19.5776C76.823 18.0796 77.5786 16.9414 78.5728 16.9414C79.2441 16.9414 79.3797 16.6935 79.8428 14.6163C80.3454 12.3633 81.4746 9.62992 82.3434 8.56357C83.8396 6.72688 86.987 6.13197 88.9328 7.31858C90.8173 8.46735 91.3045 9.66199 91.1563 12.7722C91.0848 14.2715 90.7775 17.0135 90.4732 18.8656C89.7227 23.4344 89.9155 30.2715 90.9212 34.7768L91.6454 38.0204L95.0581 35.9249C102.952 31.0781 111.733 27.8601 120.921 26.4474C126.351 25.6126 127.023 25.5604 132.228 25.5668C139.545 25.5757 146.934 26.7467 151.578 28.6337L153.571 29.4438L153.361 25.8384C153.078 20.9755 152.241 17.0052 150.248 11.0757C148.446 5.71217 148.387 4.93349 149.632 2.89188ZM152.197 122.979L132.794 114.757C125.304 115.603 120.297 116.042 113.714 114.341C112.377 113.996 110.84 113.599 108.974 113.159L108.574 134.845C108.574 134.845 107.625 136.609 117.4 136.128V120.426L145.572 131.799L145.654 173.954L117.399 160.214L117.4 160.213L117.333 160.181L117.332 160.224C114.156 160.694 111.606 160.688 108.574 159.732V166.384L117.104 170.925L145.654 184.816L151.738 188.083L158.561 184.816L204.787 161.1V106.064L180.188 93.2852L173.364 100.209L187.146 106.064L152.197 122.979ZM62.4714 106.418C63.7023 102.891 65.2616 99.3956 66.0365 98.428C66.3344 98.056 66.4165 98.1137 66.4935 98.7487C66.718 100.609 67.8677 101.608 69.7824 101.608C70.6441 101.608 72.0123 100.673 72.0123 100.084C72.0123 99.952 72.9324 99.8439 74.0569 99.8439C75.9442 99.8439 76.1399 99.911 76.6011 100.714C77.6142 102.479 80.0789 102.237 81.1388 100.269L81.7665 99.1031L84.5063 101.893C88.395 105.851 92.1967 108.243 98.3107 110.578L101.358 111.741L101.404 119.893L101.407 120.426V120.426C101.436 125.414 101.447 127.366 101.092 127.435C100.864 127.479 100.484 126.746 99.8611 125.541L99.7572 125.34C97.8589 121.674 94.8323 120.513 92.8038 122.672C92.2028 123.312 92.0569 123.823 92.0569 125.289C92.0569 126.858 92.2551 127.457 93.4895 129.614C96.3432 134.602 101.458 139.127 106.717 141.316C107.348 141.579 107.96 141.809 108.574 142.01C111.699 143.033 114.846 143.284 120.533 143.087L121.402 143.057L126.373 142.885L128.025 143.723C130.884 145.173 131.669 146.887 130.417 148.941C129.607 150.269 127.529 151.435 124.089 152.492C121.476 153.295 120.807 153.366 115.95 153.363C109.634 153.36 107.347 152.855 102.278 150.344C96.6815 147.572 92.7172 144.434 88.6272 139.537C85.4402 135.722 83.7273 135.028 82.1433 136.91C81.2504 137.971 81.127 138.929 81.644 140.79C82.0532 142.264 84.0996 145.353 86.158 147.606C86.7001 148.199 88.953 149.824 91.5648 151.708C95.9543 154.875 101.358 158.578 101.358 158.578V170.444C101.358 170.444 106.175 173.009 108.574 173.954L144.981 191.61L142.868 192.135C129.374 196.243 114.792 195.876 100.542 191.069C84.3832 185.619 70.885 173.221 64.1645 157.657C59.8002 147.549 58.2842 139.392 58.6408 127.937C58.9109 119.262 59.8701 113.875 62.4714 106.418Z" fill="#E68476"/>
<path d="M227.487 306.427C212.386 306.427 201.703 295.23 201.703 279.513C201.703 263.796 212.386 252.599 227.487 252.599C242.587 252.599 253.373 263.796 253.373 279.513C253.373 295.23 242.587 306.427 227.487 306.427ZM227.487 295.846C236.013 295.846 242.176 289.066 242.176 279.513C242.176 269.754 236.013 262.871 227.487 262.871C218.96 262.871 212.9 269.754 212.9 279.513C212.9 289.066 218.96 295.846 227.487 295.846Z" fill="#E68476"/>
<path d="M186.014 253.831H196.8V305.194H186.014V253.831ZM191.458 247.976C187.246 247.976 184.267 244.792 184.267 240.477C184.267 236.163 187.246 233.081 191.458 233.081C195.67 233.081 198.649 236.163 198.649 240.477C198.649 244.792 195.67 247.976 191.458 247.976Z" fill="#E68476"/>
<path d="M172.683 306.016C168.369 306.016 165.185 302.728 165.185 298.311C165.185 293.791 168.369 290.607 172.683 290.607C177.101 290.607 180.182 293.791 180.182 298.311C180.182 302.728 177.101 306.016 172.683 306.016Z" fill="#E68476"/>
<path d="M149.292 305.194V235.341H160.078V305.194H149.292Z" fill="#E68476"/>
<path d="M118.626 306.427C103.526 306.427 92.8425 295.23 92.8425 279.513C92.8425 263.796 103.526 252.599 118.626 252.599C133.727 252.599 144.513 263.796 144.513 279.513C144.513 295.23 133.727 306.427 118.626 306.427ZM118.626 295.846C127.153 295.846 133.316 289.066 133.316 279.513C133.316 269.754 127.153 262.871 118.626 262.871C110.1 262.871 104.04 269.754 104.04 279.513C104.04 289.066 110.1 295.846 118.626 295.846Z" fill="#E68476"/>
<path d="M44.4158 305.194L63.7281 278.999L45.1348 253.832H58.9L70.097 270.37L80.6777 253.832H94.3401L76.466 278.999L95.7783 305.194H82.0131L69.9943 287.423L58.5918 305.194H44.4158Z" fill="#E68476"/>
<path d="M17.1887 306.427C7.12164 306.427 0.341797 300.366 0.341797 291.429C0.341797 284.546 5.6835 278.794 13.7988 277.253L30.0293 274.068C31.5702 273.863 32.5974 272.733 32.5974 271.398C32.5974 266.159 28.7966 262.358 23.4549 262.358C17.9078 262.358 13.5933 266.261 13.1824 272.117L2.08812 269.446C3.73172 259.584 12.3606 252.599 22.9413 252.599C34.8574 252.599 43.3836 260.611 43.3836 271.706V294.922L43.589 305.194H35.0628L33.2138 298.209C30.0293 303.242 24.174 306.427 17.1887 306.427ZM11.9497 289.991C11.9497 293.689 14.9287 296.154 19.8595 296.154C27.0503 296.154 32.5974 290.915 32.5974 283.211V280.848C31.5702 281.054 30.4402 281.362 29.3102 281.567L18.1132 283.622C14.3124 284.341 11.9497 286.806 11.9497 289.991Z" fill="#E68476"/>
</svg>
