<svg width="501" height="211" viewBox="0 0 501 211" fill="none" xmlns="http://www.w3.org/2000/svg">
<path d="M24.3408 87.8465C24.6541 88.1478 26.3291 88.3528 27.7032 88.2583C28.0926 88.2316 29.1659 87.6088 30.0889 86.8741C31.0116 86.1395 31.8314 85.5384 31.9112 85.5384C31.9907 85.5384 31.989 85.9952 31.9072 86.5532C31.7305 87.7554 32.5797 88.8777 33.6654 88.8777C36.3739 88.8777 40.1444 86.5198 40.8487 84.386C41.3747 82.7925 40.7833 80.8146 39.3527 79.3844C38.426 78.4577 37.7251 78.1392 35.6096 77.683C29.5239 76.3707 23.7938 73.962 19.7762 71.0274C18.3189 69.9629 18.2251 69.7986 18.0808 68.0558C17.9008 65.8859 17.4123 65.1686 16.1149 65.1686C15.1943 65.1686 14.8924 65.3746 14.0442 66.5808C13.6728 67.1091 13.4835 67.04 11.8278 65.7707C8.48612 63.2094 6.46179 62.1632 4.84787 62.1632C2.09121 62.1632 0.102609 64.1605 0.120976 66.9111C0.139008 69.6109 2.27755 72.0984 7.71072 75.7395C10.0733 77.3227 10.4657 77.7197 10.4657 78.5269C10.4657 79.168 10.7933 79.744 11.4932 80.3328C12.7355 81.3783 13.8996 81.4367 14.8356 80.5007C15.4461 79.8903 15.6518 79.8539 16.503 80.2065C17.4003 80.5782 17.458 80.7061 17.2667 81.9029C17.0239 83.4206 17.4477 84.0838 19.1007 84.7747C19.7175 85.0328 20.1683 85.2813 20.1025 85.3274C20.9039 86.0805 23.262 87.3206 24.3408 87.8465Z" fill="#E68476"/>
<path fill-rule="evenodd" clip-rule="evenodd" d="M15.9343 28.6646C16.6092 26.8974 17.65 25.8622 19.3668 25.2501C19.4679 25.2141 19.5616 25.1804 19.6489 25.149C20.2651 24.9276 20.5619 24.8209 20.8612 24.8134C21.1394 24.8064 21.4198 24.8852 21.9609 25.0372L21.9616 25.0374C22.0437 25.0605 22.1317 25.0852 22.2267 25.1116C23.7237 25.5273 25.3313 26.821 26.0299 28.172C26.3121 28.7177 26.9823 31.5484 27.5196 34.4626C28.6106 40.3792 28.9575 41.5476 31.0146 46.229C32.8372 50.3768 34.9671 53.84 38.0667 57.6959C41.0618 61.4219 41.5173 62.2664 41.5199 64.1C41.5253 67.831 38.0583 70.1662 32.5056 70.1719C30.2241 70.1739 27.8305 69.6743 27.8305 69.1962C27.8305 69.0409 28.5818 68.3406 29.5002 67.6404C30.4185 66.9401 31.1699 66.2566 31.1699 66.1217C31.1699 65.5757 30.5267 65.5413 29.5379 66.0348C27.6669 66.9682 25.2074 65.8311 24.276 63.6021C23.71 62.248 24.1021 61.272 25.3356 60.9621C25.3858 60.9495 25.4333 60.9378 25.4783 60.9267C25.8159 60.8436 26.009 60.7961 26.0756 60.6775C26.1646 60.5192 26.028 60.234 25.709 59.5681C25.6773 59.5019 25.6438 59.4319 25.6085 59.3579C25.0675 58.2235 25.0231 58.2035 23.4482 58.3901C21.4209 58.6302 20.4899 58.0676 19.4867 55.9952C18.7924 54.5613 18.7804 54.417 19.2893 53.6403C19.5876 53.1855 20.1449 52.8132 20.5276 52.8132C21.1006 52.8132 21.1875 52.6676 21.0181 51.993C20.4702 49.8091 20.2047 49.4738 19.0239 49.4738C18.1413 49.4738 17.6534 49.214 16.877 48.3298C16.3246 47.7007 15.773 46.7329 15.6514 46.1789C15.4417 45.2239 15.8902 43.803 16.4048 43.792C16.536 43.789 16.8356 43.6651 17.07 43.5162C17.4066 43.3025 17.3164 42.5822 16.6415 40.0984C15.4871 35.8515 15.1672 30.6739 15.9343 28.6646ZM124.474 64.5675C125.108 63.3487 126.275 62.3031 127.68 61.6934C129.268 61.0052 130.803 61.0386 132.283 61.7939C133.813 62.575 134.516 63.3333 135.179 64.9195C136.625 68.3824 134.525 72.0723 130.588 72.9859C128.556 73.4575 125.573 71.908 124.493 69.8206C123.873 68.6201 123.862 65.7433 124.474 64.5675ZM72.4225 84.907C70.3445 81.9754 71.4708 77.6299 74.6873 76.1693C78.6024 74.3921 82.6103 76.5082 83.4699 80.8069C83.891 82.9127 82.2647 85.6803 79.8961 86.8888C77.2236 88.2523 74.2315 87.4589 72.4225 84.907ZM109.369 89.2237C115.636 87.5714 121.961 84.6174 125.577 81.6531C126.779 80.6677 127.887 79.8616 128.039 79.8616C128.83 79.8616 130.016 80.7271 130.359 81.555C130.982 83.058 130.232 84.6765 127.806 87.0668C122.885 91.9162 113.786 95.8569 104.271 97.2597C100.604 97.8007 92.4895 97.7964 89.1081 97.2521C85.0795 96.6036 83.9321 95.8025 83.9321 93.6386C83.9321 91.5231 84.1033 91.4741 91.806 91.3799C99.0728 91.2911 103.665 90.727 109.369 89.2237Z" fill="#E68476"/>
<path d="M159.316 118.499L120.953 136.676V180.57L159.928 160.719L159.316 118.499Z" fill="#E68476"/>
<path fill-rule="evenodd" clip-rule="evenodd" d="M120.953 136.676V180.57L159.928 160.719L159.316 118.499L120.953 136.676Z" fill="#E68476"/>
<path fill-rule="evenodd" clip-rule="evenodd" d="M111.657 2.45366C112.046 1.81585 112.928 1.07787 113.743 0.70787C115.568 -0.120947 116.449 -0.108593 118.265 0.770314C119.932 1.57743 121.452 3.48551 122.548 6.14661C123.115 7.52474 123.464 7.93314 124.245 8.1355C126.093 8.61436 126.615 11.3753 125.138 12.8529C124.3 13.6904 124.282 13.787 124.669 15.3975C125.022 16.8711 125.144 17.0324 125.684 16.7432C126.569 16.2701 126.926 16.3308 127.678 17.0825C128.127 17.5313 128.346 18.1955 128.346 19.1082C128.346 20.8182 127.922 21.614 126.666 22.2635C125.79 22.7166 125.674 22.951 125.674 24.2744V25.7727L126.943 25.5697C128.504 25.3203 129.16 25.9564 129.111 27.6755C129.068 29.1899 128.087 30.5015 126.735 30.8518C125.754 31.1063 125.674 31.2325 125.674 32.5405C125.674 33.6856 125.817 34.0182 126.426 34.288C127.188 34.6259 127.288 35.0597 126.888 36.3109C126.708 36.8776 127.045 37.3104 128.714 38.6485C129.84 39.5518 130.842 40.2907 130.941 40.2907C131.288 40.2907 132.377 36.5778 133.197 32.5983C133.74 29.9626 134.124 26.6219 134.312 22.9029C134.666 15.87 135.086 14.8549 138.168 13.5669C139.937 12.8279 141.646 13.1769 143.334 14.6221C145.928 16.8421 146.324 20.8633 144.852 30.0224C144.663 31.1971 144.716 31.4416 145.159 31.4416C145.454 31.4416 145.946 31.8239 146.252 32.2914C146.716 32.999 146.746 33.351 146.435 34.3905C145.958 35.9814 144.902 37.1184 143.902 37.1184C142.907 37.1184 142.39 37.7485 142.144 39.2592C141.966 40.3592 142.017 40.4577 142.762 40.4577C144.365 40.4577 144.842 41.9243 143.858 43.8281C143.246 45.0115 141.946 45.5866 140.498 45.3147C139.567 45.1404 139.406 45.2313 139.028 46.1439C138.623 47.122 138.659 47.2205 139.819 48.283C141.114 49.4685 141.233 49.8155 140.696 50.8186C140.43 51.3165 140.58 51.812 141.395 53.1377L142.433 54.8241L143.729 53.7979C145.322 52.5363 148.436 49.1392 149.789 47.1891C150.847 45.6634 150.932 45.1755 150.54 42.882C150.376 41.9193 150.432 41.3046 150.717 40.9619C151.259 40.3091 152.866 40.3138 153.521 40.9696C153.981 41.4291 154.132 41.3019 155.008 39.7174C157.935 34.4229 159.008 33.3894 161.581 33.3894C165.654 33.3894 167.316 37.6791 165.076 42.4139C164.524 43.5813 163.241 45.7425 162.226 47.2161C160.471 49.764 160.408 49.9263 160.945 50.5204C161.842 51.5115 161.074 53.5829 159.399 54.6915C158.248 55.4536 157.961 55.5133 157.026 55.1874C155.587 54.6855 155.558 54.6932 155.1 55.6983C154.75 56.468 154.793 56.6811 155.443 57.373C156.416 58.4078 156.014 59.6911 154.428 60.6175L153.298 61.2776L151.836 60.5019C151.032 60.0755 150.276 59.824 150.157 59.9433C150.037 60.0625 150.106 60.701 150.309 61.3621C150.531 62.0848 150.564 62.8628 150.393 63.3133C150.085 64.1217 148.34 65.018 147.615 64.7398C147.274 64.6089 147.325 65.1639 147.835 67.1228C148.2 68.5276 148.545 69.7358 148.6 69.8079C148.777 70.04 152.833 68.4465 154.727 67.4003C158.302 65.4254 158.407 65.3129 158.328 63.5133C158.287 62.5626 158.441 61.6817 158.704 61.3648C159.272 60.6806 161.191 60.6676 161.753 61.3441C161.989 61.6283 162.27 61.7411 162.378 61.5945C163.429 60.1727 166.867 57.4822 168.035 57.1676C170.795 56.4243 173.427 58.5264 173.427 61.473C173.427 63.8416 171.975 65.8171 167.083 70.1054C163.703 73.0671 163.069 73.3696 161.711 72.6674C160.333 71.9548 160.016 72.2817 160.265 74.1597C160.471 75.7085 160.443 75.7759 159.316 76.4725C157.799 77.4095 156.889 77.3788 155.865 76.3553C154.557 75.047 153.526 75.2864 154.089 76.7677C154.518 77.8954 154.226 78.6765 153.202 79.143C152.047 79.6692 151.047 79.6255 150.377 79.0191C149.857 78.5482 149.801 78.6898 149.627 80.9392C149.523 82.2749 149.328 83.6477 149.194 83.9896C149.194 87.2921 148.288 90.2925 147.835 91.3799L152.66 93.8179L163.46 99.2787C172.502 103.851 174.382 104.924 175.012 105.874L175.765 107.009V138.722V171.739L113.849 204.883C100.115 210.75 85.4291 212.37 69.9 209.733C54.3946 207.099 38.9513 198.889 28.2619 187.597C17.7395 176.481 10.9402 161.984 8.74326 145.98C8.48746 144.118 8.3078 139.567 8.3078 134.96C8.3078 130.353 8.48746 125.803 8.74326 123.941C9.70967 116.9 11.9875 108.551 14.4983 102.845L14.6039 102.606C15.6078 100.325 15.8593 99.7535 15.707 99.6096C15.6561 99.5615 15.56 99.5611 15.4318 99.5607C15.4186 99.5607 15.4051 99.5606 15.3913 99.5605C14.6312 99.5548 7.64726 96.0158 6.52991 95.0698C5.05123 93.8182 4.45482 92.5583 4.45482 90.687C4.45482 88.7221 5.39118 87.14 7.00711 86.3729C8.62905 85.6032 10.1819 85.8884 13.5242 87.5687L16.2044 88.9161C17.0495 89.341 18.4874 89.9889 19.1007 90.2598C19.766 90.4595 20.6279 90.8127 21.6367 91.2262C24.0019 92.1956 27.1747 93.4959 30.515 93.9241C33.0252 94.246 34.2434 94.2353 36.8228 93.8683C42.4142 93.0726 43.2527 93.3741 47.5328 97.7222C52.3903 102.657 56.8714 105.479 63.1601 107.562C73.042 110.836 88.2696 111.787 100.295 109.881C112.004 108.024 121.101 105.162 127.492 101.324C139.567 94.0727 145.095 83.2951 143.238 70.6294C142.238 63.8129 139.892 58.5197 135.084 52.2365C132.665 49.0755 128.271 44.7878 125.34 42.7281C120.367 39.2332 113.463 36.5761 105.363 35.04C102.086 34.4189 100.317 34.302 94.2841 34.3074C86.099 34.3147 81.9915 34.8186 75.4664 36.6155C64.1653 39.7277 55.7744 44.33 48.4572 51.429L45.5409 54.2581L44.2238 53.8637C42.7418 53.4196 41.188 51.798 41.188 50.6954C41.188 50.2933 40.8848 49.4408 40.5138 48.8006C38.6815 45.638 38.5819 44.6288 40.0663 44.2562C40.614 44.1189 40.8223 43.8775 40.7131 43.5078C40.6243 43.2076 40.459 42.5722 40.3458 42.0956C40.1765 41.383 39.8669 41.175 38.6083 40.9269C36.8555 40.5809 35.9345 39.5978 35.6349 37.7532C35.3898 36.2422 36.1148 35.4487 37.7411 35.4487C38.6808 35.4487 38.8805 35.3409 38.7192 34.9205C38.6077 34.6299 38.5165 33.9654 38.5165 33.4438C38.5165 32.6547 38.3188 32.43 37.342 32.1074C35.9462 31.6469 35.1771 30.363 35.1771 28.4936C35.1771 27.0046 35.5802 26.5405 37.0138 26.3785C37.9094 26.2777 38.0266 26.1307 38.1204 24.994C38.2083 23.9284 38.0323 23.509 37.0351 22.405C36.1138 21.3852 35.845 20.8032 35.845 19.8274C35.845 18.2676 36.6317 17.0825 37.667 17.0825C38.3659 17.0825 38.5071 16.8244 38.9893 14.6615C39.5126 12.3157 40.6884 9.46956 41.5931 8.35923C43.1509 6.44681 46.4282 5.82737 48.4542 7.06291C50.4164 8.25905 50.9236 9.50295 50.7693 12.7414C50.6949 14.3025 50.375 17.1577 50.0581 19.0861C49.2766 23.8433 49.4773 30.9624 50.5246 35.6534L51.2786 39.0308L54.832 36.8489C63.0516 31.8022 72.1948 28.4515 81.7615 26.9806C87.415 26.1113 88.1153 26.0569 93.5348 26.0636C101.154 26.0729 108.847 27.2921 113.682 29.257L115.758 30.1005L115.539 26.3464C115.244 21.283 114.372 17.149 112.298 10.9749C110.421 5.39025 110.36 4.57947 111.657 2.45366ZM114.328 127.493L94.1244 118.932C86.3257 119.813 81.1119 120.27 74.2575 118.499C72.865 118.139 71.2652 117.726 69.3223 117.268L68.9048 139.849C68.9048 139.849 67.9175 141.685 78.0954 141.184V124.835L107.429 136.676L107.514 180.57L78.0942 166.263L78.0954 166.263L78.025 166.229L78.0241 166.273C74.7179 166.764 72.0618 166.756 68.9048 165.762V172.688L77.7875 177.416L107.514 191.88L113.849 195.281L120.953 191.88L169.086 167.186V109.881L143.473 96.5745L136.368 103.784L150.717 109.881L114.328 127.493ZM20.9016 110.249C22.1833 106.576 23.8069 102.937 24.6137 101.929C24.9239 101.542 25.0094 101.602 25.0895 102.263C25.3233 104.2 26.5204 105.24 28.514 105.24C29.4113 105.24 30.8359 104.267 30.8359 103.654C30.8359 103.516 31.794 103.404 32.9648 103.404C34.93 103.404 35.1337 103.474 35.6139 104.31C36.6688 106.148 39.2351 105.896 40.3388 103.846L40.9923 102.632L43.8451 105.537C47.8941 109.659 51.8526 112.149 58.2188 114.58L61.3912 115.791L61.4393 124.279L61.4425 124.834V124.835C61.4725 130.029 61.4842 132.061 61.1147 132.133C60.8771 132.179 60.4821 131.415 59.8331 130.16L59.7249 129.951C57.7483 126.134 54.5969 124.925 52.4848 127.174C51.859 127.84 51.707 128.372 51.707 129.898C51.707 131.532 51.9134 132.156 53.1987 134.402C56.1701 139.595 61.4961 144.307 66.972 146.586C67.6286 146.86 68.2663 147.1 68.9048 147.309C72.1592 148.373 75.4358 148.635 81.3577 148.43L82.2624 148.399L87.4384 148.219L89.1585 149.092C92.1349 150.602 92.9527 152.387 91.649 154.525C90.8055 155.908 88.6422 157.122 85.0601 158.223C82.3388 159.059 81.6432 159.133 76.5854 159.13C70.0095 159.127 67.6279 158.601 62.3493 155.986C56.5224 153.1 52.3946 149.832 48.1359 144.734C44.8176 140.761 43.034 140.038 41.3847 141.999C40.455 143.104 40.3264 144.101 40.8647 146.039C41.2909 147.573 43.4217 150.79 45.5649 153.135C46.1294 153.753 48.4752 155.445 51.1947 157.407C55.7652 160.704 61.3912 164.56 61.3912 164.56V176.915C61.3912 176.915 66.4075 179.586 68.9048 180.57L106.814 198.954L104.613 199.501C90.5631 203.778 75.3799 203.396 60.542 198.391C43.7169 192.716 29.6621 179.807 22.6645 163.601C18.1202 153.076 16.5417 144.582 16.913 132.655C17.1942 123.623 18.193 118.013 20.9016 110.249Z" fill="#E68476"/>
<path d="M471.131 147.7C453.766 147.7 441.48 134.824 441.48 116.751C441.48 98.6768 453.766 85.8008 471.131 85.8008C488.496 85.8008 500.899 98.6768 500.899 116.751C500.899 134.824 488.496 147.7 471.131 147.7ZM471.131 135.533C480.935 135.533 488.023 127.737 488.023 116.751C488.023 105.528 480.935 97.6137 471.131 97.6137C461.326 97.6137 454.356 105.528 454.356 116.751C454.356 127.737 461.326 135.533 471.131 135.533Z" fill="#E68476"/>
<path d="M423.438 87.2185H435.842V146.283H423.438V87.2185ZM429.699 80.4851C424.856 80.4851 421.43 76.8231 421.43 71.8617C421.43 66.9003 424.856 63.3564 429.699 63.3564C434.542 63.3564 437.968 66.9003 437.968 71.8617C437.968 76.8231 434.542 80.4851 429.699 80.4851Z" fill="#E68476"/>
<path d="M408.109 147.228C403.147 147.228 399.485 143.448 399.485 138.368C399.485 133.171 403.147 129.509 408.109 129.509C413.188 129.509 416.732 133.171 416.732 138.368C416.732 143.448 413.188 147.228 408.109 147.228Z" fill="#E68476"/>
<path d="M381.21 146.283V65.9551H393.614V146.283H381.21Z" fill="#E68476"/>
<path d="M345.946 147.7C328.581 147.7 316.295 134.824 316.295 116.751C316.295 98.6768 328.581 85.8008 345.946 85.8008C363.311 85.8008 375.714 98.6768 375.714 116.751C375.714 134.824 363.311 147.7 345.946 147.7ZM345.946 135.533C355.75 135.533 362.838 127.737 362.838 116.751C362.838 105.528 355.75 97.6137 345.946 97.6137C336.141 97.6137 329.171 105.528 329.171 116.751C329.171 127.737 336.141 135.533 345.946 135.533Z" fill="#E68476"/>
<path d="M260.607 146.283L282.816 116.16L261.434 87.2185H277.264L290.14 106.237L302.307 87.2185H318.018L297.464 116.16L319.672 146.283H303.843L290.021 125.847L276.909 146.283H260.607Z" fill="#E68476"/>
<path d="M229.297 147.7C217.721 147.7 209.924 140.731 209.924 130.453C209.924 122.539 216.067 115.924 225.399 114.152L244.064 110.49C245.835 110.253 247.017 108.954 247.017 107.418C247.017 101.394 242.646 97.023 236.503 97.023C230.124 97.023 225.163 101.512 224.69 108.245L211.933 105.174C213.823 93.8335 223.745 85.8008 235.913 85.8008C249.616 85.8008 259.42 95.0148 259.42 107.773V134.47L259.657 146.283H249.852L247.726 138.25C244.064 144.038 237.33 147.7 229.297 147.7ZM223.273 128.8C223.273 133.052 226.699 135.887 232.369 135.887C240.638 135.887 247.017 129.863 247.017 121.003V118.286C245.835 118.522 244.536 118.877 243.237 119.113L230.361 121.476C225.99 122.303 223.273 125.138 223.273 128.8Z" fill="#E68476"/>
</svg>
