<svg width="501" height="211" viewBox="0 0 501 211" fill="none" xmlns="http://www.w3.org/2000/svg">
<path d="M24.3408 87.8597C24.6541 88.1609 26.3291 88.366 27.7032 88.2715C28.0926 88.2448 29.1659 87.622 30.0889 86.8873C31.0116 86.1527 31.8314 85.5516 31.9112 85.5516C31.9907 85.5516 31.989 86.0084 31.9072 86.5664C31.7305 87.7686 32.5797 88.8909 33.6654 88.8909C36.3739 88.8909 40.1444 86.533 40.8487 84.3992C41.3747 82.8057 40.7833 80.8278 39.3527 79.3976C38.426 78.4709 37.7251 78.1524 35.6096 77.6962C29.5239 76.3839 23.7938 73.9752 19.7762 71.0406C18.3189 69.9761 18.2251 69.8118 18.0808 68.069C17.9008 65.8991 17.4123 65.1818 16.1149 65.1818C15.1943 65.1818 14.8924 65.3878 14.0442 66.594C13.6728 67.1223 13.4835 67.0531 11.8278 65.7839C8.48612 63.2226 6.46179 62.1764 4.84787 62.1764C2.09121 62.1764 0.102609 64.1737 0.120976 66.9242C0.139008 69.6241 2.27755 72.1115 7.71072 75.7527C10.0733 77.3359 10.4657 77.7329 10.4657 78.54C10.4657 79.1812 10.7933 79.7572 11.4932 80.3459C12.7355 81.3915 13.8996 81.4499 14.8356 80.5139C15.4461 79.9035 15.6518 79.8671 16.503 80.2197C17.4003 80.5914 17.458 80.7193 17.2667 81.9161C17.0239 83.4338 17.4477 84.097 19.1007 84.7879C19.7175 85.046 20.1683 85.2945 20.1025 85.3406C20.9039 86.0936 23.262 87.3338 24.3408 87.8597Z" fill="#58A1C6"/>
<path fill-rule="evenodd" clip-rule="evenodd" d="M15.9343 28.6778C16.6092 26.9106 17.65 25.8754 19.3668 25.2633C19.4679 25.2273 19.5616 25.1936 19.6489 25.1622C20.2651 24.9408 20.5619 24.8341 20.8612 24.8266C21.1394 24.8196 21.4198 24.8984 21.9609 25.0504L21.9616 25.0506C22.0437 25.0736 22.1317 25.0984 22.2267 25.1247C23.7237 25.5405 25.3313 26.8341 26.0299 28.1852C26.3121 28.7309 26.9823 31.5616 27.5196 34.4758C28.6106 40.3924 28.9575 41.5608 31.0146 46.2422C32.8372 50.39 34.9671 53.8532 38.0667 57.7091C41.0618 61.4351 41.5173 62.2796 41.5199 64.1132C41.5253 67.8442 38.0583 70.1794 32.5056 70.1851C30.2241 70.1871 27.8305 69.6875 27.8305 69.2093C27.8305 69.0541 28.5818 68.3538 29.5002 67.6536C30.4185 66.9533 31.1699 66.2697 31.1699 66.1348C31.1699 65.5889 30.5267 65.5545 29.5379 66.048C27.6669 66.9813 25.2074 65.8443 24.276 63.6153C23.71 62.2612 24.1021 61.2852 25.3356 60.9753C25.3858 60.9627 25.4333 60.951 25.4783 60.9399C25.8159 60.8568 26.009 60.8093 26.0756 60.6907C26.1646 60.5324 26.028 60.2472 25.709 59.5813C25.6773 59.5151 25.6438 59.4451 25.6085 59.3711C25.0675 58.2367 25.0231 58.2167 23.4482 58.4033C21.4209 58.6434 20.4899 58.0807 19.4867 56.0084C18.7924 54.5745 18.7804 54.4302 19.2893 53.6535C19.5876 53.1987 20.1449 52.8263 20.5276 52.8263C21.1006 52.8263 21.1875 52.6807 21.0181 52.0062C20.4702 49.8223 20.2047 49.487 19.0239 49.487C18.1413 49.487 17.6534 49.2272 16.877 48.343C16.3246 47.7139 15.773 46.7461 15.6514 46.1921C15.4417 45.2371 15.8902 43.8162 16.4048 43.8052C16.536 43.8022 16.8356 43.6783 17.07 43.5294C17.4066 43.3156 17.3164 42.5954 16.6415 40.1116C15.4871 35.8646 15.1672 30.687 15.9343 28.6778ZM124.474 64.5807C125.108 63.3619 126.275 62.3163 127.68 61.7066C129.268 61.0183 130.803 61.0517 132.283 61.8071C133.813 62.5882 134.516 63.3465 135.179 64.9327C136.625 68.3955 134.525 72.0855 130.588 72.9991C128.556 73.4706 125.573 71.9212 124.493 69.8338C123.873 68.6333 123.862 65.7565 124.474 64.5807ZM72.4225 84.9201C70.3445 81.9886 71.4708 77.6431 74.6873 76.1825C78.6024 74.4053 82.6103 76.5214 83.4699 80.8201C83.891 82.9259 82.2647 85.6935 79.8961 86.902C77.2236 88.2655 74.2315 87.472 72.4225 84.9201ZM109.369 89.2369C115.636 87.5846 121.961 84.6306 125.577 81.6663C126.779 80.6809 127.887 79.8748 128.039 79.8748C128.83 79.8748 130.016 80.7403 130.359 81.5681C130.982 83.0712 130.232 84.6897 127.806 87.08C122.885 91.9294 113.786 95.8701 104.271 97.2729C100.604 97.8139 92.4895 97.8096 89.1081 97.2652C85.0795 96.6168 83.9321 95.8156 83.9321 93.6518C83.9321 91.5363 84.1033 91.4872 91.806 91.3931C99.0728 91.3042 103.665 90.7402 109.369 89.2369Z" fill="#58A1C6"/>
<path d="M159.316 118.512L120.953 136.689V180.583L159.928 160.732L159.316 118.512Z" fill="#58A1C6"/>
<path fill-rule="evenodd" clip-rule="evenodd" d="M120.953 136.689V180.583L159.928 160.732L159.316 118.512L120.953 136.689Z" fill="#58A1C6"/>
<path fill-rule="evenodd" clip-rule="evenodd" d="M111.657 2.46685C112.046 1.82904 112.928 1.09105 113.743 0.721054C115.568 -0.107763 116.449 -0.0954089 118.265 0.783498C119.932 1.59061 121.452 3.49869 122.548 6.15979C123.115 7.53793 123.464 7.94632 124.245 8.14868C126.093 8.62754 126.615 11.3885 125.138 12.8661C124.3 13.7036 124.282 13.8001 124.669 15.4107C125.022 16.8843 125.144 17.0456 125.684 16.7564C126.569 16.2832 126.926 16.344 127.678 17.0957C128.127 17.5445 128.346 18.2087 128.346 19.1213C128.346 20.8314 127.922 21.6272 126.666 22.2767C125.79 22.7298 125.674 22.9642 125.674 24.2876V25.7859L126.943 25.5829C128.504 25.3334 129.16 25.9696 129.111 27.6887C129.068 29.203 128.087 30.5147 126.735 30.865C125.754 31.1195 125.674 31.2457 125.674 32.5537C125.674 33.6988 125.817 34.0314 126.426 34.3012C127.188 34.6391 127.288 35.0729 126.888 36.3241C126.708 36.8908 127.045 37.3236 128.714 38.6616C129.84 39.5649 130.842 40.3039 130.941 40.3039C131.288 40.3039 132.377 36.5909 133.197 32.6115C133.74 29.9758 134.124 26.6351 134.312 22.9161C134.666 15.8832 135.086 14.868 138.168 13.5801C139.937 12.8411 141.646 13.19 143.334 14.6353C145.928 16.8553 146.324 20.8765 144.852 30.0355C144.663 31.2103 144.716 31.4547 145.159 31.4547C145.454 31.4547 145.946 31.8371 146.252 32.3046C146.716 33.0122 146.746 33.3642 146.435 34.4037C145.958 35.9945 144.902 37.1316 143.902 37.1316C142.907 37.1316 142.39 37.7617 142.144 39.2724C141.966 40.3724 142.017 40.4709 142.762 40.4709C144.365 40.4709 144.842 41.9375 143.858 43.8412C143.246 45.0247 141.946 45.5997 140.498 45.3279C139.567 45.1536 139.406 45.2444 139.028 46.1571C138.623 47.1352 138.659 47.2337 139.819 48.2962C141.114 49.4817 141.233 49.8286 140.696 50.8318C140.43 51.3297 140.58 51.8252 141.395 53.1509L142.433 54.8373L143.729 53.8111C145.322 52.5495 148.436 49.1524 149.789 47.2023C150.847 45.6765 150.932 45.1887 150.54 42.8952C150.376 41.9325 150.432 41.3177 150.717 40.9751C151.259 40.3223 152.866 40.327 153.521 40.9828C153.981 41.4423 154.132 41.3151 155.008 39.7306C157.935 34.4361 159.008 33.4026 161.581 33.4026C165.654 33.4026 167.316 37.6922 165.076 42.4271C164.524 43.5945 163.241 45.7557 162.226 47.2293C160.471 49.7772 160.408 49.9395 160.945 50.5336C161.842 51.5247 161.074 53.5961 159.399 54.7047C158.248 55.4667 157.961 55.5265 157.026 55.2006C155.587 54.6987 155.558 54.7064 155.1 55.7115C154.75 56.4812 154.793 56.6943 155.443 57.3862C156.416 58.421 156.014 59.7043 154.428 60.6306L153.298 61.2908L151.836 60.5151C151.032 60.0887 150.276 59.8372 150.157 59.9564C150.037 60.0756 150.106 60.7141 150.309 61.3753C150.531 62.0979 150.564 62.876 150.393 63.3265C150.085 64.1349 148.34 65.0312 147.615 64.753C147.274 64.6221 147.325 65.1771 147.835 67.136C148.2 68.5408 148.545 69.749 148.6 69.8211C148.777 70.0532 152.833 68.4597 154.727 67.4135C158.302 65.4386 158.407 65.326 158.328 63.5265C158.287 62.5758 158.441 61.6949 158.704 61.378C159.272 60.6938 161.191 60.6807 161.753 61.3573C161.989 61.6415 162.27 61.7543 162.378 61.6077C163.429 60.1858 166.867 57.4954 168.035 57.1808C170.795 56.4375 173.427 58.5396 173.427 61.4862C173.427 63.8548 171.975 65.8303 167.083 70.1186C163.703 73.0803 163.069 73.3828 161.711 72.6805C160.333 71.9679 160.016 72.2949 160.265 74.1729C160.471 75.7217 160.443 75.7891 159.316 76.4857C157.799 77.4227 156.889 77.392 155.865 76.3685C154.557 75.0602 153.526 75.2996 154.089 76.7809C154.518 77.9086 154.226 78.6896 153.202 79.1561C152.047 79.6824 151.047 79.6387 150.377 79.0323C149.857 78.5614 149.801 78.703 149.627 80.9524C149.523 82.2881 149.328 83.6609 149.194 84.0028C149.194 87.3053 148.288 90.3057 147.835 91.3931L152.66 93.8311L163.46 99.2919C172.502 103.864 174.382 104.937 175.012 105.887L175.765 107.022V138.735V171.752L113.849 204.896C100.115 210.763 85.4291 212.383 69.9 209.746C54.3946 207.113 38.9513 198.903 28.2619 187.61C17.7395 176.494 10.9402 161.997 8.74326 145.993C8.48746 144.131 8.3078 139.581 8.3078 134.973C8.3078 130.366 8.48746 125.816 8.74326 123.954C9.70967 116.913 11.9875 108.564 14.4983 102.859L14.6039 102.619C15.6078 100.338 15.8593 99.7667 15.707 99.6228C15.6561 99.5746 15.56 99.5743 15.4318 99.5739C15.4186 99.5739 15.4051 99.5738 15.3913 99.5737C14.6312 99.568 7.64726 96.029 6.52991 95.083C5.05123 93.8314 4.45482 92.5715 4.45482 90.7002C4.45482 88.7353 5.39118 87.1531 7.00711 86.3861C8.62905 85.6164 10.1819 85.9016 13.5242 87.5819L16.2044 88.9293C17.0495 89.3542 18.4874 90.0021 19.1007 90.273C19.766 90.4727 20.6279 90.8259 21.6367 91.2394C24.0019 92.2088 27.1747 93.5091 30.515 93.9373C33.0252 94.2592 34.2434 94.2485 36.8228 93.8815C42.4142 93.0858 43.2527 93.3873 47.5328 97.7354C52.3903 102.67 56.8714 105.492 63.1601 107.575C73.042 110.85 88.2696 111.8 100.295 109.894C112.004 108.038 121.101 105.175 127.492 101.338C139.567 94.0859 145.095 83.3083 143.238 70.6426C142.238 63.826 139.892 58.5329 135.084 52.2496C132.665 49.0887 128.271 44.801 125.34 42.7413C120.367 39.2464 113.463 36.5893 105.363 35.0532C102.086 34.4321 100.317 34.3152 94.2841 34.3205C86.099 34.3279 81.9915 34.8318 75.4664 36.6287C64.1653 39.7409 55.7744 44.3432 48.4572 51.4422L45.5409 54.2713L44.2238 53.8769C42.7418 53.4328 41.188 51.8112 41.188 50.7085C41.188 50.3065 40.8848 49.454 40.5138 48.8138C38.6815 45.6512 38.5819 44.642 40.0663 44.2694C40.614 44.1321 40.8223 43.8907 40.7131 43.521C40.6243 43.2208 40.459 42.5853 40.3458 42.1088C40.1765 41.3962 39.8669 41.1882 38.6083 40.9401C36.8555 40.5941 35.9345 39.611 35.6349 37.7664C35.3898 36.2553 36.1148 35.4619 37.7411 35.4619C38.6808 35.4619 38.8805 35.3541 38.7192 34.9336C38.6077 34.6431 38.5165 33.9786 38.5165 33.457C38.5165 32.6679 38.3188 32.4432 37.342 32.1206C35.9462 31.6601 35.1771 30.3761 35.1771 28.5068C35.1771 27.0178 35.5802 26.5536 37.0138 26.3917C37.9094 26.2908 38.0266 26.1439 38.1204 25.0072C38.2083 23.9416 38.0323 23.5222 37.0351 22.4182C36.1138 21.3984 35.845 20.8164 35.845 19.8406C35.845 18.2808 36.6317 17.0957 37.667 17.0957C38.3659 17.0957 38.5071 16.8376 38.9893 14.6747C39.5126 12.3288 40.6884 9.48274 41.5931 8.37242C43.1509 6.45999 46.4282 5.84055 48.4542 7.0761C50.4164 8.27224 50.9236 9.51613 50.7693 12.7546C50.6949 14.3157 50.375 17.1708 50.0581 19.0993C49.2766 23.8565 49.4773 30.9756 50.5246 35.6666L51.2786 39.044L54.832 36.8621C63.0516 31.8154 72.1948 28.4647 81.7615 26.9938C87.415 26.1245 88.1153 26.0701 93.5348 26.0768C101.154 26.0861 108.847 27.3053 113.682 29.2702L115.758 30.1137L115.539 26.3596C115.244 21.2962 114.372 17.1622 112.298 10.9881C110.421 5.40344 110.36 4.59265 111.657 2.46685ZM114.328 127.506L94.1244 118.945C86.3257 119.826 81.1119 120.283 74.2575 118.512C72.865 118.153 71.2652 117.739 69.3223 117.281L68.9048 139.862C68.9048 139.862 67.9175 141.698 78.0954 141.197V124.848L107.429 136.689L107.514 180.583L78.0942 166.276L78.0954 166.276L78.025 166.242L78.0241 166.287C74.7179 166.777 72.0618 166.77 68.9048 165.775V172.701L77.7875 177.429L107.514 191.893L113.849 195.294L120.953 191.893L169.086 167.199V109.894L143.473 96.5877L136.368 103.797L150.717 109.894L114.328 127.506ZM20.9016 110.263C22.1833 106.589 23.8069 102.95 24.6137 101.943C24.9239 101.555 25.0094 101.615 25.0895 102.277C25.3233 104.213 26.5204 105.254 28.514 105.254C29.4113 105.254 30.8359 104.28 30.8359 103.667C30.8359 103.529 31.794 103.417 32.9648 103.417C34.93 103.417 35.1337 103.487 35.6139 104.323C36.6688 106.161 39.2351 105.909 40.3388 103.859L40.9923 102.646L43.8451 105.55C47.8941 109.672 51.8526 112.163 58.2188 114.593L61.3912 115.804L61.4393 124.292L61.4425 124.848V124.848C61.4725 130.042 61.4842 132.074 61.1147 132.146C60.8771 132.192 60.4821 131.428 59.8331 130.174L59.7249 129.964C57.7483 126.148 54.5969 124.938 52.4848 127.187C51.859 127.853 51.707 128.385 51.707 129.911C51.707 131.545 51.9134 132.169 53.1987 134.415C56.1701 139.608 61.4961 144.32 66.972 146.6C67.6286 146.873 68.2663 147.113 68.9048 147.322C72.1592 148.387 75.4358 148.649 81.3577 148.443L82.2624 148.412L87.4384 148.232L89.1585 149.105C92.1349 150.615 92.9527 152.4 91.649 154.538C90.8055 155.921 88.6422 157.135 85.0601 158.236C82.3388 159.072 81.6432 159.146 76.5854 159.143C70.0095 159.14 67.6279 158.614 62.3493 155.999C56.5224 153.113 52.3946 149.845 48.1359 144.747C44.8176 140.774 43.034 140.052 41.3847 142.012C40.455 143.117 40.3264 144.114 40.8647 146.052C41.2909 147.586 43.4217 150.803 45.5649 153.148C46.1294 153.766 48.4752 155.458 51.1947 157.42C55.7652 160.717 61.3912 164.573 61.3912 164.573V176.928C61.3912 176.928 66.4075 179.6 68.9048 180.583L106.814 198.968L104.613 199.514C90.5631 203.792 75.3799 203.409 60.542 198.404C43.7169 192.729 29.6621 179.82 22.6645 163.614C18.1202 153.089 16.5417 144.596 16.913 132.668C17.1942 123.636 18.193 118.026 20.9016 110.263Z" fill="#58A1C6"/>
<path d="M471.131 147.713C453.766 147.713 441.48 134.837 441.48 116.764C441.48 98.69 453.766 85.814 471.131 85.814C488.496 85.814 500.899 98.69 500.899 116.764C500.899 134.837 488.496 147.713 471.131 147.713ZM471.131 135.546C480.935 135.546 488.023 127.75 488.023 116.764C488.023 105.541 480.935 97.6268 471.131 97.6268C461.326 97.6268 454.356 105.541 454.356 116.764C454.356 127.75 461.326 135.546 471.131 135.546Z" fill="#58A1C6"/>
<path d="M423.438 87.2317H435.842V146.296H423.438V87.2317ZM429.699 80.4983C424.856 80.4983 421.43 76.8363 421.43 71.8749C421.43 66.9135 424.856 63.3696 429.699 63.3696C434.542 63.3696 437.968 66.9135 437.968 71.8749C437.968 76.8363 434.542 80.4983 429.699 80.4983Z" fill="#58A1C6"/>
<path d="M408.109 147.241C403.147 147.241 399.485 143.461 399.485 138.381C399.485 133.184 403.147 129.522 408.109 129.522C413.188 129.522 416.732 133.184 416.732 138.381C416.732 143.461 413.188 147.241 408.109 147.241Z" fill="#58A1C6"/>
<path d="M381.21 146.296V65.9683H393.614V146.296H381.21Z" fill="#58A1C6"/>
<path d="M345.946 147.713C328.581 147.713 316.295 134.837 316.295 116.764C316.295 98.69 328.581 85.814 345.946 85.814C363.311 85.814 375.714 98.69 375.714 116.764C375.714 134.837 363.311 147.713 345.946 147.713ZM345.946 135.546C355.75 135.546 362.838 127.75 362.838 116.764C362.838 105.541 355.75 97.6268 345.946 97.6268C336.141 97.6268 329.171 105.541 329.171 116.764C329.171 127.75 336.141 135.546 345.946 135.546Z" fill="#58A1C6"/>
<path d="M260.607 146.296L282.816 116.173L261.434 87.2317H277.264L290.14 106.25L302.307 87.2317H318.018L297.464 116.173L319.672 146.296H303.843L290.021 125.86L276.909 146.296H260.607Z" fill="#58A1C6"/>
<path d="M229.297 147.713C217.721 147.713 209.924 140.744 209.924 130.467C209.924 122.552 216.067 115.937 225.399 114.165L244.064 110.503C245.835 110.267 247.017 108.967 247.017 107.432C247.017 101.407 242.646 97.0362 236.503 97.0362C230.124 97.0362 225.163 101.525 224.69 108.258L211.933 105.187C213.823 93.8467 223.745 85.814 235.913 85.814C249.616 85.814 259.42 95.028 259.42 107.786V134.483L259.657 146.296H249.852L247.726 138.263C244.064 144.051 237.33 147.713 229.297 147.713ZM223.273 128.813C223.273 133.065 226.699 135.901 232.369 135.901C240.638 135.901 247.017 129.876 247.017 121.016V118.299C245.835 118.536 244.536 118.89 243.237 119.126L230.361 121.489C225.99 122.316 223.273 125.151 223.273 128.813Z" fill="#58A1C6"/>
</svg>
