<svg width="217" height="217" viewBox="0 0 217 217" fill="none" xmlns="http://www.w3.org/2000/svg">
<rect x="0.757568" y="0.581299" width="215.921" height="215.921" rx="107.96" fill="#58A1C6"/>
<path d="M60.6302 88.8666C60.8676 89.0949 62.1373 89.2503 63.1789 89.1787C63.4741 89.1584 64.2876 88.6863 64.9873 88.1295C65.6867 87.5726 66.3081 87.1169 66.3686 87.1169C66.4289 87.1169 66.4276 87.4632 66.3656 87.8862C66.2317 88.7975 66.8754 89.6482 67.6983 89.6482C69.7515 89.6482 72.6096 87.8609 73.1434 86.2434C73.5421 85.0354 73.0938 83.5361 72.0094 82.452C71.307 81.7495 70.7756 81.5081 69.1721 81.1623C64.559 80.1675 60.2155 78.3416 57.1701 76.1171C56.0655 75.3102 55.9943 75.1856 55.885 73.8645C55.7485 72.2197 55.3782 71.676 54.3948 71.676C53.6969 71.676 53.4681 71.8321 52.8251 72.7464C52.5436 73.1469 52.4001 73.0945 51.1451 72.1324C48.612 70.1908 47.0775 69.3978 45.8542 69.3978C43.7646 69.3978 42.2572 70.9117 42.2711 72.9968C42.2848 75.0433 43.9058 76.9289 48.0242 79.6891C49.8151 80.8892 50.1126 81.1901 50.1126 81.8019C50.1126 82.288 50.3609 82.7246 50.8915 83.1709C51.8331 83.9634 52.7155 84.0077 53.425 83.2982C53.8878 82.8355 54.0437 82.8079 54.6889 83.0752C55.3691 83.3569 55.4129 83.4539 55.2678 84.3611C55.0838 85.5116 55.405 86.0143 56.658 86.538C57.1256 86.7337 57.4673 86.922 57.4174 86.957C58.0249 87.5278 59.8124 88.4679 60.6302 88.8666Z" fill="#15002E"/>
<path fill-rule="evenodd" clip-rule="evenodd" d="M54.2578 44.0047C54.7694 42.6651 55.5584 41.8804 56.8598 41.4164C56.9364 41.3891 57.0074 41.3636 57.0736 41.3398C57.5407 41.1719 57.7657 41.0911 57.9925 41.0854C58.2035 41.0801 58.416 41.1398 58.8261 41.255L58.8267 41.2552C58.8889 41.2727 58.9556 41.2914 59.0276 41.3114C60.1624 41.6265 61.3809 42.6072 61.9105 43.6313C62.1244 44.045 62.6324 46.1907 63.0397 48.3998C63.8667 52.8848 64.1297 53.7705 65.689 57.3191C67.0706 60.4633 68.685 63.0885 71.0346 66.0114C73.3049 68.8358 73.6502 69.476 73.6522 70.8659C73.6563 73.6942 71.0283 75.4643 66.8192 75.4686C65.0898 75.4701 63.2754 75.0914 63.2754 74.729C63.2754 74.6113 63.8449 74.0804 64.541 73.5496C65.2371 73.0188 65.8067 72.5007 65.8067 72.3984C65.8067 71.9845 65.3192 71.9584 64.5696 72.3326C63.1513 73.0401 61.287 72.1782 60.5811 70.4885C60.152 69.4621 60.4492 68.7222 61.3842 68.4873C61.4222 68.4777 61.4583 68.4689 61.4924 68.4605C61.7483 68.3975 61.8947 68.3615 61.9452 68.2716C62.0126 68.1515 61.9091 67.9354 61.6673 67.4306C61.6432 67.3804 61.6178 67.3273 61.591 67.2712C61.181 66.4113 61.1473 66.3961 59.9535 66.5376C58.4168 66.7196 57.7111 66.2931 56.9507 64.7222C56.4244 63.6353 56.4153 63.5259 56.8011 62.9371C57.0271 62.5924 57.4496 62.3101 57.7397 62.3101C58.174 62.3101 58.2398 62.1997 58.1115 61.6884C57.6961 60.0329 57.4949 59.7788 56.5998 59.7788C55.9308 59.7788 55.561 59.5819 54.9724 58.9116C54.5538 58.4347 54.1356 57.7011 54.0434 57.2812C53.8845 56.5572 54.2244 55.4801 54.6145 55.4718C54.714 55.4695 54.941 55.3756 55.1187 55.2627C55.3739 55.1007 55.3056 54.5547 54.794 52.6719C53.9189 49.4526 53.6764 45.5278 54.2578 44.0047ZM136.533 71.2203C137.013 70.2964 137.898 69.5038 138.963 69.0416C140.167 68.5199 141.33 68.5452 142.452 69.1178C143.612 69.7099 144.145 70.2847 144.647 71.4871C145.744 74.1121 144.152 76.9092 141.167 77.6017C139.627 77.9592 137.366 76.7846 136.548 75.2023C136.077 74.2923 136.069 72.1116 136.533 71.2203ZM97.0769 86.6383C95.5017 84.416 96.3555 81.122 98.7937 80.0148C101.761 78.6677 104.799 80.2718 105.451 83.5303C105.77 85.1266 104.537 87.2245 102.742 88.1406C100.716 89.1741 98.4482 88.5727 97.0769 86.6383ZM125.083 89.9105C129.834 88.658 134.628 86.4188 137.369 84.1718C138.28 83.4248 139.12 82.8137 139.235 82.8137C139.835 82.8137 140.734 83.4698 140.994 84.0973C141.466 85.2367 140.898 86.4636 139.059 88.2755C135.328 91.9515 128.431 94.9387 121.219 96.0021C118.439 96.4122 112.288 96.4089 109.725 95.9963C106.671 95.5047 105.801 94.8974 105.801 93.2571C105.801 91.6535 105.931 91.6163 111.77 91.545C117.278 91.4776 120.76 91.0501 125.083 89.9105Z" fill="#15002E"/>
<path d="M162.943 112.102L133.864 125.881V159.154L163.407 144.107L162.943 112.102Z" fill="#15002E"/>
<path fill-rule="evenodd" clip-rule="evenodd" d="M133.864 125.881V159.154L163.407 144.107L162.943 112.102L133.864 125.881Z" fill="#15002E"/>
<path fill-rule="evenodd" clip-rule="evenodd" d="M126.817 24.136C127.112 23.6525 127.78 23.0931 128.399 22.8126C129.782 22.1843 130.45 22.1937 131.826 22.8599C133.09 23.4717 134.242 24.9181 135.073 26.9353C135.503 27.98 135.767 28.2896 136.36 28.443C137.76 28.806 138.156 30.8989 137.036 32.019C136.401 32.6538 136.388 32.727 136.681 33.9478C136.949 35.0649 137.041 35.1871 137.45 34.9679C138.121 34.6092 138.392 34.6553 138.961 35.2251C139.302 35.5653 139.468 36.0688 139.468 36.7606C139.468 38.0569 139.147 38.6601 138.194 39.1524C137.53 39.4959 137.443 39.6736 137.443 40.6768V41.8126L138.404 41.6587C139.588 41.4696 140.085 41.9518 140.048 43.2549C140.015 44.4029 139.271 45.3972 138.246 45.6627C137.503 45.8556 137.443 45.9513 137.443 46.9428C137.443 47.8108 137.551 48.0629 138.012 48.2674C138.59 48.5236 138.666 48.8524 138.363 49.8009C138.226 50.2305 138.482 50.5585 139.747 51.5728C140.601 52.2575 141.36 52.8177 141.435 52.8177C141.698 52.8177 142.524 50.0031 143.145 46.9866C143.557 44.9886 143.848 42.4563 143.99 39.6372C144.259 34.306 144.577 33.5365 146.913 32.5602C148.254 32 149.549 32.2645 150.829 33.36C152.795 35.0429 153.095 38.0911 151.979 45.0339C151.836 45.9244 151.876 46.1097 152.213 46.1097C152.436 46.1097 152.809 46.3996 153.041 46.754C153.392 47.2903 153.416 47.5571 153.18 48.3451C152.818 49.5511 152.018 50.413 151.259 50.413C150.505 50.413 150.113 50.8906 149.927 52.0358C149.792 52.8696 149.83 52.9443 150.395 52.9443C151.611 52.9443 151.972 54.056 151.226 55.4991C150.762 56.3962 149.777 56.8321 148.679 56.6261C147.974 56.4939 147.851 56.5628 147.565 57.2546C147.258 57.996 147.285 58.0707 148.165 58.8761C149.146 59.7747 149.237 60.0378 148.83 60.7982C148.628 61.1756 148.741 61.5512 149.36 62.5562L150.146 63.8345L151.128 63.0566C152.336 62.1003 154.697 59.5252 155.722 58.0469C156.524 56.8903 156.588 56.5205 156.292 54.782C156.167 54.0522 156.21 53.5862 156.425 53.3265C156.836 52.8316 158.054 52.8352 158.551 53.3323C158.9 53.6806 159.014 53.5842 159.678 52.3831C161.897 48.3697 162.71 47.5863 164.66 47.5863C167.748 47.5863 169.008 50.838 167.31 54.4271C166.891 55.3121 165.919 56.9503 165.149 58.0674C163.819 59.9988 163.771 60.1218 164.179 60.5721C164.859 61.3234 164.276 62.8936 163.006 63.734C162.134 64.3116 161.917 64.3569 161.208 64.1099C160.117 63.7294 160.095 63.7352 159.748 64.4972C159.482 65.0806 159.515 65.2421 160.008 65.7666C160.745 66.5511 160.441 67.5238 159.238 68.226L158.382 68.7265L157.273 68.1384C156.664 67.8152 156.091 67.6246 156.001 67.715C155.91 67.8053 155.962 68.2893 156.116 68.7905C156.284 69.3383 156.31 69.9281 156.18 70.2696C155.947 70.8824 154.624 71.5618 154.074 71.3509C153.815 71.2517 153.854 71.6724 154.241 73.1573C154.518 74.2222 154.779 75.138 154.821 75.1927C154.955 75.3686 158.03 74.1607 159.465 73.3676C162.175 71.8706 162.254 71.7853 162.195 70.4212C162.164 69.7005 162.28 69.0328 162.48 68.7925C162.91 68.2739 164.365 68.264 164.791 68.7768C164.97 68.9923 165.183 69.0778 165.265 68.9667C166.062 67.8889 168.667 65.8494 169.553 65.6109C171.645 65.0475 173.64 66.6409 173.64 68.8746C173.64 70.67 172.54 72.1675 168.831 75.4182C166.269 77.6633 165.789 77.8926 164.759 77.3603C163.715 76.8201 163.474 77.0679 163.663 78.4915C163.819 79.6655 163.798 79.7167 162.943 80.2447C161.794 80.955 161.104 80.9317 160.328 80.1558C159.336 79.1641 158.555 79.3456 158.981 80.4684C159.306 81.3233 159.085 81.9153 158.309 82.269C157.434 82.6679 156.676 82.6347 156.168 82.1751C155.773 81.8181 155.731 81.9255 155.599 83.6306C155.521 84.6431 155.373 85.6837 155.271 85.9429C155.271 88.4463 154.584 90.7207 154.241 91.545L157.898 93.3931L166.085 97.5325C172.939 100.998 174.364 101.812 174.842 102.532L175.412 103.392V127.432V152.46L128.479 177.584C118.068 182.031 106.936 183.26 95.1648 181.26C83.4114 179.264 71.7051 173.041 63.6024 164.481C55.6263 156.054 50.4723 145.065 48.8069 132.934C48.613 131.522 48.4768 128.073 48.4768 124.58C48.4768 121.088 48.613 117.639 48.8069 116.227C49.5395 110.89 51.2661 104.561 53.1694 100.236L53.2494 100.054C54.0104 98.3256 54.201 97.8924 54.0856 97.7833C54.047 97.7469 53.9741 97.7466 53.8769 97.7463C53.867 97.7463 53.8567 97.7462 53.8463 97.7462C53.2701 97.7419 47.9762 95.0592 47.1292 94.342C46.0083 93.3933 45.5562 92.4383 45.5562 91.0197C45.5562 89.5303 46.266 88.3309 47.4909 87.7495C48.7204 87.166 49.8974 87.3822 52.431 88.656L54.4626 89.6774C55.1032 89.9994 56.1931 90.4906 56.658 90.6959C57.1624 90.8473 57.8157 91.115 58.5804 91.4285C60.3732 92.1633 62.7783 93.149 65.3103 93.4736C67.2131 93.7176 68.1365 93.7095 70.0917 93.4313C74.3301 92.8281 74.9657 93.0566 78.2101 96.3527C81.8921 100.093 85.2889 102.232 90.0559 103.812C97.5465 106.294 109.089 107.014 118.205 105.569C127.08 104.162 133.976 101.992 138.82 99.0832C147.973 93.5862 152.164 85.4164 150.756 75.8154C149.998 70.6482 148.22 66.6359 144.575 61.873C142.741 59.4768 139.411 56.2266 137.19 54.6653C133.42 52.016 128.186 50.0019 122.046 48.8375C119.563 48.3667 118.222 48.2781 113.648 48.2821C107.444 48.2877 104.33 48.6696 99.3842 50.0317C90.8178 52.3909 84.4574 55.8796 78.9108 61.2609L76.7002 63.4054L75.7018 63.1065C74.5784 62.7698 73.4006 61.5406 73.4006 60.7048C73.4006 60.4 73.1708 59.7537 72.8895 59.2685C71.5006 56.8711 71.4252 56.1061 72.5503 55.8236C72.9655 55.7196 73.1234 55.5366 73.0407 55.2564C72.9733 55.0288 72.848 54.5471 72.7622 54.1859C72.6339 53.6457 72.3992 53.488 71.4452 53.2999C70.1165 53.0377 69.4184 52.2925 69.1913 50.8942C69.0055 49.7487 69.555 49.1473 70.7878 49.1473C71.5001 49.1473 71.6515 49.0655 71.5292 48.7469C71.4447 48.5266 71.3756 48.0229 71.3756 47.6275C71.3756 47.0294 71.2257 46.859 70.4853 46.6145C69.4272 46.2654 68.8443 45.2921 68.8443 43.8751C68.8443 42.7464 69.1498 42.3945 70.2365 42.2718C70.9154 42.1953 71.0042 42.0839 71.0753 41.2223C71.1419 40.4145 71.0085 40.0966 70.2527 39.2598C69.5543 38.4867 69.3505 38.0455 69.3505 37.3059C69.3505 36.1235 69.9469 35.2251 70.7316 35.2251C71.2614 35.2251 71.3685 35.0294 71.734 33.3899C72.1306 31.6117 73.0219 29.4542 73.7077 28.6126C74.8885 27.1629 77.3727 26.6933 78.9085 27.6299C80.3959 28.5366 80.7804 29.4796 80.6634 31.9344C80.607 33.1178 80.3645 35.2821 80.1243 36.7439C79.5319 40.35 79.6841 45.7465 80.4779 49.3025L81.0495 51.8626L83.743 50.2087C89.9736 46.3831 96.9043 43.8432 104.156 42.7282C108.442 42.0693 108.972 42.028 113.08 42.0331C118.856 42.0402 124.687 42.9643 128.353 44.4538L129.926 45.0932L129.76 42.2475C129.537 38.4092 128.876 35.2755 127.303 30.5954C125.88 26.362 125.834 25.7474 126.817 24.136ZM128.842 118.92L113.527 112.43C107.616 113.098 103.664 113.444 98.4678 112.102C97.4123 111.829 96.1997 111.516 94.7269 111.169L94.4105 128.286C94.4105 128.286 93.662 129.678 101.377 129.298V116.905L123.612 125.881L123.677 159.154L101.376 148.309L101.377 148.309L101.324 148.283L101.323 148.317C98.8169 148.688 96.8035 148.683 94.4105 147.929V153.179L101.144 156.763L123.677 167.727L128.479 170.306L133.864 167.727L170.35 149.009V105.569L150.934 95.4827L145.548 100.948L156.425 105.569L128.842 118.92ZM58.0232 105.849C58.9947 103.064 60.2254 100.306 60.837 99.5419C61.0721 99.2482 61.1369 99.2938 61.1977 99.795C61.3749 101.263 62.2823 102.052 63.7935 102.052C64.4737 102.052 65.5536 101.314 65.5536 100.849C65.5536 100.745 66.2798 100.659 67.1673 100.659C68.6569 100.659 68.8114 100.712 69.1754 101.346C69.975 102.74 71.9203 102.549 72.7569 100.995L73.2523 100.075L75.4148 102.276C78.484 105.401 81.4846 107.289 86.3103 109.131L88.715 110.05L88.7515 116.484L88.7539 116.905V116.905C88.7766 120.842 88.7855 122.382 88.5054 122.437C88.3253 122.472 88.0259 121.893 87.5339 120.942L87.4519 120.783C85.9536 117.89 83.5648 116.973 81.9638 118.678C81.4894 119.183 81.3742 119.586 81.3742 120.743C81.3742 121.982 81.5307 122.454 82.505 124.157C84.7573 128.094 88.7945 131.665 92.9453 133.393C93.4431 133.6 93.9264 133.782 94.4105 133.941C96.8773 134.748 99.3611 134.947 103.85 134.791L104.536 134.767L108.459 134.631L109.763 135.293C112.019 136.437 112.639 137.79 111.651 139.411C111.012 140.459 109.372 141.38 106.656 142.214C104.594 142.848 104.066 142.904 100.232 142.902C95.2478 142.899 93.4425 142.5 89.4413 140.519C85.0244 138.331 81.8954 135.854 78.6673 131.989C76.1519 128.977 74.7999 128.43 73.5497 129.916C72.845 130.753 72.7475 131.509 73.1556 132.978C73.4786 134.141 75.0938 136.58 76.7184 138.357C77.1463 138.826 78.9244 140.108 80.9859 141.596C84.4504 144.095 88.715 147.018 88.715 147.018V156.383C88.715 156.383 92.5175 158.408 94.4105 159.154L123.146 173.09L121.478 173.504C110.828 176.747 99.3187 176.457 88.0713 172.663C75.3176 168.361 64.6638 158.576 59.3594 146.291C55.9148 138.313 54.7183 131.874 54.9998 122.833C55.2129 115.986 55.97 111.734 58.0232 105.849Z" fill="#15002E"/>
</svg>
