<svg width="254" height="307" viewBox="0 0 254 307" fill="none" xmlns="http://www.w3.org/2000/svg">
<path d="M65.9263 84.9161C66.2271 85.2053 67.8358 85.4022 69.1556 85.3115C69.5295 85.2858 70.5603 84.6877 71.4467 83.9822C72.3329 83.2766 73.1202 82.6993 73.1969 82.6993C73.2732 82.6993 73.2716 83.1381 73.193 83.674C73.0234 84.8285 73.8389 85.9064 74.8816 85.9064C77.4829 85.9064 81.104 83.6419 81.7804 81.5926C82.2855 80.0622 81.7176 78.1626 80.3436 76.789C79.4536 75.8991 78.7805 75.5931 76.7488 75.155C70.9041 73.8947 65.401 71.5814 61.5425 68.763C60.1429 67.7406 60.0528 67.5828 59.9142 65.9091C59.7414 63.8251 59.2722 63.1363 58.0262 63.1363C57.142 63.1363 56.8521 63.3341 56.0374 64.4925C55.6808 64.9999 55.499 64.9335 53.9089 63.7145C50.6995 61.2547 48.7553 60.2499 47.2053 60.2499C44.5579 60.2499 42.648 62.168 42.6656 64.8097C42.683 67.4026 44.7368 69.7915 49.9548 73.2885C52.2238 74.809 52.6007 75.1903 52.6007 75.9655C52.6007 76.5812 52.9153 77.1344 53.5875 77.6998C54.7806 78.704 55.8986 78.7601 56.7975 77.8612C57.3838 77.2749 57.5814 77.2399 58.3989 77.5786C59.2606 77.9356 59.3161 78.0584 59.1323 79.2078C58.8992 80.6654 59.3061 81.3023 60.8937 81.9659C61.486 82.2138 61.919 82.4524 61.8558 82.4967C62.6255 83.2199 64.8902 84.4109 65.9263 84.9161Z" fill="#FFCD9C"/>
<path fill-rule="evenodd" clip-rule="evenodd" d="M57.8527 28.0779C58.5008 26.3808 59.5005 25.3866 61.1493 24.7987C61.2463 24.7641 61.3364 24.7318 61.4202 24.7016C62.0119 24.4889 62.297 24.3865 62.5845 24.3793C62.8517 24.3726 63.121 24.4482 63.6406 24.5942L63.6413 24.5944C63.7201 24.6165 63.8047 24.6403 63.8959 24.6656C65.3336 25.0649 66.8775 26.3073 67.5485 27.6049C67.8195 28.1289 68.4631 30.8476 68.9792 33.6464C70.0269 39.3286 70.3602 40.4508 72.3357 44.9468C74.0862 48.9302 76.1317 52.2563 79.1086 55.9595C81.985 59.5379 82.4225 60.349 82.425 62.11C82.4302 65.6932 79.1005 67.9359 73.7677 67.9414C71.5766 67.9433 69.2777 67.4635 69.2777 67.0043C69.2777 66.8552 69.9994 66.1826 70.8813 65.5101C71.7633 64.8376 72.4849 64.1811 72.4849 64.0515C72.4849 63.5272 71.8672 63.4942 70.9176 63.9682C69.1206 64.8645 66.7585 63.7725 65.8641 61.6318C65.3205 60.3314 65.697 59.3939 66.8817 59.0963C66.9298 59.0842 66.9755 59.073 67.0187 59.0624C67.343 58.9826 67.5284 58.9369 67.5924 58.823C67.6779 58.6709 67.5467 58.3971 67.2403 57.7576C67.2098 57.6939 67.1776 57.6267 67.1437 57.5556C66.6242 56.4662 66.5815 56.447 65.069 56.6262C63.122 56.8568 62.2278 56.3164 61.2644 54.3261C60.5977 52.949 60.5861 52.8105 61.0749 52.0645C61.3613 51.6277 61.8965 51.2701 62.2641 51.2701C62.8144 51.2701 62.8978 51.1303 62.7352 50.4825C62.2089 48.3851 61.9539 48.0631 60.8199 48.0631C59.9723 48.0631 59.5037 47.8136 58.7581 46.9643C58.2276 46.3601 57.6978 45.4307 57.581 44.8987C57.3796 43.9814 57.8103 42.6168 58.3046 42.6062C58.4306 42.6034 58.7183 42.4844 58.9434 42.3413C59.2667 42.1361 59.1801 41.4443 58.5319 39.0589C57.4232 34.9802 57.116 30.0076 57.8527 28.0779ZM162.094 62.559C162.703 61.3884 163.823 60.3843 165.173 59.7987C166.698 59.1377 168.172 59.1698 169.593 59.8952C171.063 60.6453 171.738 61.3736 172.375 62.897C173.764 66.2227 171.747 69.7665 167.965 70.644C166.014 71.0968 163.149 69.6087 162.113 67.604C161.516 66.4511 161.506 63.6882 162.094 62.559ZM112.104 82.0929C110.108 79.2774 111.19 75.104 114.279 73.7013C118.039 71.9945 121.888 74.0268 122.714 78.1552C123.118 80.1776 121.556 82.8356 119.281 83.9963C116.715 85.3057 113.841 84.5437 112.104 82.0929ZM147.587 86.2387C153.606 84.6518 159.68 81.8148 163.153 78.9679C164.308 78.0215 165.372 77.2473 165.517 77.2473C166.277 77.2473 167.417 78.0786 167.746 78.8736C168.344 80.3171 167.624 81.8716 165.294 84.1672C160.568 88.8245 151.829 92.6092 142.691 93.9565C139.169 94.476 131.376 94.4718 128.129 93.9491C124.259 93.3263 123.157 92.5569 123.157 90.4787C123.157 88.447 123.322 88.3999 130.72 88.3095C137.699 88.2241 142.109 87.6825 147.587 86.2387Z" fill="#FFCD9C"/>
<path d="M195.555 114.355L158.713 131.812V173.968L196.143 154.903L195.555 114.355Z" fill="#FFCD9C"/>
<path fill-rule="evenodd" clip-rule="evenodd" d="M158.713 131.812V173.968L196.143 154.903L195.555 114.355L158.713 131.812Z" fill="#FFCD9C"/>
<path fill-rule="evenodd" clip-rule="evenodd" d="M149.784 2.90506C150.158 2.29251 151.005 1.58375 151.788 1.22841C153.541 0.432417 154.387 0.444282 156.13 1.28838C157.732 2.06353 159.192 3.89605 160.244 6.45175C160.789 7.77531 161.124 8.16753 161.874 8.36188C163.649 8.82177 164.15 11.4734 162.731 12.8925C161.927 13.6968 161.91 13.7895 162.281 15.3363C162.621 16.7516 162.737 16.9065 163.256 16.6287C164.105 16.1743 164.449 16.2326 165.171 16.9546C165.602 17.3856 165.812 18.0235 165.812 18.9C165.812 20.5423 165.406 21.3065 164.199 21.9303C163.358 22.3655 163.247 22.5906 163.247 23.8616V25.3006L164.465 25.1056C165.964 24.8661 166.594 25.477 166.547 27.128C166.506 28.5824 165.563 29.8421 164.265 30.1786C163.323 30.4229 163.247 30.5442 163.247 31.8004C163.247 32.9001 163.384 33.2195 163.968 33.4786C164.7 33.8032 164.796 34.2198 164.413 35.4215C164.239 35.9657 164.563 36.3813 166.166 37.6664C167.247 38.5339 168.21 39.2436 168.305 39.2436C168.638 39.2436 169.684 35.6777 170.471 31.8559C170.993 29.3245 171.362 26.1162 171.542 22.5445C171.882 15.7901 172.285 14.8151 175.246 13.5782C176.944 12.8684 178.585 13.2036 180.207 14.5916C182.698 16.7237 183.078 20.5856 181.664 29.3819C181.483 30.5102 181.534 30.7449 181.96 30.7449C182.243 30.7449 182.715 31.1121 183.01 31.5611C183.455 32.2407 183.484 32.5787 183.185 33.5771C182.727 35.1049 181.713 36.1969 180.752 36.1969C179.797 36.1969 179.3 36.8021 179.064 38.253C178.893 39.3094 178.942 39.404 179.657 39.404C181.197 39.404 181.655 40.8125 180.71 42.6409C180.122 43.7775 178.874 44.3297 177.483 44.0687C176.59 43.9013 176.434 43.9885 176.071 44.865C175.682 45.8043 175.717 45.8989 176.831 46.9194C178.074 48.0579 178.19 48.3911 177.674 49.3545C177.418 49.8327 177.562 50.3086 178.345 51.5818L179.342 53.2014L180.586 52.2159C182.116 51.0043 185.107 47.7417 186.406 45.8688C187.422 44.4035 187.504 43.9349 187.128 41.7323C186.97 40.8077 187.024 40.2173 187.297 39.8883C187.818 39.2613 189.361 39.2658 189.991 39.8956C190.432 40.3369 190.577 40.2147 191.419 38.693C194.229 33.6082 195.26 32.6156 197.731 32.6156C201.643 32.6156 203.239 36.7354 201.088 41.2827C200.557 42.4039 199.325 44.4795 198.35 45.8948C196.665 48.3418 196.605 48.4976 197.121 49.0682C197.982 50.02 197.244 52.0093 195.635 53.0741C194.53 53.8059 194.255 53.8633 193.357 53.5503C191.974 53.0683 191.947 53.0757 191.507 54.041C191.17 54.7803 191.212 54.9849 191.837 55.6494C192.77 56.6432 192.385 57.8757 190.861 58.7653L189.776 59.3994L188.372 58.6544C187.6 58.2448 186.874 58.0033 186.759 58.1178C186.645 58.2323 186.711 58.8455 186.906 59.4805C187.118 60.1745 187.151 60.9218 186.986 61.3544C186.691 62.1308 185.015 62.9916 184.318 62.7245C183.991 62.5988 184.04 63.1318 184.529 65.013C184.881 66.3622 185.211 67.5226 185.264 67.5918C185.434 67.8147 189.33 66.2843 191.149 65.2795C194.582 63.3829 194.683 63.2748 194.607 61.5465C194.568 60.6335 194.716 59.7874 194.968 59.4831C195.513 58.826 197.357 58.8135 197.896 59.4632C198.123 59.7361 198.393 59.8445 198.497 59.7037C199.506 58.3382 202.808 55.7542 203.93 55.4521C206.58 54.7382 209.108 56.7571 209.108 59.587C209.108 61.8618 207.714 63.7591 203.015 67.8776C199.77 70.7219 199.161 71.0125 197.856 70.338C196.533 69.6536 196.228 69.9676 196.467 71.7713C196.665 73.2587 196.638 73.3235 195.555 73.9925C194.099 74.8924 193.225 74.8629 192.242 73.8799C190.985 72.6234 189.995 72.8533 190.536 74.276C190.947 75.359 190.668 76.1091 189.684 76.5572C188.575 77.0626 187.615 77.0206 186.971 76.4382C186.471 75.986 186.418 76.122 186.25 78.2822C186.151 79.5651 185.964 80.8835 185.835 81.2119C185.835 84.3836 184.964 87.2651 184.529 88.3095L189.163 90.6509L199.536 95.8954C208.22 100.286 210.025 101.317 210.631 102.23L211.353 103.319V133.777V165.486L151.889 197.317C138.7 202.952 124.595 204.508 109.681 201.975C94.7898 199.446 79.9581 191.561 69.6921 180.716C59.5864 170.04 53.0564 156.117 50.9465 140.747C50.7008 138.959 50.5282 134.589 50.5282 130.164C50.5282 125.739 50.7008 121.369 50.9465 119.581C51.8746 112.818 54.0622 104.801 56.4736 99.3209L56.575 99.0906C57.5391 96.9002 57.7807 96.3514 57.6344 96.2132C57.5855 96.167 57.4932 96.1667 57.3701 96.1663C57.3574 96.1662 57.3445 96.1662 57.3312 96.1661C56.6013 96.1607 49.8939 92.7618 48.8208 91.8533C47.4006 90.6512 46.8279 89.4412 46.8279 87.644C46.8279 85.757 47.7271 84.2374 49.2791 83.5008C50.8368 82.7616 52.3281 83.0354 55.5381 84.6492L58.1121 85.9433C58.9238 86.3513 60.3047 86.9736 60.8937 87.2337C61.5326 87.4255 62.3604 87.7648 63.3292 88.1618C65.6008 89.0928 68.6479 90.3417 71.856 90.7529C74.2668 91.0621 75.4367 91.0518 77.9139 90.6994C83.2839 89.9351 84.0892 90.2247 88.1998 94.4006C92.8649 99.14 97.1685 101.85 103.208 103.851C112.699 106.995 127.323 107.908 138.872 106.078C150.117 104.295 158.854 101.546 164.992 97.8601C176.589 90.8956 181.899 80.5448 180.115 68.3808C179.155 61.8342 176.901 56.7507 172.283 50.7163C169.96 47.6805 165.741 43.5626 162.926 41.5845C158.15 38.228 151.519 35.6761 143.74 34.2009C140.593 33.6043 138.894 33.4921 133.1 33.4972C125.239 33.5043 121.294 33.9882 115.027 35.7139C104.174 38.7029 96.115 43.1229 89.0875 49.9408L86.2867 52.6578L85.0219 52.2791C83.5985 51.8525 82.1063 50.2952 82.1063 49.2362C82.1063 48.8501 81.815 48.0313 81.4587 47.4165C79.699 44.3791 79.6034 43.4099 81.029 43.052C81.555 42.9202 81.7551 42.6883 81.6502 42.3333C81.5649 42.045 81.4061 41.4347 81.2974 40.9771C81.1348 40.2927 80.8375 40.0929 79.6287 39.8546C77.9453 39.5223 77.0608 38.5782 76.7731 36.8066C76.5377 35.3554 77.234 34.5934 78.7959 34.5934C79.6983 34.5934 79.8901 34.4898 79.7352 34.086C79.6281 33.807 79.5406 33.1688 79.5406 32.6679C79.5406 31.9101 79.3507 31.6942 78.4126 31.3844C77.072 30.9422 76.3334 29.709 76.3334 27.9137C76.3334 26.4837 76.7205 26.0379 78.0973 25.8824C78.9575 25.7855 79.0701 25.6444 79.1602 24.5527C79.2445 23.5294 79.0755 23.1265 78.1179 22.0663C77.233 21.0869 76.9749 20.5279 76.9749 19.5908C76.9749 18.0927 77.7304 16.9546 78.7247 16.9546C79.3959 16.9546 79.5316 16.7067 79.9947 14.6294C80.4972 12.3765 81.6265 9.6431 82.4953 8.57675C83.9914 6.74007 87.1389 6.14515 89.0846 7.33177C90.9692 8.48054 91.4563 9.67517 91.3081 12.7854C91.2366 14.2847 90.9294 17.0267 90.625 18.8788C89.8746 23.4476 90.0673 30.2847 91.0731 34.79L91.7972 38.0336L95.2099 35.9381C103.104 31.0913 111.885 27.8733 121.073 26.4606C126.503 25.6258 127.175 25.5735 132.38 25.58C139.697 25.5889 147.086 26.7598 151.729 28.6469L153.723 29.457L153.513 25.8516C153.23 20.9887 152.392 17.0184 150.4 11.0888C148.597 5.72535 148.539 4.94668 149.784 2.90506ZM152.349 122.992L132.946 114.77C125.456 115.616 120.449 116.055 113.866 114.355C112.529 114.009 110.992 113.612 109.126 113.172L108.725 134.859C108.725 134.859 107.777 136.622 117.552 136.141V120.439L145.724 131.812L145.806 173.968L117.551 160.227L117.552 160.227L117.484 160.194L117.484 160.237C114.308 160.708 111.757 160.701 108.725 159.746V166.397L117.256 170.938L145.806 184.829L151.889 188.096L158.713 184.829L204.939 161.114V106.078L180.34 93.2984L173.516 100.222L187.297 106.078L152.349 122.992ZM62.6233 106.432C63.8542 102.904 65.4135 99.4088 66.1883 98.4412C66.4863 98.0692 66.5684 98.1269 66.6453 98.7619C66.8698 100.622 68.0196 101.621 69.9342 101.621C70.796 101.621 72.1642 100.686 72.1642 100.098C72.1642 99.9652 73.0843 99.8571 74.2087 99.8571C76.0961 99.8571 76.2917 99.9241 76.7529 100.728C77.7661 102.493 80.2307 102.251 81.2907 100.282L81.9183 99.1163L84.6582 101.906C88.5468 105.865 92.3485 108.256 98.4626 110.591L101.509 111.754L101.556 119.906L101.559 120.439V120.439C101.587 125.427 101.599 127.379 101.244 127.448C101.016 127.493 100.636 126.759 100.013 125.554L99.909 125.353C98.0107 121.688 94.9842 120.526 92.9557 122.686C92.3546 123.325 92.2087 123.836 92.2087 125.302C92.2087 126.871 92.4069 127.47 93.6413 129.627C96.495 134.615 101.61 139.14 106.869 141.33C107.5 141.592 108.112 141.822 108.725 142.023C111.851 143.046 114.998 143.298 120.685 143.1L121.554 143.07L126.525 142.898L128.177 143.736C131.035 145.186 131.821 146.9 130.569 148.954C129.759 150.282 127.681 151.448 124.241 152.505C121.627 153.308 120.959 153.379 116.102 153.377C109.786 153.373 107.499 152.868 102.429 150.357C96.8334 147.585 92.8691 144.447 88.779 139.55C85.5921 135.735 83.8792 135.041 82.2952 136.923C81.4023 137.985 81.2788 138.943 81.7958 140.804C82.205 142.277 84.2515 145.367 86.3098 147.619C86.8519 148.212 89.1048 149.837 91.7167 151.722C96.1061 154.888 101.509 158.591 101.509 158.591V170.457C101.509 170.457 106.327 173.023 108.725 173.968L145.133 191.624L143.02 192.149C129.526 196.257 114.944 195.889 100.694 191.083C84.535 185.632 71.0369 173.234 64.3163 157.67C59.9521 147.562 58.4361 139.405 58.7927 127.95C59.0627 119.276 60.022 113.888 62.6233 106.432Z" fill="#FFCD9C"/>
<path d="M227.639 306.44C212.538 306.44 201.855 295.243 201.855 279.526C201.855 263.809 212.538 252.612 227.639 252.612C242.739 252.612 253.525 263.809 253.525 279.526C253.525 295.243 242.739 306.44 227.639 306.44ZM227.639 295.859C236.165 295.859 242.328 289.079 242.328 279.526C242.328 269.767 236.165 262.885 227.639 262.885C219.112 262.885 213.052 269.767 213.052 279.526C213.052 289.079 219.112 295.859 227.639 295.859Z" fill="#FFCD9C"/>
<path d="M186.166 253.845H196.952V305.207H186.166V253.845ZM191.61 247.989C187.398 247.989 184.419 244.805 184.419 240.49C184.419 236.176 187.398 233.094 191.61 233.094C195.822 233.094 198.801 236.176 198.801 240.49C198.801 244.805 195.822 247.989 191.61 247.989Z" fill="#FFCD9C"/>
<path d="M172.835 306.029C168.521 306.029 165.337 302.742 165.337 298.324C165.337 293.805 168.521 290.62 172.835 290.62C177.253 290.62 180.334 293.805 180.334 298.324C180.334 302.742 177.253 306.029 172.835 306.029Z" fill="#FFCD9C"/>
<path d="M149.444 305.207V235.354H160.23V305.207H149.444Z" fill="#FFCD9C"/>
<path d="M118.778 306.44C103.678 306.44 92.9944 295.243 92.9944 279.526C92.9944 263.809 103.678 252.612 118.778 252.612C133.879 252.612 144.665 263.809 144.665 279.526C144.665 295.243 133.879 306.44 118.778 306.44ZM118.778 295.859C127.305 295.859 133.468 289.079 133.468 279.526C133.468 269.767 127.305 262.885 118.778 262.885C110.252 262.885 104.191 269.767 104.191 279.526C104.191 289.079 110.252 295.859 118.778 295.859Z" fill="#FFCD9C"/>
<path d="M44.5676 305.207L63.8799 279.012L45.2867 253.845H59.0518L70.2489 270.383L80.8295 253.845H94.492L76.6178 279.012L95.9301 305.207H82.165L70.1461 287.436L58.7437 305.207H44.5676Z" fill="#FFCD9C"/>
<path d="M17.3405 306.44C7.2735 306.44 0.493652 300.379 0.493652 291.442C0.493652 284.56 5.83535 278.807 13.9506 277.266L30.1812 274.082C31.722 273.876 32.7493 272.746 32.7493 271.411C32.7493 266.172 28.9485 262.371 23.6068 262.371C18.0596 262.371 13.7452 266.274 13.3343 272.13L2.23998 269.459C3.88358 259.597 12.5125 252.612 23.0931 252.612C35.0092 252.612 43.5354 260.625 43.5354 271.719V294.935L43.7409 305.207H35.2147L33.3656 298.222C30.1812 303.255 24.3258 306.44 17.3405 306.44ZM12.1016 290.004C12.1016 293.702 15.0806 296.167 20.0114 296.167C27.2021 296.167 32.7493 290.928 32.7493 283.224V280.861C31.722 281.067 30.5921 281.375 29.4621 281.58L18.2651 283.635C14.4642 284.354 12.1016 286.819 12.1016 290.004Z" fill="#FFCD9C"/>
</svg>
