<svg width="254" height="307" viewBox="0 0 254 307" fill="none" xmlns="http://www.w3.org/2000/svg">
<path d="M65.9263 84.9029C66.2271 85.1921 67.8358 85.3891 69.1556 85.2983C69.5295 85.2726 70.5603 84.6745 71.4467 83.969C72.3329 83.2634 73.1202 82.6861 73.1969 82.6861C73.2732 82.6861 73.2716 83.1249 73.193 83.6608C73.0234 84.8153 73.8389 85.8932 74.8816 85.8932C77.4829 85.8932 81.104 83.6287 81.7804 81.5794C82.2855 80.049 81.7176 78.1494 80.3436 76.7759C79.4536 75.8859 78.7805 75.5799 76.7488 75.1419C70.9041 73.8815 65.401 71.5682 61.5425 68.7499C60.1429 67.7275 60.0528 67.5697 59.9142 65.8959C59.7414 63.8119 59.2722 63.1231 58.0262 63.1231C57.142 63.1231 56.8521 63.3209 56.0374 64.4793C55.6808 64.9867 55.499 64.9203 53.9089 63.7013C50.6995 61.2415 48.7553 60.2367 47.2053 60.2367C44.5579 60.2367 42.648 62.1549 42.6656 64.7965C42.683 67.3894 44.7368 69.7784 49.9548 73.2753C52.2238 74.7958 52.6007 75.1771 52.6007 75.9523C52.6007 76.568 52.9153 77.1213 53.5875 77.6867C54.7806 78.6908 55.8986 78.7469 56.7975 77.848C57.3838 77.2617 57.5814 77.2268 58.3989 77.5654C59.2606 77.9224 59.3161 78.0452 59.1323 79.1946C58.8992 80.6522 59.3061 81.2892 60.8937 81.9527C61.486 82.2006 61.919 82.4392 61.8558 82.4835C62.6255 83.2067 64.8902 84.3978 65.9263 84.9029Z" fill="#FDFFF9"/>
<path fill-rule="evenodd" clip-rule="evenodd" d="M57.8527 28.0647C58.5008 26.3676 59.5005 25.3734 61.1493 24.7855C61.2463 24.7509 61.3364 24.7186 61.4202 24.6884C62.0119 24.4757 62.297 24.3733 62.5845 24.3661C62.8517 24.3594 63.121 24.4351 63.6406 24.581L63.6413 24.5812C63.7201 24.6034 63.8047 24.6271 63.8959 24.6524C65.3336 25.0517 66.8775 26.2941 67.5485 27.5917C67.8195 28.1157 68.4631 30.8344 68.9792 33.6332C70.0269 39.3154 70.3602 40.4376 72.3357 44.9336C74.0862 48.9171 76.1317 52.2431 79.1086 55.9463C81.985 59.5247 82.4225 60.3358 82.425 62.0968C82.4302 65.6801 79.1005 67.9228 73.7677 67.9282C71.5766 67.9301 69.2777 67.4504 69.2777 66.9911C69.2777 66.842 69.9994 66.1695 70.8813 65.4969C71.7633 64.8244 72.4849 64.1679 72.4849 64.0384C72.4849 63.514 71.8672 63.481 70.9176 63.955C69.1206 64.8513 66.7585 63.7593 65.8641 61.6186C65.3205 60.3182 65.697 59.3808 66.8817 59.0831C66.9298 59.0711 66.9755 59.0598 67.0187 59.0492C67.343 58.9694 67.5284 58.9237 67.5924 58.8099C67.6779 58.6578 67.5467 58.3839 67.2403 57.7444C67.2098 57.6808 67.1776 57.6135 67.1437 57.5425C66.6242 56.453 66.5815 56.4338 65.069 56.613C63.122 56.8436 62.2278 56.3032 61.2644 54.3129C60.5977 52.9358 60.5861 52.7973 61.0749 52.0513C61.3613 51.6145 61.8965 51.2569 62.2641 51.2569C62.8144 51.2569 62.8978 51.1171 62.7352 50.4693C62.2089 48.3719 61.9539 48.0499 60.8199 48.0499C59.9723 48.0499 59.5037 47.8004 58.7581 46.9511C58.2276 46.3469 57.6978 45.4175 57.581 44.8855C57.3796 43.9682 57.8103 42.6036 58.3046 42.5931C58.4306 42.5902 58.7183 42.4712 58.9434 42.3282C59.2667 42.1229 59.1801 41.4311 58.5319 39.0457C57.4232 34.967 57.116 29.9944 57.8527 28.0647ZM162.094 62.5458C162.703 61.3752 163.823 60.3711 165.173 59.7855C166.698 59.1245 168.172 59.1566 169.593 59.882C171.063 60.6321 171.738 61.3605 172.375 62.8838C173.764 66.2095 171.747 69.7533 167.965 70.6308C166.014 71.0836 163.149 69.5956 162.113 67.5908C161.516 66.4379 161.506 63.675 162.094 62.5458ZM112.104 82.0797C110.108 79.2642 111.19 75.0909 114.279 73.6881C118.039 71.9813 121.888 74.0136 122.714 78.1421C123.118 80.1644 121.556 82.8225 119.281 83.9831C116.715 85.2925 113.841 84.5305 112.104 82.0797ZM147.587 86.2255C153.606 84.6386 159.68 81.8016 163.153 78.9547C164.308 78.0083 165.372 77.2341 165.517 77.2341C166.277 77.2341 167.417 78.0654 167.746 78.8605C168.344 80.3039 167.624 81.8584 165.294 84.154C160.568 88.8113 151.829 92.596 142.691 93.9433C139.169 94.4628 131.376 94.4586 128.129 93.9359C124.259 93.3131 123.157 92.5437 123.157 90.4655C123.157 88.4338 123.322 88.3867 130.72 88.2963C137.699 88.211 142.109 87.6693 147.587 86.2255Z" fill="#FDFFF9"/>
<path d="M195.555 114.341L158.713 131.799V173.954L196.143 154.89L195.555 114.341Z" fill="#FDFFF9"/>
<path fill-rule="evenodd" clip-rule="evenodd" d="M158.713 131.799V173.954L196.143 154.89L195.555 114.341L158.713 131.799Z" fill="#FDFFF9"/>
<path fill-rule="evenodd" clip-rule="evenodd" d="M149.784 2.89188C150.158 2.27933 151.005 1.57057 151.788 1.21523C153.541 0.419234 154.387 0.431099 156.13 1.2752C157.732 2.05034 159.192 3.88286 160.244 6.43857C160.789 7.76212 161.124 8.15435 161.874 8.34869C163.649 8.80859 164.15 11.4602 162.731 12.8793C161.927 13.6836 161.91 13.7763 162.281 15.3231C162.621 16.7384 162.737 16.8933 163.256 16.6155C164.105 16.1611 164.449 16.2195 165.171 16.9414C165.602 17.3724 165.812 18.0103 165.812 18.8868C165.812 20.5291 165.406 21.2934 164.199 21.9171C163.358 22.3523 163.247 22.5775 163.247 23.8484V25.2874L164.465 25.0924C165.964 24.8529 166.594 25.4638 166.547 27.1148C166.506 28.5692 165.563 29.829 164.265 30.1654C163.323 30.4098 163.247 30.531 163.247 31.7872C163.247 32.8869 163.384 33.2063 163.968 33.4654C164.7 33.79 164.796 34.2066 164.413 35.4083C164.239 35.9525 164.563 36.3682 166.166 37.6532C167.247 38.5207 168.21 39.2305 168.305 39.2305C168.638 39.2305 169.684 35.6645 170.471 31.8427C170.993 29.3113 171.362 26.103 171.542 22.5313C171.882 15.7769 172.285 14.8019 175.246 13.565C176.944 12.8553 178.585 13.1904 180.207 14.5784C182.698 16.7105 183.078 20.5724 181.664 29.3687C181.483 30.497 181.534 30.7317 181.96 30.7317C182.243 30.7317 182.715 31.099 183.01 31.5479C183.455 32.2275 183.484 32.5655 183.185 33.5639C182.727 35.0917 181.713 36.1838 180.752 36.1838C179.797 36.1838 179.3 36.7889 179.064 38.2398C178.893 39.2962 178.942 39.3908 179.657 39.3908C181.197 39.3908 181.655 40.7993 180.71 42.6277C180.122 43.7643 178.874 44.3165 177.483 44.0555C176.59 43.8881 176.434 43.9753 176.071 44.8518C175.682 45.7911 175.717 45.8857 176.831 46.9062C178.074 48.0447 178.19 48.378 177.674 49.3414C177.418 49.8195 177.562 50.2955 178.345 51.5687L179.342 53.1882L180.586 52.2027C182.116 50.9911 185.107 47.7285 186.406 45.8556C187.422 44.3903 187.504 43.9217 187.128 41.7191C186.97 40.7945 187.024 40.2041 187.297 39.8751C187.818 39.2481 189.361 39.2526 189.991 39.8825C190.432 40.3237 190.577 40.2016 191.419 38.6798C194.229 33.595 195.26 32.6024 197.731 32.6024C201.643 32.6024 203.239 36.7222 201.088 41.2695C200.557 42.3907 199.325 44.4663 198.35 45.8816C196.665 48.3286 196.605 48.4844 197.121 49.055C197.982 50.0068 197.244 51.9962 195.635 53.0609C194.53 53.7928 194.255 53.8502 193.357 53.5372C191.974 53.0551 191.947 53.0625 191.507 54.0278C191.17 54.7671 191.212 54.9717 191.837 55.6362C192.77 56.6301 192.385 57.8625 190.861 58.7522L189.776 59.3862L188.372 58.6412C187.6 58.2317 186.874 57.9902 186.759 58.1047C186.645 58.2191 186.711 58.8323 186.906 59.4673C187.118 60.1614 187.151 60.9086 186.986 61.3412C186.691 62.1177 185.015 62.9784 184.318 62.7113C183.991 62.5856 184.04 63.1186 184.529 64.9998C184.881 66.3491 185.211 67.5094 185.264 67.5786C185.434 67.8015 189.33 66.2711 191.149 65.2663C194.582 63.3697 194.683 63.2616 194.607 61.5333C194.568 60.6203 194.716 59.7743 194.968 59.4699C195.513 58.8128 197.357 58.8003 197.896 59.45C198.123 59.7229 198.393 59.8313 198.497 59.6905C199.506 58.325 202.808 55.7411 203.93 55.4389C206.58 54.7251 209.108 56.7439 209.108 59.5738C209.108 61.8486 207.714 63.7459 203.015 67.8644C199.77 70.7087 199.161 70.9993 197.856 70.3248C196.533 69.6405 196.228 69.9544 196.467 71.7581C196.665 73.2455 196.638 73.3103 195.555 73.9793C194.099 74.8792 193.225 74.8497 192.242 73.8667C190.985 72.6102 189.995 72.8401 190.536 74.2628C190.947 75.3458 190.668 76.096 189.684 76.544C188.575 77.0494 187.615 77.0074 186.971 76.425C186.471 75.9728 186.418 76.1088 186.25 78.2691C186.151 79.5519 185.964 80.8703 185.835 81.1987C185.835 84.3704 184.964 87.2519 184.529 88.2963L189.163 90.6377L199.536 95.8823C208.22 100.273 210.025 101.304 210.631 102.217L211.353 103.306V133.763V165.473L151.889 197.304C138.7 202.938 124.595 204.495 109.681 201.962C94.7898 199.433 79.9581 191.548 69.6921 180.703C59.5864 170.027 53.0564 156.104 50.9465 140.734C50.7008 138.945 50.5282 134.575 50.5282 130.151C50.5282 125.726 50.7008 121.356 50.9465 119.567C51.8746 112.805 54.0622 104.788 56.4736 99.3077L56.575 99.0775C57.5391 96.8871 57.7807 96.3382 57.6344 96.2C57.5855 96.1538 57.4932 96.1535 57.3701 96.1531C57.3574 96.1531 57.3445 96.153 57.3312 96.1529C56.6013 96.1475 49.8939 92.7486 48.8208 91.8401C47.4006 90.6381 46.8279 89.428 46.8279 87.6308C46.8279 85.7438 47.7271 84.2243 49.2791 83.4876C50.8368 82.7484 52.3281 83.0222 55.5381 84.636L58.1121 85.9301C58.9238 86.3381 60.3047 86.9604 60.8937 87.2206C61.5326 87.4123 62.3604 87.7516 63.3292 88.1487C65.6008 89.0797 68.6479 90.3285 71.856 90.7397C74.2668 91.0489 75.4367 91.0386 77.9139 90.6862C83.2839 89.9219 84.0892 90.2115 88.1998 94.3874C92.8649 99.1268 97.1685 101.837 103.208 103.838C112.699 106.982 127.323 107.895 138.872 106.064C150.117 104.282 158.854 101.533 164.992 97.8469C176.589 90.8824 181.899 80.5316 180.115 68.3676C179.155 61.821 176.901 56.7375 172.283 50.7031C169.96 47.6673 165.741 43.5494 162.926 41.5713C158.15 38.2148 151.519 35.6629 143.74 34.1877C140.593 33.5912 138.894 33.4789 133.1 33.484C125.239 33.4911 121.294 33.975 115.027 35.7008C104.174 38.6897 96.115 43.1097 89.0875 49.9276L86.2867 52.6446L85.0219 52.2659C83.5985 51.8393 82.1063 50.282 82.1063 49.223C82.1063 48.8369 81.815 48.0181 81.4587 47.4033C79.699 44.3659 79.6034 43.3968 81.029 43.0388C81.555 42.907 81.7551 42.6752 81.6502 42.3201C81.5649 42.0318 81.4061 41.4215 81.2974 40.9639C81.1348 40.2795 80.8375 40.0797 79.6287 39.8414C77.9453 39.5092 77.0608 38.565 76.7731 36.7934C76.5377 35.3422 77.234 34.5802 78.7959 34.5802C79.6983 34.5802 79.8901 34.4766 79.7352 34.0729C79.6281 33.7938 79.5406 33.1556 79.5406 32.6547C79.5406 31.8969 79.3507 31.681 78.4126 31.3712C77.072 30.929 76.3334 29.6959 76.3334 27.9005C76.3334 26.4705 76.7205 26.0247 78.0973 25.8692C78.9575 25.7723 79.0701 25.6312 79.1602 24.5395C79.2445 23.5162 79.0755 23.1134 78.1179 22.0531C77.233 21.0737 76.9749 20.5147 76.9749 19.5776C76.9749 18.0796 77.7304 16.9414 78.7247 16.9414C79.3959 16.9414 79.5316 16.6935 79.9947 14.6163C80.4972 12.3633 81.6265 9.62992 82.4953 8.56357C83.9914 6.72688 87.1389 6.13197 89.0846 7.31858C90.9692 8.46735 91.4563 9.66199 91.3081 12.7722C91.2366 14.2715 90.9294 17.0135 90.625 18.8656C89.8746 23.4344 90.0673 30.2715 91.0731 34.7768L91.7972 38.0204L95.2099 35.9249C103.104 31.0781 111.885 27.8601 121.073 26.4474C126.503 25.6126 127.175 25.5604 132.38 25.5668C139.697 25.5757 147.086 26.7467 151.729 28.6337L153.723 29.4438L153.513 25.8384C153.23 20.9755 152.392 17.0052 150.4 11.0757C148.597 5.71217 148.539 4.93349 149.784 2.89188ZM152.349 122.979L132.946 114.757C125.456 115.603 120.449 116.042 113.866 114.341C112.529 113.996 110.992 113.599 109.126 113.159L108.725 134.845C108.725 134.845 107.777 136.609 117.552 136.128V120.426L145.724 131.799L145.806 173.954L117.551 160.214L117.552 160.213L117.484 160.181L117.484 160.224C114.308 160.694 111.757 160.688 108.725 159.732V166.384L117.256 170.925L145.806 184.816L151.889 188.083L158.713 184.816L204.939 161.1V106.064L180.34 93.2852L173.516 100.209L187.297 106.064L152.349 122.979ZM62.6233 106.418C63.8542 102.891 65.4135 99.3956 66.1883 98.428C66.4863 98.056 66.5684 98.1137 66.6453 98.7487C66.8698 100.609 68.0196 101.608 69.9342 101.608C70.796 101.608 72.1642 100.673 72.1642 100.084C72.1642 99.952 73.0843 99.8439 74.2087 99.8439C76.0961 99.8439 76.2917 99.911 76.7529 100.714C77.7661 102.479 80.2307 102.237 81.2907 100.269L81.9183 99.1031L84.6582 101.893C88.5468 105.851 92.3485 108.243 98.4626 110.578L101.509 111.741L101.556 119.893L101.559 120.426V120.426C101.587 125.414 101.599 127.366 101.244 127.435C101.016 127.479 100.636 126.746 100.013 125.541L99.909 125.34C98.0107 121.674 94.9842 120.513 92.9557 122.672C92.3546 123.312 92.2087 123.823 92.2087 125.289C92.2087 126.858 92.4069 127.457 93.6413 129.614C96.495 134.602 101.61 139.127 106.869 141.316C107.5 141.579 108.112 141.809 108.725 142.01C111.851 143.033 114.998 143.284 120.685 143.087L121.554 143.057L126.525 142.885L128.177 143.723C131.035 145.173 131.821 146.887 130.569 148.941C129.759 150.269 127.681 151.435 124.241 152.492C121.627 153.295 120.959 153.366 116.102 153.363C109.786 153.36 107.499 152.855 102.429 150.344C96.8334 147.572 92.8691 144.434 88.779 139.537C85.5921 135.722 83.8792 135.028 82.2952 136.91C81.4023 137.971 81.2788 138.929 81.7958 140.79C82.205 142.264 84.2515 145.353 86.3098 147.606C86.8519 148.199 89.1048 149.824 91.7167 151.708C96.1061 154.875 101.509 158.578 101.509 158.578V170.444C101.509 170.444 106.327 173.009 108.725 173.954L145.133 191.61L143.02 192.135C129.526 196.243 114.944 195.876 100.694 191.069C84.535 185.619 71.0369 173.221 64.3163 157.657C59.9521 147.549 58.4361 139.392 58.7927 127.937C59.0627 119.262 60.022 113.875 62.6233 106.418Z" fill="#FDFFF9"/>
<path d="M227.639 306.427C212.538 306.427 201.855 295.23 201.855 279.513C201.855 263.796 212.538 252.599 227.639 252.599C242.739 252.599 253.525 263.796 253.525 279.513C253.525 295.23 242.739 306.427 227.639 306.427ZM227.639 295.846C236.165 295.846 242.328 289.066 242.328 279.513C242.328 269.754 236.165 262.871 227.639 262.871C219.112 262.871 213.052 269.754 213.052 279.513C213.052 289.066 219.112 295.846 227.639 295.846Z" fill="#FDFFF9"/>
<path d="M186.166 253.831H196.952V305.194H186.166V253.831ZM191.61 247.976C187.398 247.976 184.419 244.792 184.419 240.477C184.419 236.163 187.398 233.081 191.61 233.081C195.822 233.081 198.801 236.163 198.801 240.477C198.801 244.792 195.822 247.976 191.61 247.976Z" fill="#FDFFF9"/>
<path d="M172.835 306.016C168.521 306.016 165.337 302.728 165.337 298.311C165.337 293.791 168.521 290.607 172.835 290.607C177.253 290.607 180.334 293.791 180.334 298.311C180.334 302.728 177.253 306.016 172.835 306.016Z" fill="#FDFFF9"/>
<path d="M149.444 305.194V235.341H160.23V305.194H149.444Z" fill="#FDFFF9"/>
<path d="M118.778 306.427C103.678 306.427 92.9944 295.23 92.9944 279.513C92.9944 263.796 103.678 252.599 118.778 252.599C133.879 252.599 144.665 263.796 144.665 279.513C144.665 295.23 133.879 306.427 118.778 306.427ZM118.778 295.846C127.305 295.846 133.468 289.066 133.468 279.513C133.468 269.754 127.305 262.871 118.778 262.871C110.252 262.871 104.191 269.754 104.191 279.513C104.191 289.066 110.252 295.846 118.778 295.846Z" fill="#FDFFF9"/>
<path d="M44.5676 305.194L63.8799 278.999L45.2867 253.832H59.0518L70.2489 270.37L80.8295 253.832H94.492L76.6178 278.999L95.9301 305.194H82.165L70.1461 287.423L58.7437 305.194H44.5676Z" fill="#FDFFF9"/>
<path d="M17.3405 306.427C7.2735 306.427 0.493652 300.366 0.493652 291.429C0.493652 284.546 5.83535 278.794 13.9506 277.253L30.1812 274.068C31.722 273.863 32.7493 272.733 32.7493 271.398C32.7493 266.159 28.9485 262.358 23.6068 262.358C18.0596 262.358 13.7452 266.261 13.3343 272.117L2.23998 269.446C3.88358 259.584 12.5125 252.599 23.0931 252.599C35.0092 252.599 43.5354 260.611 43.5354 271.706V294.922L43.7409 305.194H35.2147L33.3656 298.209C30.1812 303.242 24.3258 306.427 17.3405 306.427ZM12.1016 289.991C12.1016 293.689 15.0806 296.154 20.0114 296.154C27.2021 296.154 32.7493 290.915 32.7493 283.211V280.848C31.722 281.054 30.5921 281.362 29.4621 281.567L18.2651 283.622C14.4642 284.341 12.1016 286.806 12.1016 289.991Z" fill="#FDFFF9"/>
</svg>
