<svg width="217" height="217" viewBox="0 0 217 217" fill="none" xmlns="http://www.w3.org/2000/svg">
<rect x="0.909607" y="0.607666" width="215.921" height="215.921" rx="107.96" fill="#28338B"/>
<path d="M60.7822 88.8929C61.0197 89.1213 62.2894 89.2767 63.331 89.205C63.6262 89.1848 64.4397 88.7127 65.1394 88.1558C65.8388 87.5989 66.4602 87.1433 66.5207 87.1433C66.581 87.1433 66.5797 87.4896 66.5177 87.9126C66.3838 88.8238 67.0275 89.6746 67.8504 89.6746C69.9035 89.6746 72.7616 87.8873 73.2955 86.2697C73.6942 85.0618 73.2459 83.5625 72.1615 82.4784C71.459 81.7759 70.9277 81.5344 69.3241 81.1887C64.7111 80.1938 60.3676 78.368 57.3222 76.1435C56.2175 75.3365 56.1464 75.212 56.037 73.8909C55.9006 72.246 55.5303 71.7023 54.5469 71.7023C53.849 71.7023 53.6201 71.8585 52.9772 72.7728C52.6957 73.1733 52.5522 73.1209 51.2972 72.1587C48.7641 70.2172 47.2296 69.4241 46.0062 69.4241C43.9166 69.4241 42.4092 70.9381 42.4232 73.0232C42.4368 75.0697 44.0579 76.9553 48.1763 79.7154C49.9672 80.9155 50.2646 81.2165 50.2646 81.8283C50.2646 82.3143 50.513 82.751 51.0435 83.1972C51.9852 83.9898 52.8676 84.0341 53.5771 83.3246C54.0398 82.8618 54.1958 82.8343 54.841 83.1016C55.5212 83.3833 55.565 83.4802 55.4199 84.3875C55.2359 85.5379 55.5571 86.0407 56.8101 86.5644C57.2776 86.7601 57.6194 86.9484 57.5695 86.9833C58.177 87.5542 59.9644 88.4943 60.7822 88.8929Z" fill="#FDFFF9"/>
<path fill-rule="evenodd" clip-rule="evenodd" d="M54.4099 44.0311C54.9215 42.6915 55.7105 41.9068 57.0118 41.4428C57.0885 41.4155 57.1595 41.39 57.2257 41.3662C57.6927 41.1983 57.9177 41.1174 58.1446 41.1117C58.3555 41.1065 58.5681 41.1662 58.9782 41.2814L58.9788 41.2816C59.041 41.299 59.1077 41.3178 59.1797 41.3378C60.3144 41.6529 61.533 42.6335 62.0626 43.6577C62.2765 44.0713 62.7845 46.2171 63.1918 48.4262C64.0188 52.9112 64.2818 53.7969 65.8411 57.3455C67.2226 60.4896 68.8371 63.1149 71.1867 66.0378C73.457 68.8622 73.8023 69.5024 73.8043 70.8923C73.8083 73.7205 71.1803 75.4907 66.9713 75.495C65.2419 75.4965 63.4274 75.1178 63.4274 74.7553C63.4274 74.6376 63.997 74.1068 64.6931 73.576C65.3892 73.0452 65.9588 72.527 65.9588 72.4248C65.9588 72.0109 65.4712 71.9848 64.7217 72.3589C63.3034 73.0664 61.4391 72.2045 60.7331 70.5149C60.3041 69.4884 60.6012 68.7485 61.5363 68.5136C61.5743 68.5041 61.6103 68.4952 61.6444 68.4868C61.9004 68.4238 62.0467 68.3878 62.0972 68.2979C62.1647 68.1779 62.0612 67.9618 61.8193 67.457C61.7953 67.4067 61.7699 67.3537 61.7431 67.2976C61.333 66.4377 61.2994 66.4225 60.1056 66.564C58.5689 66.746 57.8631 66.3195 57.1027 64.7486C56.5765 63.6616 56.5674 63.5523 56.9531 62.9635C57.1792 62.6187 57.6016 62.3365 57.8917 62.3365C58.3261 62.3365 58.3919 62.2261 58.2636 61.7148C57.8482 60.0593 57.6469 59.8052 56.7519 59.8052C56.0829 59.8052 55.713 59.6082 55.1245 58.9379C54.7058 58.461 54.2877 57.7275 54.1955 57.3075C54.0365 56.5836 54.3765 55.5065 54.7666 55.4981C54.8661 55.4959 55.0931 55.402 55.2708 55.2891C55.526 55.1271 55.4576 54.5811 54.946 52.6983C54.071 49.479 53.8285 45.5542 54.4099 44.0311ZM136.685 71.2467C137.165 70.3228 138.05 69.5302 139.115 69.068C140.319 68.5463 141.482 68.5716 142.604 69.1442C143.764 69.7363 144.297 70.3111 144.799 71.5135C145.896 74.1385 144.304 76.9355 141.319 77.6281C139.779 77.9855 137.518 76.811 136.7 75.2287C136.229 74.3187 136.221 72.138 136.685 71.2467ZM97.229 86.6646C95.6538 84.4424 96.5076 81.1484 98.9458 80.0412C101.913 78.694 104.952 80.2981 105.603 83.5567C105.922 85.1529 104.69 87.2509 102.894 88.167C100.868 89.2005 98.6002 88.5991 97.229 86.6646ZM125.235 89.9369C129.986 88.6844 134.78 86.4452 137.521 84.1981C138.432 83.4511 139.272 82.8401 139.387 82.8401C139.987 82.8401 140.886 83.4962 141.146 84.1237C141.618 85.263 141.05 86.49 139.211 88.3019C135.48 91.9778 128.583 94.965 121.371 96.0285C118.591 96.4385 112.44 96.4352 109.877 96.0226C106.823 95.531 105.953 94.9238 105.953 93.2835C105.953 91.6799 106.083 91.6427 111.922 91.5713C117.43 91.504 120.912 91.0765 125.235 89.9369Z" fill="#FDFFF9"/>
<path d="M163.095 112.129L134.016 125.907V159.181L163.559 144.133L163.095 112.129Z" fill="#FDFFF9"/>
<path fill-rule="evenodd" clip-rule="evenodd" d="M134.016 125.907V159.181L163.559 144.133L163.095 112.129L134.016 125.907Z" fill="#FDFFF9"/>
<path fill-rule="evenodd" clip-rule="evenodd" d="M126.969 24.1623C127.264 23.6788 127.933 23.1194 128.551 22.839C129.934 22.2107 130.602 22.2201 131.978 22.8863C133.242 23.4981 134.394 24.9445 135.225 26.9617C135.655 28.0064 135.919 28.316 136.512 28.4693C137.912 28.8323 138.308 30.9252 137.188 32.0453C136.553 32.6802 136.54 32.7533 136.833 33.9742C137.101 35.0912 137.193 35.2135 137.602 34.9943C138.273 34.6356 138.544 34.6817 139.114 35.2515C139.454 35.5917 139.62 36.0952 139.62 36.787C139.62 38.0833 139.299 38.6865 138.347 39.1788C137.682 39.5223 137.595 39.7 137.595 40.7032V41.839L138.556 41.6851C139.74 41.496 140.237 41.9782 140.2 43.2813C140.167 44.4292 139.423 45.4235 138.398 45.6891C137.655 45.882 137.595 45.9776 137.595 46.9692C137.595 47.8371 137.703 48.0893 138.164 48.2938C138.742 48.55 138.818 48.8788 138.515 49.8273C138.378 50.2568 138.634 50.5849 139.899 51.5992C140.753 52.2839 141.512 52.8441 141.587 52.8441C141.85 52.8441 142.676 50.0295 143.297 47.013C143.709 45.015 144 42.4827 144.142 39.6636C144.411 34.3324 144.729 33.5628 147.065 32.5865C148.406 32.0263 149.701 32.2909 150.981 33.3864C152.947 35.0692 153.247 38.1174 152.132 45.0603C151.988 45.9508 152.029 46.1361 152.365 46.1361C152.588 46.1361 152.961 46.4259 153.193 46.7803C153.545 47.3167 153.568 47.5835 153.332 48.3715C152.97 49.5774 152.17 50.4393 151.411 50.4393C150.657 50.4393 150.265 50.917 150.079 52.0622C149.944 52.896 149.982 52.9706 150.547 52.9706C151.763 52.9706 152.124 54.0824 151.378 55.5255C150.914 56.4226 149.929 56.8585 148.831 56.6524C148.126 56.5203 148.004 56.5891 147.717 57.281C147.41 58.0224 147.438 58.097 148.317 58.9025C149.298 59.8011 149.389 60.0641 148.982 60.8245C148.78 61.202 148.893 61.5776 149.512 62.5825L150.298 63.8608L151.28 63.083C152.488 62.1266 154.849 59.5515 155.874 58.0732C156.676 56.9167 156.74 56.5469 156.444 54.8084C156.319 54.0786 156.362 53.6126 156.578 53.3529C156.988 52.858 158.206 52.8615 158.703 53.3587C159.052 53.707 159.166 53.6106 159.83 52.4094C162.049 48.3961 162.862 47.6126 164.812 47.6126C167.9 47.6126 169.16 50.8643 167.462 54.4535C167.043 55.3384 166.071 56.9767 165.301 58.0938C163.971 60.0251 163.923 60.1482 164.331 60.5985C165.011 61.3498 164.428 62.9199 163.158 63.7603C162.286 64.338 162.069 64.3833 161.36 64.1362C160.269 63.7558 160.247 63.7616 159.9 64.5235C159.634 65.107 159.668 65.2685 160.16 65.793C160.897 66.5774 160.593 67.5502 159.39 68.2524L158.534 68.7528L157.426 68.1648C156.816 67.8416 156.243 67.651 156.153 67.7413C156.062 67.8317 156.114 68.3157 156.268 68.8169C156.436 69.3647 156.462 69.9545 156.332 70.2959C156.099 70.9088 154.776 71.5882 154.226 71.3773C153.968 71.2781 154.006 71.6988 154.393 73.1836C154.67 74.2486 154.931 75.1644 154.973 75.2191C155.107 75.395 158.182 74.1871 159.617 73.394C162.327 71.897 162.406 71.8117 162.347 70.4475C162.316 69.7269 162.432 69.0591 162.632 68.8189C163.062 68.3002 164.517 68.2904 164.943 68.8032C165.122 69.0186 165.335 69.1042 165.417 68.9931C166.214 67.9152 168.819 65.8758 169.705 65.6373C171.797 65.0738 173.792 66.6673 173.792 68.9009C173.792 70.6964 172.692 72.1939 168.983 75.4446C166.422 77.6896 165.941 77.919 164.911 77.3866C163.867 76.8464 163.626 77.0943 163.815 78.5179C163.971 79.6919 163.95 79.743 163.095 80.2711C161.946 80.9813 161.256 80.958 160.48 80.1822C159.488 79.1904 158.707 79.3719 159.133 80.4948C159.458 81.3496 159.237 81.9417 158.461 82.2953C157.586 82.6943 156.828 82.6611 156.32 82.2014C155.925 81.8445 155.883 81.9518 155.751 83.6569C155.673 84.6694 155.525 85.7101 155.423 85.9693C155.423 88.4726 154.736 90.747 154.393 91.5713L158.05 93.4194L166.237 97.5589C173.091 101.024 174.516 101.838 174.994 102.558L175.564 103.419V127.458V152.486L128.631 177.61C118.22 182.057 107.088 183.286 95.3169 181.287C83.5635 179.291 71.8572 173.067 63.7545 164.507C55.7783 156.081 50.6243 145.091 48.959 132.96C48.7651 131.548 48.6289 128.099 48.6289 124.607C48.6289 121.114 48.7651 117.665 48.959 116.253C49.6916 110.916 51.4182 104.588 53.3215 100.263L53.4014 100.081C54.1624 98.352 54.3531 97.9188 54.2376 97.8097C54.199 97.7732 54.1262 97.773 54.029 97.7727C54.019 97.7726 54.0088 97.7726 53.9983 97.7725C53.4222 97.7682 48.1282 95.0855 47.2812 94.3684C46.1604 93.4197 45.7083 92.4646 45.7083 91.0461C45.7083 89.5567 46.4181 88.3573 47.643 87.7759C48.8724 87.1924 50.0495 87.4086 52.5831 88.6823L54.6147 89.7037C55.2553 90.0258 56.3452 90.5169 56.8101 90.7223C57.3144 90.8736 57.9677 91.1414 58.7324 91.4548C60.5253 92.1896 62.9304 93.1754 65.4624 93.4999C67.3652 93.7439 68.2886 93.7358 70.2438 93.4577C74.4822 92.8544 75.1178 93.083 78.3622 96.379C82.0442 100.12 85.441 102.259 90.2079 103.838C97.6986 106.32 109.241 107.04 118.357 105.596C127.232 104.188 134.128 102.019 138.973 99.1096C148.126 93.6126 152.316 85.4428 150.908 75.8418C150.151 70.6746 148.372 66.6622 144.727 61.8993C142.894 59.5032 139.563 56.253 137.342 54.6917C133.572 52.0424 128.338 50.0282 122.198 48.8638C119.715 48.393 118.374 48.3044 113.8 48.3085C107.596 48.314 104.482 48.696 99.5363 50.0581C90.9698 52.4173 84.6094 55.9059 79.0628 61.2873L76.8522 63.4318L75.8539 63.1328C74.7305 62.7962 73.5527 61.567 73.5527 60.7311C73.5527 60.4263 73.3228 59.7801 73.0416 59.2949C71.6527 56.8975 71.5772 56.1325 72.7024 55.85C73.1175 55.746 73.2755 55.563 73.1927 55.2827C73.1254 55.0552 73.0001 54.5735 72.9143 54.2122C72.7859 53.6721 72.5513 53.5144 71.5972 53.3263C70.2686 53.064 69.5704 52.3188 69.3434 50.9205C69.1576 49.7751 69.7071 49.1737 70.9399 49.1737C71.6522 49.1737 71.8035 49.0919 71.6813 48.7732C71.5967 48.553 71.5276 48.0493 71.5276 47.6539C71.5276 47.0557 71.3778 46.8854 70.6374 46.6408C69.5793 46.2918 68.9963 45.3185 68.9963 43.9015C68.9963 42.7728 69.3019 42.4209 70.3885 42.2981C71.0674 42.2217 71.1563 42.1103 71.2274 41.2487C71.294 40.4409 71.1606 40.123 70.4047 39.2861C69.7064 38.5131 69.5026 38.0719 69.5026 37.3322C69.5026 36.1498 70.099 35.2515 70.8837 35.2515C71.4135 35.2515 71.5205 35.0558 71.8861 33.4163C72.2827 31.638 73.174 29.4806 73.8597 28.6389C75.0406 27.1893 77.5248 26.7197 79.0606 27.6563C80.548 28.563 80.9325 29.5059 80.8155 31.9608C80.7591 33.1442 80.5166 35.3084 80.2763 36.7703C79.684 40.3764 79.8361 45.7729 80.63 49.3288L81.2015 51.889L83.8951 50.2351C90.1257 46.4095 97.0564 43.8696 104.308 42.7545C108.594 42.0956 109.124 42.0544 113.232 42.0594C119.008 42.0665 124.839 42.9907 128.505 44.4801L130.078 45.1195L129.912 42.2738C129.689 38.4356 129.028 35.3019 127.455 30.6217C126.033 26.3884 125.986 25.7738 126.969 24.1623ZM128.994 118.946L113.679 112.456C107.768 113.124 103.816 113.471 98.6199 112.129C97.5644 111.856 96.3517 111.543 94.8789 111.195L94.5625 128.312C94.5625 128.312 93.8141 129.704 101.529 129.324V116.931L123.764 125.907L123.829 159.181L101.528 148.335L101.529 148.335L101.476 148.31L101.475 148.343C98.9689 148.715 96.9556 148.709 94.5625 147.955V153.205L101.296 156.789L123.829 167.753L128.631 170.332L134.016 167.753L170.502 149.035V105.596L151.086 95.509L145.7 100.974L156.578 105.596L128.994 118.946ZM58.1752 105.875C59.1468 103.091 60.3775 100.332 60.989 99.5682C61.2242 99.2746 61.289 99.3202 61.3497 99.8214C61.5269 101.289 62.4344 102.078 63.9456 102.078C64.6258 102.078 65.7056 101.34 65.7056 100.876C65.7056 100.771 66.4319 100.686 67.3193 100.686C68.809 100.686 68.9634 100.739 69.3274 101.373C70.1271 102.766 72.0724 102.575 72.909 101.021L73.4043 100.101L75.5668 102.303C78.6361 105.427 81.6367 107.315 86.4623 109.158L88.8671 110.076L88.9035 116.51L88.906 116.931V116.931C88.9287 120.868 88.9376 122.409 88.6575 122.463C88.4774 122.498 88.1779 121.919 87.686 120.968L87.604 120.81C86.1057 117.916 83.7169 117 82.1158 118.704C81.6415 119.209 81.5263 119.612 81.5263 120.769C81.5263 122.008 81.6827 122.481 82.657 124.183C84.9094 128.12 88.9466 131.692 93.0974 133.42C93.5952 133.627 94.0785 133.809 94.5625 133.967C97.0294 134.774 99.5131 134.973 104.002 134.817L104.688 134.793L108.611 134.657L109.915 135.319C112.171 136.464 112.791 137.817 111.803 139.437C111.164 140.486 109.524 141.406 106.808 142.24C104.746 142.874 104.218 142.931 100.385 142.928C95.3999 142.925 93.5946 142.527 89.5933 140.545C85.1764 138.357 82.0475 135.88 78.8193 132.015C76.304 129.004 74.952 128.456 73.7018 129.942C72.9971 130.78 72.8996 131.536 73.3077 133.005C73.6306 134.168 75.2459 136.606 76.8705 138.384C77.2983 138.852 79.0765 140.135 81.1379 141.622C84.6024 144.121 88.8671 147.044 88.8671 147.044V156.41C88.8671 156.41 92.6695 158.435 94.5625 159.181L123.298 173.116L121.63 173.531C110.98 176.773 99.4707 176.483 88.2234 172.689C75.4696 168.387 64.8159 158.602 59.5115 146.317C56.0669 138.339 54.8704 131.901 55.1518 122.859C55.365 116.013 56.1221 111.76 58.1752 105.875Z" fill="#FDFFF9"/>
</svg>
