<svg width="502" height="211" viewBox="0 0 502 211" fill="none" xmlns="http://www.w3.org/2000/svg">
<path d="M24.4928 87.8597C24.806 88.1609 26.4811 88.366 27.8552 88.2715C28.2446 88.2448 29.3179 87.622 30.2409 86.8873C31.1635 86.1527 31.9834 85.5516 32.0632 85.5516C32.1427 85.5516 32.141 86.0084 32.0592 86.5664C31.8825 87.7686 32.7317 88.8909 33.8174 88.8909C36.5259 88.8909 40.2964 86.533 41.0007 84.3992C41.5266 82.8057 40.9352 80.8278 39.5047 79.3976C38.578 78.4709 37.877 78.1524 35.7615 77.6962C29.6759 76.3839 23.9458 73.9752 19.9282 71.0406C18.4709 69.9761 18.3771 69.8118 18.2328 68.069C18.0528 65.8991 17.5643 65.1818 16.2669 65.1818C15.3462 65.1818 15.0444 65.3878 14.1962 66.594C13.8248 67.1223 13.6355 67.0531 11.9798 65.7839C8.6381 63.2226 6.61377 62.1764 4.99984 62.1764C2.24319 62.1764 0.254587 64.1737 0.272953 66.9242C0.290986 69.6241 2.42952 72.1115 7.86269 75.7527C10.2253 77.3359 10.6177 77.7329 10.6177 78.54C10.6177 79.1812 10.9453 79.7572 11.6452 80.3459C12.8875 81.3915 14.0516 81.4499 14.9876 80.5139C15.598 79.9035 15.8037 79.8671 16.6549 80.2197C17.5522 80.5914 17.61 80.7193 17.4187 81.9161C17.1759 83.4338 17.5997 84.097 19.2526 84.7879C19.8694 85.046 20.3202 85.2945 20.2545 85.3406C21.0559 86.0936 23.414 87.3338 24.4928 87.8597Z" fill="#FFCD9C"/>
<path fill-rule="evenodd" clip-rule="evenodd" d="M16.0863 28.6778C16.7611 26.9106 17.802 25.8754 19.5188 25.2633C19.6199 25.2273 19.7136 25.1936 19.8009 25.1622C20.417 24.9408 20.7139 24.8341 21.0132 24.8266C21.2914 24.8196 21.5718 24.8984 22.1128 25.0504L22.1136 25.0506C22.1957 25.0736 22.2837 25.0984 22.3786 25.1247C23.8757 25.5405 25.4833 26.8341 26.1819 28.1852C26.464 28.7309 27.1343 31.5616 27.6716 34.4758C28.7625 40.3924 29.1095 41.5608 31.1666 46.2422C32.9892 50.39 35.119 53.8532 38.2187 57.7091C41.2137 61.4351 41.6692 62.2796 41.6719 64.1132C41.6772 67.8442 38.2103 70.1794 32.6576 70.1851C30.3761 70.1871 27.9825 69.6875 27.9825 69.2093C27.9825 69.0541 28.7338 68.3538 29.6521 67.6536C30.5705 66.9533 31.3218 66.2697 31.3218 66.1348C31.3218 65.5889 30.6787 65.5545 29.6899 66.048C27.8188 66.9813 25.3594 65.8443 24.428 63.6153C23.862 62.2612 24.254 61.2852 25.4876 60.9753C25.5377 60.9627 25.5853 60.951 25.6302 60.9399C25.9679 60.8568 26.161 60.8093 26.2276 60.6907C26.3166 60.5324 26.18 60.2472 25.861 59.5813C25.8293 59.5151 25.7957 59.4451 25.7604 59.3711C25.2195 58.2367 25.175 58.2167 23.6002 58.4033C21.5729 58.6434 20.6418 58.0807 19.6387 56.0084C18.9444 54.5745 18.9324 54.4302 19.4413 53.6535C19.7395 53.1987 20.2969 52.8263 20.6796 52.8263C21.2526 52.8263 21.3394 52.6807 21.1701 52.0062C20.6221 49.8223 20.3566 49.487 19.1758 49.487C18.2932 49.487 17.8054 49.2272 17.029 48.343C16.4766 47.7139 15.925 46.7461 15.8034 46.1921C15.5937 45.2371 16.0422 43.8162 16.5568 43.8052C16.688 43.8022 16.9876 43.6783 17.222 43.5294C17.5586 43.3156 17.4684 42.5954 16.7935 40.1116C15.6391 35.8646 15.3192 30.687 16.0863 28.6778ZM124.626 64.5807C125.26 63.3619 126.427 62.3163 127.832 61.7066C129.42 61.0183 130.955 61.0517 132.435 61.8071C133.965 62.5882 134.668 63.3465 135.331 64.9327C136.777 68.3955 134.677 72.0855 130.74 72.9991C128.707 73.4706 125.725 71.9212 124.645 69.8338C124.025 68.6333 124.014 65.7565 124.626 64.5807ZM72.5745 84.9201C70.4964 81.9886 71.6228 77.6431 74.8393 76.1825C78.7544 74.4053 82.7623 76.5214 83.6219 80.8201C84.043 82.9259 82.4167 85.6935 80.0481 86.902C77.3755 88.2655 74.3835 87.472 72.5745 84.9201ZM109.521 89.2369C115.788 87.5846 122.113 84.6306 125.729 81.6663C126.931 80.6809 128.039 79.8748 128.191 79.8748C128.982 79.8748 130.168 80.7403 130.511 81.5681C131.134 83.0712 130.384 84.6897 127.958 87.08C123.037 91.9294 113.938 95.8701 104.423 97.2729C100.756 97.8139 92.6415 97.8096 89.2601 97.2652C85.2314 96.6168 84.084 95.8156 84.084 93.6518C84.084 91.5363 84.2553 91.4872 91.9579 91.3931C99.2248 91.3042 103.817 90.7402 109.521 89.2369Z" fill="#FFCD9C"/>
<path d="M159.468 118.512L121.105 136.689V180.583L160.08 160.732L159.468 118.512Z" fill="#FFCD9C"/>
<path fill-rule="evenodd" clip-rule="evenodd" d="M121.105 136.689V180.583L160.08 160.732L159.468 118.512L121.105 136.689Z" fill="#FFCD9C"/>
<path fill-rule="evenodd" clip-rule="evenodd" d="M111.809 2.46685C112.198 1.82904 113.08 1.09105 113.895 0.721054C115.72 -0.107763 116.601 -0.0954089 118.417 0.783498C120.084 1.59061 121.604 3.49869 122.7 6.15979C123.267 7.53793 123.616 7.94632 124.397 8.14868C126.245 8.62754 126.767 11.3885 125.29 12.8661C124.452 13.7036 124.434 13.8001 124.821 15.4107C125.174 16.8843 125.296 17.0456 125.836 16.7564C126.721 16.2832 127.078 16.344 127.83 17.0957C128.279 17.5445 128.498 18.2087 128.498 19.1213C128.498 20.8314 128.074 21.6272 126.818 22.2767C125.942 22.7298 125.826 22.9642 125.826 24.2876V25.7859L127.095 25.5829C128.656 25.3334 129.312 25.9696 129.263 27.6887C129.22 29.203 128.239 30.5147 126.887 30.865C125.906 31.1195 125.826 31.2457 125.826 32.5537C125.826 33.6988 125.969 34.0314 126.578 34.3012C127.34 34.6391 127.44 35.0729 127.04 36.3241C126.86 36.8908 127.197 37.3236 128.866 38.6616C129.992 39.5649 130.994 40.3039 131.093 40.3039C131.44 40.3039 132.529 36.5909 133.349 32.6115C133.892 29.9758 134.276 26.6351 134.464 22.9161C134.818 15.8832 135.238 14.868 138.32 13.5801C140.089 12.8411 141.798 13.19 143.486 14.6353C146.08 16.8553 146.476 20.8765 145.004 30.0355C144.815 31.2103 144.868 31.4547 145.311 31.4547C145.606 31.4547 146.098 31.8371 146.404 32.3046C146.868 33.0122 146.898 33.3642 146.587 34.4037C146.11 35.9945 145.054 37.1316 144.054 37.1316C143.059 37.1316 142.542 37.7617 142.296 39.2724C142.118 40.3724 142.169 40.4709 142.914 40.4709C144.517 40.4709 144.994 41.9375 144.01 43.8412C143.398 45.0247 142.098 45.5997 140.65 45.3279C139.719 45.1536 139.558 45.2444 139.18 46.1571C138.775 47.1352 138.811 47.2337 139.971 48.2962C141.266 49.4817 141.385 49.8286 140.848 50.8318C140.582 51.3297 140.732 51.8252 141.547 53.1509L142.585 54.8373L143.881 53.8111C145.474 52.5495 148.588 49.1524 149.941 47.2023C150.999 45.6765 151.084 45.1887 150.692 42.8952C150.528 41.9325 150.584 41.3177 150.869 40.9751C151.411 40.3223 153.018 40.327 153.673 40.9828C154.133 41.4423 154.284 41.3151 155.16 39.7306C158.087 34.4361 159.16 33.4026 161.733 33.4026C165.806 33.4026 167.468 37.6922 165.228 42.4271C164.676 43.5945 163.393 45.7557 162.378 47.2293C160.623 49.7772 160.56 49.9395 161.097 50.5336C161.994 51.5247 161.226 53.5961 159.551 54.7047C158.4 55.4667 158.113 55.5265 157.178 55.2006C155.739 54.6987 155.71 54.7064 155.252 55.7115C154.902 56.4812 154.945 56.6943 155.595 57.3862C156.568 58.421 156.166 59.7043 154.58 60.6306L153.45 61.2908L151.988 60.5151C151.184 60.0887 150.428 59.8372 150.309 59.9564C150.189 60.0756 150.258 60.7141 150.461 61.3753C150.683 62.0979 150.716 62.876 150.545 63.3265C150.237 64.1349 148.492 65.0312 147.767 64.753C147.426 64.6221 147.477 65.1771 147.987 67.136C148.352 68.5408 148.697 69.749 148.752 69.8211C148.929 70.0532 152.985 68.4597 154.879 67.4135C158.454 65.4386 158.559 65.326 158.48 63.5265C158.439 62.5758 158.593 61.6949 158.856 61.378C159.424 60.6938 161.343 60.6807 161.905 61.3573C162.141 61.6415 162.422 61.7543 162.53 61.6077C163.581 60.1858 167.019 57.4954 168.187 57.1808C170.947 56.4375 173.579 58.5396 173.579 61.4862C173.579 63.8548 172.127 65.8303 167.235 70.1186C163.855 73.0803 163.221 73.3828 161.863 72.6805C160.485 71.9679 160.168 72.2949 160.417 74.1729C160.623 75.7217 160.595 75.7891 159.468 76.4857C157.951 77.4227 157.041 77.392 156.017 76.3685C154.709 75.0602 153.678 75.2996 154.241 76.7809C154.669 77.9086 154.378 78.6896 153.354 79.1561C152.199 79.6824 151.199 79.6387 150.529 79.0323C150.009 78.5614 149.953 78.703 149.779 80.9524C149.675 82.2881 149.48 83.6609 149.346 84.0028C149.346 87.3053 148.44 90.3057 147.987 91.3931L152.812 93.8311L163.612 99.2919C172.654 103.864 174.534 104.937 175.164 105.887L175.917 107.022V138.735V171.752L114.001 204.896C100.267 210.763 85.5811 212.383 70.052 209.746C54.5466 207.113 39.1033 198.903 28.4139 187.61C17.8915 176.494 11.0922 161.997 8.89523 145.993C8.63944 144.131 8.45977 139.581 8.45977 134.973C8.45977 130.366 8.63944 125.816 8.89523 123.954C9.86165 116.913 12.1394 108.564 14.6503 102.859L14.7558 102.619C15.7598 100.338 16.0113 99.7667 15.859 99.6228C15.808 99.5746 15.7119 99.5743 15.5837 99.5739C15.5706 99.5739 15.5571 99.5738 15.5433 99.5737C14.7832 99.568 7.79924 96.029 6.68189 95.083C5.20321 93.8314 4.6068 92.5715 4.6068 90.7002C4.6068 88.7353 5.54316 87.1531 7.15909 86.3861C8.78102 85.6164 10.3338 85.9016 13.6762 87.5819L16.3564 88.9293C17.2015 89.3542 18.6394 90.0021 19.2526 90.273C19.918 90.4727 20.7799 90.8259 21.7886 91.2394C24.1539 92.2088 27.3267 93.5091 30.667 93.9373C33.1772 94.2592 34.3954 94.2485 36.9747 93.8815C42.5662 93.0858 43.4047 93.3873 47.6848 97.7354C52.5423 102.67 57.0234 105.492 63.3121 107.575C73.194 110.85 88.4215 111.8 100.447 109.894C112.156 108.038 121.253 105.175 127.644 101.338C139.719 94.0859 145.247 83.3083 143.39 70.6426C142.39 63.826 140.044 58.5329 135.236 52.2496C132.817 49.0887 128.423 44.801 125.492 42.7413C120.519 39.2464 113.615 36.5893 105.515 35.0532C102.238 34.4321 100.469 34.3152 94.4361 34.3205C86.2509 34.3279 82.1435 34.8318 75.6184 36.6287C64.3172 39.7409 55.9264 44.3432 48.6091 51.4422L45.6929 54.2713L44.3758 53.8769C42.8938 53.4328 41.34 51.8112 41.34 50.7085C41.34 50.3065 41.0368 49.454 40.6657 48.8138C38.8334 45.6512 38.7339 44.642 40.2183 44.2694C40.7659 44.1321 40.9743 43.8907 40.8651 43.521C40.7763 43.2208 40.611 42.5853 40.4978 42.1088C40.3285 41.3962 40.0189 41.1882 38.7603 40.9401C37.0075 40.5941 36.0865 39.611 35.7869 37.7664C35.5418 36.2553 36.2668 35.4619 37.8931 35.4619C38.8328 35.4619 39.0325 35.3541 38.8712 34.9336C38.7596 34.6431 38.6685 33.9786 38.6685 33.457C38.6685 32.6679 38.4708 32.4432 37.494 32.1206C36.0982 31.6601 35.3291 30.3761 35.3291 28.5068C35.3291 27.0178 35.7322 26.5536 37.1657 26.3917C38.0614 26.2908 38.1786 26.1439 38.2724 25.0072C38.3602 23.9416 38.1843 23.5222 37.1871 22.4182C36.2658 21.3984 35.997 20.8164 35.997 19.8406C35.997 18.2808 36.7837 17.0957 37.8189 17.0957C38.5179 17.0957 38.6591 16.8376 39.1413 14.6747C39.6646 12.3288 40.8404 9.48274 41.745 8.37242C43.3029 6.45999 46.5801 5.84055 48.6061 7.0761C50.5683 8.27224 51.0756 9.51613 50.9213 12.7546C50.8468 14.3157 50.5269 17.1708 50.21 19.0993C49.4286 23.8565 49.6293 30.9756 50.6765 35.6666L51.4306 39.044L54.984 36.8621C63.2036 31.8154 72.3468 28.4647 81.9134 26.9938C87.567 26.1245 88.2673 26.0701 93.6867 26.0768C101.306 26.0861 108.999 27.3053 113.834 29.2702L115.91 30.1137L115.691 26.3596C115.396 21.2962 114.524 17.1622 112.45 10.9881C110.573 5.40344 110.512 4.59265 111.809 2.46685ZM114.48 127.506L94.2764 118.945C86.4777 119.826 81.2638 120.283 74.4094 118.512C73.017 118.153 71.4172 117.739 69.4742 117.281L69.0568 139.862C69.0568 139.862 68.0695 141.698 78.2473 141.197V124.848L107.581 136.689L107.666 180.583L78.2462 166.276L78.2473 166.276L78.177 166.242L78.1761 166.287C74.8699 166.777 72.2138 166.77 69.0568 165.775V172.701L77.9394 177.429L107.666 191.893L114.001 195.294L121.105 191.893L169.238 167.199V109.894L143.625 96.5877L136.52 103.797L150.869 109.894L114.48 127.506ZM21.0536 110.263C22.3352 106.589 23.9588 102.95 24.7656 101.943C25.0759 101.555 25.1613 101.615 25.2415 102.277C25.4752 104.213 26.6724 105.254 28.666 105.254C29.5633 105.254 30.9879 104.28 30.9879 103.667C30.9879 103.529 31.946 103.417 33.1168 103.417C35.082 103.417 35.2857 103.487 35.7659 104.323C36.8208 106.161 39.3871 105.909 40.4908 103.859L41.1443 102.646L43.9971 105.55C48.0461 109.672 52.0046 112.163 58.3708 114.593L61.5432 115.804L61.5913 124.292L61.5945 124.848V124.848C61.6245 130.042 61.6362 132.074 61.2667 132.146C61.0291 132.192 60.6341 131.428 59.9851 130.174L59.8769 129.964C57.9003 126.148 54.7489 124.938 52.6368 127.187C52.011 127.853 51.859 128.385 51.859 129.911C51.859 131.545 52.0654 132.169 53.3507 134.415C56.3221 139.608 61.6481 144.32 67.124 146.6C67.7806 146.873 68.4183 147.113 69.0568 147.322C72.3112 148.387 75.5878 148.649 81.5097 148.443L82.4143 148.412L87.5904 148.232L89.3105 149.105C92.2869 150.615 93.1047 152.4 91.801 154.538C90.9575 155.921 88.7942 157.135 85.2121 158.236C82.4908 159.072 81.7952 159.146 76.7374 159.143C70.1615 159.14 67.7798 158.614 62.5013 155.999C56.6744 153.113 52.5466 149.845 48.2879 144.747C44.9695 140.774 43.186 140.052 41.5367 142.012C40.607 143.117 40.4784 144.114 41.0167 146.052C41.4428 147.586 43.5737 150.803 45.7169 153.148C46.2813 153.766 48.6271 155.458 51.3467 157.42C55.9172 160.717 61.5432 164.573 61.5432 164.573V176.928C61.5432 176.928 66.5595 179.6 69.0568 180.583L106.966 198.968L104.765 199.514C90.715 203.792 75.5319 203.409 60.694 198.404C43.8689 192.729 29.8141 179.82 22.8164 163.614C18.2722 153.089 16.6937 144.596 17.065 132.668C17.3462 123.636 18.345 118.026 21.0536 110.263Z" fill="#FFCD9C"/>
<path d="M471.283 147.713C453.918 147.713 441.632 134.837 441.632 116.764C441.632 98.69 453.918 85.814 471.283 85.814C488.647 85.814 501.051 98.69 501.051 116.764C501.051 134.837 488.647 147.713 471.283 147.713ZM471.283 135.546C481.087 135.546 488.175 127.75 488.175 116.764C488.175 105.541 481.087 97.6268 471.283 97.6268C461.478 97.6268 454.508 105.541 454.508 116.764C454.508 127.75 461.478 135.546 471.283 135.546Z" fill="#FFCD9C"/>
<path d="M423.59 87.2317H435.994V146.296H423.59V87.2317ZM429.851 80.4983C425.008 80.4983 421.582 76.8363 421.582 71.8749C421.582 66.9135 425.008 63.3696 429.851 63.3696C434.694 63.3696 438.12 66.9135 438.12 71.8749C438.12 76.8363 434.694 80.4983 429.851 80.4983Z" fill="#FFCD9C"/>
<path d="M408.261 147.241C403.299 147.241 399.637 143.461 399.637 138.381C399.637 133.184 403.299 129.522 408.261 129.522C413.34 129.522 416.884 133.184 416.884 138.381C416.884 143.461 413.34 147.241 408.261 147.241Z" fill="#FFCD9C"/>
<path d="M381.362 146.296V65.9683H393.766V146.296H381.362Z" fill="#FFCD9C"/>
<path d="M346.098 147.713C328.733 147.713 316.447 134.837 316.447 116.764C316.447 98.69 328.733 85.814 346.098 85.814C363.463 85.814 375.866 98.69 375.866 116.764C375.866 134.837 363.463 147.713 346.098 147.713ZM346.098 135.546C355.902 135.546 362.99 127.75 362.99 116.764C362.99 105.541 355.902 97.6268 346.098 97.6268C336.293 97.6268 329.323 105.541 329.323 116.764C329.323 127.75 336.293 135.546 346.098 135.546Z" fill="#FFCD9C"/>
<path d="M260.759 146.296L282.967 116.173L261.586 87.2317H277.415L290.291 106.25L302.459 87.2317H318.17L297.615 116.173L319.824 146.296H303.994L290.173 125.86L277.061 146.296H260.759Z" fill="#FFCD9C"/>
<path d="M229.449 147.713C217.873 147.713 210.076 140.744 210.076 130.467C210.076 122.552 216.219 115.937 225.551 114.165L244.216 110.503C245.987 110.267 247.169 108.967 247.169 107.432C247.169 101.407 242.798 97.0362 236.655 97.0362C230.276 97.0362 225.315 101.525 224.842 108.258L212.084 105.187C213.975 93.8467 223.897 85.814 236.065 85.814C249.768 85.814 259.572 95.028 259.572 107.786V134.483L259.809 146.296H250.004L247.878 138.263C244.216 144.051 237.482 147.713 229.449 147.713ZM223.425 128.813C223.425 133.065 226.851 135.901 232.521 135.901C240.79 135.901 247.169 129.876 247.169 121.016V118.299C245.987 118.536 244.688 118.89 243.389 119.126L230.513 121.489C226.142 122.316 223.425 125.151 223.425 128.813Z" fill="#FFCD9C"/>
</svg>
