<svg width="423" height="123" viewBox="0 0 423 123" fill="none" xmlns="http://www.w3.org/2000/svg">
<path d="M379.544 122.678C354.376 122.678 336.57 104.008 336.57 77.8007C336.57 51.5938 354.376 32.9236 379.544 32.9236C404.711 32.9236 422.688 51.5938 422.688 77.8007C422.688 104.008 404.711 122.678 379.544 122.678ZM379.544 105.035C393.754 105.035 404.026 93.7303 404.026 77.8007C404.026 61.5285 393.754 50.0522 379.544 50.0522C365.333 50.0522 355.232 61.5285 355.232 77.8007C355.232 93.7303 365.333 105.035 379.544 105.035Z" fill="#FDFFF9"/>
<path d="M310.424 34.9788H328.401V120.622H310.424V34.9788ZM319.498 25.2155C312.479 25.2155 307.514 19.9056 307.514 12.7115C307.514 5.5175 312.479 0.378906 319.498 0.378906C326.518 0.378906 331.483 5.5175 331.483 12.7115C331.483 19.9056 326.518 25.2155 319.498 25.2155Z" fill="#FDFFF9"/>
<path d="M288.209 121.992C281.018 121.992 275.711 116.511 275.711 109.146C275.711 101.609 281.018 96.2993 288.209 96.2993C295.571 96.2993 300.707 101.609 300.707 109.146C300.707 116.511 295.571 121.992 288.209 121.992Z" fill="#FDFFF9"/>
<path d="M249.219 120.622V4.14722H267.196V120.622H249.219Z" fill="#FDFFF9"/>
<path d="M198.113 122.678C172.945 122.678 155.139 104.008 155.139 77.8007C155.139 51.5938 172.945 32.9236 198.113 32.9236C223.28 32.9236 241.257 51.5938 241.257 77.8007C241.257 104.008 223.28 122.678 198.113 122.678ZM198.113 105.035C212.323 105.035 222.595 93.7303 222.595 77.8007C222.595 61.5285 212.323 50.0522 198.113 50.0522C183.902 50.0522 173.801 61.5285 173.801 77.8007C173.801 93.7303 183.902 105.035 198.113 105.035Z" fill="#FDFFF9"/>
<path d="M74.422 120.622L106.609 76.944L75.6204 34.9788H98.5624L117.224 62.5559L134.859 34.9788H157.629L127.839 76.944L160.026 120.622H137.084L117.053 90.9895L98.0487 120.622H74.422Z" fill="#FDFFF9"/>
<path d="M29.0459 122.678C12.2675 122.678 0.967773 112.572 0.967773 97.6699C0.967773 86.1937 9.8706 76.6017 23.3961 74.0324L50.447 68.7225C53.0151 68.3799 54.7272 66.4958 54.7272 64.269C54.7272 55.5334 48.3925 49.1958 39.4896 49.1958C30.2444 49.1958 23.0536 55.7047 22.3688 65.468L3.87831 61.0146C6.61765 44.5711 20.9991 32.9236 38.6336 32.9236C58.4938 32.9236 72.704 46.2839 72.704 64.7829V103.494L73.0465 120.622H58.8362L55.7544 108.975C50.447 117.368 40.6881 122.678 29.0459 122.678ZM20.3143 95.2719C20.3143 101.438 25.2794 105.549 33.4973 105.549C45.4819 105.549 54.7272 96.8135 54.7272 83.967V80.0274C53.0151 80.37 51.1318 80.8838 49.2485 81.2264L30.5868 84.6521C24.2521 85.8512 20.3143 89.962 20.3143 95.2719Z" fill="#FDFFF9"/>
</svg>
