<svg width="423" height="123" viewBox="0 0 423 123" fill="none" xmlns="http://www.w3.org/2000/svg">
<path d="M379.544 122.717C354.376 122.717 336.57 104.047 336.57 77.8402C336.57 51.6334 354.376 32.9631 379.544 32.9631C404.711 32.9631 422.688 51.6334 422.688 77.8402C422.688 104.047 404.711 122.717 379.544 122.717ZM379.544 105.075C393.754 105.075 404.026 93.7699 404.026 77.8402C404.026 61.568 393.754 50.0918 379.544 50.0918C365.333 50.0918 355.232 61.568 355.232 77.8402C355.232 93.7699 365.333 105.075 379.544 105.075Z" fill="#28338B"/>
<path d="M310.424 35.0185H328.401V120.662H310.424V35.0185ZM319.498 25.2551C312.479 25.2551 307.514 19.9453 307.514 12.7512C307.514 5.55717 312.479 0.418579 319.498 0.418579C326.518 0.418579 331.483 5.55717 331.483 12.7512C331.483 19.9453 326.518 25.2551 319.498 25.2551Z" fill="#28338B"/>
<path d="M288.209 122.032C281.018 122.032 275.711 116.551 275.711 109.185C275.711 101.649 281.018 96.339 288.209 96.339C295.571 96.339 300.707 101.649 300.707 109.185C300.707 116.551 295.571 122.032 288.209 122.032Z" fill="#28338B"/>
<path d="M249.219 120.662V4.18677H267.196V120.662H249.219Z" fill="#28338B"/>
<path d="M198.113 122.717C172.945 122.717 155.139 104.047 155.139 77.8402C155.139 51.6334 172.945 32.9631 198.113 32.9631C223.28 32.9631 241.257 51.6334 241.257 77.8402C241.257 104.047 223.28 122.717 198.113 122.717ZM198.113 105.075C212.323 105.075 222.595 93.7699 222.595 77.8402C222.595 61.568 212.323 50.0918 198.113 50.0918C183.902 50.0918 173.801 61.568 173.801 77.8402C173.801 93.7699 183.902 105.075 198.113 105.075Z" fill="#28338B"/>
<path d="M74.422 120.662L106.609 76.9837L75.6204 35.0184H98.5624L117.224 62.5956L134.859 35.0184H157.629L127.839 76.9837L160.026 120.662H137.084L117.053 91.0292L98.0487 120.662H74.422Z" fill="#28338B"/>
<path d="M29.0459 122.717C12.2675 122.717 0.967773 112.611 0.967773 97.7095C0.967773 86.2333 9.8706 76.6412 23.3961 74.0719L50.447 68.762C53.0151 68.4195 54.7272 66.5353 54.7272 64.3086C54.7272 55.573 48.3925 49.2354 39.4896 49.2354C30.2444 49.2354 23.0536 55.7443 22.3688 65.5076L3.87831 61.0541C6.61765 44.6106 20.9991 32.9631 38.6336 32.9631C58.4938 32.9631 72.704 46.3235 72.704 64.8224V103.533L73.0465 120.662H58.8362L55.7544 109.014C50.447 117.407 40.6881 122.717 29.0459 122.717ZM20.3143 95.3115C20.3143 101.478 25.2794 105.589 33.4973 105.589C45.4819 105.589 54.7272 96.853 54.7272 84.0065V80.0669C53.0151 80.4095 51.1318 80.9234 49.2485 81.266L30.5868 84.6917C24.2521 85.8907 20.3143 90.0016 20.3143 95.3115Z" fill="#28338B"/>
</svg>
