<svg width="217" height="217" viewBox="0 0 217 217" fill="none" xmlns="http://www.w3.org/2000/svg">
<rect x="0.671387" y="0.452759" width="215.921" height="215.921" rx="107.96" fill="#15002E"/>
<path d="M60.544 88.738C60.7814 88.9664 62.0511 89.1218 63.0928 89.0501C63.3879 89.0299 64.2015 88.5578 64.9011 88.0009C65.6005 87.444 66.222 86.9884 66.2825 86.9884C66.3427 86.9884 66.3414 87.3347 66.2794 87.7577C66.1455 88.6689 66.7892 89.5197 67.6122 89.5197C69.6653 89.5197 72.5234 87.7323 73.0573 86.1148C73.4559 84.9069 73.0076 83.4076 71.9232 82.3234C71.2208 81.621 70.6895 81.3795 69.0859 81.0337C64.4728 80.0389 60.1294 78.2131 57.0839 75.9886C55.9793 75.1816 55.9081 75.0571 55.7988 73.736C55.6623 72.0911 55.292 71.5474 54.3086 71.5474C53.6107 71.5474 53.3819 71.7036 52.7389 72.6179C52.4575 73.0184 52.3139 72.966 51.0589 72.0038C48.5258 70.0623 46.9914 69.2692 45.768 69.2692C43.6784 69.2692 42.171 70.7832 42.1849 72.8682C42.1986 74.9148 43.8196 76.8004 47.9381 79.5605C49.729 80.7606 50.0264 81.0616 50.0264 81.6734C50.0264 82.1594 50.2747 82.5961 50.8053 83.0423C51.7469 83.8349 52.6293 83.8792 53.3389 83.1697C53.8016 82.7069 53.9575 82.6793 54.6027 82.9467C55.2829 83.2284 55.3267 83.3253 55.1817 84.2326C54.9976 85.383 55.3189 85.8858 56.5719 86.4095C57.0394 86.6052 57.3811 86.7935 57.3312 86.8284C57.9388 87.3993 59.7262 88.3394 60.544 88.738Z" fill="#FFCD9C"/>
<path fill-rule="evenodd" clip-rule="evenodd" d="M54.1717 43.8762C54.6832 42.5366 55.4723 41.7519 56.7736 41.2879C56.8502 41.2606 56.9212 41.2351 56.9874 41.2113C57.4545 41.0434 57.6795 40.9625 57.9064 40.9568C58.1173 40.9516 58.3298 41.0113 58.7399 41.1265L58.7405 41.1266C58.8027 41.1441 58.8694 41.1629 58.9414 41.1829C60.0762 41.498 61.2948 42.4786 61.8243 43.5028C62.0382 43.9164 62.5462 46.0622 62.9535 48.2713C63.7805 52.7562 64.0435 53.6419 65.6028 57.1906C66.9844 60.3347 68.5989 62.9599 70.9484 65.8829C73.2188 68.7073 73.564 69.3475 73.566 70.7374C73.5701 73.5656 70.9421 75.3358 66.733 75.3401C65.0036 75.3416 63.1892 74.9629 63.1892 74.6004C63.1892 74.4827 63.7587 73.9519 64.4549 73.4211C65.151 72.8903 65.7205 72.3721 65.7205 72.2698C65.7205 71.856 65.233 71.8299 64.4835 72.204C63.0652 72.9115 61.2009 72.0496 60.4949 70.36C60.0658 69.3335 60.363 68.5936 61.2981 68.3587C61.3361 68.3492 61.3721 68.3403 61.4062 68.3319C61.6621 68.2689 61.8085 68.2329 61.859 68.143C61.9264 68.023 61.8229 67.8069 61.5811 67.302C61.557 67.2518 61.5316 67.1988 61.5049 67.1427C61.0948 66.2828 61.0611 66.2676 59.8674 66.4091C58.3306 66.5911 57.6249 66.1646 56.8645 64.5937C56.3382 63.5067 56.3291 63.3974 56.7149 62.8086C56.9409 62.4638 57.3634 62.1816 57.6535 62.1816C58.0879 62.1816 58.1537 62.0712 58.0253 61.5599C57.6099 59.9044 57.4087 59.6503 56.5136 59.6503C55.8446 59.6503 55.4748 59.4533 54.8863 58.783C54.4676 58.3061 54.0494 57.5726 53.9573 57.1526C53.7983 56.4287 54.1383 55.3516 54.5283 55.3432C54.6278 55.341 54.8549 55.2471 55.0326 55.1342C55.2877 54.9722 55.2194 54.4262 54.7078 52.5434C53.8327 49.324 53.5902 45.3993 54.1717 43.8762ZM136.447 71.0918C136.927 70.1679 137.812 69.3753 138.877 68.9131C140.08 68.3914 141.244 68.4167 142.366 68.9893C143.526 69.5813 144.059 70.1562 144.561 71.3586C145.658 73.9835 144.066 76.7806 141.081 77.4732C139.541 77.8306 137.28 76.6561 136.461 75.0738C135.991 74.1638 135.983 71.9831 136.447 71.0918ZM96.9908 86.5097C95.4155 84.2875 96.2693 80.9935 98.7075 79.8863C101.675 78.5391 104.713 80.1432 105.365 83.4018C105.684 84.998 104.451 87.096 102.656 88.0121C100.63 89.0456 98.362 88.4442 96.9908 86.5097ZM124.997 89.782C129.748 88.5295 134.541 86.2903 137.283 84.0432C138.194 83.2962 139.034 82.6852 139.149 82.6852C139.749 82.6852 140.648 83.3413 140.908 83.9688C141.38 85.1081 140.812 86.3351 138.973 88.147C135.242 91.8229 128.345 94.8101 121.132 95.8735C118.353 96.2836 112.202 96.2803 109.639 95.8677C106.585 95.3761 105.715 94.7689 105.715 93.1286C105.715 91.525 105.845 91.4878 111.684 91.4164C117.192 91.3491 120.673 90.9215 124.997 89.782Z" fill="#FFCD9C"/>
<path d="M162.857 111.974L133.778 125.753V159.026L163.321 143.978L162.857 111.974Z" fill="#FFCD9C"/>
<path fill-rule="evenodd" clip-rule="evenodd" d="M133.778 125.753V159.026L163.321 143.978L162.857 111.974L133.778 125.753Z" fill="#FFCD9C"/>
<path fill-rule="evenodd" clip-rule="evenodd" d="M126.731 24.0074C127.026 23.5239 127.694 22.9645 128.312 22.6841C129.696 22.0558 130.364 22.0651 131.74 22.7314C133.004 23.3432 134.156 24.7896 134.987 26.8068C135.417 27.8515 135.681 28.161 136.273 28.3144C137.674 28.6774 138.07 30.7703 136.95 31.8904C136.315 32.5253 136.301 32.5984 136.594 33.8193C136.862 34.9363 136.955 35.0586 137.364 34.8394C138.034 34.4807 138.306 34.5268 138.875 35.0966C139.216 35.4368 139.382 35.9403 139.382 36.6321C139.382 37.9284 139.061 38.5316 138.108 39.0239C137.444 39.3674 137.357 39.5451 137.357 40.5483V41.684L138.318 41.5301C139.502 41.3411 139.998 41.8233 139.961 43.1264C139.929 44.2743 139.185 45.2686 138.16 45.5342C137.417 45.7271 137.357 45.8227 137.357 46.8143C137.357 47.6822 137.465 47.9344 137.926 48.1389C138.504 48.3951 138.579 48.7239 138.277 49.6724C138.14 50.1019 138.396 50.43 139.661 51.4443C140.514 52.129 141.274 52.6892 141.349 52.6892C141.612 52.6892 142.437 49.8746 143.059 46.858C143.47 44.8601 143.761 42.3278 143.904 39.5086C144.173 34.1775 144.491 33.4079 146.827 32.4316C148.168 31.8714 149.463 32.136 150.743 33.2315C152.709 34.9143 153.009 37.9625 151.893 44.9054C151.75 45.7959 151.79 45.9812 152.126 45.9812C152.35 45.9812 152.723 46.271 152.955 46.6254C153.306 47.1618 153.329 47.4286 153.093 48.2166C152.732 49.4225 151.932 50.2844 151.173 50.2844C150.419 50.2844 150.027 50.7621 149.841 51.9072C149.706 52.7411 149.744 52.8157 150.309 52.8157C151.524 52.8157 151.886 53.9275 151.14 55.3706C150.676 56.2677 149.691 56.7036 148.593 56.4975C147.888 56.3654 147.765 56.4342 147.479 57.126C147.172 57.8675 147.199 57.9421 148.079 58.7476C149.06 59.6462 149.151 59.9092 148.744 60.6696C148.542 61.047 148.655 61.4227 149.273 62.4276L150.06 63.7059L151.042 62.9281C152.249 61.9717 154.61 59.3966 155.636 57.9183C156.438 56.7618 156.502 56.392 156.205 54.6535C156.081 53.9237 156.124 53.4577 156.339 53.198C156.75 52.7031 157.968 52.7066 158.465 53.2038C158.814 53.5521 158.928 53.4556 159.592 52.2545C161.81 48.2411 162.624 47.4577 164.574 47.4577C167.662 47.4577 168.921 50.7094 167.224 54.2986C166.805 55.1835 165.833 56.8218 165.063 57.9389C163.733 59.8702 163.685 59.9933 164.093 60.4436C164.772 61.1949 164.19 62.765 162.92 63.6054C162.048 64.1831 161.83 64.2284 161.122 63.9813C160.031 63.6009 160.009 63.6067 159.662 64.3686C159.396 64.9521 159.429 65.1136 159.922 65.6381C160.659 66.4225 160.354 67.3953 159.152 68.0975L158.295 68.5979L157.187 68.0099C156.578 67.6867 156.005 67.4961 155.915 67.5864C155.824 67.6768 155.876 68.1608 156.03 68.662C156.198 69.2098 156.223 69.7995 156.094 70.141C155.861 70.7538 154.538 71.4333 153.988 71.2224C153.729 71.1232 153.768 71.5439 154.155 73.0287C154.432 74.0937 154.693 75.0095 154.734 75.0642C154.869 75.2401 157.943 74.0321 159.379 73.2391C162.089 71.7421 162.168 71.6568 162.109 70.2926C162.078 69.572 162.194 68.9042 162.394 68.664C162.824 68.1453 164.279 68.1355 164.705 68.6483C164.883 68.8637 165.097 68.9493 165.179 68.8382C165.975 67.7603 168.581 65.7208 169.467 65.4824C171.559 64.9189 173.554 66.5124 173.554 68.746C173.554 70.5415 172.454 72.039 168.745 75.2897C166.183 77.5347 165.703 77.764 164.673 77.2317C163.628 76.6915 163.388 76.9394 163.577 78.363C163.733 79.537 163.712 79.5881 162.857 80.1161C161.708 80.8264 161.018 80.8031 160.242 80.0273C159.25 79.0355 158.468 79.217 158.895 80.3399C159.22 81.1947 158.999 81.7868 158.223 82.1404C157.348 82.5394 156.59 82.5062 156.082 82.0465C155.687 81.6896 155.645 81.7969 155.513 83.502C155.434 84.5145 155.287 85.5552 155.185 85.8144C155.185 88.3177 154.498 90.5921 154.155 91.4164L157.812 93.2645L165.999 97.404C172.853 100.87 174.278 101.683 174.756 102.404L175.326 103.264V127.303V152.331L128.393 177.456C117.982 181.903 106.85 183.131 95.0786 181.132C83.3252 179.136 71.619 172.912 63.5162 164.352C55.5401 155.926 50.3861 144.936 48.7207 132.805C48.5269 131.393 48.3907 127.944 48.3907 124.452C48.3907 120.959 48.5269 117.51 48.7207 116.098C49.4533 110.761 51.1799 104.433 53.0832 100.108L53.1632 99.9259C53.9242 98.1971 54.1149 97.7639 53.9994 97.6548C53.9608 97.6183 53.8879 97.6181 53.7907 97.6178C53.7808 97.6177 53.7705 97.6177 53.7601 97.6176C53.1839 97.6133 47.89 94.9306 47.043 94.2135C45.9221 93.2648 45.47 92.3097 45.47 90.8912C45.47 89.4017 46.1798 88.2024 47.4047 87.621C48.6342 87.0375 49.8112 87.2537 52.3448 88.5274L54.3764 89.5488C55.017 89.8709 56.107 90.362 56.5719 90.5674C57.0762 90.7187 57.7295 90.9865 58.4942 91.2999C60.2871 92.0347 62.6921 93.0205 65.2241 93.345C67.1269 93.589 68.0503 93.5809 70.0055 93.3027C74.2439 92.6995 74.8795 92.9281 78.1239 96.2241C81.806 99.9649 85.2027 102.104 89.9697 103.683C97.4603 106.165 109.003 106.885 118.119 105.441C126.994 104.033 133.89 101.864 138.734 98.9547C147.887 93.4577 152.078 85.2879 150.67 75.6869C149.912 70.5197 148.134 66.5073 144.489 61.7444C142.655 59.3483 139.325 56.0981 137.103 54.5368C133.334 51.8875 128.1 49.8733 121.96 48.7089C119.476 48.2381 118.136 48.1495 113.562 48.1536C107.358 48.1591 104.244 48.5411 99.298 49.9032C90.7316 52.2624 84.3712 55.751 78.8246 61.1323L76.614 63.2769L75.6156 62.9779C74.4922 62.6413 73.3144 61.4121 73.3144 60.5762C73.3144 60.2714 73.0846 59.6252 72.8034 59.14C71.4144 56.7425 71.339 55.9776 72.4642 55.6951C72.8793 55.5911 73.0373 55.408 72.9545 55.1278C72.8871 54.9003 72.7618 54.4186 72.676 54.0573C72.5477 53.5172 72.313 53.3595 71.359 53.1714C70.0303 52.9091 69.3322 52.1639 69.1051 50.7656C68.9193 49.6202 69.4689 49.0188 70.7016 49.0188C71.4139 49.0188 71.5653 48.937 71.443 48.6183C71.3585 48.3981 71.2894 47.8944 71.2894 47.499C71.2894 46.9008 71.1395 46.7305 70.3991 46.4859C69.341 46.1369 68.7581 45.1636 68.7581 43.7466C68.7581 42.6179 69.0636 42.266 70.1503 42.1432C70.8292 42.0668 70.918 41.9554 70.9892 41.0937C71.0557 40.286 70.9223 39.9681 70.1665 39.1312C69.4681 38.3582 69.2643 37.917 69.2643 37.1773C69.2643 35.9949 69.8607 35.0966 70.6454 35.0966C71.1752 35.0966 71.2823 34.9009 71.6478 33.2614C72.0445 31.4831 72.9357 29.3257 73.6215 28.484C74.8023 27.0344 77.2866 26.5648 78.8223 27.5014C80.3097 28.4081 80.6942 29.351 80.5773 31.8059C80.5208 32.9893 80.2783 35.1535 80.0381 36.6154C79.4458 40.2215 79.5979 45.618 80.3917 49.1739L80.9633 51.7341L83.6568 50.0801C89.8874 46.2546 96.8181 43.7147 104.07 42.5996C108.355 41.9407 108.886 41.8995 112.994 41.9045C118.77 41.9116 124.601 42.8358 128.266 44.3252L129.84 44.9646L129.674 42.1189C129.45 38.2807 128.79 35.1469 127.217 30.4668C125.794 26.2335 125.748 25.6189 126.731 24.0074ZM128.756 118.791L113.441 112.301C107.53 112.969 103.577 113.316 98.3817 111.974C97.3261 111.701 96.1135 111.388 94.6407 111.04L94.3243 128.157C94.3243 128.157 93.5758 129.549 101.291 129.169V116.776L123.526 125.753L123.591 159.026L101.29 148.18L101.291 148.18L101.238 148.155L101.237 148.188C98.7307 148.56 96.7173 148.554 94.3243 147.8V153.05L101.057 156.635L123.591 167.599L128.393 170.177L133.778 167.599L170.264 148.88V105.441L150.848 95.3541L145.462 100.819L156.339 105.441L128.756 118.791ZM57.937 105.72C58.9085 102.936 60.1392 100.177 60.7508 99.4133C60.9859 99.1197 61.0507 99.1653 61.1115 99.6665C61.2887 101.134 62.1962 101.923 63.7074 101.923C64.3875 101.923 65.4674 101.185 65.4674 100.721C65.4674 100.616 66.1936 100.531 67.0811 100.531C68.5708 100.531 68.7252 100.584 69.0892 101.218C69.8888 102.611 71.8341 102.42 72.6707 100.866L73.1661 99.9462L75.3286 102.148C78.3978 105.273 81.3984 107.16 86.2241 109.003L88.6288 109.921L88.6653 116.355L88.6677 116.776V116.776C88.6904 120.713 88.6993 122.254 88.4192 122.308C88.2392 122.343 87.9397 121.764 87.4477 120.813L87.3657 120.655C85.8674 117.762 83.4786 116.845 81.8776 118.549C81.4032 119.054 81.288 119.457 81.288 120.615C81.288 121.853 81.4445 122.326 82.4188 124.028C84.6711 127.965 88.7083 131.537 92.8592 133.265C93.3569 133.472 93.8403 133.654 94.3243 133.812C96.7911 134.619 99.2749 134.818 103.764 134.662L104.45 134.639L108.373 134.503L109.677 135.164C111.933 136.309 112.553 137.662 111.565 139.282C110.925 140.331 109.286 141.251 106.57 142.085C104.507 142.719 103.98 142.776 100.146 142.773C95.1616 142.771 93.3563 142.372 89.3551 140.39C84.9382 138.202 81.8092 135.725 78.5811 131.86C76.0657 128.849 74.7137 128.301 73.4635 129.787C72.7588 130.625 72.6614 131.381 73.0694 132.85C73.3924 134.013 75.0076 136.451 76.6322 138.229C77.0601 138.697 78.8382 139.98 80.8997 141.467C84.3642 143.967 88.6288 146.889 88.6288 146.889V156.255C88.6288 156.255 92.4313 158.28 94.3243 159.026L123.06 172.961L121.392 173.376C110.742 176.618 99.2325 176.328 87.9851 172.534C75.2314 168.232 64.5776 158.447 59.2733 146.162C55.8287 138.184 54.6321 131.746 54.9136 122.704C55.1267 115.858 55.8838 111.605 57.937 105.72Z" fill="#FFCD9C"/>
</svg>
