<svg width="217" height="217" viewBox="0 0 217 217" fill="none" xmlns="http://www.w3.org/2000/svg">
<rect x="0.909607" y="0.452759" width="215.921" height="215.921" rx="107.96" fill="#FFCD9C"/>
<path d="M60.7822 88.738C61.0197 88.9664 62.2894 89.1218 63.331 89.0501C63.6262 89.0299 64.4397 88.5578 65.1394 88.0009C65.8388 87.444 66.4602 86.9884 66.5207 86.9884C66.581 86.9884 66.5797 87.3347 66.5177 87.7577C66.3838 88.6689 67.0275 89.5197 67.8504 89.5197C69.9035 89.5197 72.7616 87.7323 73.2955 86.1148C73.6942 84.9069 73.2459 83.4076 72.1615 82.3234C71.459 81.621 70.9277 81.3795 69.3241 81.0337C64.7111 80.0389 60.3676 78.2131 57.3222 75.9886C56.2175 75.1816 56.1464 75.0571 56.037 73.736C55.9006 72.0911 55.5303 71.5474 54.5469 71.5474C53.849 71.5474 53.6201 71.7036 52.9772 72.6179C52.6957 73.0184 52.5522 72.966 51.2972 72.0038C48.7641 70.0623 47.2296 69.2692 46.0062 69.2692C43.9166 69.2692 42.4092 70.7832 42.4232 72.8682C42.4368 74.9148 44.0579 76.8004 48.1763 79.5605C49.9672 80.7606 50.2646 81.0616 50.2646 81.6734C50.2646 82.1594 50.513 82.5961 51.0435 83.0423C51.9852 83.8349 52.8676 83.8792 53.5771 83.1697C54.0398 82.7069 54.1958 82.6793 54.841 82.9467C55.5212 83.2284 55.565 83.3253 55.4199 84.2326C55.2359 85.383 55.5571 85.8858 56.8101 86.4095C57.2776 86.6052 57.6194 86.7935 57.5695 86.8284C58.177 87.3993 59.9644 88.3394 60.7822 88.738Z" fill="#15002E"/>
<path fill-rule="evenodd" clip-rule="evenodd" d="M54.4099 43.8762C54.9215 42.5366 55.7105 41.7519 57.0118 41.2879C57.0885 41.2606 57.1595 41.2351 57.2257 41.2113C57.6927 41.0434 57.9177 40.9625 58.1446 40.9568C58.3555 40.9516 58.5681 41.0113 58.9782 41.1265L58.9788 41.1266C59.041 41.1441 59.1077 41.1629 59.1797 41.1829C60.3144 41.498 61.533 42.4786 62.0626 43.5028C62.2765 43.9164 62.7845 46.0622 63.1918 48.2713C64.0188 52.7562 64.2818 53.6419 65.8411 57.1906C67.2226 60.3347 68.8371 62.9599 71.1867 65.8829C73.457 68.7073 73.8023 69.3475 73.8043 70.7374C73.8083 73.5656 71.1803 75.3358 66.9713 75.3401C65.2419 75.3416 63.4274 74.9629 63.4274 74.6004C63.4274 74.4827 63.997 73.9519 64.6931 73.4211C65.3892 72.8903 65.9588 72.3721 65.9588 72.2698C65.9588 71.856 65.4712 71.8299 64.7217 72.204C63.3034 72.9115 61.4391 72.0496 60.7331 70.36C60.3041 69.3335 60.6012 68.5936 61.5363 68.3587C61.5743 68.3492 61.6103 68.3403 61.6444 68.3319C61.9004 68.2689 62.0467 68.2329 62.0972 68.143C62.1647 68.023 62.0612 67.8069 61.8193 67.302C61.7953 67.2518 61.7699 67.1988 61.7431 67.1427C61.333 66.2828 61.2994 66.2676 60.1056 66.4091C58.5689 66.5911 57.8631 66.1646 57.1027 64.5937C56.5765 63.5067 56.5674 63.3974 56.9531 62.8086C57.1792 62.4638 57.6016 62.1816 57.8917 62.1816C58.3261 62.1816 58.3919 62.0712 58.2636 61.5599C57.8482 59.9044 57.6469 59.6503 56.7519 59.6503C56.0829 59.6503 55.713 59.4533 55.1245 58.783C54.7058 58.3061 54.2877 57.5726 54.1955 57.1526C54.0365 56.4287 54.3765 55.3516 54.7666 55.3432C54.8661 55.341 55.0931 55.2471 55.2708 55.1342C55.526 54.9722 55.4576 54.4262 54.946 52.5434C54.071 49.324 53.8285 45.3993 54.4099 43.8762ZM136.685 71.0918C137.165 70.1679 138.05 69.3753 139.115 68.9131C140.319 68.3914 141.482 68.4167 142.604 68.9893C143.764 69.5813 144.297 70.1562 144.799 71.3586C145.896 73.9835 144.304 76.7806 141.319 77.4732C139.779 77.8306 137.518 76.6561 136.7 75.0738C136.229 74.1638 136.221 71.9831 136.685 71.0918ZM97.229 86.5097C95.6538 84.2875 96.5076 80.9935 98.9458 79.8863C101.913 78.5391 104.952 80.1432 105.603 83.4018C105.922 84.998 104.69 87.096 102.894 88.0121C100.868 89.0456 98.6002 88.4442 97.229 86.5097ZM125.235 89.782C129.986 88.5295 134.78 86.2903 137.521 84.0432C138.432 83.2962 139.272 82.6852 139.387 82.6852C139.987 82.6852 140.886 83.3413 141.146 83.9688C141.618 85.1081 141.05 86.3351 139.211 88.147C135.48 91.8229 128.583 94.8101 121.371 95.8735C118.591 96.2836 112.44 96.2803 109.877 95.8677C106.823 95.3761 105.953 94.7689 105.953 93.1286C105.953 91.525 106.083 91.4878 111.922 91.4164C117.43 91.3491 120.912 90.9215 125.235 89.782Z" fill="#15002E"/>
<path d="M163.095 111.974L134.016 125.753V159.026L163.559 143.978L163.095 111.974Z" fill="#15002E"/>
<path fill-rule="evenodd" clip-rule="evenodd" d="M134.016 125.753V159.026L163.559 143.978L163.095 111.974L134.016 125.753Z" fill="#15002E"/>
<path fill-rule="evenodd" clip-rule="evenodd" d="M126.969 24.0074C127.264 23.5239 127.933 22.9645 128.551 22.6841C129.934 22.0558 130.602 22.0651 131.978 22.7314C133.242 23.3432 134.394 24.7896 135.225 26.8068C135.655 27.8515 135.919 28.161 136.512 28.3144C137.912 28.6774 138.308 30.7703 137.188 31.8904C136.553 32.5253 136.54 32.5984 136.833 33.8193C137.101 34.9363 137.193 35.0586 137.602 34.8394C138.273 34.4807 138.544 34.5268 139.114 35.0966C139.454 35.4368 139.62 35.9403 139.62 36.6321C139.62 37.9284 139.299 38.5316 138.347 39.0239C137.682 39.3674 137.595 39.5451 137.595 40.5483V41.684L138.556 41.5301C139.74 41.3411 140.237 41.8233 140.2 43.1264C140.167 44.2743 139.423 45.2686 138.398 45.5342C137.655 45.7271 137.595 45.8227 137.595 46.8143C137.595 47.6822 137.703 47.9344 138.164 48.1389C138.742 48.3951 138.818 48.7239 138.515 49.6724C138.378 50.1019 138.634 50.43 139.899 51.4443C140.753 52.129 141.512 52.6892 141.587 52.6892C141.85 52.6892 142.676 49.8746 143.297 46.858C143.709 44.8601 144 42.3278 144.142 39.5086C144.411 34.1775 144.729 33.4079 147.065 32.4316C148.406 31.8714 149.701 32.136 150.981 33.2315C152.947 34.9143 153.247 37.9625 152.132 44.9054C151.988 45.7959 152.029 45.9812 152.365 45.9812C152.588 45.9812 152.961 46.271 153.193 46.6254C153.545 47.1618 153.568 47.4286 153.332 48.2166C152.97 49.4225 152.17 50.2844 151.411 50.2844C150.657 50.2844 150.265 50.7621 150.079 51.9072C149.944 52.7411 149.982 52.8157 150.547 52.8157C151.763 52.8157 152.124 53.9275 151.378 55.3706C150.914 56.2677 149.929 56.7036 148.831 56.4975C148.126 56.3654 148.004 56.4342 147.717 57.126C147.41 57.8675 147.438 57.9421 148.317 58.7476C149.298 59.6462 149.389 59.9092 148.982 60.6696C148.78 61.047 148.893 61.4227 149.512 62.4276L150.298 63.7059L151.28 62.9281C152.488 61.9717 154.849 59.3966 155.874 57.9183C156.676 56.7618 156.74 56.392 156.444 54.6535C156.319 53.9237 156.362 53.4577 156.578 53.198C156.988 52.7031 158.206 52.7066 158.703 53.2038C159.052 53.5521 159.166 53.4556 159.83 52.2545C162.049 48.2411 162.862 47.4577 164.812 47.4577C167.9 47.4577 169.16 50.7094 167.462 54.2986C167.043 55.1835 166.071 56.8218 165.301 57.9389C163.971 59.8702 163.923 59.9933 164.331 60.4436C165.011 61.1949 164.428 62.765 163.158 63.6054C162.286 64.1831 162.069 64.2284 161.36 63.9813C160.269 63.6009 160.247 63.6067 159.9 64.3686C159.634 64.9521 159.668 65.1136 160.16 65.6381C160.897 66.4225 160.593 67.3953 159.39 68.0975L158.534 68.5979L157.426 68.0099C156.816 67.6867 156.243 67.4961 156.153 67.5864C156.062 67.6768 156.114 68.1608 156.268 68.662C156.436 69.2098 156.462 69.7995 156.332 70.141C156.099 70.7538 154.776 71.4333 154.226 71.2224C153.968 71.1232 154.006 71.5439 154.393 73.0287C154.67 74.0937 154.931 75.0095 154.973 75.0642C155.107 75.2401 158.182 74.0321 159.617 73.2391C162.327 71.7421 162.406 71.6568 162.347 70.2926C162.316 69.572 162.432 68.9042 162.632 68.664C163.062 68.1453 164.517 68.1355 164.943 68.6483C165.122 68.8637 165.335 68.9493 165.417 68.8382C166.214 67.7603 168.819 65.7208 169.705 65.4824C171.797 64.9189 173.792 66.5124 173.792 68.746C173.792 70.5415 172.692 72.039 168.983 75.2897C166.422 77.5347 165.941 77.764 164.911 77.2317C163.867 76.6915 163.626 76.9394 163.815 78.363C163.971 79.537 163.95 79.5881 163.095 80.1161C161.946 80.8264 161.256 80.8031 160.48 80.0273C159.488 79.0355 158.707 79.217 159.133 80.3399C159.458 81.1947 159.237 81.7868 158.461 82.1404C157.586 82.5394 156.828 82.5062 156.32 82.0465C155.925 81.6896 155.883 81.7969 155.751 83.502C155.673 84.5145 155.525 85.5552 155.423 85.8144C155.423 88.3177 154.736 90.5921 154.393 91.4164L158.05 93.2645L166.237 97.404C173.091 100.87 174.516 101.683 174.994 102.404L175.564 103.264V127.303V152.331L128.631 177.456C118.22 181.903 107.088 183.131 95.3169 181.132C83.5635 179.136 71.8572 172.912 63.7545 164.352C55.7783 155.926 50.6243 144.936 48.959 132.805C48.7651 131.393 48.6289 127.944 48.6289 124.452C48.6289 120.959 48.7651 117.51 48.959 116.098C49.6916 110.761 51.4182 104.433 53.3215 100.108L53.4014 99.9259C54.1624 98.1971 54.3531 97.7639 54.2376 97.6548C54.199 97.6183 54.1262 97.6181 54.029 97.6178C54.019 97.6177 54.0088 97.6177 53.9983 97.6176C53.4222 97.6133 48.1282 94.9306 47.2812 94.2135C46.1604 93.2648 45.7083 92.3097 45.7083 90.8912C45.7083 89.4017 46.4181 88.2024 47.643 87.621C48.8724 87.0375 50.0495 87.2537 52.5831 88.5274L54.6147 89.5488C55.2553 89.8709 56.3452 90.362 56.8101 90.5674C57.3144 90.7187 57.9677 90.9865 58.7324 91.2999C60.5253 92.0347 62.9304 93.0205 65.4624 93.345C67.3652 93.589 68.2886 93.5809 70.2438 93.3027C74.4822 92.6995 75.1178 92.9281 78.3622 96.2241C82.0442 99.9649 85.441 102.104 90.2079 103.683C97.6986 106.165 109.241 106.885 118.357 105.441C127.232 104.033 134.128 101.864 138.973 98.9547C148.126 93.4577 152.316 85.2879 150.908 75.6869C150.151 70.5197 148.372 66.5073 144.727 61.7444C142.894 59.3483 139.563 56.0981 137.342 54.5368C133.572 51.8875 128.338 49.8733 122.198 48.7089C119.715 48.2381 118.374 48.1495 113.8 48.1536C107.596 48.1591 104.482 48.5411 99.5363 49.9032C90.9698 52.2624 84.6094 55.751 79.0628 61.1323L76.8522 63.2769L75.8539 62.9779C74.7305 62.6413 73.5527 61.4121 73.5527 60.5762C73.5527 60.2714 73.3228 59.6252 73.0416 59.14C71.6527 56.7425 71.5772 55.9776 72.7024 55.6951C73.1175 55.5911 73.2755 55.408 73.1927 55.1278C73.1254 54.9003 73.0001 54.4186 72.9143 54.0573C72.7859 53.5172 72.5513 53.3595 71.5972 53.1714C70.2686 52.9091 69.5704 52.1639 69.3434 50.7656C69.1576 49.6202 69.7071 49.0188 70.9399 49.0188C71.6522 49.0188 71.8035 48.937 71.6813 48.6183C71.5967 48.3981 71.5276 47.8944 71.5276 47.499C71.5276 46.9008 71.3778 46.7305 70.6374 46.4859C69.5793 46.1369 68.9963 45.1636 68.9963 43.7466C68.9963 42.6179 69.3019 42.266 70.3885 42.1432C71.0674 42.0668 71.1563 41.9554 71.2274 41.0937C71.294 40.286 71.1606 39.9681 70.4047 39.1312C69.7064 38.3582 69.5026 37.917 69.5026 37.1773C69.5026 35.9949 70.099 35.0966 70.8837 35.0966C71.4135 35.0966 71.5205 34.9009 71.8861 33.2614C72.2827 31.4831 73.174 29.3257 73.8597 28.484C75.0406 27.0344 77.5248 26.5648 79.0606 27.5014C80.548 28.4081 80.9325 29.351 80.8155 31.8059C80.7591 32.9893 80.5166 35.1535 80.2763 36.6154C79.684 40.2215 79.8361 45.618 80.63 49.1739L81.2015 51.7341L83.8951 50.0801C90.1257 46.2546 97.0564 43.7147 104.308 42.5996C108.594 41.9407 109.124 41.8995 113.232 41.9045C119.008 41.9116 124.839 42.8358 128.505 44.3252L130.078 44.9646L129.912 42.1189C129.689 38.2807 129.028 35.1469 127.455 30.4668C126.033 26.2335 125.986 25.6189 126.969 24.0074ZM128.994 118.791L113.679 112.301C107.768 112.969 103.816 113.316 98.6199 111.974C97.5644 111.701 96.3517 111.388 94.8789 111.04L94.5625 128.157C94.5625 128.157 93.8141 129.549 101.529 129.169V116.776L123.764 125.753L123.829 159.026L101.528 148.18L101.529 148.18L101.476 148.155L101.475 148.188C98.9689 148.56 96.9556 148.554 94.5625 147.8V153.05L101.296 156.635L123.829 167.599L128.631 170.177L134.016 167.599L170.502 148.88V105.441L151.086 95.3541L145.7 100.819L156.578 105.441L128.994 118.791ZM58.1752 105.72C59.1468 102.936 60.3775 100.177 60.989 99.4133C61.2242 99.1197 61.289 99.1653 61.3497 99.6665C61.5269 101.134 62.4344 101.923 63.9456 101.923C64.6258 101.923 65.7056 101.185 65.7056 100.721C65.7056 100.616 66.4319 100.531 67.3193 100.531C68.809 100.531 68.9634 100.584 69.3274 101.218C70.1271 102.611 72.0724 102.42 72.909 100.866L73.4043 99.9462L75.5668 102.148C78.6361 105.273 81.6367 107.16 86.4623 109.003L88.8671 109.921L88.9035 116.355L88.906 116.776V116.776C88.9287 120.713 88.9376 122.254 88.6575 122.308C88.4774 122.343 88.1779 121.764 87.686 120.813L87.604 120.655C86.1057 117.762 83.7169 116.845 82.1158 118.549C81.6415 119.054 81.5263 119.457 81.5263 120.615C81.5263 121.853 81.6827 122.326 82.657 124.028C84.9094 127.965 88.9466 131.537 93.0974 133.265C93.5952 133.472 94.0785 133.654 94.5625 133.812C97.0294 134.619 99.5131 134.818 104.002 134.662L104.688 134.639L108.611 134.503L109.915 135.164C112.171 136.309 112.791 137.662 111.803 139.282C111.164 140.331 109.524 141.251 106.808 142.085C104.746 142.719 104.218 142.776 100.385 142.773C95.3999 142.771 93.5946 142.372 89.5933 140.39C85.1764 138.202 82.0475 135.725 78.8193 131.86C76.304 128.849 74.952 128.301 73.7018 129.787C72.9971 130.625 72.8996 131.381 73.3077 132.85C73.6306 134.013 75.2459 136.451 76.8705 138.229C77.2983 138.697 79.0765 139.98 81.1379 141.467C84.6024 143.967 88.8671 146.889 88.8671 146.889V156.255C88.8671 156.255 92.6695 158.28 94.5625 159.026L123.298 172.961L121.63 173.376C110.98 176.618 99.4707 176.328 88.2234 172.534C75.4696 168.232 64.8159 158.447 59.5115 146.162C56.0669 138.184 54.8704 131.746 55.1518 122.704C55.365 115.858 56.1221 111.605 58.1752 105.72Z" fill="#15002E"/>
</svg>
