<svg width="423" height="123" viewBox="0 0 423 123" fill="none" xmlns="http://www.w3.org/2000/svg">
<path d="M379.392 122.678C354.224 122.678 336.418 104.008 336.418 77.8007C336.418 51.5938 354.224 32.9236 379.392 32.9236C404.559 32.9236 422.536 51.5938 422.536 77.8007C422.536 104.008 404.559 122.678 379.392 122.678ZM379.392 105.035C393.602 105.035 403.875 93.7303 403.875 77.8007C403.875 61.5285 393.602 50.0522 379.392 50.0522C365.181 50.0522 355.08 61.5285 355.08 77.8007C355.08 93.7303 365.181 105.035 379.392 105.035Z" fill="#E68476"/>
<path d="M310.272 34.9788H328.249V120.622H310.272V34.9788ZM319.346 25.2155C312.327 25.2155 307.362 19.9056 307.362 12.7115C307.362 5.5175 312.327 0.378906 319.346 0.378906C326.366 0.378906 331.331 5.5175 331.331 12.7115C331.331 19.9056 326.366 25.2155 319.346 25.2155Z" fill="#E68476"/>
<path d="M288.057 121.992C280.867 121.992 275.559 116.511 275.559 109.146C275.559 101.609 280.867 96.2993 288.057 96.2993C295.419 96.2993 300.555 101.609 300.555 109.146C300.555 116.511 295.419 121.992 288.057 121.992Z" fill="#E68476"/>
<path d="M249.067 120.622V4.14722H267.044V120.622H249.067Z" fill="#E68476"/>
<path d="M197.961 122.678C172.793 122.678 154.988 104.008 154.988 77.8007C154.988 51.5938 172.793 32.9236 197.961 32.9236C223.128 32.9236 241.105 51.5938 241.105 77.8007C241.105 104.008 223.128 122.678 197.961 122.678ZM197.961 105.035C212.171 105.035 222.444 93.7303 222.444 77.8007C222.444 61.5285 212.171 50.0522 197.961 50.0522C183.751 50.0522 173.649 61.5285 173.649 77.8007C173.649 93.7303 183.751 105.035 197.961 105.035Z" fill="#E68476"/>
<path d="M74.27 120.622L106.457 76.944L75.4685 34.9788H98.4104L117.072 62.5559L134.707 34.9788H157.477L127.687 76.944L159.874 120.622H136.932L116.901 90.9895L97.8968 120.622H74.27Z" fill="#E68476"/>
<path d="M28.8941 122.678C12.1157 122.678 0.815918 112.572 0.815918 97.6699C0.815918 86.1937 9.71875 76.6017 23.2442 74.0324L50.2951 68.7225C52.8632 68.3799 54.5753 66.4958 54.5753 64.269C54.5753 55.5334 48.2406 49.1958 39.3378 49.1958C30.0925 49.1958 22.9018 55.7047 22.217 65.468L3.72646 61.0146C6.46579 44.5711 20.8473 32.9236 38.4817 32.9236C58.3419 32.9236 72.5522 46.2839 72.5522 64.7829V103.494L72.8946 120.622H58.6843L55.6026 108.975C50.2951 117.368 40.5362 122.678 28.8941 122.678ZM20.1625 95.2719C20.1625 101.438 25.1275 105.549 33.3455 105.549C45.3301 105.549 54.5753 96.8135 54.5753 83.967V80.0274C52.8632 80.37 50.9799 80.8838 49.0967 81.2264L30.4349 84.6521C24.1002 85.8512 20.1625 89.962 20.1625 95.2719Z" fill="#E68476"/>
</svg>
