<svg width="217" height="217" viewBox="0 0 217 217" fill="none" xmlns="http://www.w3.org/2000/svg">
<rect x="0.757568" y="0.568115" width="215.921" height="215.921" rx="107.96" fill="#E68476"/>
<path d="M60.6302 88.8534C60.8676 89.0817 62.1373 89.2371 63.1789 89.1655C63.4741 89.1452 64.2876 88.6732 64.9873 88.1163C65.6867 87.5594 66.3081 87.1038 66.3686 87.1038C66.4289 87.1038 66.4276 87.45 66.3656 87.873C66.2317 88.7843 66.8754 89.6351 67.6983 89.6351C69.7515 89.6351 72.6096 87.8477 73.1434 86.2302C73.5421 85.0223 73.0938 83.523 72.0094 82.4388C71.307 81.7364 70.7756 81.4949 69.1721 81.1491C64.559 80.1543 60.2155 78.3285 57.1701 76.104C56.0655 75.297 55.9943 75.1724 55.885 73.8513C55.7485 72.2065 55.3782 71.6628 54.3948 71.6628C53.6969 71.6628 53.4681 71.819 52.8251 72.7333C52.5436 73.1337 52.4001 73.0813 51.1451 72.1192C48.612 70.1777 47.0775 69.3846 45.8542 69.3846C43.7646 69.3846 42.2572 70.8986 42.2711 72.9836C42.2848 75.0302 43.9058 76.9157 48.0242 79.6759C49.8151 80.876 50.1126 81.1769 50.1126 81.7888C50.1126 82.2748 50.3609 82.7114 50.8915 83.1577C51.8331 83.9502 52.7155 83.9945 53.425 83.285C53.8878 82.8223 54.0437 82.7947 54.6889 83.062C55.3691 83.3437 55.4129 83.4407 55.2678 84.3479C55.0838 85.4984 55.405 86.0011 56.658 86.5248C57.1256 86.7205 57.4673 86.9088 57.4174 86.9438C58.0249 87.5146 59.8124 88.4547 60.6302 88.8534Z" fill="#15002E"/>
<path fill-rule="evenodd" clip-rule="evenodd" d="M54.2578 43.9915C54.7694 42.652 55.5584 41.8673 56.8598 41.4033C56.9364 41.3759 57.0074 41.3504 57.0736 41.3266C57.5407 41.1587 57.7657 41.0779 57.9925 41.0722C58.2035 41.0669 58.416 41.1266 58.8261 41.2418L58.8267 41.242C58.8889 41.2595 58.9556 41.2782 59.0276 41.2982C60.1624 41.6134 61.3809 42.594 61.9105 43.6182C62.1244 44.0318 62.6324 46.1776 63.0397 48.3866C63.8667 52.8716 64.1297 53.7573 65.689 57.3059C67.0706 60.4501 68.685 63.0753 71.0346 65.9982C73.3049 68.8226 73.6502 69.4628 73.6522 70.8527C73.6563 73.681 71.0283 75.4511 66.8192 75.4554C65.0898 75.4569 63.2754 75.0783 63.2754 74.7158C63.2754 74.5981 63.8449 74.0673 64.541 73.5364C65.2371 73.0056 65.8067 72.4875 65.8067 72.3852C65.8067 71.9713 65.3192 71.9453 64.5696 72.3194C63.1513 73.0269 61.287 72.165 60.5811 70.4753C60.152 69.4489 60.4492 68.709 61.3842 68.4741C61.4222 68.4645 61.4583 68.4557 61.4924 68.4473C61.7483 68.3843 61.8947 68.3483 61.9452 68.2584C62.0126 68.1383 61.9091 67.9222 61.6673 67.4174C61.6432 67.3672 61.6178 67.3141 61.591 67.258C61.181 66.3982 61.1473 66.383 59.9535 66.5245C58.4168 66.7065 57.7111 66.2799 56.9507 64.709C56.4244 63.6221 56.4153 63.5127 56.8011 62.9239C57.0271 62.5792 57.4496 62.2969 57.7397 62.2969C58.174 62.2969 58.2398 62.1866 58.1115 61.6752C57.6961 60.0198 57.4949 59.7656 56.5998 59.7656C55.9308 59.7656 55.561 59.5687 54.9724 58.8984C54.5538 58.4215 54.1356 57.6879 54.0434 57.268C53.8845 56.544 54.2244 55.4669 54.6145 55.4586C54.714 55.4563 54.941 55.3624 55.1187 55.2495C55.3739 55.0875 55.3056 54.5415 54.794 52.6587C53.9189 49.4394 53.6764 45.5146 54.2578 43.9915ZM136.533 71.2071C137.013 70.2832 137.898 69.4907 138.963 69.0284C140.167 68.5067 141.33 68.5321 142.452 69.1046C143.612 69.6967 144.145 70.2716 144.647 71.4739C145.744 74.0989 144.152 76.896 141.167 77.5886C139.627 77.946 137.366 76.7715 136.548 75.1891C136.077 74.2791 136.069 72.0984 136.533 71.2071ZM97.0769 86.6251C95.5017 84.4028 96.3555 81.1088 98.7937 80.0017C101.761 78.6545 104.799 80.2586 105.451 83.5171C105.77 85.1134 104.537 87.2113 102.742 88.1274C100.716 89.1609 98.4482 88.5595 97.0769 86.6251ZM125.083 89.8973C129.834 88.6448 134.628 86.4056 137.369 84.1586C138.28 83.4116 139.12 82.8005 139.235 82.8005C139.835 82.8005 140.734 83.4566 140.994 84.0842C141.466 85.2235 140.898 86.4504 139.059 88.2623C135.328 91.9383 128.431 94.9255 121.219 95.9889C118.439 96.399 112.288 96.3957 109.725 95.9831C106.671 95.4915 105.801 94.8842 105.801 93.2439C105.801 91.6404 105.931 91.6032 111.77 91.5318C117.278 91.4644 120.76 91.0369 125.083 89.8973Z" fill="#15002E"/>
<path d="M162.943 112.089L133.864 125.868V159.141L163.407 144.093L162.943 112.089Z" fill="#15002E"/>
<path fill-rule="evenodd" clip-rule="evenodd" d="M133.864 125.868V159.141L163.407 144.093L162.943 112.089L133.864 125.868Z" fill="#15002E"/>
<path fill-rule="evenodd" clip-rule="evenodd" d="M126.817 24.1228C127.112 23.6393 127.78 23.0799 128.399 22.7994C129.782 22.1711 130.45 22.1805 131.826 22.8467C133.09 23.4586 134.242 24.905 135.073 26.9222C135.503 27.9668 135.767 28.2764 136.36 28.4298C137.76 28.7928 138.156 30.8857 137.036 32.0058C136.401 32.6406 136.388 32.7138 136.681 33.9346C136.949 35.0517 137.041 35.174 137.45 34.9547C138.121 34.5961 138.392 34.6421 138.961 35.2119C139.302 35.5521 139.468 36.0556 139.468 36.7474C139.468 38.0437 139.147 38.6469 138.194 39.1393C137.53 39.4828 137.443 39.6604 137.443 40.6636V41.7994L138.404 41.6455C139.588 41.4564 140.085 41.9386 140.048 43.2417C140.015 44.3897 139.271 45.384 138.246 45.6495C137.503 45.8424 137.443 45.9381 137.443 46.9296C137.443 47.7976 137.551 48.0497 138.012 48.2542C138.59 48.5104 138.666 48.8392 138.363 49.7877C138.226 50.2173 138.482 50.5453 139.747 51.5596C140.601 52.2443 141.36 52.8045 141.435 52.8045C141.698 52.8045 142.524 49.99 143.145 46.9734C143.557 44.9754 143.848 42.4431 143.99 39.624C144.259 34.2928 144.577 33.5233 146.913 32.547C148.254 31.9868 149.549 32.2513 150.829 33.3469C152.795 35.0297 153.095 38.0779 151.979 45.0208C151.836 45.9113 151.876 46.0966 152.213 46.0966C152.436 46.0966 152.809 46.3864 153.041 46.7408C153.392 47.2772 153.416 47.544 153.18 48.332C152.818 49.5379 152.018 50.3998 151.259 50.3998C150.505 50.3998 150.113 50.8774 149.927 52.0226C149.792 52.8564 149.83 52.9311 150.395 52.9311C151.611 52.9311 151.972 54.0428 151.226 55.4859C150.762 56.383 149.777 56.8189 148.679 56.6129C147.974 56.4807 147.851 56.5496 147.565 57.2414C147.258 57.9828 147.285 58.0575 148.165 58.863C149.146 59.7616 149.237 60.0246 148.83 60.785C148.628 61.1624 148.741 61.538 149.36 62.543L150.146 63.8213L151.128 63.0434C152.336 62.0871 154.697 59.512 155.722 58.0337C156.524 56.8771 156.588 56.5073 156.292 54.7688C156.167 54.039 156.21 53.573 156.425 53.3133C156.836 52.8184 158.054 52.822 158.551 53.3191C158.9 53.6674 159.014 53.571 159.678 52.3699C161.897 48.3565 162.71 47.5731 164.66 47.5731C167.748 47.5731 169.008 50.8248 167.31 54.4139C166.891 55.2989 165.919 56.9371 165.149 58.0542C163.819 59.9856 163.771 60.1086 164.179 60.5589C164.859 61.3102 164.276 62.8804 163.006 63.7208C162.134 64.2984 161.917 64.3437 161.208 64.0967C160.117 63.7162 160.095 63.7221 159.748 64.484C159.482 65.0674 159.515 65.2289 160.008 65.7534C160.745 66.5379 160.441 67.5107 159.238 68.2128L158.382 68.7133L157.273 68.1253C156.664 67.802 156.091 67.6114 156.001 67.7018C155.91 67.7921 155.962 68.2761 156.116 68.7773C156.284 69.3251 156.31 69.9149 156.18 70.2564C155.947 70.8692 154.624 71.5486 154.074 71.3377C153.815 71.2385 153.854 71.6592 154.241 73.1441C154.518 74.209 154.779 75.1248 154.821 75.1795C154.955 75.3554 158.03 74.1475 159.465 73.3544C162.175 71.8574 162.254 71.7721 162.195 70.408C162.164 69.6873 162.28 69.0196 162.48 68.7794C162.91 68.2607 164.365 68.2508 164.791 68.7637C164.97 68.9791 165.183 69.0646 165.265 68.9535C166.062 67.8757 168.667 65.8362 169.553 65.5978C171.645 65.0343 173.64 66.6277 173.64 68.8614C173.64 70.6568 172.54 72.1543 168.831 75.4051C166.269 77.6501 165.789 77.8794 164.759 77.3471C163.715 76.8069 163.474 77.0547 163.663 78.4783C163.819 79.6523 163.798 79.7035 162.943 80.2315C161.794 80.9418 161.104 80.9185 160.328 80.1427C159.336 79.1509 158.555 79.3324 158.981 80.4553C159.306 81.3101 159.085 81.9022 158.309 82.2558C157.434 82.6547 156.676 82.6216 156.168 82.1619C155.773 81.805 155.731 81.9123 155.599 83.6174C155.521 84.6299 155.373 85.6705 155.271 85.9297C155.271 88.4331 154.584 90.7075 154.241 91.5318L157.898 93.3799L166.085 97.5193C172.939 100.985 174.364 101.799 174.842 102.519L175.412 103.379V127.419V152.447L128.479 177.571C118.068 182.018 106.936 183.246 95.1648 181.247C83.4114 179.251 71.7051 173.027 63.6024 164.467C55.6263 156.041 50.4723 145.052 48.8069 132.92C48.613 131.509 48.4768 128.06 48.4768 124.567C48.4768 121.075 48.613 117.626 48.8069 116.214C49.5395 110.877 51.2661 104.548 53.1694 100.223L53.2494 100.041C54.0104 98.3124 54.201 97.8792 54.0856 97.7701C54.047 97.7337 53.9741 97.7334 53.8769 97.7331C53.867 97.7331 53.8567 97.733 53.8463 97.733C53.2701 97.7287 47.9762 95.046 47.1292 94.3289C46.0083 93.3801 45.5562 92.4251 45.5562 91.0065C45.5562 89.5171 46.266 88.3178 47.4909 87.7363C48.7204 87.1529 49.8974 87.369 52.431 88.6428L54.4626 89.6642C55.1032 89.9862 56.1931 90.4774 56.658 90.6827C57.1624 90.8341 57.8157 91.1019 58.5804 91.4153C60.3732 92.1501 62.7783 93.1358 65.3103 93.4604C67.2131 93.7044 68.1365 93.6963 70.0917 93.4181C74.3301 92.8149 74.9657 93.0435 78.2101 96.3395C81.8921 100.08 85.2889 102.219 90.0559 103.798C97.5465 106.28 109.089 107.001 118.205 105.556C127.08 104.149 133.976 101.979 138.82 99.07C147.973 93.573 152.164 85.4032 150.756 75.8022C149.998 70.6351 148.22 66.6227 144.575 61.8598C142.741 59.4636 139.411 56.2134 137.19 54.6521C133.42 52.0029 128.186 49.9887 122.046 48.8243C119.563 48.3535 118.222 48.2649 113.648 48.2689C107.444 48.2745 104.33 48.6565 99.3842 50.0186C90.8178 52.3777 84.4574 55.8664 78.9108 61.2477L76.7002 63.3922L75.7018 63.0933C74.5784 62.7566 73.4006 61.5274 73.4006 60.6916C73.4006 60.3868 73.1708 59.7406 72.8895 59.2553C71.5006 56.8579 71.4252 56.0929 72.5503 55.8105C72.9655 55.7064 73.1234 55.5234 73.0407 55.2432C72.9733 55.0156 72.848 54.5339 72.7622 54.1727C72.6339 53.6325 72.3992 53.4748 71.4452 53.2867C70.1165 53.0245 69.4184 52.2793 69.1913 50.881C69.0055 49.7356 69.555 49.1341 70.7878 49.1341C71.5001 49.1341 71.6515 49.0524 71.5292 48.7337C71.4447 48.5135 71.3756 48.0097 71.3756 47.6143C71.3756 47.0162 71.2257 46.8458 70.4853 46.6013C69.4272 46.2522 68.8443 45.2789 68.8443 43.8619C68.8443 42.7332 69.1498 42.3814 70.2365 42.2586C70.9154 42.1821 71.0042 42.0708 71.0753 41.2091C71.1419 40.4014 71.0085 40.0834 70.2527 39.2466C69.5543 38.4735 69.3505 38.0323 69.3505 37.2927C69.3505 36.1103 69.9469 35.2119 70.7316 35.2119C71.2614 35.2119 71.3685 35.0163 71.734 33.3767C72.1306 31.5985 73.0219 29.4411 73.7077 28.5994C74.8885 27.1497 77.3727 26.6802 78.9085 27.6167C80.3959 28.5235 80.7804 29.4664 80.6634 31.9212C80.607 33.1046 80.3645 35.2689 80.1243 36.7307C79.5319 40.3368 79.6841 45.7333 80.4779 49.2893L81.0495 51.8495L83.743 50.1955C89.9736 46.3699 96.9043 43.83 104.156 42.715C108.442 42.0561 108.972 42.0148 113.08 42.0199C118.856 42.027 124.687 42.9512 128.353 44.4406L129.926 45.08L129.76 42.2343C129.537 38.3961 128.876 35.2623 127.303 30.5822C125.88 26.3488 125.834 25.7342 126.817 24.1228ZM128.842 118.907L113.527 112.417C107.616 113.085 103.664 113.431 98.4678 112.089C97.4123 111.816 96.1997 111.503 94.7269 111.155L94.4105 128.273C94.4105 128.273 93.662 129.664 101.377 129.285V116.892L123.612 125.868L123.677 159.141L101.376 148.296L101.377 148.295L101.324 148.27L101.323 148.303C98.8169 148.675 96.8035 148.67 94.4105 147.916V153.166L101.144 156.75L123.677 167.714L128.479 170.292L133.864 167.714L170.35 148.996V105.556L150.934 95.4695L145.548 100.935L156.425 105.556L128.842 118.907ZM58.0232 105.835C58.9947 103.051 60.2254 100.292 60.837 99.5287C61.0721 99.235 61.1369 99.2806 61.1977 99.7818C61.3749 101.25 62.2823 102.038 63.7935 102.038C64.4737 102.038 65.5536 101.301 65.5536 100.836C65.5536 100.732 66.2798 100.646 67.1673 100.646C68.6569 100.646 68.8114 100.699 69.1754 101.333C69.975 102.726 71.9203 102.535 72.7569 100.982L73.2523 100.062L75.4148 102.263C78.484 105.388 81.4846 107.276 86.3103 109.118L88.715 110.036L88.7515 116.47L88.7539 116.891V116.892C88.7766 120.829 88.7855 122.369 88.5054 122.424C88.3253 122.459 88.0259 121.88 87.5339 120.929L87.4519 120.77C85.9536 117.877 83.5648 116.96 81.9638 118.665C81.4894 119.17 81.3742 119.573 81.3742 120.73C81.3742 121.968 81.5307 122.441 82.505 124.144C84.7573 128.081 88.7945 131.652 92.9453 133.38C93.4431 133.587 93.9264 133.769 94.4105 133.928C96.8773 134.735 99.3611 134.933 103.85 134.778L104.536 134.754L108.459 134.618L109.763 135.28C112.019 136.424 112.639 137.777 111.651 139.398C111.012 140.446 109.372 141.366 106.656 142.201C104.594 142.835 104.066 142.891 100.232 142.889C95.2478 142.886 93.4425 142.487 89.4413 140.506C85.0244 138.318 81.8954 135.841 78.6673 131.976C76.1519 128.964 74.7999 128.416 73.5497 129.902C72.845 130.74 72.7475 131.496 73.1556 132.965C73.4786 134.128 75.0938 136.567 76.7184 138.344C77.1463 138.812 78.9244 140.095 80.9859 141.582C84.4504 144.082 88.715 147.004 88.715 147.004V156.37C88.715 156.37 92.5175 158.395 94.4105 159.141L123.146 173.077L121.478 173.491C110.828 176.734 99.3187 176.444 88.0713 172.65C75.3176 168.348 64.6638 158.562 59.3594 146.277C55.9148 138.299 54.7183 131.861 54.9998 122.82C55.2129 115.973 55.97 111.72 58.0232 105.835Z" fill="#15002E"/>
</svg>
