<svg width="254" height="307" viewBox="0 0 254 307" fill="none" xmlns="http://www.w3.org/2000/svg">
<path d="M65.7744 84.9161C66.0753 85.2053 67.684 85.4022 69.0037 85.3115C69.3776 85.2858 70.4084 84.6877 71.2949 83.9822C72.181 83.2766 72.9684 82.6993 73.045 82.6993C73.1213 82.6993 73.1197 83.1381 73.0412 83.674C72.8715 84.8285 73.6871 85.9064 74.7297 85.9064C77.331 85.9064 80.9522 83.6419 81.6286 81.5926C82.1337 80.0622 81.5657 78.1626 80.1918 76.789C79.3018 75.8991 78.6286 75.5931 76.5969 75.155C70.7522 73.8947 65.2491 71.5814 61.3906 68.763C59.991 67.7406 59.9009 67.5828 59.7624 65.9091C59.5895 63.8251 59.1203 63.1363 57.8743 63.1363C56.9901 63.1363 56.7002 63.3341 55.8856 64.4925C55.529 64.9999 55.3471 64.9335 53.757 63.7145C50.5476 61.2547 48.6035 60.2499 47.0535 60.2499C44.406 60.2499 42.4962 62.168 42.5138 64.8097C42.5311 67.4026 44.585 69.7915 49.803 73.2885C52.072 74.809 52.4488 75.1903 52.4488 75.9655C52.4488 76.5812 52.7634 77.1344 53.4357 77.6998C54.6287 78.704 55.7467 78.7601 56.6457 77.8612C57.2319 77.2749 57.4295 77.2399 58.247 77.5786C59.1088 77.9356 59.1642 78.0584 58.9805 79.2078C58.7473 80.6654 59.1543 81.3023 60.7418 81.9659C61.3342 82.2138 61.7671 82.4524 61.704 82.4967C62.4737 83.2199 64.7383 84.4109 65.7744 84.9161Z" fill="#58A1C6"/>
<path fill-rule="evenodd" clip-rule="evenodd" d="M57.7008 28.0779C58.349 26.3808 59.3486 25.3866 60.9974 24.7987C61.0945 24.7641 61.1845 24.7318 61.2684 24.7016C61.8601 24.4889 62.1452 24.3865 62.4326 24.3793C62.6998 24.3726 62.9691 24.4482 63.4887 24.5942L63.4895 24.5944C63.5683 24.6165 63.6528 24.6403 63.744 24.6656C65.1818 25.0649 66.7257 26.3073 67.3966 27.6049C67.6676 28.1289 68.3113 30.8476 68.8273 33.6464C69.8751 39.3286 70.2083 40.4508 72.1839 44.9468C73.9343 48.9302 75.9799 52.2563 78.9567 55.9595C81.8332 59.5379 82.2706 60.349 82.2732 62.11C82.2783 65.6932 78.9487 67.9359 73.6159 67.9414C71.4248 67.9433 69.1259 67.4635 69.1259 67.0043C69.1259 66.8552 69.8475 66.1826 70.7295 65.5101C71.6114 64.8376 72.333 64.1811 72.333 64.0515C72.333 63.5272 71.7153 63.4942 70.7657 63.9682C68.9687 64.8645 66.6067 63.7725 65.7122 61.6318C65.1686 60.3314 65.5451 59.3939 66.7298 59.0963C66.778 59.0842 66.8236 59.073 66.8668 59.0624C67.1911 58.9826 67.3765 58.9369 67.4405 58.823C67.526 58.6709 67.3948 58.3971 67.0884 57.7576C67.058 57.6939 67.0258 57.6267 66.9919 57.5556C66.4723 56.4662 66.4297 56.447 64.9172 56.6262C62.9701 56.8568 62.076 56.3164 61.1126 54.3261C60.4458 52.949 60.4343 52.8105 60.923 52.0645C61.2094 51.6277 61.7447 51.2701 62.1122 51.2701C62.6626 51.2701 62.746 51.1303 62.5834 50.4825C62.0571 48.3851 61.8021 48.0631 60.6681 48.0631C59.8204 48.0631 59.3519 47.8136 58.6062 46.9643C58.0757 46.3601 57.5459 45.4307 57.4292 44.8987C57.2278 43.9814 57.6585 42.6168 58.1527 42.6062C58.2787 42.6034 58.5664 42.4844 58.7916 42.3413C59.1148 42.1361 59.0282 41.4443 58.3801 39.0589C57.2714 34.9802 56.9641 30.0076 57.7008 28.0779ZM161.942 62.559C162.551 61.3884 163.671 60.3843 165.021 59.7987C166.546 59.1377 168.02 59.1698 169.442 59.8952C170.911 60.6453 171.586 61.3736 172.223 62.897C173.612 66.2227 171.595 69.7665 167.813 70.644C165.862 71.0968 162.998 69.6087 161.961 67.604C161.364 66.4511 161.354 63.6882 161.942 62.559ZM111.952 82.0929C109.956 79.2774 111.038 75.104 114.127 73.7013C117.887 71.9945 121.736 74.0268 122.562 78.1552C122.966 80.1776 121.404 82.8356 119.129 83.9963C116.563 85.3057 113.689 84.5437 111.952 82.0929ZM147.435 86.2387C153.454 84.6518 159.528 81.8148 163.001 78.9679C164.156 78.0215 165.22 77.2473 165.365 77.2473C166.125 77.2473 167.265 78.0786 167.594 78.8736C168.192 80.3171 167.472 81.8716 165.142 84.1672C160.416 88.8245 151.677 92.6092 142.539 93.9565C139.018 94.476 131.224 94.4718 127.977 93.9491C124.108 93.3263 123.006 92.5569 123.006 90.4787C123.006 88.447 123.17 88.3999 130.568 88.3095C137.547 88.2241 141.957 87.6825 147.435 86.2387Z" fill="#58A1C6"/>
<path d="M195.404 114.355L158.561 131.812V173.968L195.992 154.903L195.404 114.355Z" fill="#58A1C6"/>
<path fill-rule="evenodd" clip-rule="evenodd" d="M158.561 131.812V173.968L195.992 154.903L195.404 114.355L158.561 131.812Z" fill="#58A1C6"/>
<path fill-rule="evenodd" clip-rule="evenodd" d="M149.632 2.90506C150.006 2.29251 150.853 1.58375 151.636 1.22841C153.389 0.432417 154.235 0.444282 155.978 1.28838C157.58 2.06353 159.04 3.89605 160.092 6.45175C160.637 7.77531 160.972 8.16753 161.722 8.36188C163.497 8.82177 163.998 11.4734 162.579 12.8925C161.775 13.6968 161.758 13.7895 162.129 15.3363C162.469 16.7516 162.585 16.9065 163.104 16.6287C163.954 16.1743 164.297 16.2326 165.019 16.9546C165.45 17.3856 165.66 18.0235 165.66 18.9C165.66 20.5423 165.254 21.3065 164.047 21.9303C163.206 22.3655 163.095 22.5906 163.095 23.8616V25.3006L164.313 25.1056C165.812 24.8661 166.442 25.477 166.395 27.128C166.354 28.5824 165.412 29.8421 164.113 30.1786C163.171 30.4229 163.095 30.5442 163.095 31.8004C163.095 32.9001 163.232 33.2195 163.816 33.4786C164.549 33.8032 164.644 34.2198 164.261 35.4215C164.087 35.9657 164.412 36.3813 166.014 37.6664C167.096 38.5339 168.058 39.2436 168.153 39.2436C168.486 39.2436 169.532 35.6777 170.319 31.8559C170.841 29.3245 171.21 26.1162 171.39 22.5445C171.731 15.7901 172.133 14.8151 175.094 13.5782C176.792 12.8684 178.433 13.2036 180.055 14.5916C182.546 16.7237 182.926 20.5856 181.513 29.3819C181.331 30.5102 181.382 30.7449 181.808 30.7449C182.091 30.7449 182.563 31.1121 182.858 31.5611C183.303 32.2407 183.332 32.5787 183.033 33.5771C182.575 35.1049 181.561 36.1969 180.6 36.1969C179.645 36.1969 179.148 36.8021 178.913 38.253C178.741 39.3094 178.79 39.404 179.505 39.404C181.045 39.404 181.504 40.8125 180.558 42.6409C179.97 43.7775 178.722 44.3297 177.331 44.0687C176.438 43.9013 176.282 43.9885 175.919 44.865C175.53 45.8043 175.565 45.8989 176.679 46.9194C177.923 48.0579 178.038 48.3911 177.522 49.3545C177.266 49.8327 177.41 50.3086 178.193 51.5818L179.19 53.2014L180.434 52.2159C181.964 51.0043 184.955 47.7417 186.254 45.8688C187.27 44.4035 187.352 43.9349 186.976 41.7323C186.818 40.8077 186.872 40.2173 187.146 39.8883C187.666 39.2613 189.209 39.2658 189.839 39.8956C190.281 40.3369 190.426 40.2147 191.267 38.693C194.077 33.6082 195.108 32.6156 197.579 32.6156C201.491 32.6156 203.087 36.7354 200.936 41.2827C200.405 42.4039 199.174 44.4795 198.199 45.8948C196.513 48.3418 196.453 48.4976 196.969 49.0682C197.83 50.02 197.092 52.0093 195.483 53.0741C194.378 53.8059 194.103 53.8633 193.205 53.5503C191.823 53.0683 191.795 53.0757 191.355 54.041C191.019 54.7803 191.061 54.9849 191.685 55.6494C192.619 56.6432 192.233 57.8757 190.709 58.7653L189.624 59.3994L188.22 58.6544C187.448 58.2448 186.722 58.0033 186.607 58.1178C186.493 58.2323 186.559 58.8455 186.754 59.4805C186.967 60.1745 186.999 60.9218 186.834 61.3544C186.539 62.1308 184.863 62.9916 184.167 62.7245C183.839 62.5988 183.888 63.1318 184.378 65.013C184.729 66.3622 185.059 67.5226 185.112 67.5918C185.283 67.8147 189.178 66.2843 190.997 65.2795C194.43 63.3829 194.531 63.2748 194.455 61.5465C194.416 60.6335 194.564 59.7874 194.816 59.4831C195.362 58.826 197.205 58.8135 197.744 59.4632C197.971 59.7361 198.241 59.8445 198.345 59.7037C199.355 58.3382 202.656 55.7542 203.778 55.4521C206.428 54.7382 208.957 56.7571 208.957 59.587C208.957 61.8618 207.562 63.7591 202.863 67.8776C199.618 70.7219 199.009 71.0125 197.704 70.338C196.381 69.6536 196.076 69.9676 196.315 71.7713C196.513 73.2587 196.486 73.3235 195.404 73.9925C193.948 74.8924 193.073 74.8629 192.09 73.8799C190.833 72.6234 189.843 72.8533 190.384 74.276C190.796 75.359 190.516 76.1091 189.532 76.5572C188.423 77.0626 187.463 77.0206 186.819 76.4382C186.319 75.986 186.266 76.122 186.098 78.2822C185.999 79.5651 185.812 80.8835 185.683 81.2119C185.683 84.3836 184.813 87.2651 184.378 88.3095L189.012 90.6509L199.384 95.8954C208.068 100.286 209.874 101.317 210.479 102.23L211.202 103.319V133.777V165.486L151.738 197.317C138.548 202.952 124.443 204.508 109.529 201.975C94.638 199.446 79.8063 191.561 69.5403 180.716C59.4346 170.04 52.9046 156.117 50.7946 140.747C50.5489 138.959 50.3764 134.589 50.3764 130.164C50.3764 125.739 50.5489 121.369 50.7946 119.581C51.7227 112.818 53.9103 104.801 56.3218 99.3209L56.4231 99.0906C57.3873 96.9002 57.6289 96.3514 57.4825 96.2132C57.4336 96.167 57.3413 96.1667 57.2182 96.1663C57.2056 96.1662 57.1926 96.1662 57.1793 96.1661C56.4494 96.1607 49.742 92.7618 48.6689 91.8533C47.2488 90.6512 46.676 89.4412 46.676 87.644C46.676 85.757 47.5753 84.2374 49.1272 83.5008C50.6849 82.7616 52.1762 83.0354 55.3862 84.6492L57.9603 85.9433C58.7719 86.3513 60.1528 86.9736 60.7418 87.2337C61.3808 87.4255 62.2085 87.7648 63.1774 88.1618C65.4489 89.0928 68.4961 90.3417 71.7041 90.7529C74.1149 91.0621 75.2849 91.0518 77.762 90.6994C83.1321 89.9351 83.9374 90.2247 88.0479 94.4006C92.713 99.14 97.0167 101.85 103.056 103.851C112.547 106.995 127.171 107.908 138.721 106.078C149.965 104.295 158.703 101.546 164.84 97.8601C176.437 90.8956 181.747 80.5448 179.963 68.3808C179.003 61.8342 176.749 56.7507 172.131 50.7163C169.808 47.6805 165.589 43.5626 162.774 41.5845C157.998 38.228 151.367 35.6761 143.588 34.2009C140.441 33.6043 138.742 33.4921 132.948 33.4972C125.087 33.5043 121.142 33.9882 114.875 35.7139C104.022 38.7029 95.9631 43.1229 88.9357 49.9408L86.1349 52.6578L84.87 52.2791C83.4467 51.8525 81.9544 50.2952 81.9544 49.2362C81.9544 48.8501 81.6632 48.0313 81.3069 47.4165C79.5471 44.3791 79.4516 43.4099 80.8771 43.052C81.4031 42.9202 81.6032 42.6883 81.4983 42.3333C81.413 42.045 81.2543 41.4347 81.1456 40.9771C80.983 40.2927 80.6857 40.0929 79.4769 39.8546C77.7935 39.5223 76.909 38.5782 76.6213 36.8066C76.3859 35.3554 77.0821 34.5934 78.644 34.5934C79.5465 34.5934 79.7383 34.4898 79.5834 34.086C79.4763 33.807 79.3887 33.1688 79.3887 32.6679C79.3887 31.9101 79.1988 31.6942 78.2608 31.3844C76.9202 30.9422 76.1816 29.709 76.1816 27.9137C76.1816 26.4837 76.5687 26.0379 77.9455 25.8824C78.8056 25.7855 78.9182 25.6444 79.0083 24.5527C79.0927 23.5294 78.9237 23.1265 77.966 22.0663C77.0812 21.0869 76.823 20.5279 76.823 19.5908C76.823 18.0927 77.5786 16.9546 78.5728 16.9546C79.2441 16.9546 79.3797 16.7067 79.8428 14.6294C80.3454 12.3765 81.4746 9.6431 82.3434 8.57675C83.8396 6.74007 86.987 6.14515 88.9328 7.33177C90.8173 8.48054 91.3045 9.67517 91.1563 12.7854C91.0848 14.2847 90.7775 17.0267 90.4732 18.8788C89.7227 23.4476 89.9155 30.2847 90.9212 34.79L91.6454 38.0336L95.0581 35.9381C102.952 31.0913 111.733 27.8733 120.921 26.4606C126.351 25.6258 127.023 25.5735 132.228 25.58C139.545 25.5889 146.934 26.7598 151.578 28.6469L153.571 29.457L153.361 25.8516C153.078 20.9887 152.241 17.0184 150.248 11.0888C148.446 5.72535 148.387 4.94668 149.632 2.90506ZM152.197 122.992L132.794 114.77C125.304 115.616 120.297 116.055 113.714 114.355C112.377 114.009 110.84 113.612 108.974 113.172L108.574 134.859C108.574 134.859 107.625 136.622 117.4 136.141V120.439L145.572 131.812L145.654 173.968L117.399 160.227L117.4 160.227L117.333 160.194L117.332 160.237C114.156 160.708 111.606 160.701 108.574 159.746V166.397L117.104 170.938L145.654 184.829L151.738 188.096L158.561 184.829L204.787 161.114V106.078L180.188 93.2984L173.364 100.222L187.146 106.078L152.197 122.992ZM62.4714 106.432C63.7023 102.904 65.2616 99.4088 66.0365 98.4412C66.3344 98.0692 66.4165 98.1269 66.4935 98.7619C66.718 100.622 67.8677 101.621 69.7824 101.621C70.6441 101.621 72.0123 100.686 72.0123 100.098C72.0123 99.9652 72.9324 99.8571 74.0569 99.8571C75.9442 99.8571 76.1399 99.9241 76.6011 100.728C77.6142 102.493 80.0789 102.251 81.1388 100.282L81.7665 99.1163L84.5063 101.906C88.395 105.865 92.1967 108.256 98.3107 110.591L101.358 111.754L101.404 119.906L101.407 120.439V120.439C101.436 125.427 101.447 127.379 101.092 127.448C100.864 127.493 100.484 126.759 99.8611 125.554L99.7572 125.353C97.8589 121.688 94.8323 120.526 92.8038 122.686C92.2028 123.325 92.0569 123.836 92.0569 125.302C92.0569 126.871 92.2551 127.47 93.4895 129.627C96.3432 134.615 101.458 139.14 106.717 141.33C107.348 141.592 107.96 141.822 108.574 142.023C111.699 143.046 114.846 143.298 120.533 143.1L121.402 143.07L126.373 142.898L128.025 143.736C130.884 145.186 131.669 146.9 130.417 148.954C129.607 150.282 127.529 151.448 124.089 152.505C121.476 153.308 120.807 153.379 115.95 153.377C109.634 153.373 107.347 152.868 102.278 150.357C96.6815 147.585 92.7172 144.447 88.6272 139.55C85.4402 135.735 83.7273 135.041 82.1433 136.923C81.2504 137.985 81.127 138.943 81.644 140.804C82.0532 142.277 84.0996 145.367 86.158 147.619C86.7001 148.212 88.953 149.837 91.5648 151.722C95.9543 154.888 101.358 158.591 101.358 158.591V170.457C101.358 170.457 106.175 173.023 108.574 173.968L144.981 191.624L142.868 192.149C129.374 196.257 114.792 195.889 100.542 191.083C84.3832 185.632 70.885 173.234 64.1645 157.67C59.8002 147.562 58.2842 139.405 58.6408 127.95C58.9109 119.276 59.8701 113.888 62.4714 106.432Z" fill="#58A1C6"/>
<path d="M227.487 306.44C212.386 306.44 201.703 295.243 201.703 279.526C201.703 263.809 212.386 252.612 227.487 252.612C242.587 252.612 253.373 263.809 253.373 279.526C253.373 295.243 242.587 306.44 227.487 306.44ZM227.487 295.859C236.013 295.859 242.176 289.079 242.176 279.526C242.176 269.767 236.013 262.885 227.487 262.885C218.96 262.885 212.9 269.767 212.9 279.526C212.9 289.079 218.96 295.859 227.487 295.859Z" fill="#58A1C6"/>
<path d="M186.014 253.845H196.8V305.207H186.014V253.845ZM191.458 247.989C187.246 247.989 184.267 244.805 184.267 240.49C184.267 236.176 187.246 233.094 191.458 233.094C195.67 233.094 198.649 236.176 198.649 240.49C198.649 244.805 195.67 247.989 191.458 247.989Z" fill="#58A1C6"/>
<path d="M172.683 306.029C168.369 306.029 165.185 302.742 165.185 298.324C165.185 293.805 168.369 290.62 172.683 290.62C177.101 290.62 180.182 293.805 180.182 298.324C180.182 302.742 177.101 306.029 172.683 306.029Z" fill="#58A1C6"/>
<path d="M149.292 305.207V235.354H160.078V305.207H149.292Z" fill="#58A1C6"/>
<path d="M118.626 306.44C103.526 306.44 92.8425 295.243 92.8425 279.526C92.8425 263.809 103.526 252.612 118.626 252.612C133.727 252.612 144.513 263.809 144.513 279.526C144.513 295.243 133.727 306.44 118.626 306.44ZM118.626 295.859C127.153 295.859 133.316 289.079 133.316 279.526C133.316 269.767 127.153 262.885 118.626 262.885C110.1 262.885 104.04 269.767 104.04 279.526C104.04 289.079 110.1 295.859 118.626 295.859Z" fill="#58A1C6"/>
<path d="M44.4158 305.207L63.7281 279.012L45.1348 253.845H58.9L70.097 270.383L80.6777 253.845H94.3401L76.466 279.012L95.7783 305.207H82.0131L69.9943 287.436L58.5918 305.207H44.4158Z" fill="#58A1C6"/>
<path d="M17.1887 306.44C7.12164 306.44 0.341797 300.379 0.341797 291.442C0.341797 284.56 5.6835 278.807 13.7988 277.266L30.0293 274.082C31.5702 273.876 32.5974 272.746 32.5974 271.411C32.5974 266.172 28.7966 262.371 23.4549 262.371C17.9078 262.371 13.5933 266.274 13.1824 272.13L2.08812 269.459C3.73172 259.597 12.3606 252.612 22.9413 252.612C34.8574 252.612 43.3836 260.625 43.3836 271.719V294.935L43.589 305.207H35.0628L33.2138 298.222C30.0293 303.255 24.174 306.44 17.1887 306.44ZM11.9497 290.004C11.9497 293.702 14.9287 296.167 19.8595 296.167C27.0503 296.167 32.5974 290.928 32.5974 283.224V280.861C31.5702 281.067 30.4402 281.375 29.3102 281.58L18.1132 283.635C14.3124 284.354 11.9497 286.819 11.9497 290.004Z" fill="#58A1C6"/>
</svg>
