<svg width="423" height="123" viewBox="0 0 423 123" fill="none" xmlns="http://www.w3.org/2000/svg">
<path d="M379.392 122.691C354.224 122.691 336.418 104.021 336.418 77.8139C336.418 51.607 354.224 32.9368 379.392 32.9368C404.559 32.9368 422.536 51.607 422.536 77.8139C422.536 104.021 404.559 122.691 379.392 122.691ZM379.392 105.048C393.602 105.048 403.875 93.7435 403.875 77.8139C403.875 61.5416 393.602 50.0654 379.392 50.0654C365.181 50.0654 355.08 61.5416 355.08 77.8139C355.08 93.7435 365.181 105.048 379.392 105.048Z" fill="#58A1C6"/>
<path d="M310.272 34.992H328.249V120.635H310.272V34.992ZM319.346 25.2286C312.327 25.2286 307.362 19.9188 307.362 12.7247C307.362 5.53068 312.327 0.39209 319.346 0.39209C326.366 0.39209 331.331 5.53068 331.331 12.7247C331.331 19.9188 326.366 25.2286 319.346 25.2286Z" fill="#58A1C6"/>
<path d="M288.057 122.005C280.867 122.005 275.559 116.524 275.559 109.159C275.559 101.622 280.867 96.3125 288.057 96.3125C295.419 96.3125 300.555 101.622 300.555 109.159C300.555 116.524 295.419 122.005 288.057 122.005Z" fill="#58A1C6"/>
<path d="M249.067 120.635V4.1604H267.044V120.635H249.067Z" fill="#58A1C6"/>
<path d="M197.961 122.691C172.793 122.691 154.988 104.021 154.988 77.8139C154.988 51.607 172.793 32.9368 197.961 32.9368C223.128 32.9368 241.105 51.607 241.105 77.8139C241.105 104.021 223.128 122.691 197.961 122.691ZM197.961 105.048C212.171 105.048 222.444 93.7435 222.444 77.8139C222.444 61.5416 212.171 50.0654 197.961 50.0654C183.751 50.0654 173.649 61.5416 173.649 77.8139C173.649 93.7435 183.751 105.048 197.961 105.048Z" fill="#58A1C6"/>
<path d="M74.27 120.635L106.457 76.9572L75.4685 34.9919H98.4104L117.072 62.5691L134.707 34.9919H157.477L127.687 76.9572L159.874 120.635H136.932L116.901 91.0027L97.8968 120.635H74.27Z" fill="#58A1C6"/>
<path d="M28.8941 122.691C12.1157 122.691 0.815918 112.585 0.815918 97.6831C0.815918 86.2069 9.71875 76.6149 23.2442 74.0456L50.2951 68.7357C52.8632 68.3931 54.5753 66.5089 54.5753 64.2822C54.5753 55.5466 48.2406 49.209 39.3378 49.209C30.0925 49.209 22.9018 55.7179 22.217 65.4812L3.72646 61.0278C6.46579 44.5843 20.8473 32.9368 38.4817 32.9368C58.3419 32.9368 72.5522 46.2971 72.5522 64.7961V103.507L72.8946 120.636H58.6843L55.6026 108.988C50.2951 117.381 40.5362 122.691 28.8941 122.691ZM20.1625 95.2851C20.1625 101.451 25.1275 105.562 33.3455 105.562C45.3301 105.562 54.5753 96.8267 54.5753 83.9802V80.0406C52.8632 80.3832 50.9799 80.897 49.0967 81.2396L30.4349 84.6653C24.1002 85.8643 20.1625 89.9752 20.1625 95.2851Z" fill="#58A1C6"/>
</svg>
