<svg width="217" height="217" viewBox="0 0 217 217" fill="none" xmlns="http://www.w3.org/2000/svg">
<rect x="0.8302" y="0.452759" width="215.921" height="215.921" rx="107.96" fill="#FFCD9C"/>
<path d="M60.7028 88.738C60.9402 88.9664 62.2099 89.1218 63.2516 89.0501C63.5467 89.0299 64.3603 88.5578 65.0599 88.0009C65.7593 87.444 66.3808 86.9884 66.4413 86.9884C66.5015 86.9884 66.5002 87.3347 66.4382 87.7577C66.3043 88.6689 66.948 89.5197 67.771 89.5197C69.8241 89.5197 72.6822 87.7323 73.2161 86.1148C73.6147 84.9069 73.1664 83.4076 72.082 82.3234C71.3796 81.621 70.8483 81.3795 69.2447 81.0337C64.6316 80.0389 60.2882 78.2131 57.2428 75.9886C56.1381 75.1816 56.067 75.0571 55.9576 73.736C55.8212 72.0911 55.4508 71.5474 54.4674 71.5474C53.7695 71.5474 53.5407 71.7036 52.8978 72.6179C52.6163 73.0184 52.4728 72.966 51.2177 72.0038C48.6847 70.0623 47.1502 69.2692 45.9268 69.2692C43.8372 69.2692 42.3298 70.7832 42.3437 72.8682C42.3574 74.9148 43.9784 76.8004 48.0969 79.5605C49.8878 80.7606 50.1852 81.0616 50.1852 81.6734C50.1852 82.1594 50.4335 82.5961 50.9641 83.0423C51.9057 83.8349 52.7882 83.8792 53.4977 83.1697C53.9604 82.7069 54.1163 82.6793 54.7616 82.9467C55.4417 83.2284 55.4855 83.3253 55.3405 84.2326C55.1564 85.383 55.4777 85.8858 56.7307 86.4095C57.1982 86.6052 57.5399 86.7935 57.4901 86.8284C58.0976 87.3993 59.885 88.3394 60.7028 88.738Z" fill="#28338B"/>
<path fill-rule="evenodd" clip-rule="evenodd" d="M54.3305 43.8762C54.8421 42.5366 55.6311 41.7519 56.9324 41.2879C57.009 41.2606 57.0801 41.2351 57.1463 41.2113C57.6133 41.0434 57.8383 40.9625 58.0652 40.9568C58.2761 40.9516 58.4886 41.0113 58.8987 41.1265L58.8993 41.1266C58.9615 41.1441 59.0283 41.1629 59.1002 41.1829C60.235 41.498 61.4536 42.4786 61.9831 43.5028C62.197 43.9164 62.7051 46.0622 63.1123 48.2713C63.9393 52.7562 64.2023 53.6419 65.7616 57.1906C67.1432 60.3347 68.7577 62.9599 71.1072 65.8829C73.3776 68.7073 73.7228 69.3475 73.7249 70.7374C73.7289 73.5656 71.1009 75.3358 66.8918 75.3401C65.1625 75.3416 63.348 74.9629 63.348 74.6004C63.348 74.4827 63.9176 73.9519 64.6137 73.4211C65.3098 72.8903 65.8793 72.3721 65.8793 72.2698C65.8793 71.856 65.3918 71.8299 64.6423 72.204C63.224 72.9115 61.3597 72.0496 60.6537 70.36C60.2246 69.3335 60.5218 68.5936 61.4569 68.3587C61.4949 68.3492 61.5309 68.3403 61.565 68.3319C61.8209 68.2689 61.9673 68.2329 62.0178 68.143C62.0853 68.023 61.9817 67.8069 61.7399 67.302C61.7159 67.2518 61.6904 67.1988 61.6637 67.1427C61.2536 66.2828 61.2199 66.2676 60.0262 66.4091C58.4894 66.5911 57.7837 66.1646 57.0233 64.5937C56.497 63.5067 56.4879 63.3974 56.8737 62.8086C57.0997 62.4638 57.5222 62.1816 57.8123 62.1816C58.2467 62.1816 58.3125 62.0712 58.1841 61.5599C57.7688 59.9044 57.5675 59.6503 56.6724 59.6503C56.0034 59.6503 55.6336 59.4533 55.0451 58.783C54.6264 58.3061 54.2082 57.5726 54.1161 57.1526C53.9571 56.4287 54.2971 55.3516 54.6871 55.3432C54.7866 55.341 55.0137 55.2471 55.1914 55.1342C55.4465 54.9722 55.3782 54.4262 54.8666 52.5434C53.9915 49.324 53.749 45.3993 54.3305 43.8762ZM136.605 71.0918C137.086 70.1679 137.97 69.3753 139.036 68.9131C140.239 68.3914 141.403 68.4167 142.525 68.9893C143.685 69.5813 144.217 70.1562 144.72 71.3586C145.816 73.9835 144.225 76.7806 141.24 77.4732C139.699 77.8306 137.439 76.6561 136.62 75.0738C136.15 74.1638 136.142 71.9831 136.605 71.0918ZM97.1496 86.5097C95.5743 84.2875 96.4282 80.9935 98.8663 79.8863C101.834 78.5391 104.872 80.1432 105.524 83.4018C105.843 84.998 104.61 87.096 102.815 88.0121C100.789 89.0456 98.5208 88.4442 97.1496 86.5097ZM125.155 89.782C129.906 88.5295 134.7 86.2903 137.442 84.0432C138.353 83.2962 139.193 82.6852 139.308 82.6852C139.907 82.6852 140.807 83.3413 141.066 83.9688C141.539 85.1081 140.97 86.3351 139.132 88.147C135.401 91.8229 128.504 94.8101 121.291 95.8735C118.512 96.2836 112.361 96.2803 109.798 95.8677C106.744 95.3761 105.874 94.7689 105.874 93.1286C105.874 91.525 106.004 91.4878 111.843 91.4164C117.351 91.3491 120.832 90.9215 125.155 89.782Z" fill="#28338B"/>
<path d="M163.016 111.974L133.937 125.753V159.026L163.48 143.978L163.016 111.974Z" fill="#28338B"/>
<path fill-rule="evenodd" clip-rule="evenodd" d="M133.937 125.753V159.026L163.48 143.978L163.016 111.974L133.937 125.753Z" fill="#28338B"/>
<path fill-rule="evenodd" clip-rule="evenodd" d="M126.89 24.0074C127.185 23.5239 127.853 22.9645 128.471 22.6841C129.855 22.0558 130.523 22.0651 131.899 22.7314C133.163 23.3432 134.315 24.7896 135.146 26.8068C135.576 27.8515 135.84 28.161 136.432 28.3144C137.833 28.6774 138.229 30.7703 137.109 31.8904C136.474 32.5253 136.46 32.5984 136.753 33.8193C137.021 34.9363 137.113 35.0586 137.523 34.8394C138.193 34.4807 138.464 34.5268 139.034 35.0966C139.374 35.4368 139.54 35.9403 139.54 36.6321C139.54 37.9284 139.219 38.5316 138.267 39.0239C137.603 39.3674 137.515 39.5451 137.515 40.5483V41.684L138.477 41.5301C139.66 41.3411 140.157 41.8233 140.12 43.1264C140.088 44.2743 139.344 45.2686 138.319 45.5342C137.576 45.7271 137.515 45.8227 137.515 46.8143C137.515 47.6822 137.624 47.9344 138.085 48.1389C138.663 48.3951 138.738 48.7239 138.436 49.6724C138.299 50.1019 138.555 50.43 139.82 51.4443C140.673 52.129 141.433 52.6892 141.508 52.6892C141.771 52.6892 142.596 49.8746 143.218 46.858C143.629 44.8601 143.92 42.3278 144.063 39.5086C144.331 34.1775 144.649 33.4079 146.986 32.4316C148.327 31.8714 149.622 32.136 150.902 33.2315C152.868 34.9143 153.168 37.9625 152.052 44.9054C151.909 45.7959 151.949 45.9812 152.285 45.9812C152.509 45.9812 152.881 46.271 153.114 46.6254C153.465 47.1618 153.488 47.4286 153.252 48.2166C152.891 49.4225 152.091 50.2844 151.332 50.2844C150.578 50.2844 150.186 50.7621 150 51.9072C149.865 52.7411 149.903 52.8157 150.468 52.8157C151.683 52.8157 152.045 53.9275 151.299 55.3706C150.835 56.2677 149.85 56.7036 148.752 56.4975C148.047 56.3654 147.924 56.4342 147.638 57.126C147.33 57.8675 147.358 57.9421 148.237 58.7476C149.219 59.6462 149.309 59.9092 148.902 60.6696C148.701 61.047 148.814 61.4227 149.432 62.4276L150.219 63.7059L151.201 62.9281C152.408 61.9717 154.769 59.3966 155.794 57.9183C156.596 56.7618 156.661 56.392 156.364 54.6535C156.24 53.9237 156.282 53.4577 156.498 53.198C156.909 52.7031 158.127 52.7066 158.624 53.2038C158.972 53.5521 159.087 53.4556 159.751 52.2545C161.969 48.2411 162.783 47.4577 164.733 47.4577C167.821 47.4577 169.08 50.7094 167.382 54.2986C166.964 55.1835 165.992 56.8218 165.222 57.9389C163.892 59.8702 163.844 59.9933 164.252 60.4436C164.931 61.1949 164.349 62.765 163.079 63.6054C162.206 64.1831 161.989 64.2284 161.281 63.9813C160.19 63.6009 160.168 63.6067 159.821 64.3686C159.555 64.9521 159.588 65.1136 160.081 65.6381C160.818 66.4225 160.513 67.3953 159.311 68.0975L158.454 68.5979L157.346 68.0099C156.737 67.6867 156.164 67.4961 156.073 67.5864C155.983 67.6768 156.035 68.1608 156.189 68.662C156.357 69.2098 156.382 69.7995 156.252 70.141C156.019 70.7538 154.696 71.4333 154.147 71.2224C153.888 71.1232 153.927 71.5439 154.313 73.0287C154.591 74.0937 154.851 75.0095 154.893 75.0642C155.028 75.2401 158.102 74.0321 159.538 73.2391C162.248 71.7421 162.327 71.6568 162.267 70.2926C162.236 69.572 162.353 68.9042 162.552 68.664C162.983 68.1453 164.438 68.1355 164.863 68.6483C165.042 68.8637 165.256 68.9493 165.338 68.8382C166.134 67.7603 168.74 65.7208 169.625 65.4824C171.718 64.9189 173.713 66.5124 173.713 68.746C173.713 70.5415 172.612 72.039 168.904 75.2897C166.342 77.5347 165.861 77.764 164.832 77.2317C163.787 76.6915 163.547 76.9394 163.736 78.363C163.892 79.537 163.871 79.5881 163.016 80.1161C161.867 80.8264 161.176 80.8031 160.401 80.0273C159.409 79.0355 158.627 79.217 159.054 80.3399C159.379 81.1947 159.158 81.7868 158.382 82.1404C157.506 82.5394 156.748 82.5062 156.241 82.0465C155.846 81.6896 155.804 81.7969 155.672 83.502C155.593 84.5145 155.445 85.5552 155.344 85.8144C155.344 88.3177 154.657 90.5921 154.313 91.4164L157.971 93.2645L166.157 97.404C173.012 100.87 174.437 101.683 174.914 102.404L175.485 103.264V127.303V152.331L128.551 177.456C118.141 181.903 107.009 183.131 95.2374 181.132C83.4841 179.136 71.7778 172.912 63.6751 164.352C55.6989 155.926 50.5449 144.936 48.8796 132.805C48.6857 131.393 48.5495 127.944 48.5495 124.452C48.5495 120.959 48.6857 117.51 48.8796 116.098C49.6121 110.761 51.3387 104.433 53.242 100.108L53.322 99.9259C54.083 98.1971 54.2737 97.7639 54.1582 97.6548C54.1196 97.6183 54.0468 97.6181 53.9496 97.6178C53.9396 97.6177 53.9294 97.6177 53.9189 97.6176C53.3428 97.6133 48.0488 94.9306 47.2018 94.2135C46.0809 93.2648 45.6289 92.3097 45.6289 90.8912C45.6289 89.4017 46.3386 88.2024 47.5635 87.621C48.793 87.0375 49.97 87.2537 52.5036 88.5274L54.5353 89.5488C55.1759 89.8709 56.2658 90.362 56.7307 90.5674C57.235 90.7187 57.8883 90.9865 58.653 91.2999C60.4459 92.0347 62.8509 93.0205 65.3829 93.345C67.2857 93.589 68.2091 93.5809 70.1643 93.3027C74.4027 92.6995 75.0383 92.9281 78.2827 96.2241C81.9648 99.9649 85.3615 102.104 90.1285 103.683C97.6191 106.165 109.162 106.885 118.277 105.441C127.153 104.033 134.049 101.864 138.893 98.9547C148.046 93.4577 152.237 85.2879 150.829 75.6869C150.071 70.5197 148.292 66.5073 144.648 61.7444C142.814 59.3483 139.484 56.0981 137.262 54.5368C133.493 51.8875 128.259 49.8733 122.119 48.7089C119.635 48.2381 118.294 48.1495 113.721 48.1536C107.517 48.1591 104.403 48.5411 99.4569 49.9032C90.8904 52.2624 84.53 55.751 78.9834 61.1323L76.7728 63.2769L75.7745 62.9779C74.6511 62.6413 73.4732 61.4121 73.4732 60.5762C73.4732 60.2714 73.2434 59.6252 72.9622 59.14C71.5732 56.7425 71.4978 55.9776 72.623 55.6951C73.0381 55.5911 73.1961 55.408 73.1133 55.1278C73.046 54.9003 72.9207 54.4186 72.8348 54.0573C72.7065 53.5172 72.4719 53.3595 71.5178 53.1714C70.1891 52.9091 69.491 52.1639 69.2639 50.7656C69.0781 49.6202 69.6277 49.0188 70.8604 49.0188C71.5727 49.0188 71.7241 48.937 71.6018 48.6183C71.5173 48.3981 71.4482 47.8944 71.4482 47.499C71.4482 46.9008 71.2983 46.7305 70.5579 46.4859C69.4998 46.1369 68.9169 45.1636 68.9169 43.7466C68.9169 42.6179 69.2224 42.266 70.3091 42.1432C70.988 42.0668 71.0769 41.9554 71.148 41.0937C71.2146 40.286 71.0812 39.9681 70.3253 39.1312C69.6269 38.3582 69.4231 37.917 69.4231 37.1773C69.4231 35.9949 70.0195 35.0966 70.8042 35.0966C71.334 35.0966 71.4411 34.9009 71.8066 33.2614C72.2033 31.4831 73.0946 29.3257 73.7803 28.484C74.9611 27.0344 77.4454 26.5648 78.9811 27.5014C80.4685 28.4081 80.853 29.351 80.7361 31.8059C80.6796 32.9893 80.4371 35.1535 80.1969 36.6154C79.6046 40.2215 79.7567 45.618 80.5505 49.1739L81.1221 51.7341L83.8157 50.0801C90.0462 46.2546 96.9769 43.7147 104.229 42.5996C108.514 41.9407 109.045 41.8995 113.153 41.9045C118.928 41.9116 124.76 42.8358 128.425 44.3252L129.999 44.9646L129.833 42.1189C129.609 38.2807 128.948 35.1469 127.376 30.4668C125.953 26.2335 125.907 25.6189 126.89 24.0074ZM128.914 118.791L113.6 112.301C107.688 112.969 103.736 113.316 98.5405 111.974C97.485 111.701 96.2723 111.388 94.7995 111.04L94.4831 128.157C94.4831 128.157 93.7347 129.549 101.45 129.169V116.776L123.685 125.753L123.75 159.026L101.449 148.18L101.45 148.18L101.396 148.155L101.396 148.188C98.8895 148.56 96.8761 148.554 94.4831 147.8V153.05L101.216 156.635L123.75 167.599L128.551 170.177L133.937 167.599L170.422 148.88V105.441L151.007 95.3541L145.621 100.819L156.498 105.441L128.914 118.791ZM58.0958 105.72C59.0673 102.936 60.298 100.177 60.9096 99.4133C61.1448 99.1197 61.2096 99.1653 61.2703 99.6665C61.4475 101.134 62.355 101.923 63.8662 101.923C64.5463 101.923 65.6262 101.185 65.6262 100.721C65.6262 100.616 66.3524 100.531 67.2399 100.531C68.7296 100.531 68.884 100.584 69.248 101.218C70.0476 102.611 71.9929 102.42 72.8295 100.866L73.3249 99.9462L75.4874 102.148C78.5566 105.273 81.5572 107.16 86.3829 109.003L88.7877 109.921L88.8241 116.355L88.8265 116.776V116.776C88.8492 120.713 88.8581 122.254 88.578 122.308C88.398 122.343 88.0985 121.764 87.6066 120.813L87.5245 120.655C86.0263 117.762 83.6375 116.845 82.0364 118.549C81.562 119.054 81.4469 119.457 81.4469 120.615C81.4469 121.853 81.6033 122.326 82.5776 124.028C84.83 127.965 88.8671 131.537 93.018 133.265C93.5157 133.472 93.9991 133.654 94.4831 133.812C96.95 134.619 99.4337 134.818 103.923 134.662L104.608 134.639L108.532 134.503L109.836 135.164C112.092 136.309 112.712 137.662 111.724 139.282C111.084 140.331 109.444 141.251 106.729 142.085C104.666 142.719 104.139 142.776 100.305 142.773C95.3205 142.771 93.5151 142.372 89.5139 140.39C85.097 138.202 81.9681 135.725 78.7399 131.86C76.2245 128.849 74.8725 128.301 73.6223 129.787C72.9176 130.625 72.8202 131.381 73.2282 132.85C73.5512 134.013 75.1664 136.451 76.791 138.229C77.2189 138.697 78.997 139.98 81.0585 141.467C84.523 143.967 88.7877 146.889 88.7877 146.889V156.255C88.7877 156.255 92.5901 158.28 94.4831 159.026L123.219 172.961L121.551 173.376C110.9 176.618 99.3913 176.328 88.1439 172.534C75.3902 168.232 64.7364 158.447 59.4321 146.162C55.9875 138.184 54.7909 131.746 55.0724 122.704C55.2855 115.858 56.0427 111.605 58.0958 105.72Z" fill="#28338B"/>
</svg>
