<svg width="217" height="217" viewBox="0 0 217 217" fill="none" xmlns="http://www.w3.org/2000/svg">
<rect x="0.171997" y="0.171997" width="215.921" height="215.921" rx="107.96" fill="#FDFFF9"/>
<path d="M60.0446 88.4573C60.282 88.6856 61.5517 88.841 62.5934 88.7694C62.8885 88.7491 63.7021 88.277 64.4017 87.7202C65.1011 87.1633 65.7226 86.7076 65.7831 86.7076C65.8433 86.7076 65.842 87.0539 65.78 87.4769C65.6461 88.3882 66.2898 89.2389 67.1128 89.2389C69.1659 89.2389 72.024 87.4516 72.5579 85.8341C72.9565 84.6261 72.5082 83.1268 71.4238 82.0427C70.7214 81.3402 70.1901 81.0988 68.5865 80.753C63.9734 79.7582 59.63 77.9323 56.5845 75.7078C55.4799 74.9009 55.4087 74.7763 55.2994 73.4552C55.163 71.8104 54.7926 71.2667 53.8092 71.2667C53.1113 71.2667 52.8825 71.4228 52.2396 72.3371C51.9581 72.7376 51.8146 72.6852 50.5595 71.723C48.0264 69.7815 46.492 68.9885 45.2686 68.9885C43.179 68.9885 41.6716 70.5024 41.6855 72.5875C41.6992 74.634 43.3202 76.5196 47.4387 79.2798C49.2296 80.4799 49.527 80.7808 49.527 81.3926C49.527 81.8787 49.7753 82.3153 50.3059 82.7616C51.2475 83.5541 52.1299 83.5984 52.8395 82.8889C53.3022 82.4262 53.4581 82.3986 54.1034 82.6659C54.7835 82.9476 54.8273 83.0446 54.6823 83.9518C54.4982 85.1023 54.8195 85.605 56.0725 86.1287C56.54 86.3244 56.8817 86.5127 56.8319 86.5477C57.4394 87.1185 59.2268 88.0586 60.0446 88.4573Z" fill="#28338B"/>
<path fill-rule="evenodd" clip-rule="evenodd" d="M53.6723 43.5954C54.1839 42.2558 54.9729 41.4711 56.2742 41.0071C56.3508 40.9798 56.4219 40.9543 56.488 40.9305C56.9551 40.7626 57.1801 40.6818 57.407 40.6761C57.6179 40.6708 57.8304 40.7305 58.2405 40.8457L58.2411 40.8459C58.3033 40.8634 58.3701 40.8821 58.442 40.9021C59.5768 41.2172 60.7954 42.1979 61.3249 43.222C61.5388 43.6357 62.0469 45.7814 62.4541 47.9905C63.2811 52.4755 63.5441 53.3612 65.1034 56.9098C66.485 60.054 68.0995 62.6792 70.449 65.6021C72.7194 68.4265 73.0646 69.0667 73.0666 70.4566C73.0707 73.2849 70.4427 75.055 66.2336 75.0593C64.5042 75.0608 62.6898 74.6821 62.6898 74.3197C62.6898 74.202 63.2594 73.6711 63.9555 73.1403C64.6516 72.6095 65.2211 72.0914 65.2211 71.9891C65.2211 71.5752 64.7336 71.5491 63.9841 71.9233C62.5658 72.6308 60.7015 71.7689 59.9955 70.0792C59.5664 69.0528 59.8636 68.3129 60.7987 68.078C60.8367 68.0684 60.8727 68.0596 60.9068 68.0512C61.1627 67.9882 61.3091 67.9522 61.3596 67.8623C61.427 67.7422 61.3235 67.5261 61.0817 67.0213C61.0576 66.9711 61.0322 66.918 61.0055 66.8619C60.5954 66.002 60.5617 65.9868 59.368 66.1283C57.8312 66.3103 57.1255 65.8838 56.3651 64.3129C55.8388 63.2259 55.8297 63.1166 56.2155 62.5278C56.4415 62.183 56.864 61.9008 57.1541 61.9008C57.5885 61.9008 57.6543 61.7904 57.5259 61.2791C57.1106 59.6236 56.9093 59.3695 56.0142 59.3695C55.3452 59.3695 54.9754 59.1726 54.3869 58.5023C53.9682 58.0254 53.55 57.2918 53.4579 56.8719C53.2989 56.1479 53.6389 55.0708 54.0289 55.0625C54.1284 55.0602 54.3555 54.9663 54.5332 54.8534C54.7883 54.6914 54.72 54.1454 54.2084 52.2626C53.3333 49.0433 53.0908 45.1185 53.6723 43.5954ZM135.947 70.811C136.428 69.8871 137.312 69.0945 138.378 68.6323C139.581 68.1106 140.745 68.1359 141.867 68.7085C143.027 69.3006 143.559 69.8754 144.062 71.0778C145.158 73.7028 143.566 76.4999 140.581 77.1924C139.041 77.5499 136.78 76.3753 135.962 74.793C135.491 73.883 135.483 71.7023 135.947 70.811ZM96.4914 86.229C94.9161 84.0067 95.77 80.7127 98.2081 79.6055C101.176 78.2584 104.214 79.8625 104.865 83.121C105.185 84.7173 103.952 86.8152 102.156 87.7313C100.131 88.7648 97.8626 88.1634 96.4914 86.229ZM124.497 89.5012C129.248 88.2487 134.042 86.0095 136.783 83.7625C137.695 83.0155 138.534 82.4044 138.649 82.4044C139.249 82.4044 140.149 83.0605 140.408 83.688C140.88 84.8274 140.312 86.0543 138.473 87.8662C134.743 91.5422 127.846 94.5294 120.633 95.5928C117.854 96.0029 111.703 95.9996 109.139 95.587C106.086 95.0954 105.216 94.4881 105.216 92.8478C105.216 91.2442 105.346 91.207 111.184 91.1357C116.693 91.0683 120.174 90.6408 124.497 89.5012Z" fill="#28338B"/>
<path d="M162.358 111.693L133.279 125.472V158.745L162.822 143.697L162.358 111.693Z" fill="#28338B"/>
<path fill-rule="evenodd" clip-rule="evenodd" d="M133.279 125.472V158.745L162.822 143.697L162.358 111.693L133.279 125.472Z" fill="#28338B"/>
<path fill-rule="evenodd" clip-rule="evenodd" d="M126.232 23.7267C126.526 23.2432 127.195 22.6838 127.813 22.4033C129.197 21.775 129.864 21.7844 131.24 22.4506C132.505 23.0624 133.657 24.5088 134.487 26.526C134.917 27.5707 135.182 27.8803 135.774 28.0337C137.175 28.3967 137.57 30.4896 136.45 31.6097C135.815 32.2445 135.802 32.3177 136.095 33.5385C136.363 34.6556 136.455 34.7778 136.865 34.5586C137.535 34.1999 137.806 34.246 138.376 34.8158C138.716 35.156 138.882 35.6595 138.882 36.3513C138.882 37.6476 138.561 38.2508 137.609 38.7431C136.945 39.0866 136.857 39.2643 136.857 40.2675V41.4033L137.819 41.2494C139.002 41.0603 139.499 41.5425 139.462 42.8456C139.429 43.9936 138.686 44.9879 137.661 45.2534C136.917 45.4463 136.857 45.542 136.857 46.5335C136.857 47.4015 136.965 47.6536 137.427 47.8581C138.005 48.1143 138.08 48.4431 137.778 49.3916C137.641 49.8212 137.896 50.1492 139.161 51.1635C140.015 51.8482 140.775 52.4084 140.849 52.4084C141.113 52.4084 141.938 49.5938 142.559 46.5773C142.971 44.5793 143.262 42.047 143.404 39.2279C143.673 33.8967 143.991 33.1272 146.328 32.1509C147.668 31.5907 148.964 31.8552 150.243 32.9507C152.21 34.6336 152.51 37.6818 151.394 44.6246C151.251 45.5151 151.291 45.7004 151.627 45.7004C151.851 45.7004 152.223 45.9903 152.456 46.3447C152.807 46.881 152.83 47.1478 152.594 47.9358C152.233 49.1418 151.432 50.0037 150.674 50.0037C149.92 50.0037 149.528 50.4813 149.342 51.6265C149.206 52.4603 149.245 52.535 149.81 52.535C151.025 52.535 151.387 53.6467 150.641 55.0898C150.177 55.9869 149.192 56.4228 148.094 56.2168C147.388 56.0846 147.266 56.1535 146.979 56.8453C146.672 57.5867 146.7 57.6614 147.579 58.4668C148.56 59.3654 148.651 59.6285 148.244 60.3889C148.042 60.7663 148.156 61.1419 148.774 62.1469L149.56 63.4252L150.543 62.6473C151.75 61.691 154.111 59.1159 155.136 57.6376C155.938 56.481 156.003 56.1112 155.706 54.3727C155.581 53.6429 155.624 53.1769 155.84 52.9172C156.25 52.4223 157.469 52.4259 157.966 52.923C158.314 53.2713 158.429 53.1749 159.093 51.9738C161.311 47.9604 162.125 47.177 164.075 47.177C167.163 47.177 168.422 50.4287 166.724 54.0178C166.306 54.9028 165.333 56.541 164.564 57.6581C163.233 59.5895 163.186 59.7125 163.593 60.1628C164.273 60.9141 163.691 62.4843 162.421 63.3247C161.548 63.9023 161.331 63.9476 160.622 63.7006C159.531 63.3201 159.51 63.3259 159.162 64.0879C158.897 64.6713 158.93 64.8328 159.422 65.3573C160.16 66.1418 159.855 67.1145 158.653 67.8167L157.796 68.3172L156.688 67.7291C156.078 67.4059 155.506 67.2153 155.415 67.3057C155.325 67.396 155.377 67.88 155.531 68.3812C155.699 68.929 155.724 69.5188 155.594 69.8603C155.361 70.4731 154.038 71.1525 153.489 70.9416C153.23 70.8424 153.269 71.2631 153.655 72.748C153.932 73.8129 154.193 74.7287 154.235 74.7834C154.369 74.9593 157.444 73.7514 158.88 72.9583C161.59 71.4613 161.669 71.376 161.609 70.0119C161.578 69.2912 161.695 68.6235 161.894 68.3832C162.325 67.8646 163.78 67.8547 164.205 68.3675C164.384 68.583 164.597 68.6685 164.679 68.5574C165.476 67.4796 168.082 65.4401 168.967 65.2016C171.059 64.6382 173.055 66.2316 173.055 68.4653C173.055 70.2607 171.954 71.7582 168.245 75.0089C165.684 77.254 165.203 77.4833 164.173 76.951C163.129 76.4108 162.889 76.6586 163.077 78.0822C163.233 79.2562 163.212 79.3074 162.358 79.8354C161.209 80.5457 160.518 80.5224 159.742 79.7465C158.751 78.7548 157.969 78.9363 158.396 80.0591C158.721 80.914 158.5 81.506 157.724 81.8597C156.848 82.2586 156.09 82.2254 155.582 81.7658C155.188 81.4088 155.146 81.5162 155.013 83.2213C154.935 84.2338 154.787 85.2744 154.685 85.5336C154.685 88.037 153.999 90.3114 153.655 91.1357L157.313 92.9838L165.499 97.1232C172.353 100.589 173.779 101.403 174.256 102.123L174.827 102.983V127.023V152.051L127.893 177.175C117.483 181.622 106.351 182.85 94.5792 180.851C82.8259 178.855 71.1196 172.631 63.0169 164.071C55.0407 155.645 49.8867 144.656 48.2214 132.524C48.0275 131.113 47.8913 127.663 47.8913 124.171C47.8913 120.679 48.0275 117.229 48.2214 115.818C48.9539 110.48 50.6805 104.152 52.5838 99.8269L52.6638 99.6452C53.4248 97.9163 53.6155 97.4831 53.5 97.374C53.4614 97.3376 53.3885 97.3373 53.2914 97.337C53.2814 97.337 53.2712 97.3369 53.2607 97.3369C52.6846 97.3326 47.3906 94.6499 46.5436 93.9327C45.4227 92.984 44.9707 92.029 44.9707 90.6104C44.9707 89.121 45.6804 87.9216 46.9053 87.3402C48.1348 86.7567 49.3118 86.9729 51.8454 88.2467L53.8771 89.2681C54.5177 89.5901 55.6076 90.0813 56.0725 90.2866C56.5768 90.438 57.2301 90.7057 57.9948 91.0191C59.7877 91.754 62.1927 92.7397 64.7247 93.0643C66.6275 93.3083 67.5509 93.3002 69.5061 93.022C73.7445 92.4188 74.3801 92.6473 77.6245 95.9434C81.3066 99.6841 84.7033 101.823 89.4703 103.402C96.9609 105.884 108.504 106.605 117.619 105.16C126.494 103.753 133.39 101.583 138.235 98.6739C147.388 93.1769 151.579 85.0071 150.171 75.4061C149.413 70.2389 147.634 66.2266 143.99 61.4637C142.156 59.0675 138.826 55.8173 136.604 54.256C132.834 51.6067 127.601 49.5926 121.461 48.4282C118.977 47.9574 117.636 47.8688 113.063 47.8728C106.858 47.8784 103.745 48.2603 98.7987 49.6224C90.2322 51.9816 83.8718 55.4703 78.3252 60.8516L76.1146 62.9961L75.1163 62.6972C73.9929 62.3605 72.815 61.1313 72.815 60.2955C72.815 59.9907 72.5852 59.3444 72.304 58.8592C70.915 56.4618 70.8396 55.6968 71.9648 55.4143C72.3799 55.3103 72.5379 55.1273 72.4551 54.8471C72.3878 54.6195 72.2625 54.1378 72.1766 53.7766C72.0483 53.2364 71.8137 53.0787 70.8596 52.8906C69.5309 52.6284 68.8328 51.8832 68.6057 50.4849C68.4199 49.3394 68.9695 48.738 70.2022 48.738C70.9145 48.738 71.0659 48.6562 70.9436 48.3376C70.8591 48.1173 70.79 47.6136 70.79 47.2182C70.79 46.6201 70.6401 46.4497 69.8997 46.2052C68.8416 45.8561 68.2587 44.8828 68.2587 43.4658C68.2587 42.3371 68.5642 41.9852 69.6509 41.8625C70.3298 41.786 70.4186 41.6746 70.4898 40.813C70.5564 40.0052 70.423 39.6873 69.6671 38.8505C68.9687 38.0774 68.7649 37.6362 68.7649 36.8965C68.7649 35.7142 69.3613 34.8158 70.146 34.8158C70.6758 34.8158 70.7829 34.6201 71.1484 32.9806C71.5451 31.2024 72.4364 29.0449 73.1221 28.2033C74.3029 26.7536 76.7872 26.284 78.3229 27.2206C79.8103 28.1273 80.1948 29.0703 80.0779 31.5251C80.0214 32.7085 79.7789 34.8728 79.5387 36.3346C78.9464 39.9407 79.0985 45.3372 79.8923 48.8932L80.4639 51.4533L83.1575 49.7994C89.388 45.9738 96.3187 43.4339 103.57 42.3189C107.856 41.66 108.387 41.6187 112.495 41.6238C118.27 41.6309 124.102 42.555 127.767 44.0445L129.34 44.6839L129.175 41.8382C128.951 37.9999 128.29 34.8662 126.717 30.1861C125.295 25.9527 125.249 25.3381 126.232 23.7267ZM128.256 118.511L112.942 112.021C107.03 112.689 103.078 113.035 97.8823 111.693C96.8268 111.42 95.6141 111.107 94.1413 110.759L93.8249 127.877C93.8249 127.877 93.0765 129.268 100.791 128.889V116.496L123.027 125.472L123.092 158.745L100.791 147.899L100.791 147.899L100.738 147.874L100.737 147.907C98.2313 148.279 96.2179 148.274 93.8249 147.52V152.77L100.558 156.354L123.092 167.318L127.893 169.896L133.279 167.318L169.764 148.599V105.16L150.349 95.0734L144.963 100.538L155.84 105.16L128.256 118.511ZM57.4376 105.439C58.4091 102.655 59.6398 99.8963 60.2514 99.1326C60.4866 98.8389 60.5514 98.8845 60.6121 99.3857C60.7893 100.854 61.6968 101.642 63.208 101.642C63.8881 101.642 64.968 100.905 64.968 100.44C64.968 100.335 65.6942 100.25 66.5817 100.25C68.0714 100.25 68.2258 100.303 68.5898 100.937C69.3894 102.33 71.3347 102.139 72.1713 100.586L72.6667 99.6654L74.8292 101.867C77.8984 104.992 80.899 106.88 85.7247 108.722L88.1295 109.64L88.1659 116.074L88.1683 116.495V116.496C88.191 120.433 88.1999 121.973 87.9198 122.028C87.7398 122.063 87.4403 121.484 86.9484 120.533L86.8663 120.374C85.368 117.481 82.9793 116.564 81.3782 118.268C80.9038 118.773 80.7887 119.177 80.7887 120.334C80.7887 121.572 80.9451 122.045 81.9194 123.748C84.1718 127.684 88.2089 131.256 92.3598 132.984C92.8575 133.191 93.3409 133.373 93.8249 133.531C96.2918 134.339 98.7755 134.537 103.264 134.382L103.95 134.358L107.874 134.222L109.178 134.883C111.434 136.028 112.054 137.381 111.065 139.002C110.426 140.05 108.786 140.97 106.071 141.805C104.008 142.438 103.481 142.495 99.6469 142.493C94.6623 142.49 92.8569 142.091 88.8557 140.109C84.4388 137.922 81.3099 135.444 78.0817 131.58C75.5663 128.568 74.2143 128.02 72.9641 129.506C72.2594 130.344 72.162 131.1 72.57 132.569C72.893 133.732 74.5082 136.17 76.1328 137.948C76.5607 138.416 78.3388 139.699 80.4003 141.186C83.8648 143.686 88.1295 146.608 88.1295 146.608V155.974C88.1295 155.974 91.9319 157.999 93.8249 158.745L122.561 172.681L120.893 173.095C110.242 176.337 98.7331 176.048 87.4857 172.254C74.732 167.952 64.0782 158.166 58.7739 145.881C55.3293 137.903 54.1327 131.465 54.4142 122.423C54.6273 115.577 55.3845 111.324 57.4376 105.439Z" fill="#28338B"/>
</svg>
