<svg width="217" height="217" viewBox="0 0 217 217" fill="none" xmlns="http://www.w3.org/2000/svg">
<rect x="0.750732" y="0.452759" width="215.921" height="215.921" rx="107.96" fill="#28338B"/>
<path d="M60.6233 88.738C60.8608 88.9664 62.1305 89.1218 63.1721 89.0501C63.4672 89.0299 64.2808 88.5578 64.9805 88.0009C65.6799 87.444 66.3013 86.9884 66.3618 86.9884C66.422 86.9884 66.4208 87.3347 66.3588 87.7577C66.2249 88.6689 66.8686 89.5197 67.6915 89.5197C69.7446 89.5197 72.6027 87.7323 73.1366 86.1148C73.5353 84.9069 73.087 83.4076 72.0026 82.3234C71.3001 81.621 70.7688 81.3795 69.1652 81.0337C64.5522 80.0389 60.2087 78.2131 57.1633 75.9886C56.0586 75.1816 55.9875 75.0571 55.8781 73.736C55.7417 72.0911 55.3714 71.5474 54.388 71.5474C53.6901 71.5474 53.4612 71.7036 52.8183 72.6179C52.5368 73.0184 52.3933 72.966 51.1383 72.0038C48.6052 70.0623 47.0707 69.2692 45.8473 69.2692C43.7577 69.2692 42.2503 70.7832 42.2643 72.8682C42.2779 74.9148 43.899 76.8004 48.0174 79.5605C49.8083 80.7606 50.1057 81.0616 50.1057 81.6734C50.1057 82.1594 50.3541 82.5961 50.8846 83.0423C51.8263 83.8349 52.7087 83.8792 53.4182 83.1697C53.8809 82.7069 54.0369 82.6793 54.6821 82.9467C55.3623 83.2284 55.406 83.3253 55.261 84.2326C55.077 85.383 55.3982 85.8858 56.6512 86.4095C57.1187 86.6052 57.4605 86.7935 57.4106 86.8284C58.0181 87.3993 59.8055 88.3394 60.6233 88.738Z" fill="#FFCD9C"/>
<path fill-rule="evenodd" clip-rule="evenodd" d="M54.251 43.8762C54.7626 42.5366 55.5516 41.7519 56.8529 41.2879C56.9295 41.2606 57.0006 41.2351 57.0668 41.2113C57.5338 41.0434 57.7588 40.9625 57.9857 40.9568C58.1966 40.9516 58.4092 41.0113 58.8193 41.1265L58.8199 41.1266C58.8821 41.1441 58.9488 41.1629 59.0208 41.1829C60.1555 41.498 61.3741 42.4786 61.9037 43.5028C62.1176 43.9164 62.6256 46.0622 63.0329 48.2713C63.8599 52.7562 64.1229 53.6419 65.6821 57.1906C67.0637 60.3347 68.6782 62.9599 71.0278 65.8829C73.2981 68.7073 73.6434 69.3475 73.6454 70.7374C73.6494 73.5656 71.0214 75.3358 66.8124 75.3401C65.083 75.3416 63.2685 74.9629 63.2685 74.6004C63.2685 74.4827 63.8381 73.9519 64.5342 73.4211C65.2303 72.8903 65.7999 72.3721 65.7999 72.2698C65.7999 71.856 65.3123 71.8299 64.5628 72.204C63.1445 72.9115 61.2802 72.0496 60.5742 70.36C60.1452 69.3335 60.4423 68.5936 61.3774 68.3587C61.4154 68.3492 61.4514 68.3403 61.4855 68.3319C61.7415 68.2689 61.8878 68.2329 61.9383 68.143C62.0058 68.023 61.9023 67.8069 61.6604 67.302C61.6364 67.2518 61.611 67.1988 61.5842 67.1427C61.1741 66.2828 61.1405 66.2676 59.9467 66.4091C58.41 66.5911 57.7042 66.1646 56.9438 64.5937C56.4176 63.5067 56.4084 63.3974 56.7942 62.8086C57.0203 62.4638 57.4427 62.1816 57.7328 62.1816C58.1672 62.1816 58.233 62.0712 58.1047 61.5599C57.6893 59.9044 57.488 59.6503 56.593 59.6503C55.9239 59.6503 55.5541 59.4533 54.9656 58.783C54.5469 58.3061 54.1287 57.5726 54.0366 57.1526C53.8776 56.4287 54.2176 55.3516 54.6077 55.3432C54.7072 55.341 54.9342 55.2471 55.1119 55.1342C55.3671 54.9722 55.2987 54.4262 54.7871 52.5434C53.9121 49.324 53.6696 45.3993 54.251 43.8762ZM136.526 71.0918C137.007 70.1679 137.891 69.3753 138.956 68.9131C140.16 68.3914 141.323 68.4167 142.445 68.9893C143.605 69.5813 144.138 70.1562 144.64 71.3586C145.737 73.9835 144.145 76.7806 141.16 77.4732C139.62 77.8306 137.359 76.6561 136.541 75.0738C136.07 74.1638 136.062 71.9831 136.526 71.0918ZM97.0701 86.5097C95.4949 84.2875 96.3487 80.9935 98.7868 79.8863C101.755 78.5391 104.793 80.1432 105.444 83.4018C105.763 84.998 104.531 87.096 102.735 88.0121C100.709 89.0456 98.4413 88.4442 97.0701 86.5097ZM125.076 89.782C129.827 88.5295 134.621 86.2903 137.362 84.0432C138.273 83.2962 139.113 82.6852 139.228 82.6852C139.828 82.6852 140.727 83.3413 140.987 83.9688C141.459 85.1081 140.891 86.3351 139.052 88.147C135.321 91.8229 128.424 94.8101 121.212 95.8735C118.432 96.2836 112.281 96.2803 109.718 95.8677C106.664 95.3761 105.795 94.7689 105.795 93.1286C105.795 91.525 105.924 91.4878 111.763 91.4164C117.271 91.3491 120.753 90.9215 125.076 89.782Z" fill="#FFCD9C"/>
<path d="M162.937 111.974L133.857 125.753V159.026L163.401 143.978L162.937 111.974Z" fill="#FFCD9C"/>
<path fill-rule="evenodd" clip-rule="evenodd" d="M133.857 125.753V159.026L163.401 143.978L162.937 111.974L133.857 125.753Z" fill="#FFCD9C"/>
<path fill-rule="evenodd" clip-rule="evenodd" d="M126.81 24.0074C127.105 23.5239 127.774 22.9645 128.392 22.6841C129.775 22.0558 130.443 22.0651 131.819 22.7314C133.083 23.3432 134.236 24.7896 135.066 26.8068C135.496 27.8515 135.76 28.161 136.353 28.3144C137.753 28.6774 138.149 30.7703 137.029 31.8904C136.394 32.5253 136.381 32.5984 136.674 33.8193C136.942 34.9363 137.034 35.0586 137.443 34.8394C138.114 34.4807 138.385 34.5268 138.955 35.0966C139.295 35.4368 139.461 35.9403 139.461 36.6321C139.461 37.9284 139.14 38.5316 138.188 39.0239C137.523 39.3674 137.436 39.5451 137.436 40.5483V41.684L138.397 41.5301C139.581 41.3411 140.078 41.8233 140.041 43.1264C140.008 44.2743 139.264 45.2686 138.24 45.5342C137.496 45.7271 137.436 45.8227 137.436 46.8143C137.436 47.6822 137.544 47.9344 138.005 48.1389C138.583 48.3951 138.659 48.7239 138.356 49.6724C138.219 50.1019 138.475 50.43 139.74 51.4443C140.594 52.129 141.353 52.6892 141.428 52.6892C141.691 52.6892 142.517 49.8746 143.138 46.858C143.55 44.8601 143.841 42.3278 143.983 39.5086C144.252 34.1775 144.57 33.4079 146.906 32.4316C148.247 31.8714 149.542 32.136 150.822 33.2315C152.788 34.9143 153.088 37.9625 151.973 44.9054C151.829 45.7959 151.87 45.9812 152.206 45.9812C152.429 45.9812 152.802 46.271 153.034 46.6254C153.386 47.1618 153.409 47.4286 153.173 48.2166C152.812 49.4225 152.011 50.2844 151.253 50.2844C150.498 50.2844 150.106 50.7621 149.921 51.9072C149.785 52.7411 149.824 52.8157 150.388 52.8157C151.604 52.8157 151.966 53.9275 151.219 55.3706C150.755 56.2677 149.77 56.7036 148.672 56.4975C147.967 56.3654 147.845 56.4342 147.558 57.126C147.251 57.8675 147.279 57.9421 148.158 58.7476C149.139 59.6462 149.23 59.9092 148.823 60.6696C148.621 61.047 148.734 61.4227 149.353 62.4276L150.139 63.7059L151.121 62.9281C152.329 61.9717 154.69 59.3966 155.715 57.9183C156.517 56.7618 156.581 56.392 156.285 54.6535C156.16 53.9237 156.203 53.4577 156.419 53.198C156.829 52.7031 158.047 52.7066 158.544 53.2038C158.893 53.5521 159.007 53.4556 159.671 52.2545C161.89 48.2411 162.703 47.4577 164.653 47.4577C167.741 47.4577 169.001 50.7094 167.303 54.2986C166.884 55.1835 165.912 56.8218 165.143 57.9389C163.812 59.8702 163.765 59.9933 164.172 60.4436C164.852 61.1949 164.269 62.765 163 63.6054C162.127 64.1831 161.91 64.2284 161.201 63.9813C160.11 63.6009 160.089 63.6067 159.741 64.3686C159.475 64.9521 159.509 65.1136 160.001 65.6381C160.738 66.4225 160.434 67.3953 159.231 68.0975L158.375 68.5979L157.267 68.0099C156.657 67.6867 156.085 67.4961 155.994 67.5864C155.904 67.6768 155.955 68.1608 156.109 68.662C156.277 69.2098 156.303 69.7995 156.173 70.141C155.94 70.7538 154.617 71.4333 154.067 71.2224C153.809 71.1232 153.847 71.5439 154.234 73.0287C154.511 74.0937 154.772 75.0095 154.814 75.0642C154.948 75.2401 158.023 74.0321 159.458 73.2391C162.168 71.7421 162.247 71.6568 162.188 70.2926C162.157 69.572 162.274 68.9042 162.473 68.664C162.903 68.1453 164.358 68.1355 164.784 68.6483C164.963 68.8637 165.176 68.9493 165.258 68.8382C166.055 67.7603 168.661 65.7208 169.546 65.4824C171.638 64.9189 173.634 66.5124 173.634 68.746C173.634 70.5415 172.533 72.039 168.824 75.2897C166.263 77.5347 165.782 77.764 164.752 77.2317C163.708 76.6915 163.467 76.9394 163.656 78.363C163.812 79.537 163.791 79.5881 162.937 80.1161C161.787 80.8264 161.097 80.8031 160.321 80.0273C159.329 79.0355 158.548 79.217 158.975 80.3399C159.3 81.1947 159.079 81.7868 158.302 82.1404C157.427 82.5394 156.669 82.5062 156.161 82.0465C155.767 81.6896 155.725 81.7969 155.592 83.502C155.514 84.5145 155.366 85.5552 155.264 85.8144C155.264 88.3177 154.577 90.5921 154.234 91.4164L157.891 93.2645L166.078 97.404C172.932 100.87 174.357 101.683 174.835 102.404L175.405 103.264V127.303V152.331L128.472 177.456C118.061 181.903 106.929 183.131 95.158 181.132C83.4046 179.136 71.6983 172.912 63.5956 164.352C55.6194 155.926 50.4654 144.936 48.8001 132.805C48.6062 131.393 48.47 127.944 48.47 124.452C48.47 120.959 48.6062 117.51 48.8001 116.098C49.5327 110.761 51.2593 104.433 53.1625 100.108L53.2425 99.9259C54.0035 98.1971 54.1942 97.7639 54.0787 97.6548C54.0401 97.6183 53.9673 97.6181 53.8701 97.6178C53.8601 97.6177 53.8499 97.6177 53.8394 97.6176C53.2633 97.6133 47.9693 94.9306 47.1223 94.2135C46.0015 93.2648 45.5494 92.3097 45.5494 90.8912C45.5494 89.4017 46.2592 88.2024 47.4841 87.621C48.7135 87.0375 49.8906 87.2537 52.4242 88.5274L54.4558 89.5488C55.0964 89.8709 56.1863 90.362 56.6512 90.5674C57.1555 90.7187 57.8088 90.9865 58.5735 91.2999C60.3664 92.0347 62.7715 93.0205 65.3035 93.345C67.2062 93.589 68.1297 93.5809 70.0849 93.3027C74.3233 92.6995 74.9589 92.9281 78.2033 96.2241C81.8853 99.9649 85.2821 102.104 90.049 103.683C97.5397 106.165 109.082 106.885 118.198 105.441C127.073 104.033 133.969 101.864 138.814 98.9547C147.967 93.4577 152.157 85.2879 150.75 75.6869C149.992 70.5197 148.213 66.5073 144.568 61.7444C142.735 59.3483 139.404 56.0981 137.183 54.5368C133.413 51.8875 128.179 49.8733 122.039 48.7089C119.556 48.2381 118.215 48.1495 113.642 48.1536C107.437 48.1591 104.324 48.5411 99.3774 49.9032C90.8109 52.2624 84.4505 55.751 78.9039 61.1323L76.6933 63.2769L75.695 62.9779C74.5716 62.6413 73.3938 61.4121 73.3938 60.5762C73.3938 60.2714 73.1639 59.6252 72.8827 59.14C71.4938 56.7425 71.4183 55.9776 72.5435 55.6951C72.9586 55.5911 73.1166 55.408 73.0338 55.1278C72.9665 54.9003 72.8412 54.4186 72.7554 54.0573C72.627 53.5172 72.3924 53.3595 71.4383 53.1714C70.1097 52.9091 69.4115 52.1639 69.1845 50.7656C68.9987 49.6202 69.5482 49.0188 70.781 49.0188C71.4933 49.0188 71.6446 48.937 71.5224 48.6183C71.4378 48.3981 71.3687 47.8944 71.3687 47.499C71.3687 46.9008 71.2189 46.7305 70.4785 46.4859C69.4204 46.1369 68.8374 45.1636 68.8374 43.7466C68.8374 42.6179 69.143 42.266 70.2296 42.1432C70.9085 42.0668 70.9974 41.9554 71.0685 41.0937C71.1351 40.286 71.0017 39.9681 70.2458 39.1312C69.5475 38.3582 69.3437 37.917 69.3437 37.1773C69.3437 35.9949 69.9401 35.0966 70.7248 35.0966C71.2546 35.0966 71.3616 34.9009 71.7272 33.2614C72.1238 31.4831 73.0151 29.3257 73.7008 28.484C74.8817 27.0344 77.3659 26.5648 78.9016 27.5014C80.389 28.4081 80.7735 29.351 80.6566 31.8059C80.6002 32.9893 80.3577 35.1535 80.1174 36.6154C79.5251 40.2215 79.6772 45.618 80.4711 49.1739L81.0426 51.7341L83.7362 50.0801C89.9668 46.2546 96.8975 43.7147 104.149 42.5996C108.435 41.9407 108.965 41.8995 113.074 41.9045C118.849 41.9116 124.68 42.8358 128.346 44.3252L129.919 44.9646L129.753 42.1189C129.53 38.2807 128.869 35.1469 127.296 30.4668C125.874 26.2335 125.828 25.6189 126.81 24.0074ZM128.835 118.791L113.52 112.301C107.609 112.969 103.657 113.316 98.461 111.974C97.4055 111.701 96.1928 111.388 94.72 111.04L94.4036 128.157C94.4036 128.157 93.6552 129.549 101.37 129.169V116.776L123.606 125.753L123.67 159.026L101.369 148.18L101.37 148.18L101.317 148.155L101.316 148.188C98.81 148.56 96.7967 148.554 94.4036 147.8V153.05L101.137 156.635L123.67 167.599L128.472 170.177L133.857 167.599L170.343 148.88V105.441L150.927 95.3541L145.542 100.819L156.419 105.441L128.835 118.791ZM58.0163 105.72C58.9878 102.936 60.2186 100.177 60.8301 99.4133C61.0653 99.1197 61.1301 99.1653 61.1908 99.6665C61.368 101.134 62.2755 101.923 63.7867 101.923C64.4669 101.923 65.5467 101.185 65.5467 100.721C65.5467 100.616 66.273 100.531 67.1604 100.531C68.6501 100.531 68.8045 100.584 69.1685 101.218C69.9682 102.611 71.9135 102.42 72.7501 100.866L73.2454 99.9462L75.4079 102.148C78.4771 105.273 81.4778 107.16 86.3034 109.003L88.7082 109.921L88.7446 116.355L88.7471 116.776V116.776C88.7698 120.713 88.7787 122.254 88.4986 122.308C88.3185 122.343 88.019 121.764 87.5271 120.813L87.4451 120.655C85.9468 117.762 83.558 116.845 81.9569 118.549C81.4826 119.054 81.3674 119.457 81.3674 120.615C81.3674 121.853 81.5238 122.326 82.4981 124.028C84.7505 127.965 88.7877 131.537 92.9385 133.265C93.4362 133.472 93.9196 133.654 94.4036 133.812C96.8705 134.619 99.3542 134.818 103.843 134.662L104.529 134.639L108.452 134.503L109.756 135.164C112.012 136.309 112.632 137.662 111.644 139.282C111.005 140.331 109.365 141.251 106.65 142.085C104.587 142.719 104.06 142.776 100.226 142.773C95.241 142.771 93.4357 142.372 89.4344 140.39C85.0175 138.202 81.8886 135.725 78.6604 131.86C76.1451 128.849 74.7931 128.301 73.5429 129.787C72.8382 130.625 72.7407 131.381 73.1487 132.85C73.4717 134.013 75.087 136.451 76.7116 138.229C77.1394 138.697 78.9176 139.98 80.979 141.467C84.4435 143.967 88.7082 146.889 88.7082 146.889V156.255C88.7082 156.255 92.5106 158.28 94.4036 159.026L123.139 172.961L121.471 173.376C110.821 176.618 99.3118 176.328 88.0645 172.534C75.3107 168.232 64.657 158.447 59.3526 146.162C55.908 138.184 54.7115 131.746 54.9929 122.704C55.2061 115.858 55.9632 111.605 58.0163 105.72Z" fill="#FFCD9C"/>
</svg>
